<svg width="120" height="120" viewBox="0 0 120 120" fill="none" xmlns="http://www.w3.org/2000/svg">
<rect width="120" height="120" rx="60" fill="#C9E0FF"/>
<path d="M72.946 24.1495C72.946 23.4452 72.6662 22.7697 72.1682 22.2717C71.6701 21.7737 70.9947 21.4939 70.2904 21.4939H51.3692C50.6649 21.4939 49.9895 21.7737 49.4914 22.2717C48.9934 22.7697 48.7136 23.4452 48.7136 24.1495V44.7603C48.7136 45.4646 48.9934 46.14 49.4914 46.6381C49.9895 47.1361 50.6649 47.4159 51.3692 47.4159H70.2904C70.9947 47.4159 71.6701 47.1361 72.1682 46.6381C72.6662 46.14 72.946 45.4646 72.946 44.7603V24.1495ZM56.5144 33.859C55.6701 33.1477 55.0648 32.194 54.7805 31.1272C54.4963 30.0603 54.547 28.9319 54.9256 27.8948C55.3042 26.8577 55.9925 25.962 56.8972 25.3292C57.8019 24.6963 58.8793 24.3569 59.9833 24.3569C61.0874 24.3569 62.1648 24.6963 63.0695 25.3292C63.9742 25.962 64.6625 26.8577 65.0411 27.8948C65.4197 28.9319 65.4703 30.0603 65.1861 31.1272C64.9019 32.194 64.2966 33.1477 63.4522 33.859L63.2232 34.0516L63.5086 34.1412C65.0751 34.6349 66.4429 35.6161 67.4127 36.9417C68.3824 38.2673 68.9033 39.868 68.8995 41.5105V43.8839C68.8995 44.06 68.8296 44.2289 68.7051 44.3534C68.5805 44.4779 68.4117 44.5478 68.2356 44.5478H51.7443C51.5682 44.5478 51.3994 44.4779 51.2749 44.3534C51.1504 44.2289 51.0804 44.06 51.0804 43.8839V41.5105C51.0766 39.868 51.5975 38.2673 52.5673 36.9417C53.537 35.6161 54.9048 34.6349 56.4713 34.1412L56.7568 34.0516L56.5144 33.859Z" fill="#0A71FF"/>
<path d="M59.5587 33.776H60.4384C61.47 33.6634 62.4192 33.1599 63.0908 32.3688C63.7625 31.5777 64.1054 30.5594 64.049 29.5232C63.9927 28.487 63.5414 27.5118 62.7879 26.7983C62.0345 26.0847 61.0363 25.687 59.9986 25.687C58.9609 25.687 57.9626 26.0847 57.2092 26.7983C56.4558 27.5118 56.0045 28.487 55.9481 29.5232C55.8918 30.5594 56.2347 31.5777 56.9063 32.3688C57.5779 33.1599 58.5272 33.6634 59.5587 33.776Z" fill="#EFFAFE"/>
<path d="M52.4082 41.5104V43.2199H67.5883V41.5104C67.5865 39.8124 66.9114 38.1843 65.711 36.9833C64.5107 35.7823 62.883 35.1064 61.185 35.1038H58.8115C57.1135 35.1064 55.4858 35.7823 54.2854 36.9833C53.0851 38.1843 52.41 39.8124 52.4082 41.5104Z" fill="#EFFAFE"/>
<path d="M77.9551 92.6008V94.3104H93.1352V92.6008C93.1325 90.9034 92.457 89.2762 91.2568 88.0759C90.0565 86.8756 88.4293 86.2001 86.7318 86.1975H84.3584C82.6609 86.2001 81.0338 86.8756 79.8335 88.0759C78.6332 89.2762 77.9577 90.9034 77.9551 92.6008Z" fill="#EFFAFE"/>
<path d="M95.8508 72.5842H76.8997C76.1954 72.5842 75.52 72.864 75.0219 73.362C74.5239 73.8601 74.2441 74.5355 74.2441 75.2398V95.8506C74.2441 96.5549 74.5239 97.2304 75.0219 97.7284C75.52 98.2264 76.1954 98.5062 76.8997 98.5062H95.8508C96.5551 98.5062 97.2305 98.2264 97.7286 97.7284C98.2266 97.2304 98.5064 96.5549 98.5064 95.8506V75.2398C98.5064 74.5355 98.2266 73.8601 97.7286 73.362C97.2305 72.864 96.5551 72.5842 95.8508 72.5842ZM80.1595 80.8365C80.1595 79.4085 80.7268 78.039 81.7365 77.0293C82.7462 76.0195 84.1157 75.4523 85.5437 75.4523C86.9717 75.4523 88.3412 76.0195 89.3509 77.0293C90.3607 78.039 90.9279 79.4085 90.9279 80.8365C90.9279 82.4763 90.264 83.8904 88.7836 85.1519C92.5678 86.3568 94.4632 89.4174 94.4632 92.6108V94.9842C94.4632 95.1603 94.3933 95.3292 94.2688 95.4537C94.1443 95.5782 93.9754 95.6481 93.7993 95.6481H77.2914C77.1154 95.6481 76.9465 95.5782 76.822 95.4537C76.6975 95.3292 76.6275 95.1603 76.6275 94.9842V92.6108C76.6275 89.3975 78.5363 86.3502 82.3072 85.1519C80.8267 83.9004 80.1595 82.4763 80.1595 80.8365Z" fill="#FFDD00"/>
<path d="M85.1056 84.8665H85.9853C87.0169 84.754 87.9661 84.2504 88.6377 83.4594C89.3093 82.6683 89.6522 81.6499 89.5959 80.6138C89.5396 79.5776 89.0882 78.6024 88.3348 77.8888C87.5814 77.1753 86.5832 76.7776 85.5454 76.7776C84.5077 76.7776 83.5095 77.1753 82.7561 77.8888C82.0026 78.6024 81.5513 79.5776 81.495 80.6138C81.4387 81.6499 81.7816 82.6683 82.4532 83.4594C83.1248 84.2504 84.074 84.754 85.1056 84.8665Z" fill="#EFFAFE"/>
<path d="M26.8645 92.6008V94.3104H42.0446V92.6008C42.0419 90.9034 41.3665 89.2762 40.1662 88.0759C38.9659 86.8756 37.3387 86.2001 35.6413 86.1975H33.2678C31.5704 86.2001 29.9432 86.8756 28.7429 88.0759C27.5426 89.2762 26.8671 90.9034 26.8645 92.6008Z" fill="#EFFAFE"/>
<path d="M44.7602 72.5842H25.8092C25.1049 72.5842 24.4294 72.864 23.9314 73.362C23.4333 73.8601 23.1536 74.5355 23.1536 75.2398V95.8506C23.1536 96.5549 23.4333 97.2304 23.9314 97.7284C24.4294 98.2264 25.1049 98.5062 25.8092 98.5062H44.7602C45.4645 98.5062 46.14 98.2264 46.638 97.7284C47.136 97.2304 47.4158 96.5549 47.4158 95.8506V75.2398C47.4158 74.5355 47.136 73.8601 46.638 73.362C46.14 72.864 45.4645 72.5842 44.7602 72.5842ZM30.9843 84.9494C30.1399 84.2381 29.5346 83.2844 29.2504 82.2175C28.9662 81.1507 29.0168 80.0222 29.3954 78.9851C29.774 77.948 30.4623 77.0523 31.367 76.4195C32.2717 75.7867 33.3491 75.4473 34.4531 75.4473C35.5572 75.4473 36.6346 75.7867 37.5393 76.4195C38.444 77.0523 39.1323 77.948 39.5109 78.9851C39.8895 80.0222 39.9401 81.1507 39.6559 82.2175C39.3717 83.2844 38.7664 84.2381 37.922 84.9494L37.693 85.1419L37.9785 85.2315C39.5449 85.7252 40.9127 86.7064 41.8825 88.032C42.8522 89.3577 43.3731 90.9584 43.3693 92.6008V94.9743C43.3693 95.1503 43.2994 95.3192 43.1749 95.4437C43.0504 95.5682 42.8815 95.6382 42.7054 95.6382H26.2009C26.0248 95.6382 25.8559 95.5682 25.7314 95.4437C25.6069 95.3192 25.537 95.1503 25.537 94.9743V92.6008C25.5324 90.9578 26.053 89.3563 27.0228 88.0301C27.9926 86.7038 29.3608 85.7221 30.9278 85.2282L31.2133 85.1386L30.9843 84.9494Z" fill="#A90466"/>
<path d="M34.015 84.8665H34.8947C35.9263 84.754 36.8755 84.2504 37.5471 83.4594C38.2188 82.6683 38.5617 81.6499 38.5053 80.6138C38.449 79.5776 37.9977 78.6024 37.2442 77.8888C36.4908 77.1753 35.4926 76.7776 34.4549 76.7776C33.4172 76.7776 32.4189 77.1753 31.6655 77.8888C30.9121 78.6024 30.4608 79.5776 30.4044 80.6138C30.3481 81.6499 30.691 82.6683 31.3626 83.4594C32.0342 84.2504 32.9835 84.754 34.015 84.8665Z" fill="#EFFAFE"/>
<path d="M35.6414 86.1975H33.9817C35.6791 86.2001 37.3063 86.8756 38.5066 88.0759C39.7069 89.2762 40.3824 90.9034 40.385 92.6008V94.3104H42.0448V92.6008C42.0421 90.9034 41.3666 89.2762 40.1664 88.0759C38.9661 86.8756 37.3389 86.2001 35.6414 86.1975Z" fill="#E4EBED"/>
<path d="M34.44 76.78C34.1611 76.7802 33.883 76.8091 33.6101 76.8663C34.5216 77.0574 35.3396 77.5563 35.9267 78.2793C36.5138 79.0022 36.8342 79.9052 36.8342 80.8365C36.8342 81.7678 36.5138 82.6707 35.9267 83.3936C35.3396 84.1166 34.5216 84.6155 33.6101 84.8066C33.7362 84.8331 33.869 84.8531 33.9985 84.8697H34.8782C35.9109 84.7586 36.8616 84.2557 37.5346 83.4645C38.2075 82.6734 38.5513 81.6542 38.4951 80.6171C38.4389 79.5799 37.9871 78.6039 37.2326 77.89C36.4782 77.1761 35.4786 76.7788 34.44 76.78Z" fill="#E4EBED"/>
<path d="M86.732 86.1975H85.0723C86.7697 86.2001 88.3969 86.8756 89.5972 88.0759C90.7975 89.2762 91.473 90.9034 91.4756 92.6008V94.3104H93.1353V92.6008C93.1327 90.9034 92.4572 89.2762 91.2569 88.0759C90.0567 86.8756 88.4295 86.2001 86.732 86.1975Z" fill="#E4EBED"/>
<path d="M85.5603 76.78C85.2815 76.7802 85.0034 76.8091 84.7305 76.8663C85.642 77.0574 86.4599 77.5563 87.047 78.2793C87.6341 79.0022 87.9546 79.9052 87.9546 80.8365C87.9546 81.7678 87.6341 82.6707 87.047 83.3936C86.4599 84.1166 85.642 84.6155 84.7305 84.8066C84.8566 84.8331 84.9894 84.8531 85.1188 84.8697H85.9985C87.0312 84.7586 87.982 84.2557 88.6549 83.4645C89.3279 82.6734 89.6716 81.6542 89.6155 80.6171C89.5593 79.5799 89.1074 78.6039 88.353 77.89C87.5985 77.1761 86.599 76.7788 85.5603 76.78Z" fill="#E4EBED"/>
<path d="M61.1851 35.1038H59.5254C61.224 35.1055 62.8525 35.7811 64.0536 36.9822C65.2547 38.1833 65.9303 39.8118 65.932 41.5104V43.2199H67.5918V41.5104C67.59 39.8118 66.9145 38.1833 65.7134 36.9822C64.5123 35.7811 62.8837 35.1055 61.1851 35.1038Z" fill="#E4EBED"/>
<path d="M59.9998 25.6897C59.7209 25.6899 59.4428 25.7188 59.1699 25.776C60.0814 25.9671 60.8994 26.466 61.4865 27.1889C62.0736 27.9119 62.394 28.8148 62.394 29.7461C62.394 30.6774 62.0736 31.5804 61.4865 32.3033C60.8994 33.0263 60.0814 33.5252 59.1699 33.7163C59.2961 33.7428 59.4288 33.7627 59.5583 33.7793H60.438C61.4707 33.6683 62.4215 33.1654 63.0944 32.3742C63.7673 31.583 64.1111 30.5639 64.0549 29.5267C63.9987 28.4896 63.5469 27.5135 62.7924 26.7997C62.038 26.0858 61.0384 25.6885 59.9998 25.6897Z" fill="#E4EBED"/>
<path d="M70.2906 21.4939H68.6309C69.3352 21.4939 70.0106 21.7737 70.5087 22.2717C71.0067 22.7697 71.2865 23.4452 71.2865 24.1495V44.7603C71.2865 45.4646 71.0067 46.14 70.5087 46.6381C70.0106 47.1361 69.3352 47.4159 68.6309 47.4159H70.2906C70.9949 47.4159 71.6704 47.1361 72.1684 46.6381C72.6664 46.14 72.9462 45.4646 72.9462 44.7603V24.1495C72.9462 23.4452 72.6664 22.7697 72.1684 22.2717C71.6704 21.7737 70.9949 21.4939 70.2906 21.4939Z" fill="#A90466"/>
<path d="M44.7601 72.5842H43.1003C43.8047 72.5842 44.4801 72.864 44.9781 73.362C45.4762 73.8601 45.7559 74.5355 45.7559 75.2398V95.8506C45.7559 96.5549 45.4762 97.2304 44.9781 97.7284C44.4801 98.2264 43.8047 98.5062 43.1003 98.5062H44.7601C45.4644 98.5062 46.1399 98.2264 46.6379 97.7284C47.1359 97.2304 47.4157 96.5549 47.4157 95.8506V75.2398C47.4157 74.5355 47.1359 73.8601 46.6379 73.362C46.1399 72.864 45.4644 72.5842 44.7601 72.5842Z" fill="#A90466"/>
<path d="M95.8504 72.5842H94.1907C94.895 72.5842 95.5704 72.864 96.0685 73.362C96.5665 73.8601 96.8463 74.5355 96.8463 75.2398V95.8506C96.8463 96.5549 96.5665 97.2304 96.0685 97.7284C95.5704 98.2264 94.895 98.5062 94.1907 98.5062H95.8504C96.5547 98.5062 97.2302 98.2264 97.7282 97.7284C98.2262 97.2304 98.506 96.5549 98.506 95.8506V75.2398C98.506 74.5355 98.2262 73.8601 97.7282 73.362C97.2302 72.864 96.5547 72.5842 95.8504 72.5842Z" fill="#D9990E"/>
<path d="M63.5787 33.9851C64.4489 33.2518 65.0726 32.2686 65.3653 31.1689C65.6581 30.0693 65.6057 28.9062 65.2154 27.8372C64.825 26.7683 64.1155 25.8452 63.1829 25.1929C62.2504 24.5407 61.1399 24.1909 60.0019 24.1909C58.8639 24.1909 57.7535 24.5407 56.8209 25.1929C55.8884 25.8452 55.1789 26.7683 54.7885 27.8372C54.3981 28.9062 54.3458 30.0693 54.6385 31.1689C54.9313 32.2686 55.555 33.2518 56.4252 33.9851C54.8278 34.4937 53.4333 35.4967 52.4429 36.8492C51.4525 38.2018 50.9174 39.834 50.9148 41.5104V43.8839C50.9148 44.104 51.0022 44.3151 51.1579 44.4707C51.3135 44.6263 51.5246 44.7137 51.7447 44.7137H68.2525C68.4726 44.7137 68.6837 44.6263 68.8394 44.4707C68.995 44.3151 69.0824 44.104 69.0824 43.8839V41.5104C69.0803 39.8349 68.5461 38.2032 67.557 36.8508C66.5679 35.4983 65.1748 34.4949 63.5787 33.9851ZM56.1098 29.7461C56.1098 28.9948 56.3274 28.2595 56.7362 27.6292C57.1451 26.9988 57.7277 26.5003 58.4137 26.1939C59.0997 25.8875 59.8598 25.7863 60.6021 25.9025C61.3444 26.0188 62.0371 26.3474 62.5967 26.8489C63.1562 27.3503 63.5586 28.003 63.7552 28.7282C63.9518 29.4533 63.9342 30.2199 63.7045 30.9353C63.4749 31.6507 63.043 32.2843 62.4611 32.7595C61.8791 33.2347 61.172 33.5313 60.4252 33.6133H59.5787C58.6259 33.5087 57.7451 33.0564 57.105 32.3428C56.465 31.6292 56.1106 30.7047 56.1098 29.7461ZM67.426 43.0706H52.5745V41.5104C52.5763 39.8567 53.234 38.2713 54.4034 37.1019C55.5727 35.9326 57.1582 35.2748 58.8119 35.2731H61.1853C62.8396 35.274 64.4259 35.9313 65.596 37.1007C66.7661 38.2702 67.4242 39.8562 67.426 41.5104V43.0706Z" fill="#263238"/>
<path d="M74.4565 44.7602V24.1494C74.4561 23.6032 74.3479 23.0625 74.1382 22.5582C73.9285 22.0539 73.6214 21.5959 73.2344 21.2104C72.8474 20.825 72.3882 20.5197 71.8831 20.312C71.3779 20.1043 70.8368 19.9983 70.2906 20H49.7097C49.1635 19.9983 48.6223 20.1043 48.1172 20.312C47.6121 20.5197 47.1528 20.825 46.7659 21.2104C46.3789 21.5959 46.0717 22.0539 45.862 22.5582C45.6523 23.0625 45.5441 23.6032 45.5437 24.1494V44.7602C45.5441 45.3063 45.6523 45.8471 45.862 46.3514C46.0717 46.8557 46.3789 47.3137 46.7659 47.6991C47.1528 48.0846 47.6121 48.3899 48.1172 48.5976C48.6223 48.8053 49.1635 48.9113 49.7097 48.9095H70.2906C70.8368 48.9113 71.3779 48.8053 71.8831 48.5976C72.3882 48.3899 72.8474 48.0846 73.2344 47.6991C73.6214 47.3137 73.9285 46.8557 74.1382 46.3514C74.3479 45.8471 74.4561 45.3063 74.4565 44.7602ZM47.2068 44.7602V24.1494C47.2072 23.8215 47.2723 23.4968 47.3984 23.1941C47.5245 22.8914 47.7091 22.6165 47.9416 22.3852C48.1741 22.154 48.45 21.9708 48.7534 21.8464C49.0568 21.7219 49.3817 21.6585 49.7097 21.6598H70.2906C70.9506 21.6606 71.5833 21.9232 72.05 22.3899C72.5167 22.8566 72.7793 23.4894 72.7802 24.1494V44.7602C72.7793 45.4202 72.5167 46.0529 72.05 46.5196C71.5833 46.9863 70.9506 47.2489 70.2906 47.2498H49.7097C49.3815 47.2515 49.0561 47.1885 48.7524 47.0642C48.4486 46.9399 48.1723 46.7568 47.9395 46.5255C47.7066 46.2942 47.5217 46.0192 47.3954 45.7162C47.2691 45.4133 47.2039 45.0884 47.2035 44.7602H47.2068Z" fill="#263238"/>
<path d="M26.201 95.8042H42.7088C42.9289 95.8042 43.14 95.7168 43.2957 95.5612C43.4513 95.4055 43.5387 95.1944 43.5387 94.9744V92.6009C43.5371 90.9244 43.0028 89.2917 42.0129 87.9385C41.0231 86.5853 39.629 85.5816 38.0317 85.0723C38.9018 84.3389 39.5255 83.3558 39.8183 82.2561C40.1111 81.1564 40.0587 79.9933 39.6683 78.9244C39.278 77.8554 38.5685 76.9323 37.6359 76.2801C36.7034 75.6279 35.5929 75.2781 34.4549 75.2781C33.3169 75.2781 32.2064 75.6279 31.2739 76.2801C30.3414 76.9323 29.6318 77.8554 29.2415 78.9244C28.8511 79.9933 28.7987 81.1564 29.0915 82.2561C29.3843 83.3558 30.008 84.3389 30.8781 85.0723C29.2808 85.5816 27.8867 86.5853 26.8969 87.9385C25.907 89.2917 25.3728 90.9244 25.3711 92.6009V94.9744C25.3711 95.1944 25.4585 95.4055 25.6142 95.5612C25.7698 95.7168 25.9809 95.8042 26.201 95.8042ZM30.5661 80.8366C30.5661 80.0853 30.7837 79.35 31.1925 78.7196C31.6014 78.0893 32.184 77.5908 32.87 77.2844C33.556 76.978 34.3161 76.8768 35.0584 76.993C35.8007 77.1092 36.4934 77.4379 37.053 77.9393C37.6125 78.4408 38.0149 79.0935 38.2115 79.8187C38.4081 80.5438 38.3905 81.3104 38.1608 82.0258C37.9312 82.7412 37.4993 83.3747 36.9174 83.85C36.3354 84.3252 35.6283 84.6218 34.8815 84.7038H34.0317C33.0794 84.5985 32.1995 84.1457 31.5601 83.4323C30.9207 82.7188 30.5668 81.7946 30.5661 80.8366ZM27.0308 92.6009C27.0326 90.9472 27.6903 89.3617 28.8597 88.1924C30.029 87.023 31.6145 86.3653 33.2682 86.3636H35.6416C37.2953 86.3653 38.8808 87.023 40.0501 88.1924C41.2195 89.3617 41.8772 90.9472 41.879 92.6009V94.1445H27.0308V92.6009Z" fill="#263238"/>
<path d="M24.1494 100H44.7601C45.8604 99.9992 46.9153 99.5618 47.6932 98.7838C48.4712 98.0058 48.9086 96.9509 48.9095 95.8507V75.24C48.9086 74.1397 48.4712 73.0848 47.6932 72.3069C46.9153 71.5289 45.8604 71.0915 44.7601 71.0906H24.1494C23.0492 71.0915 21.9943 71.5289 21.2163 72.3069C20.4383 73.0848 20.0009 74.1397 20 75.24V95.8507C20.0009 96.9509 20.4383 98.0058 21.2163 98.7838C21.9943 99.5618 23.0492 99.9992 24.1494 100ZM21.6597 75.24C21.6606 74.5799 21.9232 73.9472 22.3899 73.4805C22.8566 73.0138 23.4894 72.7512 24.1494 72.7503H44.7601C45.4202 72.7512 46.0529 73.0138 46.5196 73.4805C46.9863 73.9472 47.2489 74.5799 47.2498 75.24V95.8507C47.2489 96.5107 46.9863 97.1435 46.5196 97.6102C46.0529 98.0769 45.4202 98.3395 44.7601 98.3403H24.1494C23.4894 98.3395 22.8566 98.0769 22.3899 97.6102C21.9232 97.1435 21.6606 96.5107 21.6597 95.8507V75.24Z" fill="#263238"/>
<path d="M89.1222 85.0723C89.9924 84.3389 90.6161 83.3558 90.9089 82.2561C91.2016 81.1564 91.1493 79.9933 90.7589 78.9244C90.3686 77.8554 89.659 76.9323 88.7265 76.2801C87.794 75.6279 86.6835 75.2781 85.5455 75.2781C84.4075 75.2781 83.297 75.6279 82.3645 76.2801C81.4319 76.9323 80.7224 77.8554 80.332 78.9244C79.9417 79.9933 79.8893 81.1564 80.1821 82.2561C80.4748 83.3558 81.0985 84.3389 81.9687 85.0723C80.3714 85.5816 78.9773 86.5853 77.9874 87.9385C76.9976 89.2917 76.4633 90.9244 76.4617 92.6009V94.9744C76.4617 95.1944 76.5491 95.4055 76.7047 95.5612C76.8604 95.7168 77.0714 95.8042 77.2915 95.8042H93.7994C94.0195 95.8042 94.2306 95.7168 94.3862 95.5612C94.5419 95.4055 94.6293 95.1944 94.6293 94.9744V92.6009C94.6276 90.9244 94.0933 89.2917 93.1035 87.9385C92.1137 86.5853 90.7195 85.5816 89.1222 85.0723ZM81.6567 80.8366C81.6567 80.0853 81.8743 79.35 82.2831 78.7196C82.6919 78.0893 83.2746 77.5908 83.9606 77.2844C84.6466 76.978 85.4067 76.8768 86.149 76.993C86.8913 77.1092 87.584 77.4379 88.1436 77.9393C88.7031 78.4408 89.1055 79.0935 89.3021 79.8187C89.4987 80.5438 89.4811 81.3104 89.2514 82.0258C89.0218 82.7412 88.5899 83.3747 88.0079 83.85C87.426 84.3252 86.7189 84.6218 85.972 84.7038H85.1256C84.1721 84.6 83.2906 84.1479 82.6498 83.4343C82.0091 82.7207 81.6543 81.7957 81.6534 80.8366H81.6567ZM92.9729 94.1445H78.1214V92.6009C78.1232 90.9472 78.7809 89.3617 79.9502 88.1924C81.1196 87.023 82.7051 86.3653 84.3588 86.3636H86.7322C88.3859 86.3653 89.9714 87.023 91.1407 88.1924C92.3101 89.3617 92.9678 90.9472 92.9695 92.6009L92.9729 94.1445Z" fill="#263238"/>
<path d="M95.8507 71.0906H75.24C74.1397 71.0915 73.0848 71.5289 72.3069 72.3069C71.5289 73.0848 71.0915 74.1397 71.0906 75.24V95.8507C71.0915 96.9509 71.5289 98.0058 72.3069 98.7838C73.0848 99.5618 74.1397 99.9992 75.24 100H95.8507C96.9509 99.9992 98.0058 99.5618 98.7838 98.7838C99.5618 98.0058 99.9992 96.9509 100 95.8507V75.24C99.9992 74.1397 99.5618 73.0848 98.7838 72.3069C98.0058 71.5289 96.9509 71.0915 95.8507 71.0906ZM98.3403 95.8507C98.3395 96.5107 98.0769 97.1435 97.6102 97.6102C97.1435 98.0769 96.5107 98.3395 95.8507 98.3403H75.24C74.5799 98.3395 73.9472 98.0769 73.4805 97.6102C73.0138 97.1435 72.7512 96.5107 72.7503 95.8507V75.24C72.7512 74.5799 73.0138 73.9472 73.4805 73.4805C73.9472 73.0138 74.5799 72.7512 75.24 72.7503H95.8507C96.5107 72.7512 97.1435 73.0138 97.6102 73.4805C98.0769 73.9472 98.3395 74.5799 98.3403 75.24V95.8507Z" fill="#263238"/>
<path d="M63.3193 90.8249C63.3964 90.9022 63.488 90.9635 63.5888 91.0053C63.6896 91.0472 63.7977 91.0687 63.9068 91.0687C64.016 91.0687 64.1241 91.0472 64.2249 91.0053C64.3257 90.9635 64.4173 90.9022 64.4944 90.8249L69.1882 86.1311C69.2654 86.0541 69.3268 85.9625 69.3686 85.8617C69.4104 85.7608 69.432 85.6527 69.432 85.5436C69.432 85.4344 69.4104 85.3263 69.3686 85.2255C69.3268 85.1247 69.2654 85.0331 69.1882 84.956L64.4911 80.249C64.3352 80.0932 64.1239 80.0056 63.9035 80.0056C63.6831 80.0056 63.4718 80.0932 63.316 80.249C63.1601 80.4048 63.0726 80.6162 63.0726 80.8365C63.0726 81.0569 63.1601 81.2683 63.316 81.4241L66.5923 84.7038H51.399C51.1789 84.7038 50.9678 84.7912 50.8122 84.9468C50.6565 85.1025 50.5691 85.3135 50.5691 85.5336C50.5691 85.7537 50.6565 85.9648 50.8122 86.1204C50.9678 86.2761 51.1789 86.3635 51.399 86.3635H66.5956L63.3193 89.6531C63.1642 89.8087 63.0771 90.0194 63.0771 90.239C63.0771 90.4587 63.1642 90.6694 63.3193 90.8249Z" fill="#263238"/>
<path d="M79.4625 58.0681C79.6826 58.0681 79.8936 57.9807 80.0493 57.8251C80.2049 57.6694 80.2923 57.4584 80.2923 57.2383V52.591L91.0376 63.3362C91.1934 63.492 91.4047 63.5795 91.6251 63.5795C91.8455 63.5795 92.0568 63.492 92.2127 63.3362C92.3685 63.1804 92.456 62.969 92.456 62.7486C92.456 62.5283 92.3685 62.3169 92.2127 62.1611L81.4674 51.4159H86.1147C86.3348 51.4159 86.5459 51.3284 86.7015 51.1728C86.8572 51.0172 86.9446 50.8061 86.9446 50.586C86.9446 50.3659 86.8572 50.1548 86.7015 49.9992C86.5459 49.8435 86.3348 49.7561 86.1147 49.7561H79.4757C79.2556 49.7561 79.0446 49.8435 78.8889 49.9992C78.7333 50.1548 78.6459 50.3659 78.6459 50.586V57.225C78.6441 57.334 78.6638 57.4422 78.7039 57.5436C78.744 57.6449 78.8037 57.7374 78.8795 57.8157C78.9553 57.894 79.0458 57.9566 79.1459 57.9999C79.2459 58.0432 79.3535 58.0664 79.4625 58.0681Z" fill="#263238"/>
<path d="M41.1217 50.0116C41.0446 49.9343 40.953 49.873 40.8522 49.8312C40.7514 49.7894 40.6433 49.7678 40.5341 49.7678C40.425 49.7678 40.3169 49.7894 40.2161 49.8312C40.1152 49.873 40.0237 49.9343 39.9466 50.0116L29.2047 60.7569V56.1096C29.2047 55.8895 29.1172 55.6784 28.9616 55.5227C28.806 55.3671 28.5949 55.2797 28.3748 55.2797C28.1547 55.2797 27.9436 55.3671 27.788 55.5227C27.6324 55.6784 27.5449 55.8895 27.5449 56.1096V62.7486C27.5449 62.9686 27.6324 63.1797 27.788 63.3354C27.9436 63.491 28.1547 63.5784 28.3748 63.5784H35.0138C35.2339 63.5784 35.445 63.491 35.6006 63.3354C35.7562 63.1797 35.8437 62.9686 35.8437 62.7486C35.8437 62.5285 35.7562 62.3174 35.6006 62.1617C35.445 62.0061 35.2339 61.9187 35.0138 61.9187H30.3665L41.1117 51.1735C41.2651 51.0196 41.3521 50.8118 41.3539 50.5946C41.3558 50.3774 41.2724 50.1681 41.1217 50.0116Z" fill="#263238"/>
<path d="M96.2889 37.7594H94.9611V36.4316C94.9611 36.3435 94.9261 36.2591 94.8639 36.1968C94.8016 36.1346 94.7172 36.0996 94.6292 36.0996C94.5411 36.0996 94.4567 36.1346 94.3944 36.1968C94.3322 36.2591 94.2972 36.3435 94.2972 36.4316V37.7594H92.9694C92.8814 37.7594 92.7969 37.7943 92.7347 37.8566C92.6724 37.9188 92.6375 38.0033 92.6375 38.0913C92.6375 38.1793 92.6724 38.2638 92.7347 38.326C92.7969 38.3883 92.8814 38.4233 92.9694 38.4233H94.2972V39.7511C94.2972 39.8391 94.3322 39.9235 94.3944 39.9858C94.4567 40.048 94.5411 40.083 94.6292 40.083C94.7172 40.083 94.8016 40.048 94.8639 39.9858C94.9261 39.9235 94.9611 39.8391 94.9611 39.7511V38.4233H96.2889C96.3769 38.4233 96.4614 38.3883 96.5236 38.326C96.5859 38.2638 96.6209 38.1793 96.6209 38.0913C96.6209 38.0033 96.5859 37.9188 96.5236 37.8566C96.4614 37.7943 96.3769 37.7594 96.2889 37.7594Z" fill="#FFDD00"/>
<path d="M83.4788 30.2905C83.0848 30.2905 82.6998 30.1737 82.3722 29.9549C82.0447 29.736 81.7894 29.425 81.6387 29.061C81.4879 28.6971 81.4485 28.2966 81.5253 27.9103C81.6022 27.5239 81.7919 27.169 82.0704 26.8905C82.349 26.6119 82.7038 26.4222 83.0902 26.3454C83.4766 26.2685 83.877 26.308 84.241 26.4587C84.6049 26.6095 84.9159 26.8648 85.1348 27.1923C85.3536 27.5198 85.4705 27.9049 85.4705 28.2988C85.4705 28.8271 85.2606 29.3337 84.8871 29.7072C84.5136 30.0807 84.007 30.2905 83.4788 30.2905ZM83.4788 26.971C83.2161 26.971 82.9594 27.0489 82.7411 27.1948C82.5227 27.3407 82.3525 27.5481 82.252 27.7907C82.1515 28.0333 82.1252 28.3003 82.1765 28.5579C82.2277 28.8154 82.3542 29.052 82.5399 29.2377C82.7256 29.4234 82.9622 29.5499 83.2197 29.6011C83.4773 29.6524 83.7443 29.6261 83.9869 29.5256C84.2295 29.4251 84.4369 29.2549 84.5828 29.0365C84.7287 28.8182 84.8066 28.5614 84.8066 28.2988C84.8066 27.9467 84.6667 27.6089 84.4177 27.3599C84.1686 27.1109 83.8309 26.971 83.4788 26.971Z" fill="#40BDFF"/>
<path d="M68.4651 66.9312C68.0712 66.9312 67.6861 66.8143 67.3586 66.5955C67.031 66.3766 66.7757 66.0656 66.625 65.7016C66.4743 65.3377 66.4348 64.9372 66.5117 64.5509C66.5885 64.1645 66.7782 63.8097 67.0567 63.5311C67.3353 63.2526 67.6902 63.0629 68.0765 62.986C68.4629 62.9092 68.8633 62.9486 69.2273 63.0994C69.5912 63.2501 69.9023 63.5054 70.1211 63.8329C70.34 64.1605 70.4568 64.5455 70.4568 64.9395C70.4568 65.4677 70.2469 65.9743 69.8734 66.3478C69.4999 66.7213 68.9933 66.9312 68.4651 66.9312ZM68.4651 63.6117C68.2025 63.6117 67.9458 63.6895 67.7274 63.8354C67.509 63.9813 67.3389 64.1887 67.2384 64.4313C67.1379 64.674 67.1116 64.9409 67.1628 65.1985C67.214 65.4561 67.3405 65.6927 67.5262 65.8784C67.7119 66.064 67.9485 66.1905 68.206 66.2417C68.4636 66.293 68.7306 66.2667 68.9732 66.1662C69.2158 66.0657 69.4232 65.8955 69.5691 65.6771C69.715 65.4588 69.7929 65.2021 69.7929 64.9395C69.7929 64.5873 69.653 64.2496 69.404 64.0006C69.155 63.7515 68.8172 63.6117 68.4651 63.6117Z" fill="#FFDD00"/>
<path d="M94.6292 55.3528C94.2352 55.3528 93.8502 55.236 93.5226 55.0171C93.1951 54.7983 92.9398 54.4872 92.7891 54.1233C92.6383 53.7593 92.5989 53.3589 92.6757 52.9725C92.7526 52.5862 92.9423 52.2313 93.2208 51.9527C93.4994 51.6742 93.8542 51.4845 94.2406 51.4077C94.6269 51.3308 95.0274 51.3702 95.3913 51.521C95.7553 51.6717 96.0663 51.927 96.2852 52.2546C96.504 52.5821 96.6209 52.9672 96.6209 53.3611C96.6209 53.8893 96.411 54.3959 96.0375 54.7694C95.664 55.1429 95.1574 55.3528 94.6292 55.3528ZM94.6292 52.0333C94.3665 52.0333 94.1098 52.1112 93.8915 52.2571C93.6731 52.403 93.5029 52.6103 93.4024 52.853C93.3019 53.0956 93.2756 53.3626 93.3269 53.6201C93.3781 53.8777 93.5046 54.1143 93.6903 54.3C93.876 54.4857 94.1125 54.6121 94.3701 54.6634C94.6277 54.7146 94.8947 54.6883 95.1373 54.5878C95.3799 54.4873 95.5873 54.3171 95.7332 54.0988C95.8791 53.8804 95.957 53.6237 95.957 53.3611C95.957 53.0089 95.8171 52.6712 95.568 52.4222C95.319 52.1732 94.9813 52.0333 94.6292 52.0333Z" fill="#40BDFF"/>
<path d="M36.9456 41.7428H36.0992L36.7066 41.1353C36.761 41.0718 36.7894 40.9901 36.7862 40.9066C36.783 40.823 36.7483 40.7438 36.6892 40.6846C36.6301 40.6255 36.5509 40.5909 36.4673 40.5877C36.3838 40.5844 36.3021 40.6129 36.2386 40.6672L35.6311 41.2747V40.415C35.6311 40.3269 35.5961 40.2425 35.5339 40.1802C35.4716 40.118 35.3872 40.083 35.2992 40.083C35.2111 40.083 35.1267 40.118 35.0644 40.1802C35.0022 40.2425 34.9672 40.3269 34.9672 40.415V41.2747L34.3597 40.6672C34.2962 40.6129 34.2146 40.5844 34.131 40.5877C34.0475 40.5909 33.9682 40.6255 33.9091 40.6846C33.85 40.7438 33.8154 40.823 33.8121 40.9066C33.8089 40.9901 33.8373 41.0718 33.8917 41.1353L34.4826 41.7428H33.6261C33.5381 41.7428 33.4537 41.7777 33.3914 41.84C33.3292 41.9022 33.2942 41.9867 33.2942 42.0747C33.2942 42.1627 33.3292 42.2472 33.3914 42.3094C33.4537 42.3717 33.5381 42.4067 33.6261 42.4067H34.4859L33.8751 43.0141C33.8207 43.0776 33.7923 43.1593 33.7955 43.2429C33.7988 43.3264 33.8334 43.4057 33.8925 43.4648C33.9516 43.5239 34.0309 43.5585 34.1144 43.5617C34.198 43.565 34.2796 43.5366 34.3432 43.4822L34.9506 42.8747V43.7345C34.9506 43.8225 34.9856 43.9069 35.0478 43.9692C35.1101 44.0314 35.1945 44.0664 35.2826 44.0664C35.3706 44.0664 35.455 44.0314 35.5173 43.9692C35.5795 43.9069 35.6145 43.8225 35.6145 43.7345V42.8747L36.222 43.4822C36.2855 43.5366 36.3672 43.565 36.4507 43.5617C36.5343 43.5585 36.6135 43.5239 36.6726 43.4648C36.7318 43.4057 36.7664 43.3264 36.7696 43.2429C36.7728 43.1593 36.7444 43.0776 36.69 43.0141L36.0992 42.4067H36.9589C37.047 42.4067 37.1314 42.3717 37.1936 42.3094C37.2559 42.2472 37.2909 42.1627 37.2909 42.0747C37.2909 41.9867 37.2559 41.9022 37.1936 41.84C37.1314 41.7777 37.047 41.7428 36.9589 41.7428H36.9456Z" fill="#40BDFF"/>
</svg>
