<svg width="120" height="120" viewBox="0 0 120 120" fill="none" xmlns="http://www.w3.org/2000/svg">
<rect width="120" height="120" rx="60" fill="#FCE0C8"/>
<path d="M54.965 83.6711H21.5851C21.1648 83.6706 20.7619 83.5035 20.4648 83.2063C20.1676 82.9092 20.0005 82.5063 20 82.086V36.7714C20.0005 36.3511 20.1676 35.9482 20.4648 35.6511C20.7619 35.3539 21.1648 35.1868 21.5851 35.1863H54.965C55.3853 35.1868 55.7882 35.3539 56.0853 35.6511C56.3825 35.9482 56.5496 36.3511 56.5501 36.7714V82.086C56.5496 82.5063 56.3825 82.9092 56.0853 83.2063C55.7882 83.5035 55.3853 83.6706 54.965 83.6711Z" fill="white"/>
<path d="M36.7703 46.9795C36.7703 48.2882 36.3563 49.5634 35.5875 50.6226C34.8187 51.6817 33.7345 52.4705 32.4902 52.876C32.453 52.8878 32.4158 52.8997 32.378 52.9109C32.2169 52.9605 32.0534 53.0028 31.8871 53.0389C31.5862 53.1042 31.2808 53.1466 30.9735 53.1657C30.84 53.1747 30.7056 53.1792 30.5705 53.1792C29.8726 53.1799 29.1795 53.0625 28.5207 52.832C28.5015 52.8253 28.4824 52.8185 28.4638 52.8117C27.3963 52.4262 26.4552 51.7551 25.7429 50.8716C25.0306 49.988 24.5745 48.9259 24.4242 47.801C24.274 46.6761 24.4353 45.5315 24.8908 44.492C25.3462 43.4524 26.0782 42.5579 27.007 41.9057C27.9359 41.2535 29.0259 40.8688 30.1583 40.7935C31.2907 40.7181 32.4221 40.955 33.4291 41.4784C34.4362 42.0017 35.2803 42.7914 35.8694 43.7614C36.4585 44.7315 36.7702 45.8446 36.7703 46.9795Z" fill="white"/>
<path d="M30.4222 51.0872C32.0881 51.0872 33.4386 49.7367 33.4386 48.0708C33.4386 46.4049 32.0881 45.0544 30.4222 45.0544C28.7562 45.0544 27.4058 46.4049 27.4058 48.0708C27.4058 49.7367 28.7562 51.0872 30.4222 51.0872Z" fill="#A90466"/>
<path d="M30.5982 49.696L30.6014 49.5833C30.3917 49.5775 30.2068 49.5643 30.0679 49.4628C30.0285 49.4324 29.9961 49.3939 29.973 49.3498C29.9498 49.3058 29.9364 49.2573 29.9337 49.2076C29.9312 49.1772 29.9358 49.1467 29.9471 49.1184C29.9583 49.0901 29.976 49.0648 29.9986 49.0445C30.0511 49.0126 30.1112 48.9956 30.1726 48.995C30.234 48.9945 30.2944 49.0105 30.3474 49.0414L30.4407 49.0841L30.2618 47.7771L30.1501 47.7924L30.3023 48.9042C30.24 48.8811 30.1729 48.874 30.1072 48.8834C30.0414 48.8929 29.9791 48.9186 29.9259 48.9584C29.8901 48.9896 29.862 49.0288 29.8438 49.0727C29.8256 49.1166 29.8178 49.1641 29.821 49.2116C29.8243 49.2783 29.8422 49.3435 29.8733 49.4027C29.9045 49.4618 29.9482 49.5134 30.0014 49.5538C30.1799 49.6843 30.4118 49.6908 30.5982 49.696Z" fill="#545760"/>
<path d="M29.5978 47.8882H28.9907V48.0009H29.5978V47.8882Z" fill="#545760"/>
<path d="M31.5138 47.8882H30.9067V48.0009H31.5138V47.8882Z" fill="#545760"/>
<path d="M31.2791 52.2878C31.2871 52.2508 31.2912 52.213 31.2915 52.1751C31.2913 52.0331 31.2348 51.8971 31.1344 51.7967C31.0341 51.6964 30.898 51.6399 30.7561 51.6396H29.967C29.8251 51.6398 29.6889 51.6962 29.5886 51.7966C29.4882 51.897 29.4317 52.0331 29.4316 52.1751C29.4316 52.2132 29.4357 52.2512 29.444 52.2884C29.1461 52.3822 28.8645 52.5216 28.6093 52.7015C28.5597 52.7359 28.5107 52.7731 28.4639 52.812C28.4825 52.8187 28.5016 52.8255 28.5208 52.8322C29.1796 53.0627 29.8727 53.1801 30.5706 53.1794C30.7059 53.1794 30.8402 53.1749 30.9736 53.1659C31.2809 53.1468 31.5863 53.1044 31.8872 53.0391C32.0535 53.003 32.2169 52.9607 32.3781 52.9112C32.0592 52.629 31.6849 52.4167 31.2791 52.2878Z" fill="#545760"/>
<path d="M31.1777 53.0943C31.1045 53.0997 31.0341 53.1244 30.9736 53.1659C31.2809 53.1467 31.5863 53.1044 31.8872 53.0391L31.1777 53.0943Z" fill="#545760"/>
<path d="M33.1576 47.3542L27.9175 45.4372C27.8614 45.4167 27.8157 45.3747 27.7905 45.3205C27.7653 45.2662 27.7627 45.2042 27.7833 45.1481L27.801 45.0643C28.2102 43.9456 29.5667 43.2416 30.6853 43.6508L32.2978 44.2407C33.4165 44.6499 33.9027 45.9746 33.4934 47.0932L33.4468 47.22C33.4263 47.2761 33.3842 47.3218 33.33 47.347C33.2758 47.3722 33.2138 47.3748 33.1576 47.3542Z" fill="#545760"/>
<path d="M33.4399 47.4604C26.1362 47.7299 25.498 46.8122 27.7234 45.3692L28.1955 44.5005L33.6062 46.4731L33.4399 47.4604Z" fill="#545760"/>
<path d="M32.0077 44.1032C32.048 43.9691 31.8753 43.7986 31.6219 43.7224C31.3685 43.6463 31.1304 43.6933 31.0901 43.8274C31.0498 43.9616 31.2225 44.1321 31.4759 44.2082C31.7293 44.2844 31.9674 44.2374 32.0077 44.1032Z" fill="#545760"/>
<path d="M30.5705 53.3484C29.8535 53.3492 29.1415 53.2286 28.4647 52.9917L28.4059 52.9708C26.9883 52.4585 25.7983 51.46 25.0477 50.1529C24.297 48.8458 24.0342 47.3148 24.3062 45.8322C24.5781 44.3496 25.367 43.0115 26.5327 42.0559C27.6984 41.1002 29.1652 40.589 30.6723 40.6131C32.1794 40.6372 33.6292 41.1951 34.7637 42.1875C35.8982 43.1799 36.644 44.5426 36.8683 46.0331C37.0927 47.5237 36.7811 49.0455 35.989 50.3279C35.1969 51.6103 33.9757 52.5702 32.5424 53.0369C32.5024 53.0497 32.4646 53.0616 32.4263 53.0731C32.2663 53.1224 32.0964 53.1666 31.9229 53.2042C31.6136 53.2713 31.2997 53.3149 30.9838 53.3346C30.8481 53.3438 30.7087 53.3484 30.5705 53.3484ZM30.5705 40.949C29.1514 40.9492 27.7778 41.4498 26.6913 42.3627C25.6048 43.2756 24.875 44.5424 24.6302 45.9402C24.3855 47.338 24.6414 48.7774 25.3531 50.0052C26.0647 51.2329 27.1865 52.1705 28.5211 52.6528L28.577 52.6727C29.2177 52.8969 29.8917 53.0111 30.5705 53.0103C30.7012 53.0103 30.8329 53.0058 30.962 52.9971C31.2611 52.9785 31.5584 52.9372 31.8513 52.8737C32.0154 52.8382 32.1759 52.7963 32.3282 52.7495C32.366 52.7382 32.4018 52.7268 32.4376 52.7154C33.8027 52.2708 34.9644 51.3538 35.7139 50.1293C36.4634 48.9049 36.7516 47.4532 36.5266 46.0352C36.3016 44.6173 35.5782 43.3261 34.4864 42.3938C33.3947 41.4615 32.0061 40.9492 30.5705 40.949Z" fill="#CCCCCC"/>
<path d="M54.965 83.6711H21.5851C21.1648 83.6706 20.7619 83.5035 20.4648 83.2063C20.1676 82.9092 20.0005 82.5063 20 82.086V36.7714C20.0005 36.3511 20.1676 35.9482 20.4648 35.6511C20.7619 35.3539 21.1648 35.1868 21.5851 35.1863H54.965C55.3853 35.1868 55.7882 35.3539 56.0853 35.6511C56.3825 35.9482 56.5496 36.3511 56.5501 36.7714V82.086C56.5496 82.5063 56.3825 82.9092 56.0853 83.2063C55.7882 83.5035 55.3853 83.6706 54.965 83.6711ZM21.5851 35.3728C21.2143 35.3732 20.8588 35.5207 20.5966 35.7829C20.3344 36.0451 20.1869 36.4006 20.1865 36.7714V82.086C20.1869 82.4568 20.3344 82.8123 20.5966 83.0745C20.8588 83.3367 21.2143 83.4842 21.5851 83.4846H54.965C55.3358 83.4842 55.6913 83.3367 55.9535 83.0745C56.2157 82.8123 56.3632 82.4568 56.3636 82.086V36.7714C56.3632 36.4006 56.2157 36.0451 55.9535 35.7829C55.6913 35.5207 55.3358 35.3732 54.965 35.3728H21.5851Z" fill="#CCCCCC"/>
<path d="M48.5032 46.9554H39.0578C38.8598 46.9552 38.67 46.8763 38.5301 46.7362C38.3901 46.5961 38.3115 46.4062 38.3115 46.2082C38.3115 46.0102 38.3901 45.8202 38.5301 45.6801C38.67 45.54 38.8598 45.4612 39.0578 45.4609H48.5032C48.6014 45.4608 48.6987 45.4801 48.7894 45.5176C48.8802 45.555 48.9627 45.6101 49.0322 45.6795C49.1017 45.7489 49.1568 45.8313 49.1944 45.922C49.232 46.0127 49.2514 46.11 49.2514 46.2082C49.2514 46.3064 49.232 46.4036 49.1944 46.4943C49.1568 46.5851 49.1017 46.6675 49.0322 46.7369C48.9627 46.8063 48.8802 46.8613 48.7894 46.8988C48.6987 46.9363 48.6014 46.9555 48.5032 46.9554Z" fill="#E6E6E6"/>
<path d="M51.5856 49.4774H39.0578C38.8598 49.4771 38.67 49.3983 38.5301 49.2582C38.3901 49.1181 38.3115 48.9282 38.3115 48.7301C38.3115 48.5321 38.3901 48.3422 38.5301 48.2021C38.67 48.062 38.8598 47.9832 39.0578 47.9829H51.5856C51.7836 47.9832 51.9734 48.062 52.1133 48.2021C52.2533 48.3422 52.3319 48.5321 52.3319 48.7301C52.3319 48.9282 52.2533 49.1181 52.1133 49.2582C51.9734 49.3983 51.7836 49.4771 51.5856 49.4774Z" fill="#E6E6E6"/>
<path d="M48.4891 59.15H24.9645C24.8663 59.1501 24.769 59.1309 24.6782 59.0934C24.5875 59.0559 24.505 59.0009 24.4355 58.9315C24.366 58.8621 24.3109 58.7796 24.2733 58.6889C24.2357 58.5982 24.2163 58.501 24.2163 58.4028C24.2163 58.3045 24.2357 58.2073 24.2733 58.1166C24.3109 58.0259 24.366 57.9434 24.4355 57.874C24.505 57.8047 24.5875 57.7496 24.6782 57.7121C24.769 57.6746 24.8663 57.6554 24.9645 57.6555H48.4891C48.6871 57.6558 48.8769 57.7346 49.0169 57.8747C49.1568 58.0148 49.2354 58.2047 49.2354 58.4028C49.2354 58.6008 49.1568 58.7907 49.0169 58.9308C48.8769 59.0709 48.6871 59.1497 48.4891 59.15Z" fill="#E6E6E6"/>
<path d="M51.5714 61.672H24.9645C24.8663 61.6721 24.769 61.6529 24.6782 61.6154C24.5875 61.5779 24.505 61.5228 24.4355 61.4534C24.366 61.384 24.3109 61.3016 24.2733 61.2109C24.2357 61.1202 24.2163 61.0229 24.2163 60.9247C24.2163 60.8265 24.2357 60.7293 24.2733 60.6386C24.3109 60.5478 24.366 60.4654 24.4355 60.396C24.505 60.3266 24.5875 60.2716 24.6782 60.2341C24.769 60.1966 24.8663 60.1774 24.9645 60.1775H51.5714C51.6697 60.1774 51.7669 60.1966 51.8577 60.2341C51.9485 60.2716 52.0309 60.3266 52.1004 60.396C52.1699 60.4654 52.225 60.5478 52.2626 60.6386C52.3003 60.7293 52.3196 60.8265 52.3196 60.9247C52.3196 61.0229 52.3003 61.1202 52.2626 61.2109C52.225 61.3016 52.1699 61.384 52.1004 61.4534C52.0309 61.5228 51.9485 61.5779 51.8577 61.6154C51.7669 61.6529 51.6697 61.6721 51.5714 61.672Z" fill="#E6E6E6"/>
<path d="M48.4891 67.4684H24.9645C24.7663 67.4684 24.5763 67.3896 24.4361 67.2495C24.296 67.1094 24.2173 66.9193 24.2173 66.7211C24.2173 66.5229 24.296 66.3329 24.4361 66.1927C24.5763 66.0526 24.7663 65.9739 24.9645 65.9739H48.4891C48.6873 65.9739 48.8774 66.0526 49.0175 66.1927C49.1577 66.3329 49.2364 66.5229 49.2364 66.7211C49.2364 66.9193 49.1577 67.1094 49.0175 67.2495C48.8774 67.3896 48.6873 67.4684 48.4891 67.4684Z" fill="#E6E6E6"/>
<path d="M51.5715 69.9901H24.9645C24.7663 69.9901 24.5763 69.9114 24.4361 69.7712C24.296 69.6311 24.2173 69.441 24.2173 69.2428C24.2173 69.0447 24.296 68.8546 24.4361 68.7145C24.5763 68.5743 24.7663 68.4956 24.9645 68.4956H51.5715C51.7697 68.4956 51.9597 68.5743 52.0999 68.7145C52.24 68.8546 52.3187 69.0447 52.3187 69.2428C52.3187 69.441 52.24 69.6311 52.0999 69.7712C51.9597 69.9114 51.7697 69.9901 51.5715 69.9901Z" fill="#E6E6E6"/>
<path d="M48.4891 75.7865H24.9645C24.7663 75.7865 24.5763 75.7077 24.4361 75.5676C24.296 75.4275 24.2173 75.2374 24.2173 75.0392C24.2173 74.841 24.296 74.651 24.4361 74.5108C24.5763 74.3707 24.7663 74.292 24.9645 74.292H48.4891C48.6873 74.292 48.8774 74.3707 49.0175 74.5108C49.1577 74.651 49.2364 74.841 49.2364 75.0392C49.2364 75.2374 49.1577 75.4275 49.0175 75.5676C48.8774 75.7077 48.6873 75.7865 48.4891 75.7865Z" fill="#E6E6E6"/>
<path d="M51.5715 78.3084H24.9645C24.7663 78.3084 24.5763 78.2297 24.4361 78.0896C24.296 77.9494 24.2173 77.7594 24.2173 77.5612C24.2173 77.363 24.296 77.173 24.4361 77.0328C24.5763 76.8927 24.7663 76.814 24.9645 76.814H51.5715C51.7697 76.814 51.9597 76.8927 52.0999 77.0328C52.24 77.173 52.3187 77.363 52.3187 77.5612C52.3187 77.7594 52.24 77.9494 52.0999 78.0896C51.9597 78.2297 51.7697 78.3084 51.5715 78.3084Z" fill="#E6E6E6"/>
<path d="M98.4148 72.2959L65.0348 72.2959C64.6146 72.2954 64.2117 72.1283 63.9145 71.8311C63.6174 71.534 63.4502 71.1311 63.4497 70.7108L63.4497 25.3961C63.4502 24.9759 63.6173 24.573 63.9145 24.2758C64.2116 23.9787 64.6145 23.8115 65.0348 23.8111L98.4147 23.811C98.835 23.8115 99.2379 23.9787 99.535 24.2758C99.8322 24.573 99.9993 24.9759 99.9998 25.3961L99.9999 70.7108C99.9994 71.131 99.8322 71.5339 99.5351 71.8311C99.2379 72.1283 98.835 72.2954 98.4148 72.2959Z" fill="white"/>
<path d="M98.4148 72.2959L65.0348 72.2959C64.6146 72.2954 64.2117 72.1283 63.9145 71.8311C63.6174 71.534 63.4502 71.1311 63.4497 70.7108L63.4497 25.3961C63.4502 24.9759 63.6173 24.573 63.9145 24.2758C64.2116 23.9787 64.6145 23.8115 65.0348 23.8111L98.4147 23.811C98.835 23.8115 99.2379 23.9787 99.535 24.2758C99.8322 24.573 99.9993 24.9759 99.9998 25.3961L99.9999 70.7108C99.9994 71.131 99.8322 71.5339 99.5351 71.8311C99.2379 72.1283 98.835 72.2954 98.4148 72.2959ZM65.0348 23.9975C64.664 23.998 64.3085 24.1455 64.0463 24.4076C63.7841 24.6698 63.6366 25.0253 63.6362 25.3961L63.6362 70.7108C63.6366 71.0816 63.7841 71.4371 64.0463 71.6993C64.3085 71.9615 64.664 72.109 65.0348 72.1094L98.4148 72.1094C98.7856 72.109 99.1411 71.9615 99.4033 71.6993C99.6655 71.4371 99.813 71.0816 99.8134 70.7108L99.8133 25.3961C99.8129 25.0253 99.6654 24.6698 99.4032 24.4076C99.141 24.1454 98.7855 23.9979 98.4147 23.9975L65.0348 23.9975Z" fill="#CCCCCC"/>
<path d="M80.2359 35.5425C80.2359 36.7687 79.8723 37.9673 79.191 38.9869C78.5098 40.0064 77.5415 40.801 76.4087 41.2703C75.2758 41.7395 74.0293 41.8623 72.8266 41.6231C71.624 41.3839 70.5193 40.7934 69.6523 39.9263C68.7852 39.0593 68.1948 37.9546 67.9556 36.752C67.7163 35.5494 67.8391 34.3028 68.3084 33.17C68.7776 32.0371 69.5722 31.0689 70.5918 30.3876C71.6113 29.7064 72.81 29.3428 74.0361 29.3428C75.6802 29.3433 77.2569 29.9966 78.4194 31.1592C79.582 32.3218 80.2353 33.8984 80.2359 35.5425Z" fill="white"/>
<path d="M76.9014 36.6034C76.8337 40.5685 70.9358 40.5679 70.8687 36.6033C70.9364 32.6384 76.8343 32.639 76.9014 36.6034Z" fill="#A90466"/>
<path d="M73.7653 37.834L73.7622 37.7212C74.5391 37.825 74.7064 36.8621 73.9229 37.2221L74.1018 35.915L74.2135 35.9303L74.0613 37.0421C74.8863 36.9193 74.5811 37.9466 73.7653 37.834Z" fill="#545760"/>
<path d="M75.3727 36.0264H74.7656V36.1391H75.3727V36.0264Z" fill="#545760"/>
<path d="M73.4567 36.0264H72.8496V36.1391H73.4567V36.0264Z" fill="#545760"/>
<path d="M74.863 40.8208C74.9814 40.0221 74.0463 40.18 73.5515 40.1721C73.4717 40.1723 73.393 40.1904 73.321 40.2249C73.2491 40.2594 73.1858 40.3095 73.1357 40.3716C73.0856 40.4337 73.0499 40.5062 73.0314 40.5838C73.0128 40.6614 73.0118 40.7422 73.0285 40.8202C72.6454 40.9386 72.2908 41.1343 71.9863 41.3951C73.2693 41.8425 74.6633 41.8579 75.9558 41.4391C75.6407 41.1561 75.2678 40.9451 74.863 40.8208Z" fill="#545760"/>
<path d="M72.4669 35.1767C73.0259 34.8536 73.7038 35.1015 74.2812 35.237C75.3768 35.5738 76.9131 35.152 77.0463 33.847C77.185 32.6332 75.5246 31.9568 74.994 33.1648L75.1485 33.1446C73.4274 30.5868 70.4336 30.6838 70.4533 34.2003C70.4469 34.309 70.616 34.3086 70.6223 34.2003C70.559 32.128 71.9304 30.7115 73.869 32.0432C74.302 32.3822 74.6838 32.7819 75.0025 33.2299C75.2044 33.4562 75.2482 32.4818 76.2146 32.737C77.278 33.149 76.931 34.6718 75.9805 35.0061C74.806 35.6061 73.534 34.4427 72.3815 35.0306C72.363 35.0423 72.3497 35.0608 72.3445 35.0821C72.3393 35.1034 72.3426 35.1259 72.3536 35.1449C72.3647 35.1638 72.3827 35.1777 72.4038 35.1837C72.4249 35.1896 72.4476 35.1871 72.4669 35.1767Z" fill="#545760"/>
<path d="M74.0363 41.9115C72.4353 41.9101 70.8936 41.3053 69.7187 40.2177C68.5439 39.13 67.8222 37.6395 67.6975 36.0433C67.5729 34.4472 68.0546 32.8627 69.0464 31.6059C70.0382 30.3491 71.4674 29.5123 73.0488 29.2625C74.6302 29.0127 76.2476 29.3682 77.5786 30.2581C78.9095 31.148 79.8561 32.5068 80.2296 34.0637C80.603 35.6205 80.3759 37.261 79.5935 38.6578C78.8111 40.0546 77.5309 41.1052 76.0082 41.6C75.3715 41.8071 74.7059 41.9122 74.0363 41.9115ZM74.0363 29.512C72.8433 29.5119 71.6771 29.8655 70.6851 30.5282C69.6931 31.1908 68.9199 32.1328 68.4632 33.235C68.0066 34.3371 67.8871 35.5499 68.1198 36.72C68.3525 37.8901 68.927 38.9649 69.7705 39.8084C70.6141 40.652 71.6889 41.2264 72.859 41.4591C74.029 41.6918 75.2418 41.5723 76.344 41.1157C77.4461 40.6591 78.3881 39.8859 79.0508 38.8939C79.7135 37.9019 80.0671 36.7356 80.0669 35.5427C80.0651 33.9438 79.4292 32.4109 78.2986 31.2803C77.168 30.1498 75.6352 29.5138 74.0363 29.512Z" fill="#CCCCCC"/>
<path d="M91.9529 35.5802L82.5075 35.5802C82.3093 35.5802 82.1192 35.5014 81.9791 35.3613C81.839 35.2212 81.7603 35.0311 81.7603 34.8329C81.7603 34.6348 81.839 34.4447 81.9791 34.3046C82.1192 34.1644 82.3093 34.0857 82.5075 34.0857L91.9529 34.0857C92.151 34.0857 92.3411 34.1644 92.4812 34.3046C92.6214 34.4447 92.7001 34.6347 92.7001 34.8329C92.7001 35.0311 92.6214 35.2212 92.4812 35.3613C92.3411 35.5014 92.151 35.5802 91.9529 35.5802Z" fill="#E6E6E6"/>
<path d="M95.0352 38.1021L82.5074 38.1022C82.4092 38.1023 82.312 38.083 82.2212 38.0455C82.1304 38.008 82.0479 37.953 81.9785 37.8836C81.909 37.8142 81.8539 37.7318 81.8162 37.6411C81.7786 37.5504 81.7593 37.4531 81.7593 37.3549C81.7593 37.2567 81.7786 37.1595 81.8162 37.0687C81.8539 36.978 81.909 36.8956 81.9785 36.8262C82.0479 36.7568 82.1304 36.7018 82.2212 36.6643C82.312 36.6268 82.4092 36.6076 82.5074 36.6077L95.0352 36.6077C95.2333 36.6077 95.4234 36.6864 95.5635 36.8265C95.7037 36.9667 95.7824 37.1567 95.7824 37.3549C95.7824 37.5531 95.7037 37.7431 95.5635 37.8833C95.4234 38.0234 95.2333 38.1021 95.0352 38.1021Z" fill="#E6E6E6"/>
<path d="M91.9394 47.7747L68.4148 47.7748C68.2168 47.7745 68.0269 47.6957 67.887 47.5556C67.7471 47.4155 67.6685 47.2255 67.6685 47.0275C67.6685 46.8295 67.7471 46.6396 67.887 46.4995C68.0269 46.3594 68.2168 46.2805 68.4148 46.2803L91.9394 46.2803C92.1376 46.2803 92.3276 46.359 92.4678 46.4991C92.6079 46.6393 92.6866 46.8293 92.6866 47.0275C92.6866 47.2257 92.6079 47.4158 92.4678 47.5559C92.3276 47.696 92.1376 47.7747 91.9394 47.7747Z" fill="#E6E6E6"/>
<path d="M95.0216 50.2967L68.4147 50.2967C68.3165 50.2969 68.2192 50.2776 68.1284 50.2401C68.0377 50.2026 67.9552 50.1476 67.8857 50.0782C67.8162 50.0088 67.7611 49.9264 67.7235 49.8357C67.6859 49.745 67.6665 49.6477 67.6665 49.5495C67.6665 49.4513 67.6859 49.3541 67.7235 49.2633C67.7611 49.1726 67.8162 49.0902 67.8857 49.0208C67.9552 48.9514 68.0377 48.8964 68.1284 48.8589C68.2192 48.8214 68.3165 48.8021 68.4147 48.8023L95.0216 48.8022C95.2198 48.8022 95.4099 48.881 95.55 49.0211C95.6902 49.1612 95.7689 49.3513 95.7689 49.5495C95.7689 49.7477 95.6902 49.9377 95.55 50.0779C95.4099 50.218 95.2198 50.2967 95.0216 50.2967Z" fill="#E6E6E6"/>
<path d="M91.9394 56.0931L68.4148 56.0931C68.2168 56.0929 68.0269 56.014 67.887 55.8739C67.7471 55.7338 67.6685 55.5439 67.6685 55.3459C67.6685 55.1479 67.7471 54.9579 67.887 54.8178C68.0269 54.6777 68.2168 54.5989 68.4148 54.5987L91.9394 54.5986C92.1376 54.5986 92.3276 54.6774 92.4678 54.8175C92.6079 54.9576 92.6866 55.1477 92.6866 55.3459C92.6866 55.544 92.6079 55.7341 92.4678 55.8742C92.3276 56.0144 92.1376 56.0931 91.9394 56.0931Z" fill="#E6E6E6"/>
<path d="M95.0216 58.6148L68.4147 58.6149C68.3165 58.615 68.2192 58.5957 68.1284 58.5582C68.0377 58.5207 67.9552 58.4657 67.8857 58.3963C67.8162 58.3269 67.7611 58.2445 67.7235 58.1538C67.6859 58.0631 67.6665 57.9658 67.6665 57.8676C67.6665 57.7694 67.6859 57.6722 67.7235 57.5814C67.7611 57.4907 67.8162 57.4083 67.8857 57.3389C67.9552 57.2695 68.0377 57.2145 68.1284 57.177C68.2192 57.1395 68.3165 57.1203 68.4147 57.1204L95.0216 57.1204C95.2198 57.1204 95.4099 57.1991 95.55 57.3392C95.6902 57.4794 95.7689 57.6694 95.7689 57.8676C95.7689 58.0658 95.6902 58.2558 95.55 58.396C95.4099 58.5361 95.2198 58.6148 95.0216 58.6148Z" fill="#E6E6E6"/>
<path d="M91.9393 64.4112L68.4147 64.4112C68.2165 64.4112 68.0265 64.3325 67.8863 64.1924C67.7462 64.0522 67.6675 63.8622 67.6675 63.664C67.6675 63.4658 67.7462 63.2758 67.8863 63.1356C68.0265 62.9955 68.2165 62.9168 68.4147 62.9168L91.9393 62.9167C92.1375 62.9167 92.3276 62.9955 92.4677 63.1356C92.6078 63.2757 92.6866 63.4658 92.6866 63.664C92.6866 63.8622 92.6078 64.0522 92.4677 64.1924C92.3276 64.3325 92.1375 64.4112 91.9393 64.4112Z" fill="#E6E6E6"/>
<path d="M95.0217 66.9332L68.4147 66.9332C68.2165 66.9332 68.0265 66.8545 67.8863 66.7144C67.7462 66.5742 67.6675 66.3842 67.6675 66.186C67.6675 65.9878 67.7462 65.7977 67.8863 65.6576C68.0265 65.5175 68.2165 65.4387 68.4147 65.4387L95.0217 65.4387C95.2199 65.4387 95.4099 65.5174 95.5501 65.6576C95.6902 65.7977 95.7689 65.9878 95.7689 66.186C95.7689 66.3841 95.6902 66.5742 95.5501 66.7143C95.4099 66.8545 95.2199 66.9332 95.0217 66.9332Z" fill="#E6E6E6"/>
<path d="M78.2751 91.7832H44.8951C44.4749 91.7827 44.072 91.6155 43.7748 91.3184C43.4777 91.0212 43.3105 90.6183 43.3101 90.1981V44.8834C43.3105 44.4632 43.4777 44.0603 43.7748 43.7631C44.072 43.466 44.4749 43.2988 44.8951 43.2983H78.2751C78.6953 43.2988 79.0982 43.466 79.3954 43.7631C79.6925 44.0603 79.8597 44.4632 79.8602 44.8834V90.1981C79.8597 90.6183 79.6925 91.0212 79.3954 91.3184C79.0982 91.6155 78.6953 91.7827 78.2751 91.7832Z" fill="#F39E55"/>
<path d="M47.6792 54.9641C47.6781 55.7801 47.8386 56.5883 48.1515 57.3419C48.4643 58.0956 48.9233 58.7798 49.5019 59.3552C49.5504 59.4031 49.6 59.451 49.6501 59.4978C49.9523 59.7801 50.282 60.0314 50.6342 60.248C50.7018 60.2897 50.7695 60.3297 50.8388 60.3686C51.1951 60.5693 51.5704 60.7342 51.9593 60.8606C52.0263 60.8826 52.0945 60.9034 52.1627 60.9226C53.3989 61.2771 54.7145 61.2401 55.9288 60.8166C55.9524 60.8082 55.9761 60.7997 55.9992 60.7913C57.0652 60.4035 58.0043 59.7307 58.7144 58.8462C59.4245 57.9617 59.8784 56.8993 60.0266 55.7747C60.1748 54.6502 60.0116 53.5065 59.5549 52.4682C59.0982 51.4299 58.3654 50.5368 57.4364 49.8861C56.5073 49.2354 55.4175 48.852 54.2856 48.7777C53.1538 48.7034 52.0232 48.941 51.0171 49.4647C50.0109 49.9883 49.1676 50.778 48.5791 51.7476C47.9906 52.7173 47.6793 53.8298 47.6792 54.9641Z" fill="white"/>
<path d="M52.5693 58.0027C52.5723 58.483 52.3953 58.947 52.0731 59.3032C51.7544 59.6531 51.2798 59.8851 50.8009 59.7891C50.3599 59.7007 50.0015 59.3153 50.0463 58.849C50.0537 58.748 50.083 58.6499 50.1323 58.5614C50.1815 58.4729 50.2495 58.3962 50.3314 58.3367C50.4133 58.2772 50.5072 58.2362 50.6066 58.2167C50.7059 58.1972 50.8084 58.1996 50.9067 58.2237C51.3256 58.3324 51.4925 58.9361 51.1435 59.2195C51.0597 59.2875 50.9393 59.1686 51.0239 59.1C51.076 59.0523 51.1154 58.9923 51.1383 58.9255C51.1613 58.8587 51.1671 58.7872 51.1552 58.7175C51.1434 58.6479 51.1142 58.5823 51.0705 58.5269C51.0268 58.4714 50.9698 58.4278 50.9048 58.4C50.8282 58.3755 50.7469 58.3687 50.6673 58.3802C50.5876 58.3917 50.5116 58.4212 50.445 58.4664C50.3784 58.5116 50.323 58.5713 50.2829 58.6411C50.2428 58.7109 50.2191 58.789 50.2136 58.8693C50.186 59.2623 50.4871 59.5584 50.8564 59.628C51.2559 59.7034 51.652 59.499 51.9226 59.2168C52.2329 58.8891 52.404 58.4539 52.4002 58.0027C52.401 57.9807 52.4102 57.9599 52.426 57.9447C52.4418 57.9294 52.4628 57.9209 52.4848 57.9209C52.5067 57.9209 52.5278 57.9294 52.5436 57.9447C52.5594 57.9599 52.5686 57.9807 52.5693 58.0027Z" fill="#545760"/>
<path d="M54.2205 59.0777C55.8864 59.0777 57.2369 57.7272 57.2369 56.0613C57.2369 54.3954 55.8864 53.0449 54.2205 53.0449C52.5546 53.0449 51.2041 54.3954 51.2041 56.0613C51.2041 57.7272 52.5546 59.0777 54.2205 59.0777Z" fill="#FCE0C8"/>
<path d="M54.0661 57.3484L54.063 57.2356C54.2727 57.2298 54.4576 57.2167 54.5965 57.1152C54.6359 57.0847 54.6682 57.0462 54.6914 57.0022C54.7146 56.9581 54.728 56.9096 54.7307 56.8599C54.7332 56.8296 54.7286 56.7991 54.7173 56.7708C54.706 56.7425 54.6884 56.7172 54.6657 56.6968C54.6132 56.665 54.5532 56.6479 54.4918 56.6474C54.4304 56.6468 54.37 56.6628 54.317 56.6937L54.2237 56.7365L54.4026 55.4294L54.5142 55.4447L54.3621 56.5566C54.4244 56.5334 54.4914 56.5263 54.5572 56.5358C54.6229 56.5452 54.6853 56.571 54.7385 56.6107C54.7743 56.642 54.8024 56.6811 54.8206 56.725C54.8388 56.7689 54.8466 56.8165 54.8433 56.8639C54.8401 56.9306 54.8222 56.9959 54.7911 57.055C54.7599 57.1141 54.7162 57.1657 54.663 57.2062C54.4845 57.3366 54.2525 57.3431 54.0661 57.3484Z" fill="#545760"/>
<path d="M55.6735 55.5405H55.0664V55.6533H55.6735V55.5405Z" fill="#545760"/>
<path d="M53.7575 55.5405H53.1504V55.6533H53.7575V55.5405Z" fill="#545760"/>
<path d="M52.1626 60.9224C53.3988 61.2769 54.7144 61.2399 55.9287 60.8165C55.9523 60.808 55.976 60.7996 55.9991 60.7911C55.713 60.5704 55.3893 60.4031 55.0438 60.2974C55.0682 60.2107 55.0678 60.1189 55.0427 60.0325C55.0085 59.9229 54.9398 59.8273 54.8469 59.7598C54.754 59.6924 54.6418 59.6568 54.527 59.6583H53.792C53.6774 59.6567 53.5654 59.6922 53.4726 59.7596C53.3799 59.8269 53.3114 59.9225 53.2774 60.0319C53.2523 60.1186 53.2519 60.2105 53.2763 60.2974C52.9719 60.3906 52.6843 60.5316 52.4241 60.715C52.3717 60.7517 52.321 60.79 52.272 60.83C52.2348 60.8599 52.1981 60.8909 52.1626 60.9224Z" fill="#545760"/>
<path d="M56.5835 55.7413C56.5835 56.2497 56.8337 56.6713 57.1589 56.7445C57.1921 56.752 57.2259 56.7557 57.2598 56.7558C57.6324 56.7558 57.9362 56.301 57.9362 55.7413C57.9446 55.4528 57.8525 55.1703 57.6758 54.9421C57.6208 54.8756 57.5532 54.8206 57.4768 54.7803C57.4098 54.7454 57.3354 54.727 57.2598 54.7268C57.156 54.7281 57.0553 54.762 56.9718 54.8237C56.7424 54.9861 56.5835 55.3361 56.5835 55.7413Z" fill="#262F45"/>
<path d="M50.5528 55.7413C50.5528 56.1787 50.7376 56.5518 50.9969 56.6944C51.0678 56.7341 51.1477 56.7553 51.2291 56.7558C51.2472 56.7558 51.2652 56.7547 51.2832 56.7524C51.6304 56.7113 51.9054 56.2739 51.9054 55.7413C51.9054 55.3147 51.729 54.9489 51.4799 54.7995C51.4045 54.7527 51.3178 54.7276 51.2291 54.7268C51.1535 54.727 51.0791 54.7454 51.0121 54.7804C50.9355 54.8208 50.8677 54.8759 50.8126 54.9427C50.6363 55.1709 50.5445 55.4531 50.5528 55.7413Z" fill="#262F45"/>
<path d="M51.0394 56.597C51.0528 56.597 51.066 56.5937 51.078 56.5876C51.0899 56.5815 51.1002 56.5726 51.1081 56.5617C51.1159 56.5508 51.121 56.5382 51.123 56.5249C51.125 56.5116 51.1238 56.4981 51.1195 56.4854C50.9579 56.0049 50.9093 55.4936 50.9775 54.9913C51.0456 54.489 51.2287 54.0091 51.5124 53.589C51.7962 53.169 52.173 52.82 52.6135 52.5692C53.0541 52.3184 53.5465 52.1726 54.0526 52.143C54.5586 52.1135 55.0647 52.2011 55.5314 52.3989C55.9981 52.5968 56.413 52.8996 56.7436 53.2838C57.0743 53.668 57.3119 54.1234 57.438 54.6143C57.5641 55.1053 57.5753 55.6188 57.4707 56.1148C57.4661 56.1367 57.4704 56.1596 57.4827 56.1783C57.4949 56.1971 57.5141 56.2102 57.536 56.2148C57.5579 56.2194 57.5808 56.2152 57.5995 56.203C57.6183 56.1908 57.6315 56.1716 57.6361 56.1497C57.7462 55.6282 57.7345 55.0883 57.602 54.5721C57.4694 54.0559 57.2196 53.5771 56.872 53.1731C56.5243 52.7691 56.0882 52.4507 55.5975 52.2427C55.1068 52.0347 54.5747 51.9426 54.0426 51.9737C53.5105 52.0047 52.9928 52.1581 52.5296 52.4218C52.0664 52.6855 51.6703 53.0524 51.372 53.4941C51.0737 53.9358 50.8813 54.4404 50.8097 54.9685C50.7381 55.4967 50.7893 56.0343 50.9593 56.5394C50.965 56.5562 50.9757 56.5708 50.9901 56.5811C51.0045 56.5914 51.0217 56.597 51.0394 56.597Z" fill="#262F45"/>
<path d="M55.7361 54.1069C55.7861 54.1886 55.8069 54.2849 55.7951 54.3799C55.7832 54.475 55.7394 54.5633 55.6708 54.6302C55.507 54.8131 55.2459 54.8246 55.0192 54.7907C54.7647 54.7526 54.4949 54.6334 54.2373 54.7137C54.0177 54.7822 53.8611 54.9813 53.633 55.0313C53.4307 55.0757 53.1888 55.017 53.1179 54.8014C53.0839 54.6978 53.2471 54.6534 53.281 54.7564C53.3269 54.8959 53.5249 54.8931 53.6384 54.8545C53.8203 54.7926 53.9604 54.642 54.1392 54.57C54.3523 54.504 54.5804 54.5047 54.7931 54.5718C54.9954 54.6173 55.2281 54.6849 55.4296 54.5998C55.5787 54.5368 55.6973 54.3386 55.5901 54.1922C55.5257 54.1043 55.6724 54.0199 55.7361 54.1069Z" fill="#545760"/>
<path d="M53.879 61.3328C53.2826 61.3333 52.6891 61.2498 52.1159 61.0849C52.0485 61.066 51.9778 61.0445 51.9067 61.0212C51.5073 60.8912 51.1219 60.7219 50.7559 60.5158C50.6873 60.4773 50.6184 60.4367 50.5455 60.3918C50.1838 60.1692 49.8452 59.9111 49.5347 59.6212C49.4835 59.5734 49.4328 59.5244 49.3832 59.4754C48.4069 58.5021 47.7729 57.2383 47.5763 55.8739C47.3797 54.5094 47.6312 53.118 48.2929 51.9087C48.9547 50.6994 49.9909 49.7375 51.2461 49.1674C52.5012 48.5974 53.9074 48.45 55.2535 48.7474C56.5995 49.0448 57.8128 49.771 58.7108 50.8168C59.6089 51.8627 60.1434 53.1717 60.234 54.5472C60.3246 55.9228 59.9664 57.2906 59.2132 58.4451C58.46 59.5997 57.3525 60.4787 56.0571 60.9501C56.0338 60.9586 56.0097 60.9672 55.9857 60.9758C55.3086 61.2128 54.5963 61.3336 53.879 61.3328ZM53.879 48.9334C52.6854 48.9334 51.5187 49.2876 50.5265 49.9512C49.5344 50.6147 48.7615 51.5577 48.3056 52.6608C47.8497 53.7639 47.7314 54.9774 47.9656 56.1478C48.1998 57.3181 48.7761 58.3927 49.6213 59.2354C49.6681 59.2816 49.7166 59.3283 49.7655 59.3741C50.0595 59.6486 50.3802 59.8931 50.7229 60.1038C50.7919 60.1464 50.8568 60.1847 50.9216 60.221C51.2682 60.4162 51.6333 60.5766 52.0115 60.6997C52.0785 60.7216 52.1446 60.7418 52.2085 60.7597C53.4112 61.1048 54.6914 61.069 55.8729 60.657L55.9412 60.6324C57.2736 60.1474 58.3926 59.2085 59.1015 57.9805C59.8105 56.7526 60.0642 55.3141 59.818 53.9177C59.5719 52.5213 58.8416 51.2563 57.7555 50.3448C56.6694 49.4333 55.2969 48.9335 53.879 48.9334Z" fill="#CCCCCC"/>
<path d="M78.2751 91.7832H44.8951C44.4749 91.7827 44.072 91.6155 43.7748 91.3184C43.4777 91.0212 43.3105 90.6183 43.3101 90.1981V44.8834C43.3105 44.4632 43.4777 44.0603 43.7748 43.7631C44.072 43.466 44.4749 43.2988 44.8951 43.2983H78.2751C78.6953 43.2988 79.0982 43.466 79.3954 43.7631C79.6925 44.0603 79.8597 44.4632 79.8602 44.8834V90.1981C79.8597 90.6183 79.6925 91.0212 79.3954 91.3184C79.0982 91.6155 78.6953 91.7827 78.2751 91.7832ZM44.8951 43.4848C44.5243 43.4852 44.1688 43.6327 43.9066 43.8949C43.6444 44.1571 43.497 44.5126 43.4965 44.8834V90.1981C43.497 90.5689 43.6444 90.9244 43.9066 91.1866C44.1688 91.4488 44.5243 91.5963 44.8951 91.5967H78.2751C78.6459 91.5963 79.0014 91.4488 79.2636 91.1866C79.5258 90.9244 79.6733 90.5689 79.6737 90.1981V44.8834C79.6733 44.5126 79.5258 44.1571 79.2636 43.8949C79.0014 43.6327 78.6459 43.4852 78.2751 43.4848H44.8951Z" fill="#D57B2F"/>
<path d="M71.8132 55.0672H62.3678C62.1697 55.0672 61.9796 54.9885 61.8395 54.8484C61.6993 54.7082 61.6206 54.5182 61.6206 54.32C61.6206 54.1218 61.6993 53.9317 61.8395 53.7916C61.9796 53.6515 62.1697 53.5728 62.3678 53.5728H71.8132C72.0114 53.5728 72.2015 53.6515 72.3416 53.7916C72.4817 53.9317 72.5605 54.1218 72.5605 54.32C72.5605 54.5182 72.4817 54.7082 72.3416 54.8484C72.2015 54.9885 72.0114 55.0672 71.8132 55.0672Z" fill="white"/>
<path d="M74.8956 57.5892H62.3678C62.1697 57.5892 61.9796 57.5105 61.8395 57.3703C61.6993 57.2302 61.6206 57.0401 61.6206 56.842C61.6206 56.6438 61.6993 56.4537 61.8395 56.3136C61.9796 56.1735 62.1697 56.0947 62.3678 56.0947H74.8956C75.0937 56.0947 75.2838 56.1735 75.4239 56.3136C75.5641 56.4537 75.6428 56.6438 75.6428 56.842C75.6428 57.0401 75.5641 57.2302 75.4239 57.3703C75.2838 57.5105 75.0937 57.5892 74.8956 57.5892Z" fill="white"/>
<path d="M71.7992 67.2621H48.2746C48.0764 67.2621 47.8863 67.1833 47.7462 67.0432C47.6061 66.9031 47.5273 66.713 47.5273 66.5148C47.5273 66.3166 47.6061 66.1266 47.7462 65.9864C47.8863 65.8463 48.0764 65.7676 48.2746 65.7676H71.7992C71.9974 65.7676 72.1874 65.8463 72.3276 65.9864C72.4677 66.1266 72.5464 66.3166 72.5464 66.5148C72.5464 66.713 72.4677 66.9031 72.3276 67.0432C72.1874 67.1833 71.9974 67.2621 71.7992 67.2621Z" fill="white"/>
<path d="M74.8816 69.7838H48.2746C48.0764 69.7838 47.8863 69.7051 47.7462 69.5649C47.6061 69.4248 47.5273 69.2347 47.5273 69.0365C47.5273 68.8384 47.6061 68.6483 47.7462 68.5082C47.8863 68.368 48.0764 68.2893 48.2746 68.2893H74.8816C75.0797 68.2893 75.2698 68.368 75.4099 68.5082C75.5501 68.6483 75.6288 68.8384 75.6288 69.0365C75.6288 69.2347 75.5501 69.4248 75.4099 69.5649C75.2698 69.7051 75.0797 69.7838 74.8816 69.7838Z" fill="white"/>
<path d="M71.7993 75.5802H48.2746C48.0766 75.5799 47.8868 75.5011 47.7469 75.361C47.6069 75.2209 47.5283 75.0309 47.5283 74.8329C47.5283 74.6349 47.6069 74.445 47.7469 74.3049C47.8868 74.1648 48.0766 74.0859 48.2746 74.0857H71.7993C71.9974 74.0857 72.1875 74.1644 72.3276 74.3046C72.4678 74.4447 72.5465 74.6347 72.5465 74.8329C72.5465 75.0311 72.4678 75.2212 72.3276 75.3613C72.1875 75.5014 71.9974 75.5802 71.7993 75.5802Z" fill="white"/>
<path d="M74.8816 78.1021H48.2746C48.0766 78.1019 47.8868 78.0231 47.7469 77.883C47.6069 77.7428 47.5283 77.5529 47.5283 77.3549C47.5283 77.1569 47.6069 76.967 47.7469 76.8269C47.8868 76.6867 48.0766 76.6079 48.2746 76.6077H74.8816C75.0798 76.6077 75.2699 76.6864 75.41 76.8265C75.5501 76.9667 75.6288 77.1567 75.6288 77.3549C75.6288 77.5531 75.5501 77.7431 75.41 77.8833C75.2699 78.0234 75.0798 78.1021 74.8816 78.1021Z" fill="white"/>
<path d="M71.7992 83.8985H48.2746C48.0764 83.8985 47.8863 83.8198 47.7462 83.6797C47.6061 83.5395 47.5273 83.3495 47.5273 83.1513C47.5273 82.9531 47.6061 82.7631 47.7462 82.6229C47.8863 82.4828 48.0764 82.4041 48.2746 82.4041H71.7992C71.9974 82.4041 72.1874 82.4828 72.3276 82.6229C72.4677 82.7631 72.5464 82.9531 72.5464 83.1513C72.5464 83.3495 72.4677 83.5395 72.3276 83.6797C72.1874 83.8198 71.9974 83.8985 71.7992 83.8985Z" fill="white"/>
<path d="M74.8816 86.4203H48.2746C48.0764 86.4203 47.8863 86.3415 47.7462 86.2014C47.6061 86.0613 47.5273 85.8712 47.5273 85.673C47.5273 85.4748 47.6061 85.2848 47.7462 85.1446C47.8863 85.0045 48.0764 84.9258 48.2746 84.9258H74.8816C75.0797 84.9258 75.2698 85.0045 75.4099 85.1446C75.5501 85.2848 75.6288 85.4748 75.6288 85.673C75.6288 85.8712 75.5501 86.0613 75.4099 86.2014C75.2698 86.3415 75.0797 86.4203 74.8816 86.4203Z" fill="white"/>
<path d="M77.8875 81.4646C76.92 81.4635 75.9618 81.6531 75.0676 82.0226C74.1734 82.3921 73.3609 82.9343 72.6763 83.618C71.9918 84.3018 71.4488 85.1137 71.0783 86.0075C70.7078 86.9012 70.5171 87.8592 70.5171 88.8268C70.5171 89.7943 70.7078 90.7523 71.0783 91.646C71.4488 92.5398 71.9918 93.3518 72.6763 94.0355C73.3608 94.7193 74.1734 95.2614 75.0676 95.6309C75.9617 96.0004 76.92 96.19 77.8875 96.189C79.8378 96.1855 81.7071 95.4083 83.085 94.028C84.4628 92.6477 85.2367 90.7771 85.2367 88.8268C85.2367 86.8765 84.4628 85.0058 83.085 83.6255C81.7071 82.2452 79.8378 81.468 77.8875 81.4646Z" fill="#04BE84"/>
<path d="M77.1891 91.8843C76.9953 91.8846 76.8066 91.8219 76.6515 91.7056L76.6419 91.6984L74.6173 90.1497C74.4282 90.0044 74.3045 89.79 74.2733 89.5536C74.2422 89.3171 74.3062 89.078 74.4513 88.8887C74.5964 88.6995 74.8107 88.5756 75.0471 88.5442C75.2835 88.5129 75.5227 88.5767 75.7121 88.7216L77.0235 89.7272L80.1224 85.6844C80.1942 85.5907 80.2838 85.5121 80.3861 85.453C80.4883 85.3939 80.6012 85.3555 80.7183 85.34C80.8354 85.3246 80.9544 85.3323 81.0685 85.3628C81.1826 85.3933 81.2895 85.446 81.3833 85.5179L81.3835 85.5181L81.3643 85.5448L81.3841 85.5181C81.5731 85.6634 81.6969 85.8778 81.728 86.1143C81.7592 86.3507 81.6953 86.5899 81.5504 86.7792L77.9055 91.5323C77.8212 91.6418 77.7127 91.7305 77.5886 91.7913C77.4645 91.8522 77.3281 91.8836 77.1899 91.8832L77.1891 91.8843Z" fill="white"/>
</svg>
