<svg width="120" height="120" viewBox="0 0 120 120" fill="none" xmlns="http://www.w3.org/2000/svg">
<rect width="120" height="120" rx="60" fill="#F9CBCB"/>
<path fill-rule="evenodd" clip-rule="evenodd" d="M71.2109 95H35.8008C30.7422 95 26.5039 90.8984 26.5039 85.7031V34.2969C26.5039 29.2383 30.6055 25 35.8008 25H71.2109C76.4062 25 80.6445 29.1016 80.6445 34.2969V85.7031C80.6445 90.8984 76.4062 95 71.2109 95Z" fill="#A90466"/>
<path fill-rule="evenodd" clip-rule="evenodd" d="M53.5742 74.9023C43.457 74.9023 35.2539 66.6992 35.2539 56.7188C35.2539 46.6016 43.457 38.3984 53.5742 38.3984C63.6914 38.3984 71.8945 46.6016 71.8945 56.7188C71.8945 66.8359 63.6914 74.9023 53.5742 74.9023Z" fill="#FCBE37"/>
<path fill-rule="evenodd" clip-rule="evenodd" d="M53.5742 74.9023C48.1055 74.9023 43.7305 66.9727 43.7305 56.7188C43.7305 46.4648 48.1055 38.3984 53.5742 38.3984C59.043 38.3984 63.418 46.4648 63.418 56.7188C63.418 66.9727 59.043 74.9023 53.5742 74.9023ZM53.5742 40.4492C49.3359 40.4492 45.7812 47.832 45.7812 56.7188C45.7812 65.6055 49.3359 72.9883 53.5742 72.9883C57.8125 72.9883 61.3672 65.6055 61.3672 56.7188C61.3672 47.832 57.8125 40.4492 53.5742 40.4492Z" fill="#D9990E"/>
<path fill-rule="evenodd" clip-rule="evenodd" d="M53.5742 74.9023C53.0273 74.9023 52.4805 74.4922 52.4805 73.9453V39.4922C52.4805 38.9453 53.0273 38.5352 53.5742 38.5352C54.1211 38.5352 54.5312 38.9453 54.5312 39.4922V73.9453C54.5312 74.4922 54.1211 74.9023 53.5742 74.9023Z" fill="#D9990E"/>
<path fill-rule="evenodd" clip-rule="evenodd" d="M53.5742 66.5625C43.3203 66.5625 35.2539 62.1875 35.2539 56.7188C35.2539 51.25 43.3203 46.875 53.5742 46.875C63.8281 46.875 71.8945 51.25 71.8945 56.7188C71.8945 62.1875 63.8281 66.5625 53.5742 66.5625ZM53.5742 48.9258C44.6875 48.9258 37.3047 52.4805 37.3047 56.7188C37.3047 60.957 44.6875 64.5117 53.5742 64.5117C62.3242 64.5117 69.8438 60.957 69.8438 56.7188C69.8438 52.4805 62.3242 48.9258 53.5742 48.9258Z" fill="#D9990E"/>
<path fill-rule="evenodd" clip-rule="evenodd" d="M70.8008 57.6758H36.3477C35.8008 57.6758 35.2539 57.2656 35.2539 56.7188C35.2539 56.0352 35.8008 55.625 36.3477 55.625H70.8008C71.3477 55.625 71.8945 56.0352 71.8945 56.7188C71.8945 57.2656 71.3477 57.6758 70.8008 57.6758Z" fill="#D9990E"/>
<path fill-rule="evenodd" clip-rule="evenodd" d="M70.8008 34.8438H36.3477C35.8008 34.8438 35.2539 34.4336 35.2539 33.8867C35.2539 33.3398 35.8008 32.793 36.3477 32.793H70.8008C71.3477 32.793 71.8945 33.3398 71.8945 33.8867C71.8945 34.4336 71.3477 34.8438 70.8008 34.8438Z" fill="white"/>
<path fill-rule="evenodd" clip-rule="evenodd" d="M70.8008 80.6445H36.3477C35.8008 80.6445 35.2539 80.0977 35.2539 79.5508C35.2539 79.0039 35.8008 78.5938 36.3477 78.5938H70.8008C71.3477 78.5938 71.8945 79.0039 71.8945 79.5508C71.8945 80.0977 71.3477 80.6445 70.8008 80.6445Z" fill="white"/>
<path fill-rule="evenodd" clip-rule="evenodd" d="M66.0156 87.207H41.1328C40.5859 87.207 40.1758 86.6602 40.1758 86.1133C40.1758 85.5664 40.5859 85.1562 41.1328 85.1562H66.0156C66.5625 85.1562 66.9727 85.5664 66.9727 86.1133C66.9727 86.6602 66.5625 87.207 66.0156 87.207Z" fill="white"/>
<path fill-rule="evenodd" clip-rule="evenodd" d="M79.5508 95C71.8945 95 65.7422 88.8477 65.7422 81.1914C65.7422 73.5352 71.8945 67.3828 79.5508 67.3828C87.207 67.3828 93.4961 73.5352 93.4961 81.1914C93.4961 88.8477 87.207 95 79.5508 95Z" fill="#00AB94"/>
<path fill-rule="evenodd" clip-rule="evenodd" d="M76.4062 87.6172C76.1328 87.6172 75.8594 87.4805 75.7227 87.3438L71.3477 82.9688C70.9375 82.5586 70.9375 81.875 71.3477 81.4648C71.7578 81.0547 72.3047 81.0547 72.7148 81.4648L76.4062 85.1562L86.5234 75.0391C86.9336 74.6289 87.4805 74.6289 87.8906 75.0391C88.3008 75.4492 88.3008 76.1328 87.8906 76.543L77.0898 87.3438C76.9531 87.4805 76.6797 87.6172 76.4062 87.6172Z" fill="white"/>
</svg>
