<svg width="400" height="518" viewBox="0 0 400 518" fill="none" xmlns="http://www.w3.org/2000/svg">
<mask id="mask0_4744_6387" style="mask-type:luminance" maskUnits="userSpaceOnUse" x="0" y="0" width="400" height="518">
<path d="M399.811 0L0 0L0 517.547H399.811L399.811 0Z" fill="white"/>
</mask>
<g mask="url(#mask0_4744_6387)">
<path d="M23.9584 36.7734C24.1195 35.7631 23.4313 34.8136 22.4214 34.6524C21.4114 34.4913 20.4621 35.1796 20.3011 36.1899C20.14 37.2001 20.8281 38.1497 21.8381 38.3108C22.848 38.4719 23.7973 37.7836 23.9584 36.7734Z" fill="#A90466"/>
<path d="M46.1815 36.7694C46.3426 35.7592 45.6545 34.8097 44.6445 34.6485C43.6346 34.4874 42.6853 35.1757 42.5242 36.186C42.3631 37.1962 43.0513 38.1458 44.0612 38.3069C45.0711 38.468 46.0205 37.7797 46.1815 36.7694Z" fill="#A90466"/>
<path d="M68.4042 36.7695C68.5653 35.7592 67.8771 34.8097 66.8672 34.6485C65.8572 34.4874 64.9079 35.1757 64.7469 36.186C64.5858 37.1962 65.2739 38.1458 66.2839 38.3069C67.2938 38.468 68.2431 37.7797 68.4042 36.7695Z" fill="#A90466"/>
<path d="M90.627 36.7738C90.788 35.7636 90.0999 34.814 89.09 34.6529C88.08 34.4918 87.1307 35.1801 86.9696 36.1904C86.8086 37.2006 87.4967 38.1501 88.5066 38.3113C89.5166 38.4724 90.4659 37.7841 90.627 36.7738Z" fill="#A90466"/>
<path d="M112.85 36.7758C113.011 35.7656 112.323 34.816 111.313 34.6549C110.303 34.4938 109.353 35.1821 109.192 36.1923C109.031 37.2025 109.719 38.1521 110.729 38.3132C111.739 38.4744 112.689 37.786 112.85 36.7758Z" fill="#A90466"/>
<path d="M133.24 38.3311C134.263 38.3311 135.092 37.5018 135.092 36.4788C135.092 35.4558 134.263 34.6265 133.24 34.6265C132.217 34.6265 131.388 35.4558 131.388 36.4788C131.388 37.5018 132.217 38.3311 133.24 38.3311Z" fill="#A90466"/>
<path d="M157.281 36.8186C157.474 35.8139 156.816 34.8431 155.812 34.6503C154.807 34.4574 153.837 35.1156 153.644 36.1203C153.451 37.125 154.109 38.0958 155.114 38.2886C156.118 38.4815 157.089 37.8233 157.281 36.8186Z" fill="#A90466"/>
<path d="M179.515 36.7709C179.679 35.7611 178.994 34.8096 177.984 34.6457C176.974 34.4818 176.023 35.1676 175.859 36.1774C175.696 37.1872 176.381 38.1387 177.391 38.3026C178.4 38.4665 179.351 37.7807 179.515 36.7709Z" fill="#A90466"/>
<path d="M201.742 36.7049C201.866 35.6894 201.144 34.7656 200.128 34.6414C199.113 34.5172 198.19 35.2397 198.066 36.2551C197.941 37.2706 198.664 38.1944 199.679 38.3186C200.694 38.4428 201.618 37.7203 201.742 36.7049Z" fill="#A90466"/>
<path d="M223.961 36.7753C224.125 35.7655 223.439 34.814 222.43 34.6501C221.42 34.4862 220.469 35.172 220.305 36.1818C220.141 37.1916 220.827 38.1431 221.837 38.307C222.846 38.4709 223.797 37.7851 223.961 36.7753Z" fill="#A90466"/>
<path d="M246.183 36.7733C246.347 35.7635 245.661 34.812 244.652 34.6482C243.642 34.4843 242.691 35.17 242.527 36.1799C242.363 37.1897 243.049 38.1412 244.058 38.305C245.068 38.4689 246.019 37.7832 246.183 36.7733Z" fill="#A90466"/>
<path d="M268.424 36.4793C268.424 37.5022 267.595 38.3316 266.572 38.3316C265.549 38.3316 264.72 37.5022 264.72 36.4793C264.72 35.4561 265.549 34.627 266.572 34.627C267.595 34.627 268.424 35.4561 268.424 36.4793Z" fill="#A90466"/>
<path d="M290.628 36.7694C290.792 35.7596 290.106 34.8082 289.096 34.6443C288.087 34.4804 287.136 35.1661 286.972 36.176C286.808 37.1858 287.494 38.1373 288.503 38.3011C289.513 38.465 290.464 37.7793 290.628 36.7694Z" fill="#A90466"/>
<path d="M312.85 36.7699C313.014 35.7601 312.328 34.8087 311.319 34.6448C310.309 34.4809 309.358 35.1666 309.194 36.1764C309.03 37.1863 309.716 38.1377 310.726 38.3016C311.735 38.4655 312.686 37.7797 312.85 36.7699Z" fill="#A90466"/>
<path d="M335.072 36.768C335.236 35.7582 334.55 34.8067 333.541 34.6428C332.531 34.4789 331.58 35.1647 331.416 36.1745C331.252 37.1843 331.938 38.1358 332.947 38.2997C333.957 38.4636 334.908 37.7778 335.072 36.768Z" fill="#A90466"/>
<path d="M357.3 36.7807C357.461 35.7705 356.773 34.8209 355.763 34.6598C354.753 34.4986 353.804 35.187 353.643 36.1972C353.482 37.2074 354.17 38.157 355.18 38.3181C356.19 38.4792 357.139 37.7909 357.3 36.7807Z" fill="#A90466"/>
<path d="M379.523 36.7768C379.684 35.7665 378.996 34.817 377.986 34.6558C376.976 34.4947 376.026 35.1831 375.865 36.1933C375.704 37.2035 376.392 38.1531 377.402 38.3142C378.412 38.4753 379.362 37.787 379.523 36.7768Z" fill="#A90466"/>
</g>
<mask id="mask1_4744_6387" style="mask-type:luminance" maskUnits="userSpaceOnUse" x="0" y="0" width="400" height="518">
<path d="M399.811 0L0 0L0 517.547H399.811L399.811 0Z" fill="white"/>
</mask>
<g mask="url(#mask1_4744_6387)">
<path d="M11.0187 16.1133C12.0414 16.1133 12.8705 15.284 12.8705 14.261C12.8705 13.238 12.0414 12.4087 11.0187 12.4087C9.99595 12.4087 9.16687 13.238 9.16687 14.261C9.16687 15.284 9.99595 16.1133 11.0187 16.1133Z" fill="#A90466"/>
<path d="M33.2404 16.1158C34.2631 16.1158 35.0922 15.2865 35.0922 14.2635C35.0922 13.2404 34.2631 12.4111 33.2404 12.4111C32.2176 12.4111 31.3885 13.2404 31.3885 14.2635C31.3885 15.2865 32.2176 16.1158 33.2404 16.1158Z" fill="#A90466"/>
<path d="M55.462 16.1138C56.4848 16.1138 57.3139 15.2845 57.3139 14.2615C57.3139 13.2385 56.4848 12.4092 55.462 12.4092C54.4393 12.4092 53.6102 13.2385 53.6102 14.2615C53.6102 15.2845 54.4393 16.1138 55.462 16.1138Z" fill="#A90466"/>
<path d="M77.6838 16.1138C78.7066 16.1138 79.5357 15.2845 79.5357 14.2615C79.5357 13.2385 78.7066 12.4092 77.6838 12.4092C76.6611 12.4092 75.832 13.2385 75.832 14.2615C75.832 15.2845 76.6611 16.1138 77.6838 16.1138Z" fill="#A90466"/>
<path d="M99.907 16.1138C100.93 16.1138 101.759 15.2845 101.759 14.2615C101.759 13.2385 100.93 12.4092 99.907 12.4092C98.8843 12.4092 98.0552 13.2385 98.0552 14.2615C98.0552 15.2845 98.8843 16.1138 99.907 16.1138Z" fill="#A90466"/>
<path d="M122.129 16.1138C123.151 16.1138 123.98 15.2845 123.98 14.2615C123.98 13.2385 123.151 12.4092 122.129 12.4092C121.106 12.4092 120.277 13.2385 120.277 14.2615C120.277 15.2845 121.106 16.1138 122.129 16.1138Z" fill="#A90466"/>
<path d="M144.35 16.1143C145.373 16.1143 146.202 15.285 146.202 14.262C146.202 13.239 145.373 12.4097 144.35 12.4097C143.328 12.4097 142.499 13.239 142.499 14.262C142.499 15.285 143.328 16.1143 144.35 16.1143Z" fill="#A90466"/>
<path d="M166.573 16.1143C167.596 16.1143 168.425 15.285 168.425 14.262C168.425 13.239 167.596 12.4097 166.573 12.4097C165.551 12.4097 164.722 13.239 164.722 14.262C164.722 15.285 165.551 16.1143 166.573 16.1143Z" fill="#A90466"/>
<path d="M188.795 16.1143C189.818 16.1143 190.647 15.285 190.647 14.262C190.647 13.239 189.818 12.4097 188.795 12.4097C187.772 12.4097 186.943 13.239 186.943 14.262C186.943 15.285 187.772 16.1143 188.795 16.1143Z" fill="#A90466"/>
<path d="M211.017 16.1143C212.04 16.1143 212.869 15.285 212.869 14.262C212.869 13.239 212.04 12.4097 211.017 12.4097C209.994 12.4097 209.165 13.239 209.165 14.262C209.165 15.285 209.994 16.1143 211.017 16.1143Z" fill="#A90466"/>
<path d="M233.239 16.1143C234.261 16.1143 235.09 15.285 235.09 14.262C235.09 13.239 234.261 12.4097 233.239 12.4097C232.216 12.4097 231.387 13.239 231.387 14.262C231.387 15.285 232.216 16.1143 233.239 16.1143Z" fill="#A90466"/>
<path d="M255.461 16.1148C256.484 16.1148 257.313 15.2855 257.313 14.2625C257.313 13.2395 256.484 12.4102 255.461 12.4102C254.439 12.4102 253.609 13.2395 253.609 14.2625C253.609 15.2855 254.439 16.1148 255.461 16.1148Z" fill="#A90466"/>
<path d="M277.684 16.1148C278.706 16.1148 279.536 15.2855 279.536 14.2625C279.536 13.2395 278.706 12.4102 277.684 12.4102C276.661 12.4102 275.832 13.2395 275.832 14.2625C275.832 15.2855 276.661 16.1148 277.684 16.1148Z" fill="#A90466"/>
<path d="M299.905 16.1129C300.928 16.1129 301.757 15.2835 301.757 14.2605C301.757 13.2375 300.928 12.4082 299.905 12.4082C298.882 12.4082 298.053 13.2375 298.053 14.2605C298.053 15.2835 298.882 16.1129 299.905 16.1129Z" fill="#A90466"/>
<path d="M322.127 16.1148C323.15 16.1148 323.979 15.2855 323.979 14.2625C323.979 13.2395 323.15 12.4102 322.127 12.4102C321.104 12.4102 320.275 13.2395 320.275 14.2625C320.275 15.2855 321.104 16.1148 322.127 16.1148Z" fill="#A90466"/>
<path d="M344.349 16.1148C345.371 16.1148 346.2 15.2855 346.2 14.2625C346.2 13.2395 345.371 12.4102 344.349 12.4102C343.326 12.4102 342.497 13.2395 342.497 14.2625C342.497 15.2855 343.326 16.1148 344.349 16.1148Z" fill="#A90466"/>
<path d="M366.571 16.1133C367.594 16.1133 368.423 15.284 368.423 14.261C368.423 13.238 367.594 12.4087 366.571 12.4087C365.549 12.4087 364.719 13.238 364.719 14.261C364.719 15.284 365.549 16.1133 366.571 16.1133Z" fill="#A90466"/>
<path d="M388.793 16.1153C389.816 16.1153 390.645 15.286 390.645 14.263C390.645 13.24 389.816 12.4106 388.793 12.4106C387.771 12.4106 386.942 13.24 386.942 14.263C386.942 15.286 387.771 16.1153 388.793 16.1153Z" fill="#A90466"/>
</g>
<mask id="mask2_4744_6387" style="mask-type:luminance" maskUnits="userSpaceOnUse" x="0" y="0" width="400" height="518">
<path d="M399.811 0L0 0L0 517.547H399.811L399.811 0Z" fill="white"/>
</mask>
<g mask="url(#mask2_4744_6387)">
<path d="M11.0184 60.5704C12.0412 60.5704 12.8702 59.7411 12.8702 58.7181C12.8702 57.695 12.0412 56.8657 11.0184 56.8657C9.99571 56.8657 9.16663 57.695 9.16663 58.7181C9.16663 59.7411 9.99571 60.5704 11.0184 60.5704Z" fill="#A90466"/>
<path d="M33.2401 60.5728C34.2628 60.5728 35.0919 59.7435 35.0919 58.7205C35.0919 57.6975 34.2628 56.8682 33.2401 56.8682C32.2174 56.8682 31.3883 57.6975 31.3883 58.7205C31.3883 59.7435 32.2174 60.5728 33.2401 60.5728Z" fill="#A90466"/>
<path d="M55.4618 60.5709C56.4845 60.5709 57.3136 59.7416 57.3136 58.7185C57.3136 57.6955 56.4845 56.8662 55.4618 56.8662C54.4391 56.8662 53.61 57.6955 53.61 58.7185C53.61 59.7416 54.4391 60.5709 55.4618 60.5709Z" fill="#A90466"/>
<path d="M77.6836 60.5709C78.7063 60.5709 79.5354 59.7416 79.5354 58.7185C79.5354 57.6955 78.7063 56.8662 77.6836 56.8662C76.6609 56.8662 75.8318 57.6955 75.8318 58.7185C75.8318 59.7416 76.6609 60.5709 77.6836 60.5709Z" fill="#A90466"/>
<path d="M99.9067 60.5709C100.929 60.5709 101.759 59.7416 101.759 58.7185C101.759 57.6955 100.929 56.8662 99.9067 56.8662C98.884 56.8662 98.0549 57.6955 98.0549 58.7185C98.0549 59.7416 98.884 60.5709 99.9067 60.5709Z" fill="#A90466"/>
<path d="M122.128 60.5709C123.151 60.5709 123.98 59.7416 123.98 58.7185C123.98 57.6955 123.151 56.8662 122.128 56.8662C121.106 56.8662 120.277 57.6955 120.277 58.7185C120.277 59.7416 121.106 60.5709 122.128 60.5709Z" fill="#A90466"/>
<path d="M144.35 60.5714C145.373 60.5714 146.202 59.742 146.202 58.719C146.202 57.696 145.373 56.8667 144.35 56.8667C143.327 56.8667 142.498 57.696 142.498 58.719C142.498 59.742 143.327 60.5714 144.35 60.5714Z" fill="#A90466"/>
<path d="M166.573 60.5714C167.596 60.5714 168.425 59.742 168.425 58.719C168.425 57.696 167.596 56.8667 166.573 56.8667C165.551 56.8667 164.721 57.696 164.721 58.719C164.721 59.742 165.551 60.5714 166.573 60.5714Z" fill="#A90466"/>
<path d="M188.795 60.5714C189.818 60.5714 190.647 59.742 190.647 58.719C190.647 57.696 189.818 56.8667 188.795 56.8667C187.772 56.8667 186.943 57.696 186.943 58.719C186.943 59.742 187.772 60.5714 188.795 60.5714Z" fill="#A90466"/>
<path d="M211.017 60.5714C212.039 60.5714 212.868 59.742 212.868 58.719C212.868 57.696 212.039 56.8667 211.017 56.8667C209.994 56.8667 209.165 57.696 209.165 58.719C209.165 59.742 209.994 60.5714 211.017 60.5714Z" fill="#A90466"/>
<path d="M233.238 60.5714C234.261 60.5714 235.09 59.742 235.09 58.719C235.09 57.696 234.261 56.8667 233.238 56.8667C232.216 56.8667 231.387 57.696 231.387 58.719C231.387 59.742 232.216 60.5714 233.238 60.5714Z" fill="#A90466"/>
<path d="M255.461 60.5718C256.484 60.5718 257.313 59.7425 257.313 58.7195C257.313 57.6965 256.484 56.8672 255.461 56.8672C254.438 56.8672 253.609 57.6965 253.609 58.7195C253.609 59.7425 254.438 60.5718 255.461 60.5718Z" fill="#A90466"/>
<path d="M277.683 60.5718C278.706 60.5718 279.535 59.7425 279.535 58.7195C279.535 57.6965 278.706 56.8672 277.683 56.8672C276.66 56.8672 275.831 57.6965 275.831 58.7195C275.831 59.7425 276.66 60.5718 277.683 60.5718Z" fill="#A90466"/>
<path d="M299.905 60.5699C300.928 60.5699 301.757 59.7406 301.757 58.7176C301.757 57.6946 300.928 56.8652 299.905 56.8652C298.882 56.8652 298.053 57.6946 298.053 58.7176C298.053 59.7406 298.882 60.5699 299.905 60.5699Z" fill="#A90466"/>
<path d="M322.127 60.5718C323.149 60.5718 323.978 59.7425 323.978 58.7195C323.978 57.6965 323.149 56.8672 322.127 56.8672C321.104 56.8672 320.275 57.6965 320.275 58.7195C320.275 59.7425 321.104 60.5718 322.127 60.5718Z" fill="#A90466"/>
<path d="M344.348 60.5718C345.371 60.5718 346.2 59.7425 346.2 58.7195C346.2 57.6965 345.371 56.8672 344.348 56.8672C343.326 56.8672 342.497 57.6965 342.497 58.7195C342.497 59.7425 343.326 60.5718 344.348 60.5718Z" fill="#A90466"/>
<path d="M366.571 60.5704C367.594 60.5704 368.423 59.7411 368.423 58.7181C368.423 57.695 367.594 56.8657 366.571 56.8657C365.548 56.8657 364.719 57.695 364.719 58.7181C364.719 59.7411 365.548 60.5704 366.571 60.5704Z" fill="#A90466"/>
<path d="M388.793 60.5723C389.815 60.5723 390.645 59.743 390.645 58.72C390.645 57.697 389.815 56.8677 388.793 56.8677C387.77 56.8677 386.941 57.697 386.941 58.72C386.941 59.743 387.77 60.5723 388.793 60.5723Z" fill="#A90466"/>
</g>
<mask id="mask3_4744_6387" style="mask-type:luminance" maskUnits="userSpaceOnUse" x="0" y="0" width="400" height="518">
<path d="M399.811 0L0 0L0 517.547H399.811L399.811 0Z" fill="white"/>
</mask>
<g mask="url(#mask3_4744_6387)">
<path d="M22.1306 82.7974C23.1533 82.7974 23.9824 81.9681 23.9824 80.9451C23.9824 79.9221 23.1533 79.0928 22.1306 79.0928C21.1079 79.0928 20.2788 79.9221 20.2788 80.9451C20.2788 81.9681 21.1079 82.7974 22.1306 82.7974Z" fill="#A90466"/>
<path d="M44.3523 82.7999C45.375 82.7999 46.2041 81.9706 46.2041 80.9475C46.2041 79.9245 45.375 79.0952 44.3523 79.0952C43.3296 79.0952 42.5005 79.9245 42.5005 80.9475C42.5005 81.9706 43.3296 82.7999 44.3523 82.7999Z" fill="#A90466"/>
<path d="M66.574 82.7979C67.5967 82.7979 68.4258 81.9686 68.4258 80.9456C68.4258 79.9226 67.5967 79.0933 66.574 79.0933C65.5512 79.0933 64.7222 79.9226 64.7222 80.9456C64.7222 81.9686 65.5512 82.7979 66.574 82.7979Z" fill="#A90466"/>
<path d="M88.7957 82.7979C89.8184 82.7979 90.6475 81.9686 90.6475 80.9456C90.6475 79.9226 89.8184 79.0933 88.7957 79.0933C87.7729 79.0933 86.9438 79.9226 86.9438 80.9456C86.9438 81.9686 87.7729 82.7979 88.7957 82.7979Z" fill="#A90466"/>
<path d="M111.019 82.7979C112.042 82.7979 112.871 81.9686 112.871 80.9456C112.871 79.9226 112.042 79.0933 111.019 79.0933C109.996 79.0933 109.167 79.9226 109.167 80.9456C109.167 81.9686 109.996 82.7979 111.019 82.7979Z" fill="#A90466"/>
<path d="M133.241 82.7979C134.263 82.7979 135.092 81.9686 135.092 80.9456C135.092 79.9226 134.263 79.0933 133.241 79.0933C132.218 79.0933 131.389 79.9226 131.389 80.9456C131.389 81.9686 132.218 82.7979 133.241 82.7979Z" fill="#A90466"/>
<path d="M155.462 82.7984C156.485 82.7984 157.314 81.9691 157.314 80.9461C157.314 79.9231 156.485 79.0938 155.462 79.0938C154.44 79.0938 153.61 79.9231 153.61 80.9461C153.61 81.9691 154.44 82.7984 155.462 82.7984Z" fill="#A90466"/>
<path d="M177.685 82.7984C178.708 82.7984 179.537 81.9691 179.537 80.9461C179.537 79.9231 178.708 79.0938 177.685 79.0938C176.663 79.0938 175.834 79.9231 175.834 80.9461C175.834 81.9691 176.663 82.7984 177.685 82.7984Z" fill="#A90466"/>
<path d="M199.907 82.7984C200.93 82.7984 201.759 81.9691 201.759 80.9461C201.759 79.9231 200.93 79.0938 199.907 79.0938C198.884 79.0938 198.055 79.9231 198.055 80.9461C198.055 81.9691 198.884 82.7984 199.907 82.7984Z" fill="#A90466"/>
<path d="M222.129 82.7984C223.152 82.7984 223.981 81.9691 223.981 80.9461C223.981 79.9231 223.152 79.0938 222.129 79.0938C221.106 79.0938 220.277 79.9231 220.277 80.9461C220.277 81.9691 221.106 82.7984 222.129 82.7984Z" fill="#A90466"/>
<path d="M244.351 82.7984C245.373 82.7984 246.202 81.9691 246.202 80.9461C246.202 79.9231 245.373 79.0938 244.351 79.0938C243.328 79.0938 242.499 79.9231 242.499 80.9461C242.499 81.9691 243.328 82.7984 244.351 82.7984Z" fill="#A90466"/>
<path d="M268.424 80.9466C268.424 81.9695 267.595 82.7989 266.572 82.7989C265.549 82.7989 264.72 81.9695 264.72 80.9466C264.72 79.9234 265.55 79.0942 266.572 79.0942C267.595 79.0942 268.424 79.9236 268.424 80.9466Z" fill="#A90466"/>
<path d="M288.794 82.7989C289.817 82.7989 290.646 81.9696 290.646 80.9466C290.646 79.9236 289.817 79.0942 288.794 79.0942C287.771 79.0942 286.942 79.9236 286.942 80.9466C286.942 81.9696 287.771 82.7989 288.794 82.7989Z" fill="#A90466"/>
<path d="M311.017 82.7969C312.04 82.7969 312.869 81.9676 312.869 80.9446C312.869 79.9216 312.04 79.0923 311.017 79.0923C309.994 79.0923 309.165 79.9216 309.165 80.9446C309.165 81.9676 309.994 82.7969 311.017 82.7969Z" fill="#A90466"/>
<path d="M333.239 82.7989C334.262 82.7989 335.091 81.9696 335.091 80.9466C335.091 79.9236 334.262 79.0942 333.239 79.0942C332.216 79.0942 331.387 79.9236 331.387 80.9466C331.387 81.9696 332.216 82.7989 333.239 82.7989Z" fill="#A90466"/>
<path d="M355.46 82.7989C356.483 82.7989 357.312 81.9696 357.312 80.9466C357.312 79.9236 356.483 79.0942 355.46 79.0942C354.438 79.0942 353.609 79.9236 353.609 80.9466C353.609 81.9696 354.438 82.7989 355.46 82.7989Z" fill="#A90466"/>
<path d="M377.682 82.7974C378.705 82.7974 379.534 81.9681 379.534 80.9451C379.534 79.9221 378.705 79.0928 377.682 79.0928C376.66 79.0928 375.83 79.9221 375.83 80.9451C375.83 81.9681 376.66 82.7974 377.682 82.7974Z" fill="#A90466"/>
</g>
<mask id="mask4_4744_6387" style="mask-type:luminance" maskUnits="userSpaceOnUse" x="0" y="0" width="400" height="518">
<path d="M399.811 0L0 0L0 517.547H399.811L399.811 0Z" fill="white"/>
</mask>
<g mask="url(#mask4_4744_6387)">
<path d="M22.1305 127.254C23.1532 127.254 23.9823 126.425 23.9823 125.402C23.9823 124.379 23.1532 123.55 22.1305 123.55C21.1078 123.55 20.2787 124.379 20.2787 125.402C20.2787 126.425 21.1078 127.254 22.1305 127.254Z" fill="#A90466"/>
<path d="M44.3522 127.257C45.3749 127.257 46.204 126.428 46.204 125.405C46.204 124.382 45.3749 123.552 44.3522 123.552C43.3294 123.552 42.5004 124.382 42.5004 125.405C42.5004 126.428 43.3294 127.257 44.3522 127.257Z" fill="#A90466"/>
<path d="M66.5739 127.255C67.5966 127.255 68.4257 126.426 68.4257 125.403C68.4257 124.38 67.5966 123.55 66.5739 123.55C65.5511 123.55 64.722 124.38 64.722 125.403C64.722 126.426 65.5511 127.255 66.5739 127.255Z" fill="#A90466"/>
<path d="M88.7957 127.255C89.8184 127.255 90.6475 126.426 90.6475 125.403C90.6475 124.38 89.8184 123.55 88.7957 123.55C87.7729 123.55 86.9438 124.38 86.9438 125.403C86.9438 126.426 87.7729 127.255 88.7957 127.255Z" fill="#A90466"/>
<path d="M111.019 127.255C112.042 127.255 112.871 126.426 112.871 125.403C112.871 124.38 112.042 123.55 111.019 123.55C109.996 123.55 109.167 124.38 109.167 125.403C109.167 126.426 109.996 127.255 111.019 127.255Z" fill="#A90466"/>
<path d="M133.24 127.255C134.263 127.255 135.092 126.426 135.092 125.403C135.092 124.38 134.263 123.55 133.24 123.55C132.218 123.55 131.389 124.38 131.389 125.403C131.389 126.426 132.218 127.255 133.24 127.255Z" fill="#A90466"/>
<path d="M155.462 127.255C156.485 127.255 157.314 126.426 157.314 125.403C157.314 124.38 156.485 123.551 155.462 123.551C154.439 123.551 153.61 124.38 153.61 125.403C153.61 126.426 154.439 127.255 155.462 127.255Z" fill="#A90466"/>
<path d="M177.685 127.255C178.708 127.255 179.537 126.426 179.537 125.403C179.537 124.38 178.708 123.551 177.685 123.551C176.663 123.551 175.833 124.38 175.833 125.403C175.833 126.426 176.663 127.255 177.685 127.255Z" fill="#A90466"/>
<path d="M199.907 127.255C200.93 127.255 201.759 126.426 201.759 125.403C201.759 124.38 200.93 123.551 199.907 123.551C198.884 123.551 198.055 124.38 198.055 125.403C198.055 126.426 198.884 127.255 199.907 127.255Z" fill="#A90466"/>
<path d="M222.129 127.255C223.151 127.255 223.981 126.426 223.981 125.403C223.981 124.38 223.151 123.551 222.129 123.551C221.106 123.551 220.277 124.38 220.277 125.403C220.277 126.426 221.106 127.255 222.129 127.255Z" fill="#A90466"/>
<path d="M244.35 127.255C245.373 127.255 246.202 126.426 246.202 125.403C246.202 124.38 245.373 123.551 244.35 123.551C243.328 123.551 242.499 124.38 242.499 125.403C242.499 126.426 243.328 127.255 244.35 127.255Z" fill="#A90466"/>
<path d="M268.424 125.404C268.424 126.427 267.595 127.256 266.572 127.256C265.549 127.256 264.72 126.427 264.72 125.404C264.72 124.381 265.55 123.551 266.572 123.551C267.595 123.551 268.424 124.38 268.424 125.404Z" fill="#A90466"/>
<path d="M288.794 127.256C289.817 127.256 290.646 126.427 290.646 125.404C290.646 124.381 289.817 123.551 288.794 123.551C287.771 123.551 286.942 124.381 286.942 125.404C286.942 126.427 287.771 127.256 288.794 127.256Z" fill="#A90466"/>
<path d="M311.017 127.254C312.04 127.254 312.869 126.425 312.869 125.402C312.869 124.379 312.04 123.549 311.017 123.549C309.994 123.549 309.165 124.379 309.165 125.402C309.165 126.425 309.994 127.254 311.017 127.254Z" fill="#A90466"/>
<path d="M333.239 127.256C334.261 127.256 335.091 126.427 335.091 125.404C335.091 124.381 334.261 123.551 333.239 123.551C332.216 123.551 331.387 124.381 331.387 125.404C331.387 126.427 332.216 127.256 333.239 127.256Z" fill="#A90466"/>
<path d="M355.46 127.256C356.483 127.256 357.312 126.427 357.312 125.404C357.312 124.381 356.483 123.551 355.46 123.551C354.438 123.551 353.609 124.381 353.609 125.404C353.609 126.427 354.438 127.256 355.46 127.256Z" fill="#A90466"/>
<path d="M377.682 127.254C378.705 127.254 379.534 126.425 379.534 125.402C379.534 124.379 378.705 123.55 377.682 123.55C376.659 123.55 375.83 124.379 375.83 125.402C375.83 126.425 376.659 127.254 377.682 127.254Z" fill="#A90466"/>
</g>
<mask id="mask5_4744_6387" style="mask-type:luminance" maskUnits="userSpaceOnUse" x="0" y="0" width="400" height="518">
<path d="M399.811 0L0 0L0 517.547H399.811L399.811 0Z" fill="white"/>
</mask>
<g mask="url(#mask5_4744_6387)">
<path d="M11.0183 105.029C12.041 105.029 12.8701 104.2 12.8701 103.177C12.8701 102.154 12.041 101.325 11.0183 101.325C9.99559 101.325 9.1665 102.154 9.1665 103.177C9.1665 104.2 9.99559 105.029 11.0183 105.029Z" fill="#A90466"/>
<path d="M33.2405 105.03C34.2632 105.03 35.0923 104.201 35.0923 103.178C35.0923 102.155 34.2632 101.325 33.2405 101.325C32.2178 101.325 31.3887 102.155 31.3887 103.178C31.3887 104.201 32.2178 105.03 33.2405 105.03Z" fill="#A90466"/>
<path d="M55.4622 105.03C56.4849 105.03 57.314 104.201 57.314 103.178C57.314 102.155 56.4849 101.325 55.4622 101.325C54.4394 101.325 53.6104 102.155 53.6104 103.178C53.6104 104.201 54.4394 105.03 55.4622 105.03Z" fill="#A90466"/>
<path d="M77.7779 105.021C78.7994 104.972 79.5872 104.103 79.5375 103.081C79.4878 102.059 78.6194 101.271 77.5979 101.321C76.5764 101.371 75.7886 102.239 75.8383 103.261C75.888 104.283 76.7564 105.071 77.7779 105.021Z" fill="#A90466"/>
<path d="M99.9066 105.03C100.929 105.03 101.758 104.201 101.758 103.178C101.758 102.155 100.929 101.325 99.9066 101.325C98.8839 101.325 98.0548 102.155 98.0548 103.178C98.0548 104.201 98.8839 105.03 99.9066 105.03Z" fill="#A90466"/>
<path d="M122.128 105.03C123.151 105.03 123.98 104.201 123.98 103.178C123.98 102.155 123.151 101.325 122.128 101.325C121.106 101.325 120.276 102.155 120.276 103.178C120.276 104.201 121.106 105.03 122.128 105.03Z" fill="#A90466"/>
<path d="M144.35 105.03C145.373 105.03 146.202 104.201 146.202 103.178C146.202 102.155 145.373 101.326 144.35 101.326C143.328 101.326 142.499 102.155 142.499 103.178C142.499 104.201 143.328 105.03 144.35 105.03Z" fill="#A90466"/>
<path d="M166.573 105.03C167.596 105.03 168.425 104.201 168.425 103.178C168.425 102.155 167.596 101.326 166.573 101.326C165.55 101.326 164.721 102.155 164.721 103.178C164.721 104.201 165.55 105.03 166.573 105.03Z" fill="#A90466"/>
<path d="M188.795 105.03C189.818 105.03 190.647 104.201 190.647 103.178C190.647 102.155 189.818 101.326 188.795 101.326C187.772 101.326 186.943 102.155 186.943 103.178C186.943 104.201 187.772 105.03 188.795 105.03Z" fill="#A90466"/>
<path d="M211.017 105.03C212.039 105.03 212.868 104.201 212.868 103.178C212.868 102.155 212.039 101.326 211.017 101.326C209.994 101.326 209.165 102.155 209.165 103.178C209.165 104.201 209.994 105.03 211.017 105.03Z" fill="#A90466"/>
<path d="M233.238 105.031C234.261 105.031 235.09 104.202 235.09 103.178C235.09 102.155 234.261 101.326 233.238 101.326C232.216 101.326 231.386 102.155 231.386 103.178C231.386 104.202 232.216 105.031 233.238 105.031Z" fill="#A90466"/>
<path d="M257.297 103.347C257.399 102.329 256.657 101.421 255.64 101.318C254.622 101.215 253.714 101.957 253.612 102.975C253.509 103.993 254.251 104.902 255.268 105.004C256.286 105.107 257.194 104.365 257.297 103.347Z" fill="#A90466"/>
<path d="M277.683 105.031C278.706 105.031 279.535 104.202 279.535 103.178C279.535 102.155 278.706 101.326 277.683 101.326C276.66 101.326 275.831 102.155 275.831 103.178C275.831 104.202 276.66 105.031 277.683 105.031Z" fill="#A90466"/>
<path d="M299.905 105.029C300.928 105.029 301.757 104.2 301.757 103.177C301.757 102.154 300.928 101.324 299.905 101.324C298.882 101.324 298.053 102.154 298.053 103.177C298.053 104.2 298.882 105.029 299.905 105.029Z" fill="#A90466"/>
<path d="M322.153 105.017C323.176 105.003 323.993 104.163 323.98 103.14C323.966 102.117 323.126 101.299 322.103 101.313C321.08 101.327 320.262 102.167 320.276 103.19C320.29 104.213 321.13 105.031 322.153 105.017Z" fill="#A90466"/>
<path d="M344.348 105.031C345.371 105.031 346.2 104.202 346.2 103.178C346.2 102.155 345.371 101.326 344.348 101.326C343.325 101.326 342.496 102.155 342.496 103.178C342.496 104.202 343.325 105.031 344.348 105.031Z" fill="#A90466"/>
<path d="M366.571 105.029C367.594 105.029 368.423 104.2 368.423 103.177C368.423 102.154 367.594 101.325 366.571 101.325C365.549 101.325 364.72 102.154 364.72 103.177C364.72 104.2 365.549 105.029 366.571 105.029Z" fill="#A90466"/>
<path d="M388.793 105.031C389.816 105.031 390.645 104.202 390.645 103.179C390.645 102.156 389.816 101.327 388.793 101.327C387.77 101.327 386.941 102.156 386.941 103.179C386.941 104.202 387.77 105.031 388.793 105.031Z" fill="#A90466"/>
</g>
<mask id="mask6_4744_6387" style="mask-type:luminance" maskUnits="userSpaceOnUse" x="0" y="0" width="400" height="518">
<path d="M399.811 0L0 0L0 517.547H399.811L399.811 0Z" fill="white"/>
</mask>
<g mask="url(#mask6_4744_6387)">
<path d="M11.0186 149.483C12.0413 149.483 12.8704 148.654 12.8704 147.631C12.8704 146.608 12.0413 145.778 11.0186 145.778C9.99583 145.778 9.16675 146.608 9.16675 147.631C9.16675 148.654 9.99583 149.483 11.0186 149.483Z" fill="#A90466"/>
<path d="M33.2402 149.485C34.263 149.485 35.0921 148.656 35.0921 147.633C35.0921 146.61 34.263 145.781 33.2402 145.781C32.2175 145.781 31.3884 146.61 31.3884 147.633C31.3884 148.656 32.2175 149.485 33.2402 149.485Z" fill="#A90466"/>
<path d="M55.4619 149.483C56.4846 149.483 57.3137 148.654 57.3137 147.631C57.3137 146.608 56.4846 145.779 55.4619 145.779C54.4392 145.779 53.6101 146.608 53.6101 147.631C53.6101 148.654 54.4392 149.483 55.4619 149.483Z" fill="#A90466"/>
<path d="M77.7109 149.48C78.7336 149.467 79.5516 148.626 79.5381 147.604C79.5246 146.581 78.6847 145.762 77.6621 145.776C76.6394 145.789 75.8214 146.63 75.8349 147.652C75.8484 148.675 76.6883 149.494 77.7109 149.48Z" fill="#A90466"/>
<path d="M99.9069 149.483C100.93 149.483 101.759 148.654 101.759 147.631C101.759 146.608 100.93 145.779 99.9069 145.779C98.8841 145.779 98.0551 146.608 98.0551 147.631C98.0551 148.654 98.8841 149.483 99.9069 149.483Z" fill="#A90466"/>
<path d="M122.129 149.483C123.151 149.483 123.98 148.654 123.98 147.631C123.98 146.608 123.151 145.779 122.129 145.779C121.106 145.779 120.277 146.608 120.277 147.631C120.277 148.654 121.106 149.483 122.129 149.483Z" fill="#A90466"/>
<path d="M144.35 149.484C145.373 149.484 146.202 148.655 146.202 147.632C146.202 146.609 145.373 145.779 144.35 145.779C143.327 145.779 142.498 146.609 142.498 147.632C142.498 148.655 143.327 149.484 144.35 149.484Z" fill="#A90466"/>
<path d="M166.573 149.484C167.596 149.484 168.425 148.655 168.425 147.632C168.425 146.609 167.596 145.779 166.573 145.779C165.55 145.779 164.721 146.609 164.721 147.632C164.721 148.655 165.55 149.484 166.573 149.484Z" fill="#A90466"/>
<path d="M188.795 149.484C189.817 149.484 190.646 148.655 190.646 147.632C190.646 146.609 189.817 145.779 188.795 145.779C187.772 145.779 186.943 146.609 186.943 147.632C186.943 148.655 187.772 149.484 188.795 149.484Z" fill="#A90466"/>
<path d="M211.016 149.484C212.039 149.484 212.868 148.655 212.868 147.632C212.868 146.609 212.039 145.779 211.016 145.779C209.994 145.779 209.164 146.609 209.164 147.632C209.164 148.655 209.994 149.484 211.016 149.484Z" fill="#A90466"/>
<path d="M233.238 149.484C234.261 149.484 235.09 148.655 235.09 147.632C235.09 146.609 234.261 145.779 233.238 145.779C232.216 145.779 231.387 146.609 231.387 147.632C231.387 148.655 232.216 149.484 233.238 149.484Z" fill="#A90466"/>
<path d="M255.461 149.484C256.484 149.484 257.313 148.655 257.313 147.632C257.313 146.609 256.484 145.78 255.461 145.78C254.438 145.78 253.609 146.609 253.609 147.632C253.609 148.655 254.438 149.484 255.461 149.484Z" fill="#A90466"/>
<path d="M277.683 149.484C278.706 149.484 279.535 148.655 279.535 147.632C279.535 146.609 278.706 145.78 277.683 145.78C276.66 145.78 275.831 146.609 275.831 147.632C275.831 148.655 276.66 149.484 277.683 149.484Z" fill="#A90466"/>
<path d="M299.905 149.484C300.927 149.484 301.756 148.655 301.756 147.632C301.756 146.609 300.927 145.78 299.905 145.78C298.882 145.78 298.053 146.609 298.053 147.632C298.053 148.655 298.882 149.484 299.905 149.484Z" fill="#A90466"/>
<path d="M322.132 149.498C323.155 149.494 323.98 148.661 323.976 147.638C323.972 146.615 323.139 145.789 322.117 145.794C321.094 145.798 320.268 146.631 320.272 147.654C320.277 148.677 321.109 149.503 322.132 149.498Z" fill="#A90466"/>
<path d="M344.349 149.484C345.371 149.484 346.2 148.655 346.2 147.632C346.2 146.609 345.371 145.78 344.349 145.78C343.326 145.78 342.497 146.609 342.497 147.632C342.497 148.655 343.326 149.484 344.349 149.484Z" fill="#A90466"/>
<path d="M366.571 149.485C367.594 149.485 368.423 148.656 368.423 147.633C368.423 146.61 367.594 145.78 366.571 145.78C365.548 145.78 364.719 146.61 364.719 147.633C364.719 148.656 365.548 149.485 366.571 149.485Z" fill="#A90466"/>
<path d="M388.793 149.485C389.816 149.485 390.645 148.656 390.645 147.633C390.645 146.61 389.816 145.78 388.793 145.78C387.77 145.78 386.941 146.61 386.941 147.633C386.941 148.656 387.77 149.485 388.793 149.485Z" fill="#A90466"/>
</g>
<mask id="mask7_4744_6387" style="mask-type:luminance" maskUnits="userSpaceOnUse" x="0" y="0" width="400" height="518">
<path d="M399.811 0L0 0L0 517.547H399.811L399.811 0Z" fill="white"/>
</mask>
<g mask="url(#mask7_4744_6387)">
<path d="M23.4369 171.167C24.1601 170.444 24.1601 169.271 23.4369 168.548C22.7137 167.824 21.5413 167.824 20.8181 168.548C20.0949 169.271 20.0949 170.444 20.8181 171.167C21.5412 171.891 22.7137 171.891 23.4369 171.167Z" fill="#A90466"/>
<path d="M45.6591 171.167C46.3822 170.444 46.3822 169.271 45.6591 168.548C44.9359 167.824 43.7634 167.824 43.0402 168.548C42.3171 169.271 42.3171 170.444 43.0402 171.167C43.7634 171.891 44.9359 171.891 45.6591 171.167Z" fill="#A90466"/>
<path d="M67.8808 171.169C68.6039 170.446 68.6039 169.273 67.8808 168.55C67.1576 167.826 65.9851 167.826 65.2619 168.55C64.5388 169.273 64.5388 170.446 65.2619 171.169C65.9851 171.893 67.1576 171.893 67.8808 171.169Z" fill="#A90466"/>
<path d="M90.1026 171.169C90.8257 170.446 90.8257 169.273 90.1026 168.55C89.3794 167.826 88.2069 167.826 87.4837 168.55C86.7606 169.273 86.7606 170.446 87.4837 171.169C88.2069 171.893 89.3794 171.893 90.1026 171.169Z" fill="#A90466"/>
<path d="M112.326 171.168C113.049 170.444 113.049 169.271 112.326 168.548C111.603 167.825 110.43 167.825 109.707 168.548C108.984 169.272 108.984 170.444 109.707 171.168C110.43 171.891 111.603 171.891 112.326 171.168Z" fill="#A90466"/>
<path d="M133.847 171.603C134.812 171.265 135.32 170.208 134.982 169.242C134.643 168.277 133.586 167.769 132.621 168.108C131.656 168.446 131.148 169.503 131.487 170.469C131.825 171.434 132.882 171.942 133.847 171.603Z" fill="#A90466"/>
<path d="M156.626 171.286C157.419 170.639 157.538 169.473 156.892 168.68C156.246 167.887 155.079 167.768 154.287 168.414C153.494 169.061 153.375 170.227 154.021 171.02C154.667 171.813 155.834 171.932 156.626 171.286Z" fill="#A90466"/>
<path d="M178.99 171.168C179.713 170.444 179.713 169.271 178.99 168.548C178.267 167.825 177.094 167.825 176.371 168.548C175.648 169.272 175.648 170.444 176.371 171.168C177.094 171.891 178.267 171.891 178.99 171.168Z" fill="#A90466"/>
<path d="M201.409 170.92C201.995 170.081 201.791 168.927 200.953 168.34C200.115 167.754 198.96 167.959 198.374 168.797C197.788 169.635 197.993 170.79 198.831 171.376C199.669 171.963 200.823 171.758 201.409 170.92Z" fill="#A90466"/>
<path d="M223.434 171.17C224.157 170.447 224.157 169.274 223.434 168.551C222.711 167.827 221.539 167.827 220.815 168.551C220.092 169.274 220.092 170.447 220.815 171.17C221.539 171.894 222.711 171.893 223.434 171.17Z" fill="#A90466"/>
<path d="M245.656 171.17C246.379 170.447 246.379 169.274 245.656 168.551C244.933 167.827 243.76 167.827 243.037 168.551C242.314 169.274 242.314 170.447 243.037 171.17C243.76 171.894 244.933 171.893 245.656 171.17Z" fill="#A90466"/>
<path d="M268.423 169.86C268.423 170.883 267.594 171.712 266.571 171.712C265.549 171.712 264.72 170.883 264.72 169.86C264.72 168.837 265.549 168.008 266.571 168.008C267.594 168.008 268.423 168.837 268.423 169.86Z" fill="#A90466"/>
<path d="M290.1 171.17C290.823 170.447 290.823 169.274 290.1 168.551C289.377 167.827 288.204 167.827 287.481 168.551C286.758 169.274 286.758 170.447 287.481 171.17C288.204 171.894 289.377 171.893 290.1 171.17Z" fill="#A90466"/>
<path d="M312.321 171.17C313.045 170.447 313.045 169.274 312.321 168.551C311.598 167.827 310.426 167.827 309.703 168.551C308.979 169.274 308.979 170.447 309.703 171.17C310.426 171.894 311.598 171.893 312.321 171.17Z" fill="#A90466"/>
<path d="M334.543 171.171C335.266 170.447 335.266 169.274 334.543 168.551C333.82 167.828 332.648 167.828 331.924 168.551C331.201 169.274 331.201 170.447 331.924 171.171C332.648 171.894 333.82 171.894 334.543 171.171Z" fill="#A90466"/>
<path d="M356.765 171.171C357.489 170.447 357.489 169.274 356.765 168.551C356.042 167.828 354.87 167.828 354.147 168.551C353.423 169.274 353.423 170.447 354.147 171.171C354.87 171.894 356.042 171.894 356.765 171.171Z" fill="#A90466"/>
<path d="M378.989 171.171C379.712 170.447 379.712 169.274 378.989 168.551C378.265 167.828 377.093 167.828 376.37 168.551C375.647 169.274 375.647 170.447 376.37 171.171C377.093 171.894 378.265 171.894 378.989 171.171Z" fill="#A90466"/>
</g>
<mask id="mask8_4744_6387" style="mask-type:luminance" maskUnits="userSpaceOnUse" x="0" y="0" width="400" height="518">
<path d="M399.811 0L0 0L0 517.547H399.811L399.811 0Z" fill="white"/>
</mask>
<g mask="url(#mask8_4744_6387)">
<path d="M22.1306 216.169C23.1533 216.169 23.9824 215.339 23.9824 214.316C23.9824 213.293 23.1533 212.464 22.1306 212.464C21.1079 212.464 20.2788 213.293 20.2788 214.316C20.2788 215.339 21.1079 216.169 22.1306 216.169Z" fill="#A90466"/>
<path d="M44.3523 216.171C45.375 216.171 46.2041 215.342 46.2041 214.319C46.2041 213.296 45.375 212.466 44.3523 212.466C43.3296 212.466 42.5005 213.296 42.5005 214.319C42.5005 215.342 43.3296 216.171 44.3523 216.171Z" fill="#A90466"/>
<path d="M66.574 216.169C67.5967 216.169 68.4258 215.34 68.4258 214.317C68.4258 213.294 67.5967 212.464 66.574 212.464C65.5512 212.464 64.7222 213.294 64.7222 214.317C64.7222 215.34 65.5512 216.169 66.574 216.169Z" fill="#A90466"/>
<path d="M88.7957 216.169C89.8184 216.169 90.6475 215.34 90.6475 214.317C90.6475 213.294 89.8184 212.464 88.7957 212.464C87.7729 212.464 86.9438 213.294 86.9438 214.317C86.9438 215.34 87.7729 216.169 88.7957 216.169Z" fill="#A90466"/>
<path d="M111.019 216.169C112.042 216.169 112.871 215.34 112.871 214.317C112.871 213.294 112.042 212.464 111.019 212.464C109.996 212.464 109.167 213.294 109.167 214.317C109.167 215.34 109.996 216.169 111.019 216.169Z" fill="#A90466"/>
<path d="M133.241 216.169C134.263 216.169 135.092 215.34 135.092 214.317C135.092 213.294 134.263 212.464 133.241 212.464C132.218 212.464 131.389 213.294 131.389 214.317C131.389 215.34 132.218 216.169 133.241 216.169Z" fill="#A90466"/>
<path d="M155.462 216.17C156.485 216.17 157.314 215.34 157.314 214.317C157.314 213.294 156.485 212.465 155.462 212.465C154.44 212.465 153.61 213.294 153.61 214.317C153.61 215.34 154.44 216.17 155.462 216.17Z" fill="#A90466"/>
<path d="M177.685 216.17C178.708 216.17 179.537 215.34 179.537 214.317C179.537 213.294 178.708 212.465 177.685 212.465C176.663 212.465 175.834 213.294 175.834 214.317C175.834 215.34 176.663 216.17 177.685 216.17Z" fill="#A90466"/>
<path d="M199.907 216.17C200.93 216.17 201.759 215.34 201.759 214.317C201.759 213.294 200.93 212.465 199.907 212.465C198.884 212.465 198.055 213.294 198.055 214.317C198.055 215.34 198.884 216.17 199.907 216.17Z" fill="#A90466"/>
<path d="M222.129 216.17C223.152 216.17 223.981 215.34 223.981 214.317C223.981 213.294 223.152 212.465 222.129 212.465C221.106 212.465 220.277 213.294 220.277 214.317C220.277 215.34 221.106 216.17 222.129 216.17Z" fill="#A90466"/>
<path d="M244.351 216.17C245.373 216.17 246.202 215.34 246.202 214.317C246.202 213.294 245.373 212.465 244.351 212.465C243.328 212.465 242.499 213.294 242.499 214.317C242.499 215.34 243.328 216.17 244.351 216.17Z" fill="#A90466"/>
<path d="M268.424 214.318C268.424 215.341 267.595 216.17 266.572 216.17C265.549 216.17 264.72 215.341 264.72 214.318C264.72 213.295 265.55 212.465 266.572 212.465C267.595 212.465 268.424 213.295 268.424 214.318Z" fill="#A90466"/>
<path d="M288.794 216.17C289.817 216.17 290.646 215.341 290.646 214.318C290.646 213.295 289.817 212.465 288.794 212.465C287.771 212.465 286.942 213.295 286.942 214.318C286.942 215.341 287.771 216.17 288.794 216.17Z" fill="#A90466"/>
<path d="M311.017 216.168C312.04 216.168 312.869 215.339 312.869 214.316C312.869 213.293 312.04 212.463 311.017 212.463C309.994 212.463 309.165 213.293 309.165 214.316C309.165 215.339 309.994 216.168 311.017 216.168Z" fill="#A90466"/>
<path d="M333.239 216.17C334.262 216.17 335.091 215.341 335.091 214.318C335.091 213.295 334.262 212.465 333.239 212.465C332.216 212.465 331.387 213.295 331.387 214.318C331.387 215.341 332.216 216.17 333.239 216.17Z" fill="#A90466"/>
<path d="M355.46 216.17C356.483 216.17 357.312 215.341 357.312 214.318C357.312 213.295 356.483 212.465 355.46 212.465C354.438 212.465 353.609 213.295 353.609 214.318C353.609 215.341 354.438 216.17 355.46 216.17Z" fill="#A90466"/>
<path d="M377.682 216.169C378.705 216.169 379.534 215.339 379.534 214.316C379.534 213.293 378.705 212.464 377.682 212.464C376.66 212.464 375.83 213.293 375.83 214.316C375.83 215.339 376.66 216.169 377.682 216.169Z" fill="#A90466"/>
</g>
<mask id="mask9_4744_6387" style="mask-type:luminance" maskUnits="userSpaceOnUse" x="0" y="0" width="400" height="518">
<path d="M399.811 0L0 0L0 517.547H399.811L399.811 0Z" fill="white"/>
</mask>
<g mask="url(#mask9_4744_6387)">
<path d="M11.7308 193.803C12.6757 193.412 13.1244 192.328 12.733 191.383C12.3416 190.438 11.2583 189.989 10.3134 190.38C9.36853 190.772 8.91983 191.856 9.31123 192.801C9.70263 193.746 10.7859 194.195 11.7308 193.803Z" fill="#A90466"/>
<path d="M33.9538 193.803C34.8987 193.412 35.3474 192.328 34.956 191.383C34.5646 190.438 33.4813 189.989 32.5365 190.38C31.5916 190.772 31.1429 191.856 31.5343 192.801C31.9257 193.746 33.0089 194.195 33.9538 193.803Z" fill="#A90466"/>
<path d="M56.1765 193.803C57.1214 193.412 57.5701 192.328 57.1787 191.383C56.7873 190.438 55.704 189.989 54.7591 190.38C53.8142 190.772 53.3655 191.856 53.7569 192.801C54.1483 193.746 55.2316 194.195 56.1765 193.803Z" fill="#A90466"/>
<path d="M78.9917 193.398C79.7149 192.674 79.7149 191.501 78.9917 190.778C78.2686 190.055 77.0961 190.055 76.3729 190.778C75.6497 191.501 75.6497 192.674 76.3729 193.398C77.0961 194.121 78.2686 194.121 78.9917 193.398Z" fill="#A90466"/>
<path d="M100.62 193.802C101.565 193.41 102.014 192.327 101.622 191.381C101.231 190.436 100.148 189.987 99.2028 190.379C98.2579 190.771 97.8092 191.854 98.2006 192.799C98.592 193.744 99.6753 194.193 100.62 193.802Z" fill="#A90466"/>
<path d="M122.843 193.802C123.788 193.41 124.237 192.327 123.845 191.381C123.454 190.436 122.371 189.987 121.426 190.379C120.481 190.771 120.032 191.854 120.423 192.799C120.815 193.744 121.898 194.193 122.843 193.802Z" fill="#A90466"/>
<path d="M145.066 193.802C146.011 193.41 146.459 192.327 146.068 191.381C145.677 190.436 144.593 189.988 143.648 190.379C142.703 190.771 142.255 191.854 142.646 192.799C143.038 193.744 144.121 194.193 145.066 193.802Z" fill="#A90466"/>
<path d="M167.283 193.811C168.227 193.417 168.674 192.333 168.28 191.389C167.887 190.444 166.803 189.998 165.859 190.391C164.915 190.785 164.468 191.869 164.862 192.813C165.255 193.758 166.339 194.204 167.283 193.811Z" fill="#A90466"/>
<path d="M189.486 193.799C190.437 193.421 190.901 192.344 190.523 191.393C190.145 190.443 189.068 189.979 188.118 190.357C187.167 190.735 186.703 191.812 187.081 192.763C187.459 193.713 188.536 194.177 189.486 193.799Z" fill="#A90466"/>
<path d="M211.842 193.741C212.753 193.277 213.116 192.162 212.652 191.25C212.188 190.338 211.074 189.975 210.162 190.439C209.251 190.903 208.888 192.018 209.352 192.93C209.815 193.842 210.93 194.205 211.842 193.741Z" fill="#A90466"/>
<path d="M233.952 193.813C234.896 193.42 235.342 192.335 234.949 191.391C234.556 190.447 233.471 190 232.527 190.394C231.583 190.787 231.137 191.872 231.53 192.816C231.923 193.76 233.008 194.207 233.952 193.813Z" fill="#A90466"/>
<path d="M256.107 193.813C257.064 193.451 257.546 192.382 257.185 191.426C256.823 190.469 255.755 189.986 254.798 190.348C253.841 190.709 253.359 191.778 253.72 192.735C254.082 193.692 255.151 194.175 256.107 193.813Z" fill="#A90466"/>
<path d="M278.397 193.815C279.341 193.422 279.787 192.337 279.394 191.393C279.001 190.449 277.916 190.002 276.972 190.396C276.028 190.789 275.582 191.873 275.975 192.818C276.368 193.762 277.453 194.209 278.397 193.815Z" fill="#A90466"/>
<path d="M300.619 193.816C301.563 193.422 302.01 192.338 301.617 191.393C301.223 190.449 300.139 190.003 299.195 190.396C298.251 190.789 297.804 191.874 298.198 192.818C298.591 193.763 299.675 194.209 300.619 193.816Z" fill="#A90466"/>
<path d="M323.91 192.518C324.145 191.522 323.527 190.525 322.532 190.291C321.536 190.057 320.539 190.674 320.305 191.67C320.071 192.666 320.688 193.663 321.684 193.897C322.679 194.131 323.676 193.514 323.91 192.518Z" fill="#A90466"/>
<path d="M345.065 193.816C346.009 193.422 346.456 192.338 346.062 191.393C345.669 190.449 344.585 190.003 343.641 190.396C342.697 190.789 342.25 191.874 342.644 192.818C343.037 193.763 344.121 194.209 345.065 193.816Z" fill="#A90466"/>
<path d="M367.291 193.797C368.236 193.405 368.685 192.322 368.293 191.377C367.902 190.431 366.819 189.983 365.874 190.374C364.929 190.766 364.48 191.849 364.871 192.794C365.263 193.74 366.346 194.188 367.291 193.797Z" fill="#A90466"/>
<path d="M389.513 193.797C390.458 193.405 390.906 192.322 390.515 191.377C390.124 190.431 389.04 189.983 388.095 190.374C387.15 190.766 386.702 191.849 387.093 192.794C387.485 193.74 388.568 194.188 389.513 193.797Z" fill="#A90466"/>
</g>
<mask id="mask10_4744_6387" style="mask-type:luminance" maskUnits="userSpaceOnUse" x="0" y="0" width="400" height="518">
<path d="M399.811 0L0 0L0 517.547H399.811L399.811 0Z" fill="white"/>
</mask>
<g mask="url(#mask10_4744_6387)">
<path d="M11.0187 238.397C12.0414 238.397 12.8705 237.568 12.8705 236.545C12.8705 235.522 12.0414 234.692 11.0187 234.692C9.99595 234.692 9.16687 235.522 9.16687 236.545C9.16687 237.568 9.99595 238.397 11.0187 238.397Z" fill="#A90466"/>
<path d="M33.2409 238.399C34.2636 238.399 35.0927 237.57 35.0927 236.547C35.0927 235.524 34.2636 234.695 33.2409 234.695C32.2181 234.695 31.389 235.524 31.389 236.547C31.389 237.57 32.2181 238.399 33.2409 238.399Z" fill="#A90466"/>
<path d="M55.462 238.398C56.4848 238.398 57.3139 237.568 57.3139 236.545C57.3139 235.522 56.4848 234.693 55.462 234.693C54.4393 234.693 53.6102 235.522 53.6102 236.545C53.6102 237.568 54.4393 238.398 55.462 238.398Z" fill="#A90466"/>
<path d="M77.6838 238.398C78.7066 238.398 79.5357 237.568 79.5357 236.545C79.5357 235.522 78.7066 234.693 77.6838 234.693C76.6611 234.693 75.832 235.522 75.832 236.545C75.832 237.568 76.6611 238.398 77.6838 238.398Z" fill="#A90466"/>
<path d="M99.907 238.398C100.93 238.398 101.759 237.568 101.759 236.545C101.759 235.522 100.93 234.693 99.907 234.693C98.8843 234.693 98.0552 235.522 98.0552 236.545C98.0552 237.568 98.8843 238.398 99.907 238.398Z" fill="#A90466"/>
<path d="M122.129 238.398C123.151 238.398 123.98 237.568 123.98 236.545C123.98 235.522 123.151 234.693 122.129 234.693C121.106 234.693 120.277 235.522 120.277 236.545C120.277 237.568 121.106 238.398 122.129 238.398Z" fill="#A90466"/>
<path d="M144.35 238.398C145.373 238.398 146.202 237.569 146.202 236.546C146.202 235.523 145.373 234.693 144.35 234.693C143.328 234.693 142.499 235.523 142.499 236.546C142.499 237.569 143.328 238.398 144.35 238.398Z" fill="#A90466"/>
<path d="M166.573 238.398C167.596 238.398 168.425 237.569 168.425 236.546C168.425 235.523 167.596 234.693 166.573 234.693C165.551 234.693 164.722 235.523 164.722 236.546C164.722 237.569 165.551 238.398 166.573 238.398Z" fill="#A90466"/>
<path d="M188.795 238.398C189.818 238.398 190.647 237.569 190.647 236.546C190.647 235.523 189.818 234.693 188.795 234.693C187.772 234.693 186.943 235.523 186.943 236.546C186.943 237.569 187.772 238.398 188.795 238.398Z" fill="#A90466"/>
<path d="M211.017 238.398C212.04 238.398 212.869 237.569 212.869 236.546C212.869 235.523 212.04 234.693 211.017 234.693C209.994 234.693 209.165 235.523 209.165 236.546C209.165 237.569 209.994 238.398 211.017 238.398Z" fill="#A90466"/>
<path d="M233.239 238.398C234.261 238.398 235.09 237.569 235.09 236.546C235.09 235.523 234.261 234.693 233.239 234.693C232.216 234.693 231.387 235.523 231.387 236.546C231.387 237.569 232.216 238.398 233.239 238.398Z" fill="#A90466"/>
<path d="M255.461 238.398C256.484 238.398 257.313 237.569 257.313 236.546C257.313 235.523 256.484 234.694 255.461 234.694C254.439 234.694 253.609 235.523 253.609 236.546C253.609 237.569 254.439 238.398 255.461 238.398Z" fill="#A90466"/>
<path d="M277.684 238.398C278.706 238.398 279.536 237.569 279.536 236.546C279.536 235.523 278.706 234.694 277.684 234.694C276.661 234.694 275.832 235.523 275.832 236.546C275.832 237.569 276.661 238.398 277.684 238.398Z" fill="#A90466"/>
<path d="M299.905 238.397C300.928 238.397 301.757 237.567 301.757 236.544C301.757 235.521 300.928 234.692 299.905 234.692C298.882 234.692 298.053 235.521 298.053 236.544C298.053 237.567 298.882 238.397 299.905 238.397Z" fill="#A90466"/>
<path d="M322.127 238.398C323.15 238.398 323.979 237.569 323.979 236.546C323.979 235.523 323.15 234.694 322.127 234.694C321.104 234.694 320.275 235.523 320.275 236.546C320.275 237.569 321.104 238.398 322.127 238.398Z" fill="#A90466"/>
<path d="M344.349 238.398C345.371 238.398 346.2 237.569 346.2 236.546C346.2 235.523 345.371 234.694 344.349 234.694C343.326 234.694 342.497 235.523 342.497 236.546C342.497 237.569 343.326 238.398 344.349 238.398Z" fill="#A90466"/>
<path d="M366.571 238.397C367.594 238.397 368.423 237.568 368.423 236.545C368.423 235.522 367.594 234.692 366.571 234.692C365.549 234.692 364.719 235.522 364.719 236.545C364.719 237.568 365.549 238.397 366.571 238.397Z" fill="#A90466"/>
<path d="M388.793 238.399C389.816 238.399 390.645 237.57 390.645 236.547C390.645 235.524 389.816 234.694 388.793 234.694C387.771 234.694 386.942 235.524 386.942 236.547C386.942 237.57 387.771 238.399 388.793 238.399Z" fill="#A90466"/>
</g>
<mask id="mask11_4744_6387" style="mask-type:luminance" maskUnits="userSpaceOnUse" x="0" y="0" width="400" height="518">
<path d="M399.811 0L0 0L0 517.547H399.811L399.811 0Z" fill="white"/>
</mask>
<g mask="url(#mask11_4744_6387)">
<path d="M22.1305 260.626C23.1532 260.626 23.9823 259.796 23.9823 258.773C23.9823 257.75 23.1532 256.921 22.1305 256.921C21.1078 256.921 20.2787 257.75 20.2787 258.773C20.2787 259.796 21.1078 260.626 22.1305 260.626Z" fill="#A90466"/>
<path d="M44.3527 260.628C45.3754 260.628 46.2045 259.799 46.2045 258.776C46.2045 257.753 45.3754 256.923 44.3527 256.923C43.3299 256.923 42.5009 257.753 42.5009 258.776C42.5009 259.799 43.3299 260.628 44.3527 260.628Z" fill="#A90466"/>
<path d="M66.5739 260.626C67.5966 260.626 68.4257 259.796 68.4257 258.773C68.4257 257.75 67.5966 256.921 66.5739 256.921C65.5511 256.921 64.722 257.75 64.722 258.773C64.722 259.796 65.5511 260.626 66.5739 260.626Z" fill="#A90466"/>
<path d="M88.7961 260.626C89.8189 260.626 90.648 259.796 90.648 258.773C90.648 257.75 89.8189 256.921 88.7961 256.921C87.7734 256.921 86.9443 257.75 86.9443 258.773C86.9443 259.796 87.7734 260.626 88.7961 260.626Z" fill="#A90466"/>
<path d="M111.019 260.626C112.042 260.626 112.871 259.797 112.871 258.774C112.871 257.751 112.042 256.921 111.019 256.921C109.996 256.921 109.167 257.751 109.167 258.774C109.167 259.797 109.996 260.626 111.019 260.626Z" fill="#A90466"/>
<path d="M133.24 260.626C134.263 260.626 135.092 259.797 135.092 258.774C135.092 257.751 134.263 256.921 133.24 256.921C132.218 256.921 131.389 257.751 131.389 258.774C131.389 259.797 132.218 260.626 133.24 260.626Z" fill="#A90466"/>
<path d="M155.463 260.626C156.485 260.626 157.314 259.797 157.314 258.774C157.314 257.751 156.485 256.921 155.463 256.921C154.44 256.921 153.611 257.751 153.611 258.774C153.611 259.797 154.44 260.626 155.463 260.626Z" fill="#A90466"/>
<path d="M177.685 260.626C178.708 260.626 179.537 259.797 179.537 258.774C179.537 257.751 178.708 256.921 177.685 256.921C176.663 256.921 175.833 257.751 175.833 258.774C175.833 259.797 176.663 260.626 177.685 260.626Z" fill="#A90466"/>
<path d="M199.907 260.626C200.93 260.626 201.759 259.797 201.759 258.774C201.759 257.751 200.93 256.921 199.907 256.921C198.884 256.921 198.055 257.751 198.055 258.774C198.055 259.797 198.884 260.626 199.907 260.626Z" fill="#A90466"/>
<path d="M222.129 260.627C223.151 260.627 223.981 259.797 223.981 258.774C223.981 257.751 223.151 256.922 222.129 256.922C221.106 256.922 220.277 257.751 220.277 258.774C220.277 259.797 221.106 260.627 222.129 260.627Z" fill="#A90466"/>
<path d="M244.35 260.627C245.373 260.627 246.202 259.797 246.202 258.774C246.202 257.751 245.373 256.922 244.35 256.922C243.328 256.922 242.499 257.751 242.499 258.774C242.499 259.797 243.328 260.627 244.35 260.627Z" fill="#A90466"/>
<path d="M268.424 258.772C268.424 259.795 267.595 260.625 266.572 260.625C265.549 260.625 264.72 259.795 264.72 258.772C264.72 257.749 265.55 256.92 266.572 256.92C267.595 256.92 268.424 257.749 268.424 258.772Z" fill="#A90466"/>
<path d="M288.794 260.627C289.817 260.627 290.646 259.797 290.646 258.774C290.646 257.751 289.817 256.922 288.794 256.922C287.771 256.922 286.942 257.751 286.942 258.774C286.942 259.797 287.771 260.627 288.794 260.627Z" fill="#A90466"/>
<path d="M311.017 260.625C312.04 260.625 312.869 259.795 312.869 258.772C312.869 257.749 312.04 256.92 311.017 256.92C309.994 256.92 309.165 257.749 309.165 258.772C309.165 259.795 309.994 260.625 311.017 260.625Z" fill="#A90466"/>
<path d="M333.239 260.625C334.261 260.625 335.091 259.796 335.091 258.773C335.091 257.75 334.261 256.92 333.239 256.92C332.216 256.92 331.387 257.75 331.387 258.773C331.387 259.796 332.216 260.625 333.239 260.625Z" fill="#A90466"/>
<path d="M355.46 260.627C356.483 260.627 357.312 259.798 357.312 258.775C357.312 257.752 356.483 256.922 355.46 256.922C354.438 256.922 353.609 257.752 353.609 258.775C353.609 259.798 354.438 260.627 355.46 260.627Z" fill="#A90466"/>
<path d="M377.682 260.625C378.705 260.625 379.534 259.796 379.534 258.773C379.534 257.75 378.705 256.92 377.682 256.92C376.659 256.92 375.83 257.75 375.83 258.773C375.83 259.796 376.659 260.625 377.682 260.625Z" fill="#A90466"/>
</g>
<mask id="mask12_4744_6387" style="mask-type:luminance" maskUnits="userSpaceOnUse" x="0" y="0" width="400" height="518">
<path d="M399.811 0L0 0L0 517.547H399.811L399.811 0Z" fill="white"/>
</mask>
<g mask="url(#mask12_4744_6387)">
<path d="M22.1311 305.083C23.1538 305.083 23.9829 304.253 23.9829 303.23C23.9829 302.207 23.1538 301.378 22.1311 301.378C21.1084 301.378 20.2793 302.207 20.2793 303.23C20.2793 304.253 21.1084 305.083 22.1311 305.083Z" fill="#A90466"/>
<path d="M44.3528 305.085C45.3755 305.085 46.2046 304.256 46.2046 303.233C46.2046 302.21 45.3755 301.38 44.3528 301.38C43.3301 301.38 42.501 302.21 42.501 303.233C42.501 304.256 43.3301 305.085 44.3528 305.085Z" fill="#A90466"/>
<path d="M66.5745 305.083C67.5972 305.083 68.4263 304.254 68.4263 303.231C68.4263 302.208 67.5972 301.378 66.5745 301.378C65.5517 301.378 64.7227 302.208 64.7227 303.231C64.7227 304.254 65.5517 305.083 66.5745 305.083Z" fill="#A90466"/>
<path d="M88.7961 305.083C89.8189 305.083 90.648 304.254 90.648 303.231C90.648 302.208 89.8189 301.378 88.7961 301.378C87.7734 301.378 86.9443 302.208 86.9443 303.231C86.9443 304.254 87.7734 305.083 88.7961 305.083Z" fill="#A90466"/>
<path d="M111.019 305.083C112.042 305.083 112.871 304.254 112.871 303.231C112.871 302.208 112.042 301.378 111.019 301.378C109.997 301.378 109.168 302.208 109.168 303.231C109.168 304.254 109.997 305.083 111.019 305.083Z" fill="#A90466"/>
<path d="M133.241 305.083C134.264 305.083 135.093 304.254 135.093 303.231C135.093 302.208 134.264 301.378 133.241 301.378C132.218 301.378 131.389 302.208 131.389 303.231C131.389 304.254 132.218 305.083 133.241 305.083Z" fill="#A90466"/>
<path d="M155.463 305.084C156.485 305.084 157.315 304.254 157.315 303.231C157.315 302.208 156.485 301.379 155.463 301.379C154.44 301.379 153.611 302.208 153.611 303.231C153.611 304.254 154.44 305.084 155.463 305.084Z" fill="#A90466"/>
<path d="M177.686 305.084C178.709 305.084 179.538 304.254 179.538 303.231C179.538 302.208 178.709 301.379 177.686 301.379C176.663 301.379 175.834 302.208 175.834 303.231C175.834 304.254 176.663 305.084 177.686 305.084Z" fill="#A90466"/>
<path d="M199.908 305.084C200.93 305.084 201.759 304.254 201.759 303.231C201.759 302.208 200.93 301.379 199.908 301.379C198.885 301.379 198.056 302.208 198.056 303.231C198.056 304.254 198.885 305.084 199.908 305.084Z" fill="#A90466"/>
<path d="M222.129 305.084C223.152 305.084 223.981 304.254 223.981 303.231C223.981 302.208 223.152 301.379 222.129 301.379C221.107 301.379 220.278 302.208 220.278 303.231C220.278 304.254 221.107 305.084 222.129 305.084Z" fill="#A90466"/>
<path d="M244.351 305.084C245.374 305.084 246.203 304.254 246.203 303.231C246.203 302.208 245.374 301.379 244.351 301.379C243.328 301.379 242.499 302.208 242.499 303.231C242.499 304.254 243.328 305.084 244.351 305.084Z" fill="#A90466"/>
<path d="M268.425 303.232C268.425 304.255 267.595 305.084 266.573 305.084C265.55 305.084 264.721 304.255 264.721 303.232C264.721 302.209 265.55 301.379 266.573 301.379C267.596 301.379 268.425 302.209 268.425 303.232Z" fill="#A90466"/>
<path d="M288.794 305.084C289.817 305.084 290.646 304.255 290.646 303.232C290.646 302.209 289.817 301.379 288.794 301.379C287.771 301.379 286.942 302.209 286.942 303.232C286.942 304.255 287.771 305.084 288.794 305.084Z" fill="#A90466"/>
<path d="M311.018 305.082C312.04 305.082 312.869 304.253 312.869 303.23C312.869 302.207 312.04 301.377 311.018 301.377C309.995 301.377 309.166 302.207 309.166 303.23C309.166 304.253 309.995 305.082 311.018 305.082Z" fill="#A90466"/>
<path d="M333.239 305.084C334.262 305.084 335.091 304.255 335.091 303.232C335.091 302.209 334.262 301.379 333.239 301.379C332.217 301.379 331.388 302.209 331.388 303.232C331.388 304.255 332.217 305.084 333.239 305.084Z" fill="#A90466"/>
<path d="M355.461 305.084C356.484 305.084 357.313 304.255 357.313 303.232C357.313 302.209 356.484 301.379 355.461 301.379C354.438 301.379 353.609 302.209 353.609 303.232C353.609 304.255 354.438 305.084 355.461 305.084Z" fill="#A90466"/>
<path d="M377.683 305.083C378.705 305.083 379.535 304.253 379.535 303.23C379.535 302.207 378.705 301.378 377.683 301.378C376.66 301.378 375.831 302.207 375.831 303.23C375.831 304.253 376.66 305.083 377.683 305.083Z" fill="#A90466"/>
</g>
<mask id="mask13_4744_6387" style="mask-type:luminance" maskUnits="userSpaceOnUse" x="0" y="0" width="400" height="518">
<path d="M399.811 0L0 0L0 517.547H399.811L399.811 0Z" fill="white"/>
</mask>
<g mask="url(#mask13_4744_6387)">
<path d="M11.0186 282.854C12.0413 282.854 12.8704 282.025 12.8704 281.002C12.8704 279.979 12.0413 279.149 11.0186 279.149C9.99583 279.149 9.16675 279.979 9.16675 281.002C9.16675 282.025 9.99583 282.854 11.0186 282.854Z" fill="#A90466"/>
<path d="M33.2407 282.857C34.2635 282.857 35.0925 282.027 35.0925 281.004C35.0925 279.981 34.2635 279.152 33.2407 279.152C32.218 279.152 31.3889 279.981 31.3889 281.004C31.3889 282.027 32.218 282.857 33.2407 282.857Z" fill="#A90466"/>
<path d="M55.4619 282.855C56.4846 282.855 57.3137 282.025 57.3137 281.002C57.3137 279.979 56.4846 279.15 55.4619 279.15C54.4392 279.15 53.6101 279.979 53.6101 281.002C53.6101 282.025 54.4392 282.855 55.4619 282.855Z" fill="#A90466"/>
<path d="M77.6841 282.855C78.7068 282.855 79.5359 282.025 79.5359 281.002C79.5359 279.979 78.7068 279.15 77.6841 279.15C76.6614 279.15 75.8323 279.979 75.8323 281.002C75.8323 282.025 76.6614 282.855 77.6841 282.855Z" fill="#A90466"/>
<path d="M99.9069 282.855C100.93 282.855 101.759 282.025 101.759 281.002C101.759 279.979 100.93 279.15 99.9069 279.15C98.8841 279.15 98.0551 279.979 98.0551 281.002C98.0551 282.025 98.8841 282.855 99.9069 282.855Z" fill="#A90466"/>
<path d="M122.129 282.855C123.151 282.855 123.98 282.025 123.98 281.002C123.98 279.979 123.151 279.15 122.129 279.15C121.106 279.15 120.277 279.979 120.277 281.002C120.277 282.025 121.106 282.855 122.129 282.855Z" fill="#A90466"/>
<path d="M144.35 282.855C145.373 282.855 146.202 282.026 146.202 281.003C146.202 279.98 145.373 279.15 144.35 279.15C143.327 279.15 142.498 279.98 142.498 281.003C142.498 282.026 143.327 282.855 144.35 282.855Z" fill="#A90466"/>
<path d="M166.573 282.855C167.596 282.855 168.425 282.026 168.425 281.003C168.425 279.98 167.596 279.15 166.573 279.15C165.551 279.15 164.722 279.98 164.722 281.003C164.722 282.026 165.551 282.855 166.573 282.855Z" fill="#A90466"/>
<path d="M188.795 282.855C189.818 282.855 190.647 282.026 190.647 281.003C190.647 279.98 189.818 279.15 188.795 279.15C187.772 279.15 186.943 279.98 186.943 281.003C186.943 282.026 187.772 282.855 188.795 282.855Z" fill="#A90466"/>
<path d="M211.017 282.855C212.04 282.855 212.869 282.026 212.869 281.003C212.869 279.98 212.04 279.15 211.017 279.15C209.994 279.15 209.165 279.98 209.165 281.003C209.165 282.026 209.994 282.855 211.017 282.855Z" fill="#A90466"/>
<path d="M233.239 282.855C234.261 282.855 235.09 282.026 235.09 281.003C235.09 279.98 234.261 279.15 233.239 279.15C232.216 279.15 231.387 279.98 231.387 281.003C231.387 282.026 232.216 282.855 233.239 282.855Z" fill="#A90466"/>
<path d="M255.461 282.856C256.484 282.856 257.313 282.026 257.313 281.003C257.313 279.98 256.484 279.151 255.461 279.151C254.438 279.151 253.609 279.98 253.609 281.003C253.609 282.026 254.438 282.856 255.461 282.856Z" fill="#A90466"/>
<path d="M277.683 282.856C278.706 282.856 279.535 282.026 279.535 281.003C279.535 279.98 278.706 279.151 277.683 279.151C276.66 279.151 275.831 279.98 275.831 281.003C275.831 282.026 276.66 282.856 277.683 282.856Z" fill="#A90466"/>
<path d="M299.905 282.854C300.928 282.854 301.757 282.024 301.757 281.001C301.757 279.978 300.928 279.149 299.905 279.149C298.882 279.149 298.053 279.978 298.053 281.001C298.053 282.024 298.882 282.854 299.905 282.854Z" fill="#A90466"/>
<path d="M322.127 282.856C323.15 282.856 323.979 282.026 323.979 281.003C323.979 279.98 323.15 279.151 322.127 279.151C321.104 279.151 320.275 279.98 320.275 281.003C320.275 282.026 321.104 282.856 322.127 282.856Z" fill="#A90466"/>
<path d="M344.348 282.856C345.371 282.856 346.2 282.026 346.2 281.003C346.2 279.98 345.371 279.151 344.348 279.151C343.326 279.151 342.497 279.98 342.497 281.003C342.497 282.026 343.326 282.856 344.348 282.856Z" fill="#A90466"/>
<path d="M366.571 282.854C367.594 282.854 368.423 282.025 368.423 281.002C368.423 279.979 367.594 279.149 366.571 279.149C365.548 279.149 364.719 279.979 364.719 281.002C364.719 282.025 365.548 282.854 366.571 282.854Z" fill="#A90466"/>
<path d="M388.793 282.856C389.816 282.856 390.645 282.027 390.645 281.004C390.645 279.981 389.816 279.151 388.793 279.151C387.771 279.151 386.942 279.981 386.942 281.004C386.942 282.027 387.771 282.856 388.793 282.856Z" fill="#A90466"/>
</g>
<mask id="mask14_4744_6387" style="mask-type:luminance" maskUnits="userSpaceOnUse" x="0" y="0" width="400" height="518">
<path d="M399.811 0L0 0L0 517.547H399.811L399.811 0Z" fill="white"/>
</mask>
<g mask="url(#mask14_4744_6387)">
<path d="M12.8503 325.761C13.0142 324.751 12.3286 323.799 11.3191 323.635C10.3095 323.472 9.35833 324.157 9.19449 325.167C9.03065 326.177 9.7162 327.128 10.7257 327.292C11.7353 327.456 12.6865 326.77 12.8503 325.761Z" fill="#A90466"/>
<path d="M35.073 325.761C35.2368 324.751 34.5512 323.799 33.5417 323.635C32.5322 323.472 31.581 324.157 31.4171 325.167C31.2533 326.177 31.9389 327.128 32.9484 327.292C33.9579 327.456 34.9091 326.77 35.073 325.761Z" fill="#A90466"/>
<path d="M57.2947 325.761C57.4585 324.751 56.7729 323.799 55.7634 323.635C54.7539 323.472 53.8027 324.157 53.6388 325.167C53.475 326.177 54.1605 327.128 55.1701 327.292C56.1796 327.456 57.1308 326.77 57.2947 325.761Z" fill="#A90466"/>
<path d="M79.4735 325.904C79.7085 324.909 79.0922 323.911 78.0969 323.676C77.1015 323.441 76.1042 324.057 75.8692 325.053C75.6341 326.048 76.2504 327.046 77.2458 327.281C78.2411 327.516 79.2385 326.9 79.4735 325.904Z" fill="#A90466"/>
<path d="M101.74 325.759C101.903 324.749 101.218 323.797 100.208 323.634C99.1988 323.47 98.2476 324.155 98.0838 325.165C97.9199 326.175 98.6055 327.127 99.615 327.29C100.625 327.454 101.576 326.769 101.74 325.759Z" fill="#A90466"/>
<path d="M123.962 325.759C124.126 324.749 123.441 323.798 122.431 323.634C121.421 323.47 120.47 324.156 120.306 325.166C120.143 326.176 120.828 327.127 121.838 327.291C122.847 327.455 123.798 326.769 123.962 325.759Z" fill="#A90466"/>
<path d="M146.184 325.759C146.348 324.749 145.662 323.798 144.653 323.634C143.643 323.47 142.692 324.156 142.528 325.166C142.364 326.176 143.05 327.127 144.059 327.291C145.069 327.455 146.02 326.769 146.184 325.759Z" fill="#A90466"/>
<path d="M168.393 325.761C168.558 324.751 167.872 323.799 166.863 323.635C165.854 323.471 164.902 324.156 164.738 325.166C164.574 326.176 165.259 327.127 166.268 327.292C167.278 327.456 168.229 326.771 168.393 325.761Z" fill="#A90466"/>
<path d="M190.617 325.773C190.778 324.763 190.09 323.814 189.08 323.653C188.07 323.492 187.121 324.18 186.96 325.19C186.799 326.201 187.487 327.15 188.497 327.311C189.507 327.472 190.456 326.784 190.617 325.773Z" fill="#A90466"/>
<path d="M212.842 325.793C213.021 324.786 212.35 323.824 211.343 323.645C210.336 323.467 209.375 324.138 209.196 325.145C209.017 326.153 209.688 327.114 210.695 327.293C211.702 327.472 212.664 326.8 212.842 325.793Z" fill="#A90466"/>
<path d="M235.06 325.761C235.224 324.752 234.539 323.8 233.53 323.636C232.52 323.471 231.569 324.157 231.404 325.166C231.24 326.176 231.925 327.128 232.935 327.292C233.944 327.456 234.896 326.771 235.06 325.761Z" fill="#A90466"/>
<path d="M257.287 325.738C257.444 324.727 256.752 323.78 255.742 323.623C254.731 323.466 253.785 324.157 253.627 325.168C253.47 326.179 254.162 327.126 255.172 327.283C256.183 327.441 257.129 326.749 257.287 325.738Z" fill="#A90466"/>
<path d="M279.505 325.761C279.669 324.752 278.984 323.8 277.974 323.636C276.965 323.471 276.013 324.157 275.849 325.166C275.685 326.176 276.37 327.128 277.379 327.292C278.389 327.456 279.34 326.771 279.505 325.761Z" fill="#A90466"/>
<path d="M301.726 325.761C301.89 324.752 301.205 323.8 300.196 323.636C299.186 323.471 298.235 324.157 298.07 325.166C297.906 326.176 298.591 327.128 299.601 327.292C300.61 327.456 301.562 326.771 301.726 325.761Z" fill="#A90466"/>
<path d="M323.432 326.768C324.155 326.045 324.155 324.872 323.432 324.149C322.708 323.425 321.536 323.425 320.813 324.149C320.09 324.872 320.09 326.045 320.813 326.768C321.536 327.492 322.708 327.492 323.432 326.768Z" fill="#A90466"/>
<path d="M346.17 325.764C346.334 324.754 345.649 323.802 344.639 323.638C343.63 323.474 342.679 324.159 342.514 325.169C342.35 326.179 343.035 327.13 344.045 327.295C345.054 327.459 346.006 326.773 346.17 325.764Z" fill="#A90466"/>
<path d="M368.408 325.756C368.572 324.746 367.887 323.795 366.877 323.631C365.867 323.467 364.916 324.153 364.752 325.163C364.589 326.173 365.274 327.124 366.284 327.288C367.293 327.452 368.244 326.766 368.408 325.756Z" fill="#A90466"/>
<path d="M390.631 325.756C390.795 324.746 390.109 323.795 389.1 323.631C388.09 323.467 387.139 324.153 386.975 325.163C386.811 326.173 387.497 327.124 388.506 327.288C389.516 327.452 390.467 326.766 390.631 325.756Z" fill="#A90466"/>
</g>
<mask id="mask15_4744_6387" style="mask-type:luminance" maskUnits="userSpaceOnUse" x="0" y="0" width="400" height="518">
<path d="M399.811 0L0 0L0 517.547H399.811L399.811 0Z" fill="white"/>
</mask>
<g mask="url(#mask15_4744_6387)">
<path d="M22.1306 349.538C23.1533 349.538 23.9824 348.708 23.9824 347.685C23.9824 346.662 23.1533 345.833 22.1306 345.833C21.1079 345.833 20.2788 346.662 20.2788 347.685C20.2788 348.708 21.1079 349.538 22.1306 349.538Z" fill="#A90466"/>
<path d="M44.3523 349.54C45.375 349.54 46.2041 348.711 46.2041 347.688C46.2041 346.665 45.375 345.835 44.3523 345.835C43.3296 345.835 42.5005 346.665 42.5005 347.688C42.5005 348.711 43.3296 349.54 44.3523 349.54Z" fill="#A90466"/>
<path d="M66.574 349.538C67.5967 349.538 68.4258 348.709 68.4258 347.686C68.4258 346.663 67.5967 345.833 66.574 345.833C65.5512 345.833 64.7222 346.663 64.7222 347.686C64.7222 348.709 65.5512 349.538 66.574 349.538Z" fill="#A90466"/>
<path d="M88.7957 349.538C89.8184 349.538 90.6475 348.709 90.6475 347.686C90.6475 346.663 89.8184 345.833 88.7957 345.833C87.7729 345.833 86.9438 346.663 86.9438 347.686C86.9438 348.709 87.7729 349.538 88.7957 349.538Z" fill="#A90466"/>
<path d="M111.019 349.538C112.042 349.538 112.871 348.709 112.871 347.686C112.871 346.663 112.042 345.833 111.019 345.833C109.996 345.833 109.167 346.663 109.167 347.686C109.167 348.709 109.996 349.538 111.019 349.538Z" fill="#A90466"/>
<path d="M133.241 349.538C134.263 349.538 135.092 348.709 135.092 347.686C135.092 346.663 134.263 345.833 133.241 345.833C132.218 345.833 131.389 346.663 131.389 347.686C131.389 348.709 132.218 349.538 133.241 349.538Z" fill="#A90466"/>
<path d="M155.462 349.539C156.485 349.539 157.314 348.709 157.314 347.686C157.314 346.663 156.485 345.834 155.462 345.834C154.44 345.834 153.61 346.663 153.61 347.686C153.61 348.709 154.44 349.539 155.462 349.539Z" fill="#A90466"/>
<path d="M177.685 349.539C178.708 349.539 179.537 348.709 179.537 347.686C179.537 346.663 178.708 345.834 177.685 345.834C176.663 345.834 175.834 346.663 175.834 347.686C175.834 348.709 176.663 349.539 177.685 349.539Z" fill="#A90466"/>
<path d="M199.907 349.539C200.93 349.539 201.759 348.709 201.759 347.686C201.759 346.663 200.93 345.834 199.907 345.834C198.884 345.834 198.055 346.663 198.055 347.686C198.055 348.709 198.884 349.539 199.907 349.539Z" fill="#A90466"/>
<path d="M222.129 349.539C223.152 349.539 223.981 348.709 223.981 347.686C223.981 346.663 223.152 345.834 222.129 345.834C221.106 345.834 220.277 346.663 220.277 347.686C220.277 348.709 221.106 349.539 222.129 349.539Z" fill="#A90466"/>
<path d="M244.351 349.539C245.373 349.539 246.202 348.709 246.202 347.686C246.202 346.663 245.373 345.834 244.351 345.834C243.328 345.834 242.499 346.663 242.499 347.686C242.499 348.709 243.328 349.539 244.351 349.539Z" fill="#A90466"/>
<path d="M268.424 347.687C268.424 348.71 267.595 349.539 266.572 349.539C265.549 349.539 264.72 348.71 264.72 347.687C264.72 346.664 265.55 345.834 266.572 345.834C267.595 345.834 268.424 346.664 268.424 347.687Z" fill="#A90466"/>
<path d="M288.794 349.539C289.817 349.539 290.646 348.71 290.646 347.687C290.646 346.664 289.817 345.834 288.794 345.834C287.771 345.834 286.942 346.664 286.942 347.687C286.942 348.71 287.771 349.539 288.794 349.539Z" fill="#A90466"/>
<path d="M311.017 349.537C312.04 349.537 312.869 348.708 312.869 347.685C312.869 346.662 312.04 345.833 311.017 345.833C309.994 345.833 309.165 346.662 309.165 347.685C309.165 348.708 309.994 349.537 311.017 349.537Z" fill="#A90466"/>
<path d="M333.239 349.539C334.262 349.539 335.091 348.71 335.091 347.687C335.091 346.664 334.262 345.834 333.239 345.834C332.216 345.834 331.387 346.664 331.387 347.687C331.387 348.71 332.216 349.539 333.239 349.539Z" fill="#A90466"/>
<path d="M355.46 349.539C356.483 349.539 357.312 348.71 357.312 347.687C357.312 346.664 356.483 345.834 355.46 345.834C354.438 345.834 353.609 346.664 353.609 347.687C353.609 348.71 354.438 349.539 355.46 349.539Z" fill="#A90466"/>
<path d="M377.682 349.538C378.705 349.538 379.534 348.708 379.534 347.685C379.534 346.662 378.705 345.833 377.682 345.833C376.66 345.833 375.83 346.662 375.83 347.685C375.83 348.708 376.66 349.538 377.682 349.538Z" fill="#A90466"/>
</g>
<mask id="mask16_4744_6387" style="mask-type:luminance" maskUnits="userSpaceOnUse" x="0" y="0" width="400" height="518">
<path d="M399.811 0L0 0L0 517.547H399.811L399.811 0Z" fill="white"/>
</mask>
<g mask="url(#mask16_4744_6387)">
<path d="M22.1307 393.995C23.1535 393.995 23.9826 393.165 23.9826 392.142C23.9826 391.119 23.1535 390.29 22.1307 390.29C21.108 390.29 20.2789 391.119 20.2789 392.142C20.2789 393.165 21.108 393.995 22.1307 393.995Z" fill="#A90466"/>
<path d="M44.3524 393.997C45.3751 393.997 46.2042 393.168 46.2042 392.145C46.2042 391.122 45.3751 390.292 44.3524 390.292C43.3297 390.292 42.5006 391.122 42.5006 392.145C42.5006 393.168 43.3297 393.997 44.3524 393.997Z" fill="#A90466"/>
<path d="M66.5741 393.995C67.5968 393.995 68.4259 393.166 68.4259 392.143C68.4259 391.12 67.5968 390.291 66.5741 390.291C65.5514 390.291 64.7223 391.12 64.7223 392.143C64.7223 393.166 65.5514 393.995 66.5741 393.995Z" fill="#A90466"/>
<path d="M88.7959 393.995C89.8186 393.995 90.6477 393.166 90.6477 392.143C90.6477 391.12 89.8186 390.291 88.7959 390.291C87.7732 390.291 86.9441 391.12 86.9441 392.143C86.9441 393.166 87.7732 393.995 88.7959 393.995Z" fill="#A90466"/>
<path d="M111.019 393.995C112.042 393.995 112.871 393.166 112.871 392.143C112.871 391.12 112.042 390.291 111.019 390.291C109.996 390.291 109.167 391.12 109.167 392.143C109.167 393.166 109.996 393.995 111.019 393.995Z" fill="#A90466"/>
<path d="M133.241 393.995C134.263 393.995 135.093 393.166 135.093 392.143C135.093 391.12 134.263 390.291 133.241 390.291C132.218 390.291 131.389 391.12 131.389 392.143C131.389 393.166 132.218 393.995 133.241 393.995Z" fill="#A90466"/>
<path d="M155.462 393.996C156.485 393.996 157.314 393.166 157.314 392.143C157.314 391.12 156.485 390.291 155.462 390.291C154.44 390.291 153.611 391.12 153.611 392.143C153.611 393.166 154.44 393.996 155.462 393.996Z" fill="#A90466"/>
<path d="M177.686 393.996C178.708 393.996 179.537 393.166 179.537 392.143C179.537 391.12 178.708 390.291 177.686 390.291C176.663 390.291 175.834 391.12 175.834 392.143C175.834 393.166 176.663 393.996 177.686 393.996Z" fill="#A90466"/>
<path d="M199.907 393.996C200.93 393.996 201.759 393.166 201.759 392.143C201.759 391.12 200.93 390.291 199.907 390.291C198.885 390.291 198.055 391.12 198.055 392.143C198.055 393.166 198.885 393.996 199.907 393.996Z" fill="#A90466"/>
<path d="M222.129 393.996C223.152 393.996 223.981 393.166 223.981 392.143C223.981 391.12 223.152 390.291 222.129 390.291C221.106 390.291 220.277 391.12 220.277 392.143C220.277 393.166 221.106 393.996 222.129 393.996Z" fill="#A90466"/>
<path d="M244.351 393.996C245.373 393.996 246.203 393.166 246.203 392.143C246.203 391.12 245.373 390.291 244.351 390.291C243.328 390.291 242.499 391.12 242.499 392.143C242.499 393.166 243.328 393.996 244.351 393.996Z" fill="#A90466"/>
<path d="M268.424 392.144C268.424 393.167 267.595 393.996 266.572 393.996C265.55 393.996 264.721 393.167 264.721 392.144C264.721 391.121 265.55 390.292 266.572 390.292C267.595 390.292 268.424 391.121 268.424 392.144Z" fill="#A90466"/>
<path d="M288.794 393.996C289.817 393.996 290.646 393.167 290.646 392.144C290.646 391.121 289.817 390.292 288.794 390.292C287.772 390.292 286.943 391.121 286.943 392.144C286.943 393.167 287.772 393.996 288.794 393.996Z" fill="#A90466"/>
<path d="M311.017 393.994C312.04 393.994 312.869 393.165 312.869 392.142C312.869 391.119 312.04 390.29 311.017 390.29C309.994 390.29 309.165 391.119 309.165 392.142C309.165 393.165 309.994 393.994 311.017 393.994Z" fill="#A90466"/>
<path d="M333.239 393.996C334.262 393.996 335.091 393.167 335.091 392.144C335.091 391.121 334.262 390.292 333.239 390.292C332.216 390.292 331.387 391.121 331.387 392.144C331.387 393.167 332.216 393.996 333.239 393.996Z" fill="#A90466"/>
<path d="M355.461 393.996C356.483 393.996 357.312 393.167 357.312 392.144C357.312 391.121 356.483 390.292 355.461 390.292C354.438 390.292 353.609 391.121 353.609 392.144C353.609 393.167 354.438 393.996 355.461 393.996Z" fill="#A90466"/>
<path d="M377.682 393.995C378.705 393.995 379.534 393.165 379.534 392.142C379.534 391.119 378.705 390.29 377.682 390.29C376.66 390.29 375.831 391.119 375.831 392.142C375.831 393.165 376.66 393.995 377.682 393.995Z" fill="#A90466"/>
</g>
<mask id="mask17_4744_6387" style="mask-type:luminance" maskUnits="userSpaceOnUse" x="0" y="0" width="400" height="518">
<path d="M399.811 0L0 0L0 517.547H399.811L399.811 0Z" fill="white"/>
</mask>
<g mask="url(#mask17_4744_6387)">
<path d="M11.0187 371.766C12.0414 371.766 12.8705 370.937 12.8705 369.914C12.8705 368.891 12.0414 368.062 11.0187 368.062C9.99595 368.062 9.16687 368.891 9.16687 369.914C9.16687 370.937 9.99595 371.766 11.0187 371.766Z" fill="#A90466"/>
<path d="M33.2404 371.769C34.2631 371.769 35.0922 370.939 35.0922 369.916C35.0922 368.893 34.2631 368.064 33.2404 368.064C32.2176 368.064 31.3885 368.893 31.3885 369.916C31.3885 370.939 32.2176 371.769 33.2404 371.769Z" fill="#A90466"/>
<path d="M55.462 371.767C56.4848 371.767 57.3139 370.937 57.3139 369.914C57.3139 368.891 56.4848 368.062 55.462 368.062C54.4393 368.062 53.6102 368.891 53.6102 369.914C53.6102 370.937 54.4393 371.767 55.462 371.767Z" fill="#A90466"/>
<path d="M77.6838 371.767C78.7066 371.767 79.5357 370.937 79.5357 369.914C79.5357 368.891 78.7066 368.062 77.6838 368.062C76.6611 368.062 75.832 368.891 75.832 369.914C75.832 370.937 76.6611 371.767 77.6838 371.767Z" fill="#A90466"/>
<path d="M99.907 371.767C100.93 371.767 101.759 370.937 101.759 369.914C101.759 368.891 100.93 368.062 99.907 368.062C98.8843 368.062 98.0552 368.891 98.0552 369.914C98.0552 370.937 98.8843 371.767 99.907 371.767Z" fill="#A90466"/>
<path d="M122.129 371.767C123.151 371.767 123.98 370.937 123.98 369.914C123.98 368.891 123.151 368.062 122.129 368.062C121.106 368.062 120.277 368.891 120.277 369.914C120.277 370.937 121.106 371.767 122.129 371.767Z" fill="#A90466"/>
<path d="M144.35 371.767C145.373 371.767 146.202 370.938 146.202 369.915C146.202 368.892 145.373 368.062 144.35 368.062C143.328 368.062 142.499 368.892 142.499 369.915C142.499 370.938 143.328 371.767 144.35 371.767Z" fill="#A90466"/>
<path d="M166.573 371.767C167.596 371.767 168.425 370.938 168.425 369.915C168.425 368.892 167.596 368.062 166.573 368.062C165.551 368.062 164.722 368.892 164.722 369.915C164.722 370.938 165.551 371.767 166.573 371.767Z" fill="#A90466"/>
<path d="M188.795 371.767C189.818 371.767 190.647 370.938 190.647 369.915C190.647 368.892 189.818 368.062 188.795 368.062C187.772 368.062 186.943 368.892 186.943 369.915C186.943 370.938 187.772 371.767 188.795 371.767Z" fill="#A90466"/>
<path d="M211.017 371.767C212.04 371.767 212.869 370.938 212.869 369.915C212.869 368.892 212.04 368.062 211.017 368.062C209.994 368.062 209.165 368.892 209.165 369.915C209.165 370.938 209.994 371.767 211.017 371.767Z" fill="#A90466"/>
<path d="M233.239 371.767C234.261 371.767 235.09 370.938 235.09 369.915C235.09 368.892 234.261 368.062 233.239 368.062C232.216 368.062 231.387 368.892 231.387 369.915C231.387 370.938 232.216 371.767 233.239 371.767Z" fill="#A90466"/>
<path d="M255.461 371.768C256.484 371.768 257.313 370.938 257.313 369.915C257.313 368.892 256.484 368.063 255.461 368.063C254.439 368.063 253.609 368.892 253.609 369.915C253.609 370.938 254.439 371.768 255.461 371.768Z" fill="#A90466"/>
<path d="M277.684 371.768C278.706 371.768 279.536 370.938 279.536 369.915C279.536 368.892 278.706 368.063 277.684 368.063C276.661 368.063 275.832 368.892 275.832 369.915C275.832 370.938 276.661 371.768 277.684 371.768Z" fill="#A90466"/>
<path d="M299.905 371.766C300.928 371.766 301.757 370.936 301.757 369.913C301.757 368.89 300.928 368.061 299.905 368.061C298.882 368.061 298.053 368.89 298.053 369.913C298.053 370.936 298.882 371.766 299.905 371.766Z" fill="#A90466"/>
<path d="M322.127 371.768C323.15 371.768 323.979 370.938 323.979 369.915C323.979 368.892 323.15 368.063 322.127 368.063C321.104 368.063 320.275 368.892 320.275 369.915C320.275 370.938 321.104 371.768 322.127 371.768Z" fill="#A90466"/>
<path d="M344.349 371.768C345.371 371.768 346.2 370.938 346.2 369.915C346.2 368.892 345.371 368.063 344.349 368.063C343.326 368.063 342.497 368.892 342.497 369.915C342.497 370.938 343.326 371.768 344.349 371.768Z" fill="#A90466"/>
<path d="M366.571 371.766C367.594 371.766 368.423 370.937 368.423 369.914C368.423 368.891 367.594 368.062 366.571 368.062C365.549 368.062 364.719 368.891 364.719 369.914C364.719 370.937 365.549 371.766 366.571 371.766Z" fill="#A90466"/>
<path d="M388.793 371.768C389.816 371.768 390.645 370.939 390.645 369.916C390.645 368.893 389.816 368.063 388.793 368.063C387.77 368.063 386.941 368.893 386.941 369.916C386.941 370.939 387.77 371.768 388.793 371.768Z" fill="#A90466"/>
</g>
<mask id="mask18_4744_6387" style="mask-type:luminance" maskUnits="userSpaceOnUse" x="0" y="0" width="400" height="518">
<path d="M399.811 0L0 0L0 517.547H399.811L399.811 0Z" fill="white"/>
</mask>
<g mask="url(#mask18_4744_6387)">
<path d="M11.0186 416.221C12.0413 416.221 12.8704 415.392 12.8704 414.369C12.8704 413.346 12.0413 412.517 11.0186 412.517C9.99583 412.517 9.16675 413.346 9.16675 414.369C9.16675 415.392 9.99583 416.221 11.0186 416.221Z" fill="#A90466"/>
<path d="M33.2402 416.224C34.263 416.224 35.0921 415.394 35.0921 414.371C35.0921 413.348 34.263 412.519 33.2402 412.519C32.2175 412.519 31.3884 413.348 31.3884 414.371C31.3884 415.394 32.2175 416.224 33.2402 416.224Z" fill="#A90466"/>
<path d="M55.4619 416.222C56.4846 416.222 57.3137 415.392 57.3137 414.369C57.3137 413.346 56.4846 412.517 55.4619 412.517C54.4392 412.517 53.6101 413.346 53.6101 414.369C53.6101 415.392 54.4392 416.222 55.4619 416.222Z" fill="#A90466"/>
<path d="M77.6836 416.222C78.7063 416.222 79.5354 415.392 79.5354 414.369C79.5354 413.346 78.7063 412.517 77.6836 412.517C76.6609 412.517 75.8318 413.346 75.8318 414.369C75.8318 415.392 76.6609 416.222 77.6836 416.222Z" fill="#A90466"/>
<path d="M99.9069 416.222C100.93 416.222 101.759 415.392 101.759 414.369C101.759 413.346 100.93 412.517 99.9069 412.517C98.8841 412.517 98.0551 413.346 98.0551 414.369C98.0551 415.392 98.8841 416.222 99.9069 416.222Z" fill="#A90466"/>
<path d="M122.129 416.222C123.151 416.222 123.98 415.392 123.98 414.369C123.98 413.346 123.151 412.517 122.129 412.517C121.106 412.517 120.277 413.346 120.277 414.369C120.277 415.392 121.106 416.222 122.129 416.222Z" fill="#A90466"/>
<path d="M144.35 416.222C145.373 416.222 146.202 415.393 146.202 414.37C146.202 413.347 145.373 412.518 144.35 412.518C143.327 412.518 142.498 413.347 142.498 414.37C142.498 415.393 143.327 416.222 144.35 416.222Z" fill="#A90466"/>
<path d="M166.573 416.222C167.596 416.222 168.425 415.393 168.425 414.37C168.425 413.347 167.596 412.518 166.573 412.518C165.551 412.518 164.722 413.347 164.722 414.37C164.722 415.393 165.551 416.222 166.573 416.222Z" fill="#A90466"/>
<path d="M188.795 416.222C189.818 416.222 190.647 415.393 190.647 414.37C190.647 413.347 189.818 412.518 188.795 412.518C187.772 412.518 186.943 413.347 186.943 414.37C186.943 415.393 187.772 416.222 188.795 416.222Z" fill="#A90466"/>
<path d="M211.017 416.222C212.04 416.222 212.869 415.393 212.869 414.37C212.869 413.347 212.04 412.518 211.017 412.518C209.994 412.518 209.165 413.347 209.165 414.37C209.165 415.393 209.994 416.222 211.017 416.222Z" fill="#A90466"/>
<path d="M233.239 416.222C234.261 416.222 235.09 415.393 235.09 414.37C235.09 413.347 234.261 412.518 233.239 412.518C232.216 412.518 231.387 413.347 231.387 414.37C231.387 415.393 232.216 416.222 233.239 416.222Z" fill="#A90466"/>
<path d="M255.461 416.223C256.484 416.223 257.313 415.393 257.313 414.37C257.313 413.347 256.484 412.518 255.461 412.518C254.438 412.518 253.609 413.347 253.609 414.37C253.609 415.393 254.438 416.223 255.461 416.223Z" fill="#A90466"/>
<path d="M277.683 416.223C278.706 416.223 279.535 415.393 279.535 414.37C279.535 413.347 278.706 412.518 277.683 412.518C276.66 412.518 275.831 413.347 275.831 414.37C275.831 415.393 276.66 416.223 277.683 416.223Z" fill="#A90466"/>
<path d="M299.905 416.221C300.928 416.221 301.757 415.391 301.757 414.368C301.757 413.345 300.928 412.516 299.905 412.516C298.882 412.516 298.053 413.345 298.053 414.368C298.053 415.391 298.882 416.221 299.905 416.221Z" fill="#A90466"/>
<path d="M322.127 416.223C323.15 416.223 323.979 415.393 323.979 414.37C323.979 413.347 323.15 412.518 322.127 412.518C321.104 412.518 320.275 413.347 320.275 414.37C320.275 415.393 321.104 416.223 322.127 416.223Z" fill="#A90466"/>
<path d="M344.348 416.223C345.371 416.223 346.2 415.393 346.2 414.37C346.2 413.347 345.371 412.518 344.348 412.518C343.326 412.518 342.497 413.347 342.497 414.37C342.497 415.393 343.326 416.223 344.348 416.223Z" fill="#A90466"/>
<path d="M366.571 416.221C367.594 416.221 368.423 415.392 368.423 414.369C368.423 413.346 367.594 412.517 366.571 412.517C365.548 412.517 364.719 413.346 364.719 414.369C364.719 415.392 365.548 416.221 366.571 416.221Z" fill="#A90466"/>
<path d="M388.793 416.223C389.816 416.223 390.645 415.394 390.645 414.371C390.645 413.348 389.816 412.519 388.793 412.519C387.771 412.519 386.942 413.348 386.942 414.371C386.942 415.394 387.771 416.223 388.793 416.223Z" fill="#A90466"/>
</g>
<mask id="mask19_4744_6387" style="mask-type:luminance" maskUnits="userSpaceOnUse" x="0" y="0" width="400" height="518">
<path d="M399.811 0L0 0L0 517.547H399.811L399.811 0Z" fill="white"/>
</mask>
<g mask="url(#mask19_4744_6387)">
<path d="M22.1307 438.45C23.1535 438.45 23.9826 437.62 23.9826 436.597C23.9826 435.574 23.1535 434.745 22.1307 434.745C21.108 434.745 20.2789 435.574 20.2789 436.597C20.2789 437.62 21.108 438.45 22.1307 438.45Z" fill="#A90466"/>
<path d="M44.3524 438.452C45.3751 438.452 46.2042 437.623 46.2042 436.6C46.2042 435.577 45.3751 434.748 44.3524 434.748C43.3297 434.748 42.5006 435.577 42.5006 436.6C42.5006 437.623 43.3297 438.452 44.3524 438.452Z" fill="#A90466"/>
<path d="M66.5741 438.45C67.5968 438.45 68.4259 437.621 68.4259 436.598C68.4259 435.575 67.5968 434.746 66.5741 434.746C65.5514 434.746 64.7223 435.575 64.7223 436.598C64.7223 437.621 65.5514 438.45 66.5741 438.45Z" fill="#A90466"/>
<path d="M88.7959 438.45C89.8186 438.45 90.6477 437.621 90.6477 436.598C90.6477 435.575 89.8186 434.746 88.7959 434.746C87.7732 434.746 86.9441 435.575 86.9441 436.598C86.9441 437.621 87.7732 438.45 88.7959 438.45Z" fill="#A90466"/>
<path d="M111.019 438.45C112.042 438.45 112.871 437.621 112.871 436.598C112.871 435.575 112.042 434.746 111.019 434.746C109.996 434.746 109.167 435.575 109.167 436.598C109.167 437.621 109.996 438.45 111.019 438.45Z" fill="#A90466"/>
<path d="M133.241 438.45C134.263 438.45 135.093 437.621 135.093 436.598C135.093 435.575 134.263 434.746 133.241 434.746C132.218 434.746 131.389 435.575 131.389 436.598C131.389 437.621 132.218 438.45 133.241 438.45Z" fill="#A90466"/>
<path d="M155.462 438.451C156.485 438.451 157.314 437.621 157.314 436.598C157.314 435.575 156.485 434.746 155.462 434.746C154.44 434.746 153.611 435.575 153.611 436.598C153.611 437.621 154.44 438.451 155.462 438.451Z" fill="#A90466"/>
<path d="M177.686 438.451C178.708 438.451 179.537 437.621 179.537 436.598C179.537 435.575 178.708 434.746 177.686 434.746C176.663 434.746 175.834 435.575 175.834 436.598C175.834 437.621 176.663 438.451 177.686 438.451Z" fill="#A90466"/>
<path d="M199.907 438.451C200.93 438.451 201.759 437.621 201.759 436.598C201.759 435.575 200.93 434.746 199.907 434.746C198.885 434.746 198.055 435.575 198.055 436.598C198.055 437.621 198.885 438.451 199.907 438.451Z" fill="#A90466"/>
<path d="M222.129 438.451C223.152 438.451 223.981 437.621 223.981 436.598C223.981 435.575 223.152 434.746 222.129 434.746C221.106 434.746 220.277 435.575 220.277 436.598C220.277 437.621 221.106 438.451 222.129 438.451Z" fill="#A90466"/>
<path d="M244.351 438.451C245.373 438.451 246.203 437.621 246.203 436.598C246.203 435.575 245.373 434.746 244.351 434.746C243.328 434.746 242.499 435.575 242.499 436.598C242.499 437.621 243.328 438.451 244.351 438.451Z" fill="#A90466"/>
<path d="M268.424 436.599C268.424 437.622 267.595 438.451 266.572 438.451C265.55 438.451 264.721 437.622 264.721 436.599C264.721 435.576 265.55 434.747 266.572 434.747C267.595 434.747 268.424 435.576 268.424 436.599Z" fill="#A90466"/>
<path d="M288.794 438.451C289.817 438.451 290.646 437.622 290.646 436.599C290.646 435.576 289.817 434.747 288.794 434.747C287.772 434.747 286.943 435.576 286.943 436.599C286.943 437.622 287.772 438.451 288.794 438.451Z" fill="#A90466"/>
<path d="M311.017 438.449C312.04 438.449 312.869 437.62 312.869 436.597C312.869 435.574 312.04 434.745 311.017 434.745C309.994 434.745 309.165 435.574 309.165 436.597C309.165 437.62 309.994 438.449 311.017 438.449Z" fill="#A90466"/>
<path d="M333.239 438.451C334.262 438.451 335.091 437.622 335.091 436.599C335.091 435.576 334.262 434.747 333.239 434.747C332.216 434.747 331.387 435.576 331.387 436.599C331.387 437.622 332.216 438.451 333.239 438.451Z" fill="#A90466"/>
<path d="M355.461 438.451C356.483 438.451 357.312 437.622 357.312 436.599C357.312 435.576 356.483 434.747 355.461 434.747C354.438 434.747 353.609 435.576 353.609 436.599C353.609 437.622 354.438 438.451 355.461 438.451Z" fill="#A90466"/>
<path d="M377.682 438.45C378.705 438.45 379.534 437.62 379.534 436.597C379.534 435.574 378.705 434.745 377.682 434.745C376.66 434.745 375.831 435.574 375.831 436.597C375.831 437.62 376.66 438.45 377.682 438.45Z" fill="#A90466"/>
</g>
<mask id="mask20_4744_6387" style="mask-type:luminance" maskUnits="userSpaceOnUse" x="0" y="0" width="400" height="518">
<path d="M399.811 0L0 0L0 517.547H399.811L399.811 0Z" fill="white"/>
</mask>
<g mask="url(#mask20_4744_6387)">
<path d="M22.1306 482.907C23.1533 482.907 23.9824 482.077 23.9824 481.054C23.9824 480.031 23.1533 479.202 22.1306 479.202C21.1079 479.202 20.2788 480.031 20.2788 481.054C20.2788 482.077 21.1079 482.907 22.1306 482.907Z" fill="#A90466"/>
<path d="M44.3523 482.909C45.375 482.909 46.2041 482.08 46.2041 481.057C46.2041 480.034 45.375 479.205 44.3523 479.205C43.3296 479.205 42.5005 480.034 42.5005 481.057C42.5005 482.08 43.3296 482.909 44.3523 482.909Z" fill="#A90466"/>
<path d="M66.574 482.907C67.5967 482.907 68.4258 482.078 68.4258 481.055C68.4258 480.032 67.5967 479.203 66.574 479.203C65.5512 479.203 64.7222 480.032 64.7222 481.055C64.7222 482.078 65.5512 482.907 66.574 482.907Z" fill="#A90466"/>
<path d="M88.7957 482.907C89.8184 482.907 90.6475 482.078 90.6475 481.055C90.6475 480.032 89.8184 479.203 88.7957 479.203C87.7729 479.203 86.9438 480.032 86.9438 481.055C86.9438 482.078 87.7729 482.907 88.7957 482.907Z" fill="#A90466"/>
<path d="M111.019 482.907C112.042 482.907 112.871 482.078 112.871 481.055C112.871 480.032 112.042 479.203 111.019 479.203C109.996 479.203 109.167 480.032 109.167 481.055C109.167 482.078 109.996 482.907 111.019 482.907Z" fill="#A90466"/>
<path d="M133.241 482.907C134.263 482.907 135.092 482.078 135.092 481.055C135.092 480.032 134.263 479.203 133.241 479.203C132.218 479.203 131.389 480.032 131.389 481.055C131.389 482.078 132.218 482.907 133.241 482.907Z" fill="#A90466"/>
<path d="M155.462 482.908C156.485 482.908 157.314 482.078 157.314 481.055C157.314 480.032 156.485 479.203 155.462 479.203C154.44 479.203 153.61 480.032 153.61 481.055C153.61 482.078 154.44 482.908 155.462 482.908Z" fill="#A90466"/>
<path d="M177.685 482.908C178.708 482.908 179.537 482.078 179.537 481.055C179.537 480.032 178.708 479.203 177.685 479.203C176.663 479.203 175.834 480.032 175.834 481.055C175.834 482.078 176.663 482.908 177.685 482.908Z" fill="#A90466"/>
<path d="M199.907 482.908C200.93 482.908 201.759 482.078 201.759 481.055C201.759 480.032 200.93 479.203 199.907 479.203C198.884 479.203 198.055 480.032 198.055 481.055C198.055 482.078 198.884 482.908 199.907 482.908Z" fill="#A90466"/>
<path d="M222.129 482.908C223.152 482.908 223.981 482.078 223.981 481.055C223.981 480.032 223.152 479.203 222.129 479.203C221.106 479.203 220.277 480.032 220.277 481.055C220.277 482.078 221.106 482.908 222.129 482.908Z" fill="#A90466"/>
<path d="M244.351 482.908C245.373 482.908 246.202 482.078 246.202 481.055C246.202 480.032 245.373 479.203 244.351 479.203C243.328 479.203 242.499 480.032 242.499 481.055C242.499 482.078 243.328 482.908 244.351 482.908Z" fill="#A90466"/>
<path d="M268.424 481.056C268.424 482.079 267.595 482.908 266.572 482.908C265.549 482.908 264.72 482.079 264.72 481.056C264.72 480.033 265.55 479.204 266.572 479.204C267.595 479.204 268.424 480.033 268.424 481.056Z" fill="#A90466"/>
<path d="M288.794 482.908C289.817 482.908 290.646 482.079 290.646 481.056C290.646 480.033 289.817 479.204 288.794 479.204C287.771 479.204 286.942 480.033 286.942 481.056C286.942 482.079 287.771 482.908 288.794 482.908Z" fill="#A90466"/>
<path d="M311.017 482.906C312.04 482.906 312.869 482.077 312.869 481.054C312.869 480.031 312.04 479.202 311.017 479.202C309.994 479.202 309.165 480.031 309.165 481.054C309.165 482.077 309.994 482.906 311.017 482.906Z" fill="#A90466"/>
<path d="M333.239 482.908C334.262 482.908 335.091 482.079 335.091 481.056C335.091 480.033 334.262 479.204 333.239 479.204C332.216 479.204 331.387 480.033 331.387 481.056C331.387 482.079 332.216 482.908 333.239 482.908Z" fill="#A90466"/>
<path d="M355.46 482.908C356.483 482.908 357.312 482.079 357.312 481.056C357.312 480.033 356.483 479.204 355.46 479.204C354.438 479.204 353.609 480.033 353.609 481.056C353.609 482.079 354.438 482.908 355.46 482.908Z" fill="#A90466"/>
<path d="M377.682 482.907C378.705 482.907 379.534 482.077 379.534 481.054C379.534 480.031 378.705 479.202 377.682 479.202C376.66 479.202 375.83 480.031 375.83 481.054C375.83 482.077 376.66 482.907 377.682 482.907Z" fill="#A90466"/>
</g>
<mask id="mask21_4744_6387" style="mask-type:luminance" maskUnits="userSpaceOnUse" x="0" y="0" width="400" height="518">
<path d="M399.811 0L0 0L0 517.547H399.811L399.811 0Z" fill="white"/>
</mask>
<g mask="url(#mask21_4744_6387)">
<path d="M11.019 460.678C12.0418 460.678 12.8709 459.849 12.8709 458.826C12.8709 457.803 12.0418 456.974 11.019 456.974C9.99632 456.974 9.16724 457.803 9.16724 458.826C9.16724 459.849 9.99632 460.678 11.019 460.678Z" fill="#A90466"/>
<path d="M33.2407 460.681C34.2635 460.681 35.0925 459.851 35.0925 458.828C35.0925 457.805 34.2635 456.976 33.2407 456.976C32.218 456.976 31.3889 457.805 31.3889 458.828C31.3889 459.851 32.218 460.681 33.2407 460.681Z" fill="#A90466"/>
<path d="M55.4624 460.679C56.4851 460.679 57.3142 459.849 57.3142 458.826C57.3142 457.803 56.4851 456.974 55.4624 456.974C54.4397 456.974 53.6106 457.803 53.6106 458.826C53.6106 459.849 54.4397 460.679 55.4624 460.679Z" fill="#A90466"/>
<path d="M77.6841 460.679C78.7068 460.679 79.5359 459.849 79.5359 458.826C79.5359 457.803 78.7068 456.974 77.6841 456.974C76.6614 456.974 75.8323 457.803 75.8323 458.826C75.8323 459.849 76.6614 460.679 77.6841 460.679Z" fill="#A90466"/>
<path d="M99.9074 460.679C100.93 460.679 101.759 459.849 101.759 458.826C101.759 457.803 100.93 456.974 99.9074 456.974C98.8846 456.974 98.0555 457.803 98.0555 458.826C98.0555 459.849 98.8846 460.679 99.9074 460.679Z" fill="#A90466"/>
<path d="M122.129 460.679C123.152 460.679 123.981 459.849 123.981 458.826C123.981 457.803 123.152 456.974 122.129 456.974C121.106 456.974 120.277 457.803 120.277 458.826C120.277 459.849 121.106 460.679 122.129 460.679Z" fill="#A90466"/>
<path d="M144.351 460.679C145.373 460.679 146.203 459.85 146.203 458.827C146.203 457.804 145.373 456.975 144.351 456.975C143.328 456.975 142.499 457.804 142.499 458.827C142.499 459.85 143.328 460.679 144.351 460.679Z" fill="#A90466"/>
<path d="M166.574 460.679C167.597 460.679 168.426 459.85 168.426 458.827C168.426 457.804 167.597 456.975 166.574 456.975C165.551 456.975 164.722 457.804 164.722 458.827C164.722 459.85 165.551 460.679 166.574 460.679Z" fill="#A90466"/>
<path d="M188.796 460.679C189.818 460.679 190.647 459.85 190.647 458.827C190.647 457.804 189.818 456.975 188.796 456.975C187.773 456.975 186.944 457.804 186.944 458.827C186.944 459.85 187.773 460.679 188.796 460.679Z" fill="#A90466"/>
<path d="M211.017 460.679C212.04 460.679 212.869 459.85 212.869 458.827C212.869 457.804 212.04 456.975 211.017 456.975C209.995 456.975 209.165 457.804 209.165 458.827C209.165 459.85 209.995 460.679 211.017 460.679Z" fill="#A90466"/>
<path d="M233.239 460.679C234.262 460.679 235.091 459.85 235.091 458.827C235.091 457.804 234.262 456.975 233.239 456.975C232.216 456.975 231.387 457.804 231.387 458.827C231.387 459.85 232.216 460.679 233.239 460.679Z" fill="#A90466"/>
<path d="M255.462 460.68C256.484 460.68 257.313 459.85 257.313 458.827C257.313 457.804 256.484 456.975 255.462 456.975C254.439 456.975 253.61 457.804 253.61 458.827C253.61 459.85 254.439 460.68 255.462 460.68Z" fill="#A90466"/>
<path d="M277.684 460.68C278.706 460.68 279.535 459.85 279.535 458.827C279.535 457.804 278.706 456.975 277.684 456.975C276.661 456.975 275.832 457.804 275.832 458.827C275.832 459.85 276.661 460.68 277.684 460.68Z" fill="#A90466"/>
<path d="M299.906 460.678C300.928 460.678 301.757 459.849 301.757 458.826C301.757 457.802 300.928 456.973 299.906 456.973C298.883 456.973 298.054 457.802 298.054 458.826C298.054 459.849 298.883 460.678 299.906 460.678Z" fill="#A90466"/>
<path d="M322.127 460.68C323.15 460.68 323.979 459.85 323.979 458.827C323.979 457.804 323.15 456.975 322.127 456.975C321.105 456.975 320.275 457.804 320.275 458.827C320.275 459.85 321.105 460.68 322.127 460.68Z" fill="#A90466"/>
<path d="M344.349 460.68C345.372 460.68 346.201 459.85 346.201 458.827C346.201 457.804 345.372 456.975 344.349 456.975C343.326 456.975 342.497 457.804 342.497 458.827C342.497 459.85 343.326 460.68 344.349 460.68Z" fill="#A90466"/>
<path d="M366.572 460.678C367.594 460.678 368.423 459.849 368.423 458.826C368.423 457.803 367.594 456.974 366.572 456.974C365.549 456.974 364.72 457.803 364.72 458.826C364.72 459.849 365.549 460.678 366.572 460.678Z" fill="#A90466"/>
<path d="M388.793 460.68C389.816 460.68 390.645 459.851 390.645 458.828C390.645 457.805 389.816 456.976 388.793 456.976C387.771 456.976 386.942 457.805 386.942 458.828C386.942 459.851 387.771 460.68 388.793 460.68Z" fill="#A90466"/>
</g>
<mask id="mask22_4744_6387" style="mask-type:luminance" maskUnits="userSpaceOnUse" x="0" y="0" width="400" height="518">
<path d="M399.811 0L0 0L0 517.547H399.811L399.811 0Z" fill="white"/>
</mask>
<g mask="url(#mask22_4744_6387)">
<path d="M11.0187 505.135C12.0414 505.135 12.8705 504.306 12.8705 503.283C12.8705 502.26 12.0414 501.431 11.0187 501.431C9.99595 501.431 9.16687 502.26 9.16687 503.283C9.16687 504.306 9.99595 505.135 11.0187 505.135Z" fill="#A90466"/>
<path d="M33.2409 505.138C34.2636 505.138 35.0927 504.308 35.0927 503.285C35.0927 502.262 34.2636 501.433 33.2409 501.433C32.2181 501.433 31.389 502.262 31.389 503.285C31.389 504.308 32.2181 505.138 33.2409 505.138Z" fill="#A90466"/>
<path d="M55.462 505.136C56.4848 505.136 57.3139 504.307 57.3139 503.284C57.3139 502.261 56.4848 501.431 55.462 501.431C54.4393 501.431 53.6102 502.261 53.6102 503.284C53.6102 504.307 54.4393 505.136 55.462 505.136Z" fill="#A90466"/>
<path d="M77.6843 505.136C78.7071 505.136 79.5361 504.307 79.5361 503.284C79.5361 502.261 78.7071 501.431 77.6843 501.431C76.6616 501.431 75.8325 502.261 75.8325 503.284C75.8325 504.307 76.6616 505.136 77.6843 505.136Z" fill="#A90466"/>
<path d="M99.907 505.136C100.93 505.136 101.759 504.307 101.759 503.284C101.759 502.261 100.93 501.431 99.907 501.431C98.8843 501.431 98.0552 502.261 98.0552 503.284C98.0552 504.307 98.8843 505.136 99.907 505.136Z" fill="#A90466"/>
<path d="M122.129 505.136C123.151 505.136 123.98 504.307 123.98 503.284C123.98 502.261 123.151 501.431 122.129 501.431C121.106 501.431 120.277 502.261 120.277 503.284C120.277 504.307 121.106 505.136 122.129 505.136Z" fill="#A90466"/>
<path d="M144.35 505.136C145.373 505.136 146.202 504.307 146.202 503.284C146.202 502.261 145.373 501.432 144.35 501.432C143.328 501.432 142.499 502.261 142.499 503.284C142.499 504.307 143.328 505.136 144.35 505.136Z" fill="#A90466"/>
<path d="M166.573 505.136C167.596 505.136 168.425 504.307 168.425 503.284C168.425 502.261 167.596 501.432 166.573 501.432C165.551 501.432 164.722 502.261 164.722 503.284C164.722 504.307 165.551 505.136 166.573 505.136Z" fill="#A90466"/>
<path d="M188.795 505.136C189.818 505.136 190.647 504.307 190.647 503.284C190.647 502.261 189.818 501.432 188.795 501.432C187.772 501.432 186.943 502.261 186.943 503.284C186.943 504.307 187.772 505.136 188.795 505.136Z" fill="#A90466"/>
<path d="M211.017 505.136C212.04 505.136 212.869 504.307 212.869 503.284C212.869 502.261 212.04 501.432 211.017 501.432C209.994 501.432 209.165 502.261 209.165 503.284C209.165 504.307 209.994 505.136 211.017 505.136Z" fill="#A90466"/>
<path d="M233.239 505.136C234.261 505.136 235.09 504.307 235.09 503.284C235.09 502.261 234.261 501.432 233.239 501.432C232.216 501.432 231.387 502.261 231.387 503.284C231.387 504.307 232.216 505.136 233.239 505.136Z" fill="#A90466"/>
<path d="M255.461 505.137C256.484 505.137 257.313 504.308 257.313 503.284C257.313 502.261 256.484 501.432 255.461 501.432C254.439 501.432 253.609 502.261 253.609 503.284C253.609 504.308 254.439 505.137 255.461 505.137Z" fill="#A90466"/>
<path d="M277.684 505.137C278.706 505.137 279.536 504.308 279.536 503.284C279.536 502.261 278.706 501.432 277.684 501.432C276.661 501.432 275.832 502.261 275.832 503.284C275.832 504.308 276.661 505.137 277.684 505.137Z" fill="#A90466"/>
<path d="M299.905 505.135C300.928 505.135 301.757 504.306 301.757 503.283C301.757 502.26 300.928 501.43 299.905 501.43C298.882 501.43 298.053 502.26 298.053 503.283C298.053 504.306 298.882 505.135 299.905 505.135Z" fill="#A90466"/>
<path d="M322.127 505.137C323.15 505.137 323.979 504.308 323.979 503.284C323.979 502.261 323.15 501.432 322.127 501.432C321.104 501.432 320.275 502.261 320.275 503.284C320.275 504.308 321.104 505.137 322.127 505.137Z" fill="#A90466"/>
<path d="M344.349 505.137C345.371 505.137 346.2 504.308 346.2 503.284C346.2 502.261 345.371 501.432 344.349 501.432C343.326 501.432 342.497 502.261 342.497 503.284C342.497 504.308 343.326 505.137 344.349 505.137Z" fill="#A90466"/>
<path d="M366.571 505.135C367.594 505.135 368.423 504.306 368.423 503.283C368.423 502.26 367.594 501.431 366.571 501.431C365.549 501.431 364.719 502.26 364.719 503.283C364.719 504.306 365.549 505.135 366.571 505.135Z" fill="#A90466"/>
<path d="M388.793 505.137C389.816 505.137 390.645 504.308 390.645 503.285C390.645 502.262 389.816 501.433 388.793 501.433C387.771 501.433 386.942 502.262 386.942 503.285C386.942 504.308 387.771 505.137 388.793 505.137Z" fill="#A90466"/>
</g>
</svg>
