<svg width="1440" height="180" viewBox="0 0 1440 180" fill="none" xmlns="http://www.w3.org/2000/svg">
    <g opacity="0.05">
        <mask id="mask0_4717_7400" style="mask-type:luminance" maskUnits="userSpaceOnUse" x="0" y="-184" width="1440"
            height="649">
            <path d="M1440 -184H0V464.576H1440V-184Z" fill="white" />
        </mask>
        <g mask="url(#mask0_4717_7400)">
            <path
                d="M1188.67 156.319C1213.36 156.319 1233.37 136.305 1233.37 111.616C1233.37 86.9279 1213.36 66.9141 1188.67 66.9141C1163.98 66.9141 1143.97 86.9279 1143.97 111.616C1143.97 136.305 1163.98 156.319 1188.67 156.319Z"
                fill="#A90466" />
            <path
                d="M1188.67 156.319C1213.36 156.319 1233.37 136.305 1233.37 111.616C1233.37 86.9279 1213.36 66.9141 1188.67 66.9141C1163.98 66.9141 1143.97 86.9279 1143.97 111.616C1143.97 136.305 1163.98 156.319 1188.67 156.319Z"
                stroke="#020202" stroke-width="3" stroke-miterlimit="10" />
            <path
                d="M1188.67 142.69C1205.83 142.69 1219.74 128.778 1219.74 111.616C1219.74 94.455 1205.83 80.543 1188.67 80.543C1171.51 80.543 1157.6 94.455 1157.6 111.616C1157.6 128.778 1171.51 142.69 1188.67 142.69Z"
                fill="white" />
            <path
                d="M1192.9 131.388H1188.52V103.208C1188.52 100.863 1188.59 98.643 1188.74 96.5528C1188.36 96.9308 1187.93 97.3293 1187.47 97.7416C1187 98.1572 1184.85 99.9156 1181.03 103.017L1178.65 99.9326L1189.11 91.8457H1192.9V131.388Z"
                fill="#A90466" />
        </g>
        <mask id="mask1_4717_7400" style="mask-type:luminance" maskUnits="userSpaceOnUse" x="0" y="-184" width="1440"
            height="649">
            <path d="M1440 -184H0V464.576H1440V-184Z" fill="white" />
        </mask>
        <g mask="url(#mask1_4717_7400)">
            <path
                d="M122.598 187.884C122.598 203.651 117.318 238.198 96.6556 245.286C93.7034 246.299 89.3264 243.52 84.7886 243.778C80.2508 244.038 75.5266 246.497 73.8281 246.178C50.7218 241.854 38.4785 208.37 38.4785 191.589C38.4785 177.844 48.4914 165.968 61.2889 163.377C74.0864 160.786 76.3972 164.764 82.5069 165.11C88.6166 165.457 91.2096 160.095 103.316 162.344C115.419 164.591 122.598 173.86 122.598 187.884Z"
                fill="#A90466" />
            <path
                d="M43.0879 134.693C61.3006 137.052 51.9531 163.497 75.6546 154.983C83.9229 132.535 59.9049 122.433 43.0879 134.693Z"
                fill="white" stroke="black" stroke-width="3" />
            <path
                d="M86.1551 155.855C96.9308 163.515 111.288 138.029 95.7848 130.596C98.0289 148.93 75.3759 148.194 86.1551 155.855Z"
                fill="white" stroke="black" stroke-width="3" />
            <path d="M75.6543 154.984C78.2353 156.97 81.333 160.651 81.4339 165.008" stroke="black" stroke-width="3" />
            <path d="M86.6996 156.375C84.6214 158.265 82.9657 163.167 83.106 165.671" stroke="black" stroke-width="3" />
        </g>
        <mask id="mask2_4717_7400" style="mask-type:luminance" maskUnits="userSpaceOnUse" x="0" y="-184" width="1440"
            height="649">
            <path d="M1440 -184H0V464.576H1440V-184Z" fill="white" />
        </mask>
        <g mask="url(#mask2_4717_7400)">
            <path
                d="M973.032 45.449V45.4336H973.196C973.196 45.4336 973.203 45.4336 973.206 45.4336C973.212 45.4336 973.213 45.4336 973.22 45.4336H1077.29L1077.35 45.4798C1077.51 45.4729 1077.65 45.4336 1077.81 45.4336C1082.63 45.4336 1086.54 49.2017 1086.84 53.9516L1086.9 54.008V54.5092C1086.9 54.5126 1086.9 54.516 1086.9 54.5195C1086.9 54.5229 1086.9 54.5263 1086.9 54.5297V213.994H973.032V56.4095L964.117 56.3342C964.117 55.6569 964.117 55.1677 964.117 54.5211C964.117 49.5609 968.097 45.5448 973.032 45.449Z"
                fill="white" />
            <path
                d="M1086.9 151.354L1079.85 155.047L1065.85 147.215L1059.75 162.053L1043.99 165.056L1048.86 180.349L1038.71 192.777L1052.27 201.362L1052.43 212.74H1086.9V151.354Z"
                fill="#DEDEDE" />
            <path
                d="M973.032 45.449V45.4336H973.196C973.196 45.4336 973.203 45.4336 973.206 45.4336C973.212 45.4336 973.213 45.4336 973.22 45.4336H1077.29L1077.35 45.4798C1077.51 45.4729 1077.65 45.4336 1077.81 45.4336C1082.63 45.4336 1086.54 49.2017 1086.84 53.9516L1086.9 54.008V54.5092C1086.9 54.5126 1086.9 54.516 1086.9 54.5195C1086.9 54.5229 1086.9 54.5263 1086.9 54.5297V213.994H973.032V56.4095L964.117 56.3342C964.117 55.6569 964.117 55.1677 964.117 54.5211C964.117 49.5609 968.097 45.5448 973.032 45.449Z"
                fill="#A90466" />
            <path
                d="M973.032 45.449V45.4336H973.196C973.196 45.4336 973.203 45.4336 973.206 45.4336C973.212 45.4336 973.213 45.4336 973.22 45.4336H1077.29L1077.35 45.4798C1077.51 45.4729 1077.65 45.4336 1077.81 45.4336C1082.63 45.4336 1086.54 49.2017 1086.84 53.9516L1086.9 54.008V54.5092C1086.9 54.5126 1086.9 54.516 1086.9 54.5195C1086.9 54.5229 1086.9 54.5263 1086.9 54.5297V213.994H973.032V56.4095L964.117 56.3342C964.117 55.6569 964.117 55.1677 964.117 54.5211C964.117 49.5609 968.097 45.5448 973.032 45.449Z"
                stroke="#A90466" stroke-width="3" stroke-miterlimit="10" />
            <path
                d="M1078.11 43.1397L973.465 43.1345L973.458 43.1328L970.73 43.1482V43.4219C965.649 44.5662 961.815 49.1433 961.815 54.5209V66.5966H1074.14L1072.88 63.5726C1072.72 62.3735 1072.89 57.1618 1072.94 55.4137C1072.97 54.5602 1072.99 53.9189 1072.99 53.664C1072.99 49.8942 1075.93 43.1397 1082.37 44.1146C1081 43.5057 1079.56 43.1756 1078.11 43.1397Z"
                fill="#E8F2FC" />
            <path
                d="M1104.02 207.228L1090.23 215.446L1089.58 231.473L1073.74 228.904L1062.94 240.766L1052.46 228.62L1036.55 230.758L1036.33 214.714L1022.78 206.136L1032.93 193.703L1028.05 178.412L1043.81 175.41L1049.91 160.57L1063.92 168.401L1078.13 160.95L1083.82 175.951L1099.5 179.378L1094.21 194.531L1104.02 207.228Z"
                fill="#E8F2FC" />
            <path
                d="M1041.63 199.373C1041.4 187.687 1050.67 178.021 1062.36 177.782C1074.05 177.542 1083.71 186.825 1083.95 198.506C1084.19 210.196 1074.91 219.862 1063.22 220.098C1051.54 220.339 1041.87 211.064 1041.63 199.373Z"
                fill="white" />
            <path d="M987.853 82.8086H1068.18" stroke="white" stroke-width="3" stroke-linecap="round" />
            <path d="M987.853 99.543H1059.81" stroke="white" stroke-width="3" stroke-linecap="round" />
            <path d="M987.853 116.279H1068.18" stroke="white" stroke-width="3" stroke-linecap="round" />
            <path d="M987.853 133.012H1046.01" stroke="white" stroke-width="3" stroke-linecap="round" />
            <path d="M987.853 149.746H1061.44" stroke="white" stroke-width="3" stroke-linecap="round" />
            <path d="M987.853 166.486H1028.02" stroke="white" stroke-width="3" stroke-linecap="round" />
        </g>
        <mask id="mask3_4717_7400" style="mask-type:luminance" maskUnits="userSpaceOnUse" x="0" y="-184" width="1440"
            height="649">
            <path d="M1440 -184H0V464.576H1440V-184Z" fill="white" />
        </mask>
        <g mask="url(#mask3_4717_7400)">
            <path
                d="M580.035 84.8492C590.179 71.7251 619.708 23.7678 619.708 23.7678C623.548 19.9706 632.87 13.9362 640.28 19.9963C647.82 26.1692 640.032 44.7292 640.032 44.7292C644.833 39.2455 660.063 19.1924 670.206 29.9921C677.516 37.7728 670.893 46.7903 670.893 46.7903C670.893 46.7903 676.846 41.647 683.232 47.3034C690.938 54.1315 682.206 65.8155 682.206 65.8155L677.342 73.639C677.342 73.639 682.389 69.7341 688.314 76.0336C693.692 81.7619 686.321 92.0467 686.321 92.0467L657.547 137.129C657.615 152.3 657.547 157.923 657.547 170.214C657.547 200.386 641.407 204.327 641.407 204.327V253.868L572.321 254.039V118.271C572.321 118.271 569.49 98.4729 580.035 84.8492Z"
                fill="white" />
            <path
                d="M688.312 76.0335C682.388 69.734 677.34 73.6389 677.34 73.6389L682.204 65.8153C682.204 65.8153 690.936 54.1313 683.231 47.3033C676.846 41.6469 670.892 46.7902 670.892 46.7902C670.892 46.7902 677.514 37.7727 670.204 29.9919C660.061 19.1922 644.831 39.2455 640.03 44.7291C640.03 44.7291 645.324 32.0941 642.943 24.209H619.437C616.517 28.9435 589.624 72.445 580.035 84.8491C569.492 98.4745 572.319 118.271 572.319 118.271V140.182H582.881L584.106 145.674L590.983 149.392L602.58 154.508L608.726 161.017L613.154 172.93L613.743 184.735C616.257 176.799 620.473 162.703 615.46 149.964C613.713 145.527 616.088 140.182 620.855 140.182H657.555C657.552 139.203 657.549 138.196 657.543 137.13L686.318 92.0483C686.322 92.0483 693.692 81.7618 688.312 76.0335Z"
                fill="#DEDEDE" />
            <path
                d="M874.367 84.8495C864.219 71.7253 834.69 23.768 834.69 23.768C830.849 19.9708 821.53 13.9364 814.117 19.9965C806.583 26.1695 814.37 44.7294 814.37 44.7294C809.567 39.2458 794.338 19.1926 784.191 29.9923C776.888 37.7731 783.509 46.7905 783.509 46.7905C783.509 46.7905 777.553 41.6472 771.168 47.3036C763.463 54.1317 772.198 65.8157 772.198 65.8157L777.064 73.6393C777.064 73.6393 772.013 69.7343 766.09 76.0339C760.709 81.7621 768.081 92.047 768.081 92.047L796.857 137.129C796.787 152.301 796.857 157.923 796.857 170.214C796.857 200.386 812.997 204.327 812.997 204.327V253.868L882.081 254.039V118.271C882.081 118.271 884.909 98.4731 874.367 84.8495Z"
                fill="white" />
            <path
                d="M874.367 84.8511C864.777 72.447 837.885 28.9454 834.962 24.2109H811.454C809.075 32.0961 814.37 44.731 814.37 44.731C809.567 39.2474 794.338 19.1942 784.191 29.9939C776.888 37.7747 783.509 46.7921 783.509 46.7921C783.509 46.7921 777.553 41.6488 771.168 47.3052C763.463 54.1333 772.198 65.8173 772.198 65.8173L777.064 73.6408C777.064 73.6408 772.013 69.7359 766.09 76.0354C760.709 81.7637 768.081 92.0486 768.081 92.0486L796.857 137.131C796.852 138.196 796.845 139.204 796.842 140.182H833.544C838.311 140.182 840.684 145.527 838.941 149.964C833.924 162.703 838.139 176.799 840.655 184.735L841.243 172.93L845.671 161.017L851.819 154.509L863.415 149.393L870.293 145.674L871.516 140.182H882.08V118.271C882.08 118.271 884.909 98.4747 874.367 84.8511Z"
                fill="#DEDEDE" />
            <path
                d="M580.035 84.8492C590.179 71.7251 619.708 23.7678 619.708 23.7678C623.548 19.9706 632.87 13.9362 640.28 19.9963C647.82 26.1692 640.032 44.7292 640.032 44.7292C644.833 39.2455 660.063 19.1924 670.206 29.9921C677.516 37.7728 670.893 46.7903 670.893 46.7903C670.893 46.7903 676.846 41.647 683.232 47.3034C690.938 54.1315 682.206 65.8155 682.206 65.8155L677.342 73.639C677.342 73.639 682.389 69.7341 688.314 76.0336C693.692 81.7619 686.321 92.0467 686.321 92.0467L657.547 137.129C657.615 152.3 657.547 157.923 657.547 170.214C657.547 200.386 641.407 204.327 641.407 204.327V253.868L572.321 254.039V118.271C572.321 118.271 569.49 98.4729 580.035 84.8492Z"
                stroke="#050505" stroke-width="3" />
            <path
                d="M569.471 247.13C569.471 247.13 569.471 205.289 569.471 200.504C567.694 199.76 548.226 194.24 548.226 168.01V75.0961C548.226 75.0961 547.817 69.739 553.121 68.3587C569.964 63.9748 575.744 83.4276 575.988 86.8502C575.988 86.8502 580.993 127.666 583.004 142.38C583.702 147.494 587.303 148.219 587.303 148.219C587.303 148.219 598.409 150.574 603.891 155.721C608.131 159.705 613.746 164.165 613.746 184.735"
                fill="white" />
            <path
                d="M569.471 247.13C569.471 247.13 569.471 205.289 569.471 200.504C567.694 199.76 548.226 194.24 548.226 168.01V75.0961C548.226 75.0961 547.817 69.739 553.121 68.3587C569.964 63.9748 575.744 83.4276 575.988 86.8502C575.988 86.8502 580.993 127.666 583.004 142.38C583.702 147.494 587.303 148.219 587.303 148.219C587.303 148.219 598.409 150.574 603.891 155.721C608.131 159.705 613.746 164.165 613.746 184.735"
                stroke="#050505" stroke-width="3" stroke-linecap="round" />
            <path
                d="M874.367 84.8495C864.219 71.7253 834.69 23.768 834.69 23.768C830.849 19.9708 821.53 13.9364 814.117 19.9965C806.583 26.1695 814.37 44.7294 814.37 44.7294C809.567 39.2458 794.338 19.1926 784.191 29.9923C776.888 37.7731 783.509 46.7905 783.509 46.7905C783.509 46.7905 777.553 41.6472 771.168 47.3036C763.463 54.1317 772.198 65.8157 772.198 65.8157L777.064 73.6393C777.064 73.6393 772.013 69.7343 766.09 76.0339C760.709 81.7621 768.081 92.047 768.081 92.047L796.857 137.129C796.787 152.301 796.857 157.923 796.857 170.214C796.857 200.386 812.997 204.327 812.997 204.327V253.868L882.081 254.039V118.271C882.081 118.271 884.909 98.4731 874.367 84.8495Z"
                stroke="#050505" stroke-width="3" />
            <path
                d="M884.928 247.13C884.928 247.13 884.928 205.289 884.928 200.504C886.705 199.76 906.176 194.24 906.176 168.01V75.0961C906.176 75.0961 906.582 69.739 901.279 68.3587C884.435 63.9748 878.659 83.4276 878.414 86.8502C878.414 86.8502 873.409 127.666 871.401 142.38C870.705 147.494 867.1 148.219 867.1 148.219C867.1 148.219 855.997 150.574 850.514 155.721C846.275 159.705 840.656 164.165 840.656 184.735"
                fill="white" />
            <path
                d="M884.928 247.13C884.928 247.13 884.928 205.289 884.928 200.504C886.705 199.76 906.176 194.24 906.176 168.01V75.0961C906.176 75.0961 906.582 69.739 901.279 68.3587C884.435 63.9748 878.659 83.4276 878.414 86.8502C878.414 86.8502 873.409 127.666 871.401 142.38C870.705 147.494 867.1 148.219 867.1 148.219C867.1 148.219 855.997 150.574 850.514 155.721C846.275 159.705 840.656 164.165 840.656 184.735"
                stroke="#050505" stroke-width="3" stroke-linecap="round" />
            <path d="M846.389 -49.1016H608.729V113.635H846.389V-49.1016Z" fill="#A90466" />
            <path d="M846.388 -49.1016H795.413V113.635H846.388V-49.1016Z" fill="#701B64" />
            <path d="M846.389 -49.1016H608.729V113.635H846.389V-49.1016Z" stroke="#020202" stroke-width="3"
                stroke-linecap="round" stroke-linejoin="round" />
            <path
                d="M905.007 -79.9609H904.985V-41.5103V77.5224C900.174 79.5544 896.804 84.3214 896.804 89.8667C896.804 94.6302 899.3 98.8071 903.047 101.18L885.974 131.685C885.974 145.045 896.802 155.881 910.181 155.881C923.557 155.881 934.389 145.044 934.389 131.685L917.521 101.055C921.162 98.6618 923.571 94.543 923.571 89.8667C923.571 84.4771 920.367 79.835 915.771 77.7123V-41.5086V-79.9592H905.007V-79.9609Z"
                fill="#A90466" />
            <path
                d="M904.987 -79.9609V-41.5103V77.5224C900.176 79.5544 896.806 84.3214 896.806 89.8667C896.806 94.6302 899.302 98.8071 903.049 101.18L885.976 131.685C885.976 145.045 896.804 155.881 910.183 155.881C923.559 155.881 934.391 145.044 934.391 131.685L917.523 101.055C921.164 98.6618 923.573 94.543 923.573 89.8667C923.573 84.4771 920.369 79.835 915.773 77.7123V-41.5086V-79.9592"
                stroke="#050505" stroke-width="3" />
        </g>
        <mask id="mask4_4717_7400" style="mask-type:luminance" maskUnits="userSpaceOnUse" x="0" y="-184" width="1440"
            height="649">
            <path d="M1440 -184H0V464.576H1440V-184Z" fill="white" />
        </mask>
        <g mask="url(#mask4_4717_7400)">
            <path
                d="M1263.08 -86.9447C1264.88 -87.0627 1266.31 -88.8074 1266.31 -90.9608V-93.1211H1263.08H1250.63H1247.4V-90.9608C1247.4 -88.8074 1248.83 -87.0627 1250.63 -86.9447V-4.24507C1248.83 -4.13218 1247.4 -2.38243 1247.4 -0.230698V1.9313H1250.63H1263.08H1266.31V-0.230698C1266.31 -2.38243 1264.88 -4.13047 1263.08 -4.24507"
                fill="white" />
            <path
                d="M1263.08 -86.9447C1264.88 -87.0627 1266.31 -88.8074 1266.31 -90.9608V-93.1211H1263.08H1250.63H1247.4V-90.9608C1247.4 -88.8074 1248.83 -87.0627 1250.63 -86.9447V-4.24507C1248.83 -4.13218 1247.4 -2.38243 1247.4 -0.2307V1.93131H1250.63H1263.08H1266.31V-0.2307C1266.31 -2.38243 1264.88 -4.13047 1263.08 -4.24507"
                stroke="#020202" stroke-width="3" stroke-linecap="round" stroke-linejoin="round" />
            <path
                d="M1280.12 -90.9642C1280.12 -88.8108 1281.55 -87.0661 1283.35 -86.9464V-4.24335C1281.55 -4.13046 1280.12 -2.38071 1280.12 -0.228981V1.93303H1283.35H1295.8H1299.03V-0.228981C1299.03 -2.38071 1297.6 -4.12875 1295.8 -4.24335V-86.9464C1297.6 -87.061 1299.03 -88.8074 1299.03 -90.9642V-93.1211H1280.12V-90.9642Z"
                fill="white" />
            <path
                d="M1312.84 -90.9628C1312.84 -88.8093 1314.27 -87.0664 1316.07 -86.9484V-4.24358C1314.27 -4.12727 1312.84 -2.38266 1312.84 -0.230934V1.93108H1316.07H1328.52H1331.75V-0.230934C1331.75 -2.38266 1330.32 -4.12556 1328.52 -4.24358V-86.9484C1330.32 -87.0664 1331.75 -88.8093 1331.75 -90.9628V-93.123H1312.84V-90.9628Z"
                fill="white" />
            <path
                d="M1345.56 -90.9642C1345.56 -88.8108 1346.99 -87.0679 1348.79 -86.9464V-4.24168C1346.99 -4.11852 1345.56 -2.37383 1345.56 -0.223808V1.93303H1348.79H1361.24H1364.47V-0.223808C1364.47 -2.38067 1363.04 -4.12366 1361.24 -4.24168V-86.9464C1363.04 -87.061 1364.47 -88.8074 1364.47 -90.9642V-93.1211H1345.56V-90.9642Z"
                fill="white" />
            <path
                d="M1381.51 -4.24335C1379.71 -4.13217 1378.28 -2.38243 1378.28 -0.230698V1.9313H1381.51H1393.96H1397.19V-0.230698C1397.19 -2.38243 1395.76 -4.13046 1393.96 -4.24335V-86.9447C1395.76 -87.061 1397.19 -88.8074 1397.19 -90.9608V-93.1211H1393.96H1381.51H1378.28V-90.9608C1378.28 -88.8039 1379.71 -87.061 1381.51 -86.9447"
                fill="white" />
            <path
                d="M1381.51 -4.24335C1379.71 -4.13217 1378.28 -2.38243 1378.28 -0.2307V1.93131H1381.51H1393.96H1397.19V-0.2307C1397.19 -2.38243 1395.76 -4.13046 1393.96 -4.24335V-86.9447C1395.76 -87.061 1397.19 -88.8074 1397.19 -90.9608V-93.1211H1393.96H1381.51H1378.28V-90.9608C1378.28 -88.8039 1379.71 -87.061 1381.51 -86.9447"
                stroke="#020202" stroke-width="3" stroke-linecap="round" stroke-linejoin="round" />
            <path d="M1401.28 -5.39258H1243.31V16.1965H1401.28V-5.39258Z" fill="#E8F2FC" stroke="black" stroke-width="3"
                stroke-miterlimit="10" />
            <path d="M1410.34 7.57422H1234.25V24.0628H1410.34V7.57422Z" fill="#E8F2FC" stroke="black" stroke-width="3"
                stroke-miterlimit="10" />
        </g>
        <mask id="mask5_4717_7400" style="mask-type:luminance" maskUnits="userSpaceOnUse" x="0" y="-184" width="1440"
            height="649">
            <path d="M1440 -184H0V464.576H1440V-184Z" fill="white" />
        </mask>
        <g mask="url(#mask5_4717_7400)">
            <path
                d="M313.093 117.748C311.553 117.75 310.305 116.5 310.305 114.96L310.31 106.03C310.303 104.491 311.553 103.242 313.091 103.242H324.972C326.511 103.244 327.761 104.489 327.761 106.032L327.756 114.96C327.761 116.5 326.513 117.752 324.97 117.748H313.093Z"
                fill="#A90466" />
            <path
                d="M249.531 54.1863C249.535 55.7308 250.782 56.9777 252.319 56.9743L261.249 56.9777C262.796 56.9777 264.043 55.7325 264.039 54.1897L264.044 42.309C264.044 40.7697 262.794 39.521 261.253 39.5244L252.319 39.5176C250.78 39.5176 249.531 40.7696 249.531 42.3073V54.1863Z"
                fill="#A90466" />
            <path
                d="M289.788 63.2373C288.182 64.8434 288.183 67.4467 289.789 69.0562L299.103 78.3661C300.709 79.9722 303.307 79.9705 304.92 78.3661L317.309 65.974C318.915 64.373 318.915 61.7629 317.314 60.1534L307.992 50.8417C306.384 49.2374 303.788 49.2374 302.18 50.8435L289.788 63.2373Z"
                fill="white" stroke="#070707" stroke-width="3" stroke-linecap="round" />
            <path
                d="M300.628 152.627C277.131 176.132 239.028 176.132 215.523 152.624C192.023 129.126 192.018 91.0205 215.523 67.5208C239.03 44.0177 277.13 44.0211 300.628 67.5191C324.133 91.0205 324.131 129.126 300.628 152.627Z"
                fill="#A90466" />
            <path
                d="M300.628 152.627C277.131 176.132 239.028 176.132 215.523 152.624C192.023 129.126 192.018 91.0205 215.523 67.5208C239.03 44.0177 277.13 44.0211 300.628 67.5191C324.133 91.0205 324.131 129.126 300.628 152.627Z"
                stroke="#070707" stroke-width="3" stroke-linecap="round" stroke-linejoin="round" />
            <path
                d="M300.628 152.627C277.131 176.132 239.028 176.132 215.523 152.624C192.023 129.126 192.018 91.0205 215.523 67.5208C239.03 44.0177 277.13 44.0211 300.628 67.5191C324.133 91.0205 324.131 129.126 300.628 152.627Z"
                stroke="#070707" stroke-width="3" stroke-linecap="round" />
            <path
                d="M290.504 142.507C272.592 160.416 243.556 160.411 225.649 142.504C207.741 124.594 207.734 95.5593 225.643 77.6459C243.563 59.7359 272.596 59.7427 290.502 77.6527C308.414 95.5576 308.416 124.592 290.504 142.507Z"
                fill="white" />
            <path d="M256.701 81.3965L258.355 110.53" stroke="#070707" stroke-width="3" stroke-linecap="round" />
            <path d="M277.536 108.993L258.094 109.775L258.212 108.488" fill="white" />
            <path d="M277.536 108.993L258.094 109.775L258.212 108.488" stroke="#070707" stroke-width="3"
                stroke-linecap="round" />
            <path
                d="M261.605 113.605C259.662 115.555 256.493 115.56 254.544 113.611C252.593 111.656 252.596 108.492 254.544 106.541C256.494 104.592 259.657 104.587 261.609 106.546C263.56 108.492 263.555 111.655 261.605 113.605Z"
                fill="white" stroke="#070707" stroke-width="3" stroke-linecap="round" />
            <path d="M283.089 85.0586L278.305 89.8461" stroke="#070707" stroke-width="3" stroke-linecap="round" />
            <path d="M233.059 135.09L237.844 130.303" stroke="#070707" stroke-width="3" stroke-linecap="round" />
            <path d="M283.089 135.093L278.305 130.309" stroke="#070707" stroke-width="3" stroke-linecap="round" />
            <path d="M233.064 85.0586L237.845 89.8393" stroke="#070707" stroke-width="3" stroke-linecap="round" />
            <path d="M303.071 30.1574L293.451 39.7773L328.372 74.6978L337.992 65.0778L303.071 30.1574Z" fill="white"
                stroke="#070707" stroke-width="3" stroke-linecap="round" />
        </g>
        <mask id="mask6_4717_7400" style="mask-type:luminance" maskUnits="userSpaceOnUse" x="0" y="-184" width="1440"
            height="649">
            <path d="M1440 -184H0V464.576H1440V-184Z" fill="white" />
        </mask>
        <g mask="url(#mask6_4717_7400)">
            <path
                d="M406.171 35.9844H453.892C456.33 35.9844 458.389 37.5545 459.169 39.7251L434.682 60.0006C431.988 62.2361 428.07 62.2327 425.374 60.0006L400.893 39.7251C401.669 37.5545 403.732 35.9844 406.171 35.9844Z"
                fill="#E8F2FC" />
            <path
                d="M453.893 73.938H406.172C403.068 73.938 400.545 71.4134 400.545 68.3141V45.6953L422.303 63.7148C424.542 65.5706 427.288 66.4977 430.035 66.4977C432.78 66.4977 435.523 65.5689 437.766 63.7148L459.522 45.6953V68.3141C459.521 71.4134 456.993 73.938 453.893 73.938Z"
                fill="#E8F2FC" />
        </g>
        <mask id="mask7_4717_7400" style="mask-type:luminance" maskUnits="userSpaceOnUse" x="0" y="-184" width="1440"
            height="649">
            <path d="M1440 -184H0V464.576H1440V-184Z" fill="white" />
        </mask>
        <g mask="url(#mask7_4717_7400)">
            <path
                d="M155.914 70.2C155.914 63.7482 151.009 58.4458 144.723 57.8181C143.952 45.6346 133.827 35.9844 121.447 35.9844C110.947 35.9844 102.071 42.9236 99.1483 52.461C91.4685 53.1931 85.4648 59.6483 85.4648 67.5163C85.4648 75.8701 92.233 82.6417 100.592 82.6417C100.63 82.6417 100.664 82.6399 100.7 82.6399V82.6417H143.519C150.373 82.6126 155.914 77.0554 155.914 70.2Z"
                fill="#E8F2FC" />
        </g>
        <mask id="mask8_4717_7400" style="mask-type:luminance" maskUnits="userSpaceOnUse" x="0" y="-184" width="1440"
            height="649">
            <path d="M1440 -184H0V464.576H1440V-184Z" fill="white" />
        </mask>
        <g mask="url(#mask8_4717_7400)">
            <path d="M412.451 147.059H394.883V171.318H412.451V147.059Z" fill="#DEDEDE" />
            <path d="M438.203 132.367H420.637V171.564H438.203V132.367Z" fill="#DEDEDE" />
            <path d="M463.955 107.408H446.393V171.314H463.955V107.408Z" fill="#DEDEDE" />
            <path d="M489.23 114.559H471.662V171.566H489.23V114.559Z" fill="#DEDEDE" />
            <path d="M514.978 89.8555H497.412V171.077H514.978V89.8555Z" fill="#DEDEDE" />
        </g>
        <mask id="mask9_4717_7400" style="mask-type:luminance" maskUnits="userSpaceOnUse" x="0" y="-184" width="1440"
            height="649">
            <path d="M1440 -184H0V464.576H1440V-184Z" fill="white" />
        </mask>
        <g mask="url(#mask9_4717_7400)">
            <path
                d="M1379.4 115.033C1379.4 97.9 1365.52 84.0078 1348.37 84.0078C1331.24 84.0078 1317.35 97.9 1317.35 115.033C1317.35 125.626 1322.66 134.972 1330.77 140.565C1332.02 141.431 1332.88 142.802 1332.88 144.328V154.616C1332.88 159.182 1336.59 158.797 1341.14 158.797H1355.61C1360.17 158.797 1363.88 159.182 1363.88 154.616V144.328C1363.88 142.801 1364.74 141.431 1365.99 140.565C1374.09 134.972 1379.4 125.628 1379.4 115.033Z"
                fill="#701B64" />
            <path d="M1354.82 128.107V150.759" stroke="white" stroke-width="3" stroke-linecap="round"
                stroke-linejoin="round" />
            <path d="M1341.53 125.975V150.757" stroke="white" stroke-width="3" stroke-linecap="round"
                stroke-linejoin="round" />
            <path
                d="M1341.13 125.855C1339.87 126.82 1338.38 127.333 1336.79 127.333C1332.84 127.333 1329.64 124.122 1329.64 120.182C1329.64 116.232 1332.84 113.025 1336.79 113.025C1340.79 113.025 1343.76 115.757 1347.98 120.204C1352.66 124.937 1355.13 127.331 1359.06 127.331C1363 127.331 1366.21 124.121 1366.21 120.18C1366.21 116.23 1363 113.023 1359.06 113.023C1357.47 113.023 1355.97 113.528 1354.7 114.484"
                stroke="white" stroke-width="3" stroke-miterlimit="10" stroke-linecap="round" />
            <path
                d="M1356.94 165.774C1356.94 170.739 1352.91 174.762 1347.95 174.762C1343 174.762 1338.98 170.739 1338.98 165.774C1338.98 160.817 1343 160.877 1347.95 160.877C1352.91 160.877 1356.94 160.817 1356.94 165.774Z"
                fill="#701B64" />
            <path
                d="M1332.88 147.744V157.355C1332.88 160.601 1335.52 163.232 1338.78 163.232H1357.98C1361.24 163.232 1363.88 160.603 1363.88 157.355V147.744H1332.88Z"
                fill="white" stroke="black" stroke-width="3" stroke-linecap="round" stroke-linejoin="round" />
            <path d="M1286.78 115.809H1301.51" stroke="black" stroke-width="3" stroke-linecap="round"
                stroke-linejoin="round" />
            <path d="M1395.25 115.809H1409.98" stroke="black" stroke-width="3" stroke-linecap="round"
                stroke-linejoin="round" />
            <path d="M1304.83 159.365L1315.23 148.953" stroke="black" stroke-width="3" stroke-linecap="round"
                stroke-linejoin="round" />
            <path d="M1381.52 82.666L1391.93 72.2598" stroke="black" stroke-width="3" stroke-linecap="round"
                stroke-linejoin="round" />
            <path d="M1348.38 68.9385V54.2168" stroke="black" stroke-width="3" stroke-linecap="round"
                stroke-linejoin="round" />
            <path d="M1391.93 159.365L1381.52 148.953" stroke="black" stroke-width="3" stroke-linecap="round"
                stroke-linejoin="round" />
            <path d="M1315.23 82.6658L1304.83 72.2578" stroke="black" stroke-width="3" stroke-linecap="round"
                stroke-linejoin="round" />
        </g>
    </g>
</svg>