<svg width="24" height="24" viewBox="0 0 24 24" fill="none" xmlns="http://www.w3.org/2000/svg">
    <circle cx="12" cy="12" r="12" fill="#701B64" />
    <g clip-path="url(#clip0_4307_11154)">
        <path
            d="M5.5 8.5C5.5 14.0227 9.97733 18.5 15.5 18.5H17C17.3978 18.5 17.7794 18.342 18.0607 18.0607C18.342 17.7794 18.5 17.3978 18.5 17V16.0853C18.5 15.7413 18.266 15.4413 17.932 15.358L14.9833 14.6207C14.69 14.5473 14.382 14.6573 14.2013 14.8987L13.5547 15.7607C13.3667 16.0113 13.042 16.122 12.748 16.014C11.6566 15.6128 10.6654 14.9791 9.84319 14.1568C9.02094 13.3346 8.38725 12.3434 7.986 11.252C7.878 10.958 7.98867 10.6333 8.23933 10.4453L9.10133 9.79867C9.34333 9.618 9.45267 9.30933 9.37933 9.01667L8.642 6.068C8.60143 5.9058 8.50781 5.7618 8.37604 5.65889C8.24426 5.55598 8.08187 5.50006 7.91467 5.5H7C6.60218 5.5 6.22064 5.65804 5.93934 5.93934C5.65804 6.22064 5.5 6.60218 5.5 7V8.5Z"
            stroke="white" stroke-width="1.5" stroke-linecap="round" stroke-linejoin="round" />
    </g>
    <defs>
        <clipPath id="clip0_4307_11154">
            <rect width="16" height="16" fill="white" transform="translate(4 4)" />
        </clipPath>
    </defs>
</svg>