<svg width="24" height="24" viewBox="0 0 24 24" fill="none" xmlns="http://www.w3.org/2000/svg">
<circle cx="12" cy="12" r="12" fill="#701B64"/>
<path d="M15.7726 15.1045L12.944 17.9331C12.8203 18.057 12.6734 18.1552 12.5117 18.2222C12.35 18.2892 12.1767 18.3237 12.0016 18.3237C11.8266 18.3237 11.6533 18.2892 11.4916 18.2222C11.3299 18.1552 11.183 18.057 11.0593 17.9331L8.22997 15.1045C7.48412 14.3586 6.9762 13.4083 6.77043 12.3737C6.56466 11.3392 6.6703 10.2668 7.07397 9.29229C7.47765 8.31777 8.16124 7.48483 9.03829 6.89881C9.91535 6.31279 10.9465 6 12.0013 6C13.0561 6 14.0873 6.31279 14.9643 6.89881C15.8414 7.48483 16.525 8.31777 16.9286 9.29229C17.3323 10.2668 17.4379 11.3392 17.2322 12.3737C17.0264 13.4083 16.5185 14.3586 15.7726 15.1045V15.1045Z" stroke="white" stroke-width="1.5" stroke-linecap="round" stroke-linejoin="round"/>
<path d="M14 11.334C14 11.8644 13.7893 12.3731 13.4142 12.7482C13.0391 13.1233 12.5304 13.334 12 13.334C11.4696 13.334 10.9609 13.1233 10.5858 12.7482C10.2107 12.3731 10 11.8644 10 11.334C10 10.8036 10.2107 10.2948 10.5858 9.91977C10.9609 9.5447 11.4696 9.33398 12 9.33398C12.5304 9.33398 13.0391 9.5447 13.4142 9.91977C13.7893 10.2948 14 10.8036 14 11.334V11.334Z" stroke="white" stroke-width="1.5" stroke-linecap="round" stroke-linejoin="round"/>
</svg>
