<svg width="16" height="17" viewBox="0 0 16 17" fill="none" xmlns="http://www.w3.org/2000/svg">
<path fill-rule="evenodd" clip-rule="evenodd" d="M8 16.6318C12.4183 16.6318 16 13.0501 16 8.63184C16 4.21355 12.4183 0.631836 8 0.631836C3.58171 0.631836 0 4.21355 0 8.63184C0 13.0501 3.58171 16.6318 8 16.6318Z" fill="#2A2FAF"/>
<path fill-rule="evenodd" clip-rule="evenodd" d="M0 8.63152H8V2.91724H2.40116C0.919393 4.36927 0 6.39302 0 8.63152Z" fill="#2A2FAF"/>
<path fill-rule="evenodd" clip-rule="evenodd" d="M1.35059 4.18489L7.73915 8.63192H8.00169V8.45414L1.5198 3.94214C1.46194 4.02196 1.40553 4.10289 1.35059 4.18489Z" fill="#E92B2B"/>
<path fill-rule="evenodd" clip-rule="evenodd" d="M1.2666 4.30853L7.47742 8.63182H7.73639L1.34785 4.18478C1.32039 4.22578 1.29331 4.26703 1.2666 4.30853ZM1.51706 3.94203L7.99896 8.45403V8.27375L1.60503 3.823C1.57535 3.86239 1.54602 3.90207 1.51706 3.94203Z" fill="#FBFBFB"/>
<path fill-rule="evenodd" clip-rule="evenodd" d="M0.262557 8.63152L8 3.24552V2.91724H7.95364L0.00196784 8.45238C0.000657125 8.51191 0 8.57163 0 8.63152H0.262557Z" fill="#E92B2B"/>
<path fill-rule="evenodd" clip-rule="evenodd" d="M0.000976562 8.45238L7.95267 2.91724H7.69367L0.00713008 8.26781C0.00438722 8.32913 0.00233371 8.39066 0.000976562 8.45238ZM7.99899 3.24552L0.261566 8.63152H0.520555L7.99899 3.42581V3.24552Z" fill="#FBFBFB"/>
<path fill-rule="evenodd" clip-rule="evenodd" d="M1.47949 3.99497L7.99972 8.53179V8.17129L1.65568 3.75708C1.59552 3.83526 1.53678 3.91454 1.47949 3.99497Z" fill="#FBFBFB"/>
<path fill-rule="evenodd" clip-rule="evenodd" d="M0.000976562 8.53145L8.00036 2.96543V2.91724H7.55151L0.0139194 8.16195C0.00683014 8.28442 0.00249799 8.40759 0.000976562 8.53145Z" fill="#FBFBFB"/>
<path fill-rule="evenodd" clip-rule="evenodd" d="M0.368164 6.22552H3.57147V8.63152H4.42861V6.22552H8.00004V5.32324H4.42861V2.91724H3.57147V5.32324H0.713971C0.581264 5.61506 0.465575 5.91624 0.368164 6.22552Z" fill="#E92B2B"/>
<path fill-rule="evenodd" clip-rule="evenodd" d="M0.321289 6.37588H3.42746V8.63152H3.71317V6.22552V6.07513H3.57032H0.416036C0.382539 6.17452 0.350943 6.27477 0.321289 6.37588ZM0.646303 5.47363H3.57032H3.71317V5.32324V2.91724H3.42746V5.17288H0.783114C0.73551 5.27202 0.689893 5.37227 0.646303 5.47363ZM4.57032 6.37588H7.99889V6.07513H4.42746H4.2846V6.22552V8.63152H4.57032V6.37588ZM4.57032 5.17288V2.91724H4.2846V5.32324V5.47363H4.42746H7.99889V5.17288H4.57032Z" fill="#FBFBFB"/>
<path d="M3.7151 9.48901L4.03585 10.4761H5.07374L4.23406 11.0862L4.55477 12.0733L3.7151 11.4633L2.87542 12.0733L3.19613 11.0862L2.35645 10.4761H3.39435L3.7151 9.48901Z" fill="#FBFBFB"/>
<path d="M9.57092 6.91724L9.73128 7.41081H10.2502L9.83039 7.71584L9.99078 8.20938L9.57092 7.90434L9.15107 8.20938L9.31142 7.71584L8.8916 7.41081H9.41057L9.57092 6.91724Z" fill="#FBFBFB"/>
<path d="M11.858 12.0603L12.0184 12.5539H12.5374L12.1175 12.8589L12.2779 13.3524L11.858 13.0474L11.4382 13.3524L11.5985 12.8589L11.1787 12.5539H11.6977L11.858 12.0603Z" fill="#FBFBFB"/>
<path d="M12.1412 4.63184L12.3016 5.12541H12.8206L12.4007 5.43044L12.5611 5.92398L12.1412 5.61894L11.7214 5.92398L11.8817 5.43044L11.4619 5.12541H11.9809L12.1412 4.63184Z" fill="#FBFBFB"/>
<path d="M14.1412 7.48901L14.3016 7.98259H14.8206L14.4007 8.28762L14.5611 8.78116L14.1412 8.47612L13.7214 8.78116L13.8817 8.28762L13.4619 7.98259H13.9809L14.1412 7.48901Z" fill="#FBFBFB"/>
<path d="M12.5718 9.20337L12.7001 9.59823H13.1152L12.7794 9.84226L12.9077 10.2371L12.5718 9.99305L12.2359 10.2371L12.3642 9.84226L12.0283 9.59823H12.4435L12.5718 9.20337Z" fill="#FBFBFB"/>
</svg>
