<svg width="16" height="17" viewBox="0 0 16 17" fill="none" xmlns="http://www.w3.org/2000/svg">
<path d="M8 16.6318C12.4183 16.6318 16 13.0501 16 8.63184C16 4.21356 12.4183 0.631836 8 0.631836C3.58172 0.631836 0 4.21356 0 8.63184C0 13.0501 3.58172 16.6318 8 16.6318Z" fill="#ECE8E8"/>
<path d="M10.783 8.63171C10.783 9.32737 9.53715 11.0665 8.00037 11.0665C6.46359 11.0665 5.21777 9.32737 5.21777 8.63171C5.21777 7.0949 6.46359 5.84912 8.00037 5.84912C9.53715 5.84912 10.783 7.0949 10.783 8.63171Z" fill="#D80027"/>
<path d="M10.783 8.63184C10.783 10.1686 9.53715 11.4144 8.00037 11.4144C6.46359 11.4144 5.21777 10.1686 5.21777 8.63184" fill="#0052B4"/>
<path d="M11.689 10.3535L10.9512 11.0913L11.4431 11.5832L12.1809 10.8454L11.689 10.3535Z" fill="black"/>
<path d="M10.4595 11.5835L9.72168 12.3213L10.2136 12.8132L10.9514 12.0754L10.4595 11.5835Z" fill="black"/>
<path d="M13.1646 11.8288L12.4268 12.5667L12.9187 13.0585L13.6565 12.3207L13.1646 11.8288Z" fill="black"/>
<path d="M11.9351 13.059L11.1973 13.7969L11.6892 14.2888L12.427 13.5509L11.9351 13.059Z" fill="black"/>
<path d="M12.4273 11.0913L11.6895 11.8291L12.1814 12.321L12.9192 11.5832L12.4273 11.0913Z" fill="black"/>
<path d="M11.1978 12.321L10.46 13.0588L10.9519 13.5507L11.6897 12.8129L11.1978 12.321Z" fill="black"/>
<path d="M10.4602 4.20455L12.4277 6.17212L12.9196 5.68022L10.9521 3.71265L10.4602 4.20455Z" fill="black"/>
<path d="M9.72212 4.94258L10.46 5.68042L10.9518 5.18854L10.214 4.45071L9.72212 4.94258Z" fill="black"/>
<path d="M10.9516 6.17232L11.6895 6.91016L12.1813 6.41828L11.4435 5.68044L10.9516 6.17232Z" fill="black"/>
<path d="M11.1967 3.467L11.9346 4.20483L12.4265 3.71294L11.6886 2.9751L11.1967 3.467Z" fill="black"/>
<path d="M12.4272 4.69673L13.165 5.43457L13.6569 4.94267L12.9191 4.20484L12.4272 4.69673Z" fill="black"/>
<path d="M4.80253 13.7969L2.83496 11.8293L2.34306 12.3212L4.31063 14.2888L4.80253 13.7969Z" fill="black"/>
<path d="M5.54057 13.0586L4.80273 12.3208L4.31086 12.8127L5.04869 13.5505L5.54057 13.0586Z" fill="black"/>
<path d="M4.31108 11.8291L3.57324 11.0913L3.08134 11.5832L3.81918 12.321L4.31108 11.8291Z" fill="black"/>
<path d="M6.27812 12.3211L4.31055 10.3535L3.81865 10.8454L5.78622 12.813L6.27812 12.3211Z" fill="black"/>
<path d="M2.83516 5.43437L4.80273 3.4668L4.31084 2.9749L2.34326 4.94247L2.83516 5.43437Z" fill="black"/>
<path d="M3.57247 6.17216L5.54004 4.20459L5.04814 3.71269L3.08057 5.68026L3.57247 6.17216Z" fill="black"/>
<path d="M4.31075 6.9102L6.27832 4.94263L5.78644 4.45075L3.81887 6.41832L4.31075 6.9102Z" fill="black"/>
</svg>
