<svg width="16" height="17" viewBox="0 0 16 17" fill="none" xmlns="http://www.w3.org/2000/svg">
<path fill-rule="evenodd" clip-rule="evenodd" d="M16 8.63185C16 13.0501 12.4183 16.6318 8.00002 16.6318C3.58172 16.6318 0 13.0501 0 8.63185C0 4.21356 3.58172 0.631836 8.00002 0.631836C12.4183 0.631836 16 4.21356 16 8.63185Z" fill="#2A2FAF"/>
<path fill-rule="evenodd" clip-rule="evenodd" d="M13.5981 2.91755H2.40039C3.84329 1.50362 5.81944 0.631836 7.99923 0.631836C10.179 0.631836 12.1552 1.50362 13.5981 2.91755Z" fill="#E92B2B"/>
<path fill-rule="evenodd" clip-rule="evenodd" d="M15.2308 5.2032H0.770508C1.17748 4.34652 1.73222 3.57362 2.40181 2.91748H13.5995C14.2691 3.57362 14.8238 4.34652 15.2308 5.2032Z" fill="#FBFBFB"/>
<path fill-rule="evenodd" clip-rule="evenodd" d="M13.4576 14.4807C12.0282 15.8153 10.1091 16.632 7.99931 16.632C5.88949 16.632 3.97041 15.8153 2.54102 14.4807H13.4576Z" fill="#E92B2B"/>
<path fill-rule="evenodd" clip-rule="evenodd" d="M2.54239 14.4807C1.80968 13.7966 1.20563 12.9765 0.770508 12.0605H15.2307C14.7956 12.9765 14.1916 13.7966 13.4589 14.4807H2.54239Z" fill="#FBFBFB"/>
</svg>
