<svg width="20" height="25" viewBox="0 0 20 25" fill="none" xmlns="http://www.w3.org/2000/svg">
    <path fill-rule="evenodd" clip-rule="evenodd"
        d="M8.31445 12.2503V15.5991C8.31445 16.0613 8.68952 16.4363 9.15166 16.4363C9.6138 16.4363 9.98887 16.0613 9.98887 15.5991V12.2503C9.98887 11.7882 9.6138 11.4131 9.15166 11.4131C8.68952 11.4131 8.31445 11.7882 8.31445 12.2503Z"
        fill="#A90466" />
    <path fill-rule="evenodd" clip-rule="evenodd"
        d="M7.47588 14.7613H10.8247C11.2869 14.7613 11.6619 14.3863 11.6619 13.9241C11.6619 13.462 11.2869 13.0869 10.8247 13.0869H7.47588C7.01374 13.0869 6.63867 13.462 6.63867 13.9241C6.63867 14.3863 7.01374 14.7613 7.47588 14.7613Z"
        fill="#A90466" />
    <path
        d="M9.15144 4.99428C9.76794 4.99428 10.2677 4.4945 10.2677 3.878C10.2677 3.26149 9.76794 2.76172 9.15144 2.76172C8.53493 2.76172 8.03516 3.26149 8.03516 3.878C8.03516 4.4945 8.53493 4.99428 9.15144 4.99428Z"
        fill="#A90466" />
    <path fill-rule="evenodd" clip-rule="evenodd"
        d="M15.8229 13.8346C15.5137 13.5812 15.0694 13.5812 14.7602 13.8346C14.7602 13.8346 13.4675 14.8939 12.435 16.3775C11.6949 17.439 11.1055 18.7138 11.1055 19.9775C11.1055 22.3406 12.9875 24.2495 15.2915 24.2495C17.5955 24.2495 19.4776 22.3406 19.4776 19.9775C19.4776 18.7138 18.8882 17.439 18.1481 16.3775C17.1155 14.8939 15.8229 13.8346 15.8229 13.8346ZM15.2915 15.6117C15.6978 16.0046 16.2716 16.6119 16.7751 17.3341C17.3209 18.1189 17.8031 19.0431 17.8031 19.9775C17.8031 21.4052 16.6835 22.575 15.2915 22.575C13.8995 22.575 12.7799 21.4052 12.7799 19.9775C12.7799 19.0431 13.2621 18.1189 13.808 17.3341C14.3114 16.6119 14.8852 16.0046 15.2915 15.6117Z"
        fill="#A90466" />
    <path fill-rule="evenodd" clip-rule="evenodd"
        d="M1.6486 8.56142L3.29957 7.9017C3.85101 7.68067 4.46385 7.66281 5.02646 7.85035C5.3926 7.97202 5.79446 8.10598 6.15278 8.22542C7.01232 8.5123 7.94106 8.5123 8.8006 8.22542L10.0307 7.81574C10.5465 7.64384 11.1046 7.64384 11.6203 7.81574C11.9775 7.93519 12.3794 8.06914 12.7455 8.19081C13.6854 8.50337 14.7046 8.47435 15.6244 8.10598L17.2765 7.44514C17.7052 7.27435 17.9139 6.78653 17.742 6.35677C17.5712 5.92812 17.0834 5.71937 16.6536 5.89128L15.0026 6.551C14.4512 6.77202 13.8384 6.78988 13.2758 6.60235C12.9096 6.48067 12.5078 6.34672 12.1494 6.22728C11.2899 5.94039 10.3612 5.94039 9.50162 6.22728L8.27148 6.63695C7.75576 6.80886 7.19762 6.80886 6.6819 6.63695C6.32469 6.51751 5.92283 6.38356 5.55669 6.26188C4.61678 5.94933 3.59762 5.97835 2.67781 6.34672L1.02571 7.00756C0.597061 7.17835 0.388317 7.66616 0.560224 8.09593C0.731015 8.52458 1.21883 8.73333 1.6486 8.56142Z"
        fill="#A90466" />
    <path fill-rule="evenodd" clip-rule="evenodd"
        d="M5.29777 1.49019L4.9707 2.3073C4.92828 2.41335 4.82558 2.48256 4.71172 2.48256H3.56977C2.756 2.48256 1.9746 2.80628 1.3986 3.38116C0.823721 3.95716 0.5 4.73856 0.5 5.55233C0.5 9.418 0.5 17.3146 0.5 21.1802C0.5 21.994 0.823721 22.7754 1.3986 23.3514C1.9746 23.9263 2.756 24.25 3.56977 24.25H14.7326C15.1947 24.25 15.5698 23.8749 15.5698 23.4128C15.5698 22.9507 15.1947 22.5756 14.7326 22.5756H3.56977C3.19916 22.5756 2.8453 22.4282 2.58298 22.167C2.32177 21.9047 2.17442 21.5508 2.17442 21.1802V5.55233C2.17442 5.18172 2.32177 4.82786 2.58298 4.56554C2.8453 4.30433 3.19916 4.15698 3.56977 4.15698H4.71172C5.51098 4.15698 6.22874 3.67028 6.52567 2.92907C6.67079 2.56628 6.85163 2.11195 6.85163 2.11195L6.85721 2.09967C6.89963 1.99363 7.00233 1.92442 7.11619 1.92442H11.1861C11.3 1.92442 11.4027 1.99363 11.4451 2.09967L11.7767 2.92907C12.0736 3.67028 12.7913 4.15698 13.5906 4.15698H14.7326C15.1032 4.15698 15.457 4.30433 15.7193 4.56554C15.9806 4.82786 16.1279 5.18172 16.1279 5.55233V16.157C16.1279 16.6191 16.503 16.9942 16.9651 16.9942C17.4273 16.9942 17.8023 16.6191 17.8023 16.157C17.8023 12.5492 17.8023 7.978 17.8023 5.55233C17.8023 4.73856 17.4786 3.95716 16.9037 3.38116C16.3277 2.80628 15.5463 2.48256 14.7326 2.48256H13.5906C13.4767 2.48256 13.374 2.41335 13.3316 2.3073L13.0001 1.47791C12.7032 0.736698 11.9854 0.25 11.1861 0.25C10.3634 0.25 7.93888 0.25 7.11619 0.25C6.31693 0.25 5.59916 0.736698 5.30223 1.47791L5.29777 1.49019Z"
        fill="#A90466" />
</svg>