<svg width="20" height="24" viewBox="0 0 20 24" fill="none" xmlns="http://www.w3.org/2000/svg">
    <path fill-rule="evenodd" clip-rule="evenodd"
        d="M9.4844 15.3639C9.48379 15.3639 9.48501 15.3639 9.4844 15.3639C9.3975 15.3634 9.31326 15.3258 9.25582 15.2607L0.0761233 4.84705C-0.00302292 4.75716 -0.0222972 4.62927 0.026996 4.5201C0.0763447 4.41099 0.184956 4.34082 0.304701 4.34082H18.8827C19.0032 4.34082 19.1123 4.41171 19.1611 4.52171C19.2101 4.63171 19.1896 4.76026 19.1089 4.84965L9.71058 15.2633C9.65287 15.3273 9.57058 15.3639 9.4844 15.3639ZM0.979471 4.95023L9.48706 14.6014L18.1973 4.95023H0.979471Z"
        fill="#A90466" />
    <path fill-rule="evenodd" clip-rule="evenodd"
        d="M9.48436 23.9999C9.31605 23.9999 9.17969 23.8635 9.17969 23.6953V15.0596C9.17969 14.8913 9.31605 14.7549 9.48436 14.7549C9.65263 14.7549 9.78904 14.8913 9.78904 15.0596V23.6953C9.78904 23.8635 9.65263 23.9999 9.48436 23.9999Z"
        fill="#A90466" />
    <path fill-rule="evenodd" clip-rule="evenodd"
        d="M11.8065 24H7.1621C6.99378 24 6.85742 23.8636 6.85742 23.6954C6.85742 23.527 6.99378 23.3906 7.1621 23.3906H11.8065C11.9748 23.3906 12.1112 23.527 12.1112 23.6954C12.1112 23.8636 11.9748 24 11.8065 24Z"
        fill="#A90466" />
    <path fill-rule="evenodd" clip-rule="evenodd"
        d="M7.04602 10.4846C6.33348 10.4846 5.60826 10.3933 4.87567 10.2109C4.71239 10.1701 4.61298 10.0048 4.65363 9.84154C4.69428 9.67821 4.85961 9.5789 5.023 9.6195C6.35214 9.9507 7.65194 9.96001 8.88609 9.6473C10.8049 9.16118 12.9239 9.23601 14.3637 9.38438C14.5311 9.40166 14.6528 9.55132 14.6355 9.71869C14.6183 9.88607 14.4688 10.0079 14.3012 9.99053C12.9105 9.84724 10.8681 9.7738 9.03575 10.238C8.3869 10.4024 7.72212 10.4846 7.04602 10.4846Z"
        fill="#A90466" />
    <path fill-rule="evenodd" clip-rule="evenodd"
        d="M9.7405 7.45431C9.71442 7.45431 9.68789 7.45093 9.66141 7.4439C9.49891 7.40031 9.40243 7.23321 9.44602 7.07071L11.0831 0.961163C11.1112 0.85604 11.1933 0.773904 11.2985 0.745768L14.043 0.01041C14.2057 -0.0330124 14.3727 0.0633588 14.4162 0.225916C14.4598 0.388473 14.3633 0.555573 14.2008 0.599106L11.6261 1.28883L10.0346 7.22846C9.99816 7.36454 9.87509 7.45431 9.7405 7.45431Z"
        fill="#A90466" />
</svg>