<svg width="24" height="24" viewBox="0 0 24 24" fill="none" xmlns="http://www.w3.org/2000/svg">
    <path
        d="M10.4492 18.5806C10.4492 19.4345 11.1437 20.129 11.9976 20.129C12.8515 20.129 13.546 19.4345 13.546 18.5806C13.546 17.7267 12.8515 17.0322 11.9976 17.0322C11.1437 17.0322 10.4492 17.7267 10.4492 18.5806ZM12.7718 18.5806C12.7718 19.0076 12.4246 19.3548 11.9976 19.3548C11.5706 19.3548 11.2234 19.0076 11.2234 18.5806C11.2234 18.1536 11.5706 17.8064 11.9976 17.8064C12.4246 17.8064 12.7718 18.1536 12.7718 18.5806Z"
        fill="#A90466" />
    <path d="M15.8718 5.80566H15.0977V7.74115H15.8718V5.80566Z" fill="#A90466" />
    <path d="M20.1307 8.28822V3.0957H19.3565V7.9677L18.3086 9.01557L18.8559 9.56293L20.1307 8.28822Z" fill="#A90466" />
    <path d="M23.2264 10.6127V6.19434H22.4522V10.2921L21.4043 11.34L21.9517 11.8874L23.2264 10.6127Z" fill="#A90466" />
    <path
        d="M15.4855 5.03156C16.1258 5.03156 16.6468 4.51053 16.6468 3.87027C16.6468 3.23002 16.1258 2.70898 15.4855 2.70898C14.8453 2.70898 14.3242 3.23002 14.3242 3.87027C14.3242 4.51053 14.8453 5.03156 15.4855 5.03156ZM15.4855 3.48318C15.6988 3.48318 15.8726 3.65698 15.8726 3.87027C15.8726 4.08356 15.6988 4.25737 15.4855 4.25737C15.2722 4.25737 15.0984 4.08356 15.0984 3.87027C15.0984 3.65698 15.2722 3.48318 15.4855 3.48318Z"
        fill="#A90466" />
    <path d="M12.3875 3.0957H11.6133V7.35377H12.3875V3.0957Z" fill="#A90466" />
    <path
        d="M11.9972 2.32258C12.6375 2.32258 13.1585 1.80155 13.1585 1.16129C13.1585 0.521032 12.6375 0 11.9972 0C11.357 0 10.8359 0.521032 10.8359 1.16129C10.8359 1.80155 11.357 2.32258 11.9972 2.32258ZM11.9972 0.774194C12.2105 0.774194 12.3843 0.948 12.3843 1.16129C12.3843 1.37458 12.2105 1.54839 11.9972 1.54839C11.7839 1.54839 11.6101 1.37458 11.6101 1.16129C11.6101 0.948 11.7839 0.774194 11.9972 0.774194Z"
        fill="#A90466" />
    <path
        d="M19.7414 2.32258C20.3816 2.32258 20.9027 1.80155 20.9027 1.16129C20.9027 0.521032 20.3816 0 19.7414 0C19.1011 0 18.5801 0.521032 18.5801 1.16129C18.5801 1.80155 19.1011 2.32258 19.7414 2.32258ZM19.7414 0.774194C19.9547 0.774194 20.1285 0.948 20.1285 1.16129C20.1285 1.37458 19.9547 1.54839 19.7414 1.54839C19.5281 1.54839 19.3543 1.37458 19.3543 1.16129C19.3543 0.948 19.5281 0.774194 19.7414 0.774194Z"
        fill="#A90466" />
    <path
        d="M22.8371 5.41828C23.4773 5.41828 23.9984 4.89725 23.9984 4.25699C23.9984 3.61674 23.4773 3.0957 22.8371 3.0957C22.1968 3.0957 21.6758 3.61674 21.6758 4.25699C21.6758 4.89725 22.1968 5.41828 22.8371 5.41828ZM22.8371 3.8699C23.0504 3.8699 23.2242 4.0437 23.2242 4.25699C23.2242 4.47028 23.0504 4.64409 22.8371 4.64409C22.6238 4.64409 22.45 4.47028 22.45 4.25699C22.45 4.0437 22.6238 3.8699 22.8371 3.8699Z"
        fill="#A90466" />
    <path d="M8.9031 5.80566H8.12891V8.12824H8.9031V5.80566Z" fill="#A90466" />
    <path d="M3.87109 3.0957V8.28822L5.1458 9.56293L5.69316 9.01557L4.64529 7.9677V3.0957H3.87109Z" fill="#A90466" />
    <path d="M0.773438 6.19434V10.6127L2.82234 12.6616L3.3697 12.1142L1.54763 10.2921V6.19434H0.773438Z"
        fill="#A90466" />
    <path
        d="M8.51676 5.03156C9.15702 5.03156 9.67805 4.51053 9.67805 3.87027C9.67805 3.23002 9.15702 2.70898 8.51676 2.70898C7.8765 2.70898 7.35547 3.23002 7.35547 3.87027C7.35547 4.51053 7.8765 5.03156 8.51676 5.03156ZM8.51676 3.48318C8.73005 3.48318 8.90386 3.65698 8.90386 3.87027C8.90386 4.08356 8.73005 4.25737 8.51676 4.25737C8.30347 4.25737 8.12966 4.08356 8.12966 3.87027C8.12966 3.65698 8.30347 3.48318 8.51676 3.48318Z"
        fill="#A90466" />
    <path
        d="M4.25895 2.32258C4.8992 2.32258 5.42024 1.80155 5.42024 1.16129C5.42024 0.521032 4.8992 0 4.25895 0C3.61869 0 3.09766 0.521032 3.09766 1.16129C3.09766 1.80155 3.61869 2.32258 4.25895 2.32258ZM4.25895 0.774194C4.47224 0.774194 4.64604 0.948 4.64604 1.16129C4.64604 1.37458 4.47224 1.54839 4.25895 1.54839C4.04566 1.54839 3.87185 1.37458 3.87185 1.16129C3.87185 0.948 4.04566 0.774194 4.25895 0.774194Z"
        fill="#A90466" />
    <path
        d="M1.16129 5.41828C1.80155 5.41828 2.32258 4.89725 2.32258 4.25699C2.32258 3.61674 1.80155 3.0957 1.16129 3.0957C0.521032 3.0957 0 3.61674 0 4.25699C0 4.89725 0.521032 5.41828 1.16129 5.41828ZM1.16129 3.8699C1.37458 3.8699 1.54839 4.0437 1.54839 4.25699C1.54839 4.47028 1.37458 4.64409 1.16129 4.64409C0.948 4.64409 0.774194 4.47028 0.774194 4.25699C0.774194 4.0437 0.948 3.8699 1.16129 3.8699Z"
        fill="#A90466" />
    <path
        d="M16.1874 16.5781L15.4891 16.9126C15.5479 17.0357 15.6009 17.1623 15.6466 17.2919L15.7159 17.4886L16.6453 17.7208V19.4388L15.7159 19.671L15.6466 19.8677C15.6009 19.9977 15.5483 20.1239 15.4891 20.247L15.3993 20.4348L15.892 21.2566L14.6773 22.4713L13.8555 21.9785L13.6678 22.0683C13.5447 22.1272 13.4181 22.1802 13.2884 22.2259L13.0918 22.2952L12.8591 23.2254H11.1412L10.9089 22.2959L10.7123 22.2266C10.5822 22.181 10.456 22.1283 10.3329 22.0691L10.1452 21.9793L9.3234 22.4721L7.89501 21.0437L7.34766 21.591L9.2034 23.4468L10.1917 22.8541C10.2137 22.8634 10.2358 22.8727 10.2578 22.8816L10.5366 23.9995H13.4638L13.7433 22.882C13.7653 22.8731 13.7874 22.8638 13.8095 22.8545L14.7977 23.4472L16.8671 21.3777L16.2745 20.3895C16.2838 20.3674 16.2931 20.3454 16.302 20.3233L17.4195 20.0438V17.1166L16.302 16.8371C16.2664 16.75 16.228 16.6633 16.1874 16.5781Z"
        fill="#A90466" />
    <path
        d="M6.58008 17.1179V20.0451L7.69763 20.3246C7.73285 20.412 7.77118 20.4984 7.81221 20.5835L8.51053 20.2491C8.45169 20.126 8.39866 19.9994 8.35298 19.8697L8.28369 19.6731L7.35427 19.4404V17.7225L8.28369 17.4902L8.35298 17.2936C8.39866 17.1635 8.4513 17.0373 8.51053 16.9142L8.60034 16.7265L8.10756 15.9047L9.32227 14.69L10.1441 15.1828L10.3318 15.0929C10.4549 15.0341 10.5815 14.9811 10.7112 14.9354L10.9078 14.8661L11.1401 13.9367H12.858L13.0903 14.8661L13.2869 14.9354C13.417 14.9811 13.5432 15.0337 13.6663 15.0929L13.854 15.1828L14.6758 14.69L16.1042 16.1184L16.6516 15.571L14.7958 13.7153L13.8076 14.3079C13.7855 14.2986 13.7634 14.2893 13.7414 14.2804L13.463 13.1621H10.5358L10.2563 14.2797C10.2343 14.2886 10.2122 14.2979 10.1901 14.3071L9.20188 13.7145L7.13247 15.7839L7.72511 16.7722C7.71582 16.7942 7.70653 16.8163 7.69763 16.8384L6.58008 17.1179Z"
        fill="#A90466" />
    <path
        d="M22.4493 14.7401C22.4497 14.7301 22.4516 14.7196 22.4516 14.7096C22.4516 13.0272 21.1026 11.6569 19.4299 11.6166C19.1195 11.0797 18.6015 10.6795 17.9857 10.5243C17.5351 9.33433 16.3827 8.516 15.0968 8.516C14.6187 8.516 14.1476 8.62826 13.7191 8.84194C13.1137 8.38013 12.3759 8.12891 11.6129 8.12891C10.7203 8.12891 9.86671 8.47381 9.22258 9.08155C8.87845 8.96736 8.5111 8.9031 8.12903 8.9031C6.40877 8.9031 4.94942 10.165 4.68929 11.8532C3.97974 12.1725 3.43084 12.7888 3.2071 13.5622C1.41523 13.7043 0 15.2046 0 17.0321C0 18.9529 1.5631 20.516 3.48387 20.516H5.80645V19.7418H3.48387C1.98968 19.7418 0.774194 18.5263 0.774194 17.0321C0.774194 15.5379 1.98968 14.3225 3.48387 14.3225C4.3111 14.3225 5.08219 14.6933 5.59974 15.3394L6.20439 14.8555C5.652 14.1657 4.87394 13.7252 4.01729 13.5936C4.30723 12.8766 5.00206 12.387 5.80645 12.387C6.4951 12.387 7.13729 12.7578 7.48297 13.3543L8.15265 12.9665C7.66916 12.1315 6.77032 11.6128 5.80645 11.6128C5.71277 11.6128 5.62065 11.6186 5.52929 11.6279C5.86026 10.4914 6.91045 9.67729 8.12903 9.67729C9.62323 9.67729 10.8387 10.8928 10.8387 12.387H11.6129C11.6129 11.1498 10.9626 10.064 9.98826 9.44581C10.4535 9.09704 11.0226 8.9031 11.6129 8.9031C12.2779 8.9031 12.919 9.14929 13.4183 9.59678L13.6339 9.78994L13.8801 9.63781C14.2479 9.41058 14.6686 9.2902 15.0968 9.2902C15.9403 9.2902 16.7063 9.76052 17.1128 10.4739C15.9766 10.6249 15.0968 11.5977 15.0968 12.7741H15.871C15.871 11.9201 16.5654 11.2257 17.4194 11.2257C18.2733 11.2257 18.9677 11.9201 18.9677 12.7741C18.9677 13.628 18.2733 14.3225 17.4194 14.3225V15.0966C18.7003 15.0966 19.7419 14.055 19.7419 12.7741C19.7419 12.6525 19.7295 12.5341 19.7117 12.4172C20.7286 12.5751 21.5284 13.393 21.6573 14.4192C21.4154 14.3585 21.1637 14.3225 20.9032 14.3225C19.8074 14.3225 18.8152 14.8834 18.2489 15.8232L18.912 16.2227C19.337 15.5174 20.081 15.0966 20.9032 15.0966C22.1841 15.0966 23.2258 16.1383 23.2258 17.4192C23.2258 18.7001 22.1841 19.7418 20.9032 19.7418H18.1935V20.516H20.9032C22.6107 20.516 24 19.1267 24 17.4192C24 16.275 23.3748 15.2763 22.4493 14.7401Z"
        fill="#A90466" />
    <path d="M21.2898 17.4189H20.5156V18.1931H21.2898V17.4189Z" fill="#A90466" />
    <path
        d="M11.612 15.4844V15.5111C10.0869 15.7027 8.90234 17.0049 8.90234 18.5811C8.90234 20.2886 10.2916 21.6779 11.9991 21.6779C13.5754 21.6779 14.8776 20.4934 15.0692 18.9682H15.0959V18.1941H15.0692C14.8938 16.7959 13.7844 15.6868 12.3862 15.5111V15.4844H11.612ZM14.3217 18.5811C14.3217 19.8621 13.28 20.9037 11.9991 20.9037C10.7182 20.9037 9.67654 19.8621 9.67654 18.5811C9.67654 17.3002 10.7182 16.2586 11.9991 16.2586C13.28 16.2586 14.3217 17.3002 14.3217 18.5811Z"
        fill="#A90466" />
    <path d="M3.87185 17.8057H3.09766V18.5799H3.87185V17.8057Z" fill="#A90466" />
    <path d="M9.67654 11.2246H8.90234V11.9988H9.67654V11.2246Z" fill="#A90466" />
    <path d="M14.325 10.8379H13.5508V11.6121H14.325V10.8379Z" fill="#A90466" />
</svg>