<svg width="23" height="24" viewBox="0 0 23 24" fill="none" xmlns="http://www.w3.org/2000/svg">
    <path
        d="M22.7629 1.49016L22.2175 0.545428C22.0728 0.294873 21.8345 0.112047 21.5551 0.0371725C21.2756 -0.0377076 20.9779 0.00149427 20.7273 0.146154L20.1698 0.467428C19.9146 0.246333 19.5966 0.110504 19.2604 0.0789163C18.9242 0.047329 18.5866 0.12156 18.2946 0.291246L10.1307 5.00452C9.96585 4.90868 9.77859 4.85801 9.58785 4.85752C9.3971 4.85703 9.20958 4.90677 9.04419 5.00179L8.57128 5.27452C8.32098 5.41928 8.13836 5.65748 8.06363 5.93681C7.98885 6.21614 8.02801 6.51374 8.17256 6.76416L10.3544 10.5425C10.4259 10.6667 10.5212 10.7757 10.6349 10.863C10.7486 10.9504 10.8783 11.0145 11.0168 11.0517C11.1552 11.0889 11.2997 11.0984 11.4417 11.0797C11.5839 11.061 11.721 11.0146 11.8451 10.9429L12.3175 10.6702C12.4818 10.5741 12.6182 10.4368 12.713 10.2717C12.8078 10.1066 12.8579 9.91962 12.858 9.72925L15.9469 7.9478C16.1005 8.02558 16.2627 8.08487 16.4302 8.12452C17.0992 9.10607 17.4562 10.2667 17.4546 11.4545C17.4515 12.9549 16.8868 14.3997 15.8717 15.5045C14.8567 16.6094 13.4647 17.2941 11.97 17.424C11.6346 17.2986 11.265 17.2998 10.9304 17.4273C10.0252 17.3489 9.1499 17.0649 8.3711 16.597C7.5923 16.1291 6.93061 15.4896 6.43637 14.7273H7.63637C7.92568 14.7273 8.20316 14.6123 8.40776 14.4077C8.61236 14.2031 8.72728 13.9257 8.72728 13.6363V13.0909C8.72728 12.8016 8.61236 12.5241 8.40776 12.3195C8.20316 12.1149 7.92568 12 7.63637 12H1.09091C0.801585 12 0.524106 12.1149 0.319522 12.3195C0.114933 12.5241 0 12.8016 0 13.0909V13.6363C0 13.9257 0.114933 14.2031 0.319522 14.4077C0.524106 14.6123 0.801585 14.7273 1.09091 14.7273H2.78782C3.2881 16.0412 4.07897 17.2251 5.10126 18.1903C6.1235 19.1555 7.35077 19.8772 8.69128 20.3013L8.42456 20.7273H4.9091C4.33042 20.7273 3.77549 20.9571 3.36632 21.3663C2.95715 21.7755 2.72728 22.3304 2.72728 22.9091C2.72728 23.1984 2.84221 23.4759 3.0468 23.6805C3.25138 23.8851 3.52886 24 3.81819 24H19.0909C19.3802 24 19.6577 23.8851 19.8623 23.6805C20.0669 23.4759 20.1818 23.1984 20.1818 22.9091C20.1818 22.3304 19.952 21.7755 19.5428 21.3663C19.1336 20.9571 18.5787 20.7273 18 20.7273H14.4846L14.2162 20.2985C16.0975 19.7027 17.7414 18.5256 18.9114 16.9364C20.0814 15.3472 20.7172 13.4279 20.7273 11.4545C20.7307 9.56976 20.1528 7.72983 19.0724 6.18543C19.0724 6.16907 19.0762 6.15325 19.0773 6.13688L21.0224 5.01816C21.315 4.84977 21.5478 4.59423 21.6883 4.28721C21.8288 3.98019 21.87 3.63698 21.8062 3.30543L22.3637 2.98089C22.6138 2.8357 22.7963 2.59734 22.8711 2.31796C22.9459 2.03858 22.907 1.74093 22.7629 1.49016ZM11.2997 9.99816L9.11783 6.21925L9.59019 5.94652L11.772 9.72543L11.2997 9.99816ZM16.9091 7.09089C16.6933 7.09089 16.4825 7.0269 16.3031 6.90701C16.1237 6.78718 15.9838 6.61678 15.9012 6.41747C15.8187 6.2181 15.7971 5.99878 15.8391 5.78714C15.8813 5.57556 15.9852 5.38116 16.1377 5.22859C16.2903 5.07603 16.4847 4.97212 16.6963 4.93001C16.9079 4.88796 17.1272 4.90956 17.3266 4.99208C17.5259 5.07466 17.6963 5.21452 17.8162 5.39392C17.936 5.57332 18 5.78419 18 5.99998C18 6.28928 17.8851 6.56676 17.6805 6.77136C17.4759 6.97596 17.1984 7.09089 16.9091 7.09089ZM1.09091 13.0909H7.63637V13.6363H1.09091V13.0909ZM3.96546 14.7273H5.17146C5.64568 15.6426 6.31441 16.4432 7.13079 17.0727C7.94717 17.7022 8.89141 18.1455 9.89729 18.3714L9.29129 19.3413C8.11736 19.0144 7.03065 18.431 6.10959 17.6331C5.18859 16.8351 4.45626 15.8427 3.96546 14.7273ZM18 21.8182C18.2893 21.8182 18.5668 21.9331 18.7714 22.1377C18.976 22.3423 19.0909 22.6198 19.0909 22.9091H3.81819C3.81819 22.6198 3.93311 22.3423 4.13771 22.1377C4.34232 21.9331 4.61979 21.8182 4.9091 21.8182H8.72728C8.81979 21.8182 8.91078 21.7947 8.99172 21.7498C9.07261 21.7049 9.14079 21.6402 9.18983 21.5618L10.9898 18.678C11.0388 18.5991 11.107 18.5339 11.1882 18.4888C11.2693 18.4436 11.3606 18.4199 11.4535 18.4199C11.5463 18.4199 11.6377 18.4436 11.7188 18.4888C11.7999 18.5339 11.8682 18.5991 11.9171 18.678L13.7171 21.5613C13.7663 21.6401 13.8348 21.7052 13.9161 21.7501C13.9974 21.795 14.0889 21.8185 14.1818 21.8182H18ZM19.6364 11.4545C19.6265 13.2443 19.0329 14.9819 17.9456 16.4037C16.8584 17.8254 15.337 18.8535 13.6124 19.332L13.0064 18.3627C14.5755 18.0087 15.978 17.1324 16.9842 15.8775C17.9905 14.6225 18.541 13.0631 18.5455 11.4545C18.5465 10.2595 18.241 9.08425 17.658 8.04107C18.0068 7.91201 18.3167 7.69569 18.558 7.4127C19.2664 8.64183 19.6383 10.0359 19.6364 11.4545ZM20.7273 3.73961C20.7093 3.80874 20.6778 3.87363 20.6347 3.93054C20.5915 3.98746 20.5375 4.03528 20.4758 4.07125L18.8438 5.0127C18.71 4.74914 18.5238 4.51563 18.2968 4.32639C18.0696 4.13717 17.8063 3.99622 17.523 3.91215C17.2396 3.82808 16.942 3.80265 16.6484 3.83742C16.3549 3.87219 16.0715 3.96642 15.8156 4.11436C15.5597 4.26231 15.3366 4.46086 15.16 4.69792C14.9834 4.93492 14.8569 5.20546 14.7884 5.49303C14.7198 5.78054 14.7105 6.07907 14.7612 6.37028C14.8118 6.6615 14.9213 6.93936 15.0829 7.18689L12.444 8.70871L10.8077 5.87234L18.8417 1.23597C18.9665 1.16437 19.1146 1.145 19.2536 1.18209C19.3927 1.21917 19.5114 1.30971 19.584 1.43397L20.6749 3.32834C20.7104 3.39002 20.7334 3.45813 20.7424 3.52872C20.7514 3.59932 20.7462 3.67101 20.7273 3.73961ZM21.3453 2.30834L20.7998 1.36307L21.2728 1.09088L21.8182 2.03561L21.3453 2.30834Z"
        fill="#A90466" />
    <path
        d="M11.4517 20.7276C11.753 20.7276 11.9972 20.4834 11.9972 20.1822C11.9972 19.8809 11.753 19.6367 11.4517 19.6367C11.1505 19.6367 10.9062 19.8809 10.9062 20.1822C10.9062 20.4834 11.1505 20.7276 11.4517 20.7276Z"
        fill="#A90466" />
</svg>