<svg width="24" height="24" viewBox="0 0 24 24" fill="none" xmlns="http://www.w3.org/2000/svg">
    <path
        d="M20.1861 17.171L18.8884 16.939C18.8976 16.3097 18.803 15.6831 18.6083 15.0846L19.825 14.6546C19.8865 14.6333 19.9431 14.6002 19.9916 14.557C20.0402 14.5137 20.0797 14.4614 20.1079 14.4028C20.1361 14.3443 20.1525 14.2807 20.156 14.2158C20.1596 14.1509 20.1503 14.086 20.1286 14.0247C20.1069 13.9634 20.0734 13.907 20.0299 13.8588C19.9863 13.8105 19.9337 13.7714 19.8749 13.7435C19.8162 13.7157 19.7525 13.6998 19.6876 13.6967C19.6227 13.6935 19.5578 13.7033 19.4967 13.7254L18.2213 14.1761C17.8966 13.5699 17.4616 13.0296 16.9388 12.5828L18.1382 11.6639C18.1902 11.6247 18.2339 11.5757 18.2668 11.5196C18.2997 11.4635 18.3212 11.4014 18.33 11.337C18.3388 11.2725 18.3347 11.2069 18.3181 11.1441C18.3014 11.0812 18.2725 11.0222 18.2329 10.9706C18.1933 10.9189 18.1439 10.8756 18.0876 10.8432C18.0312 10.8107 17.9689 10.7897 17.9044 10.7815C17.8399 10.7732 17.7744 10.7778 17.7116 10.795C17.6489 10.8121 17.5901 10.8416 17.5388 10.8816L16.0966 11.9865C16.0569 11.9635 16.017 11.9407 15.9766 11.9185C15.4834 11.6483 15.0157 11.3341 14.5789 10.9799L15.8758 9.8482C15.9743 9.76227 16.0346 9.64074 16.0435 9.51034C16.0524 9.37994 16.0091 9.25137 15.9232 9.15289C15.8372 9.05441 15.7157 8.9941 15.5853 8.98522C15.4549 8.97635 15.3263 9.01964 15.2278 9.10557L13.8419 10.3149C13.4171 9.88765 13.0316 9.42308 12.69 8.92679L13.9016 7.67084C13.9914 7.5766 14.0402 7.45067 14.0375 7.32054C14.0347 7.19041 13.9806 7.06665 13.887 6.97628C13.7933 6.88591 13.6677 6.83627 13.5375 6.8382C13.4074 6.84013 13.2833 6.89347 13.1923 6.98657L12.149 8.0681C11.7746 7.44534 11.283 6.90112 10.7014 6.46562L11.2412 5.42675C11.3006 5.31086 11.3117 5.17617 11.2721 5.05211C11.2325 4.92804 11.1454 4.8247 11.0299 4.76465C10.9143 4.7046 10.7797 4.69274 10.6554 4.73165C10.5311 4.77056 10.4273 4.85709 10.3666 4.97231L9.85976 5.94784C9.2834 5.66128 8.66231 5.4753 8.02331 5.39795C7.98498 5.39328 7.94671 5.38947 7.90844 5.38555L7.88218 4.24413C7.87923 4.11547 7.82606 3.99307 7.73404 3.9031C7.64201 3.81314 7.51845 3.76274 7.38975 3.7627C7.38595 3.7627 7.38205 3.76275 7.3782 3.76282C7.31351 3.76431 7.24974 3.77853 7.19054 3.80467C7.13134 3.8308 7.07786 3.86834 7.03317 3.91514C6.98848 3.96194 6.95345 4.01709 6.93007 4.07743C6.90669 4.13777 6.89543 4.20213 6.89692 4.26683L6.9223 5.36975C6.35005 5.41007 5.7875 5.53883 5.25468 5.75143L4.75949 4.71587C4.73188 4.65699 4.69289 4.60417 4.64477 4.56043C4.59665 4.51669 4.54035 4.48291 4.47912 4.46104C4.41788 4.43916 4.35292 4.42962 4.28798 4.43296C4.22304 4.43631 4.15941 4.45247 4.10074 4.48052C4.04208 4.50858 3.98955 4.54796 3.94618 4.59641C3.90281 4.64486 3.86945 4.70141 3.84804 4.76281C3.82662 4.82421 3.81757 4.88924 3.8214 4.95415C3.82524 5.01906 3.84188 5.08257 3.87037 5.14102L4.37531 6.197C3.97914 6.44425 3.61492 6.73934 3.29087 7.0756C3.22826 7.14051 3.16809 7.20707 3.10906 7.27436L2.23191 6.57373C2.12979 6.49216 1.99945 6.4545 1.86957 6.46903C1.73968 6.48356 1.62089 6.54909 1.53932 6.65121C1.45775 6.75333 1.42009 6.88367 1.43463 7.01355C1.44916 7.14344 1.51469 7.26223 1.61681 7.3438L2.52535 8.06949C2.20949 8.59057 1.98052 9.15958 1.84743 9.7542L0.566716 9.55767C0.437646 9.53809 0.306079 9.57052 0.200897 9.64784C0.0957148 9.72517 0.0255147 9.84107 0.00570724 9.97011C-0.0141003 10.0991 0.0181037 10.2308 0.0952495 10.3361C0.172395 10.4414 0.288178 10.5118 0.41718 10.5318L1.71754 10.7314C1.68956 11.3632 1.76881 11.9952 1.95193 12.6005L0.653191 12.9353C0.526631 12.9679 0.418213 13.0495 0.351788 13.1621C0.285362 13.2746 0.26637 13.4089 0.29899 13.5355C0.33161 13.6621 0.413169 13.7705 0.525726 13.8369C0.638283 13.9033 0.772618 13.9223 0.899178 13.8897L2.31208 13.5255C2.53088 14.0165 2.76244 14.4819 3.00676 14.9219L1.97762 15.5312C1.92194 15.5641 1.87329 15.6077 1.83446 15.6595C1.79563 15.7113 1.76737 15.7702 1.75131 15.8329C1.71887 15.9595 1.73805 16.0938 1.80463 16.2063C1.87122 16.3187 1.97975 16.4001 2.10636 16.4326C2.16905 16.4487 2.23429 16.4522 2.29835 16.4431C2.36242 16.4339 2.42406 16.4122 2.47974 16.3793L3.5086 15.7702C3.8441 16.3028 4.21005 16.8156 4.60462 17.306L3.57969 18.139C3.5288 18.1795 3.48645 18.2298 3.45509 18.2869C3.42374 18.3439 3.404 18.4066 3.39701 18.4713C3.39002 18.536 3.39592 18.6015 3.41437 18.6639C3.43283 18.7263 3.46346 18.7845 3.50452 18.835C3.54557 18.8855 3.59623 18.9274 3.65356 18.9582C3.71089 18.9891 3.77377 19.0082 3.83855 19.0146C3.90333 19.021 3.96873 19.0145 4.03098 18.9955C4.09324 18.9765 4.1511 18.9453 4.20124 18.9038L5.24689 18.0539C5.61898 18.4611 6.01249 18.8482 6.42576 19.2134L5.6029 20.0664C5.55749 20.1129 5.52173 20.1679 5.49766 20.2282C5.4736 20.2886 5.46171 20.3531 5.46267 20.418C5.46363 20.483 5.47743 20.5471 5.50328 20.6067C5.52912 20.6664 5.5665 20.7203 5.61326 20.7654C5.66002 20.8105 5.71524 20.8459 5.77574 20.8696C5.83624 20.8933 5.90083 20.9048 5.96579 20.9034C6.03074 20.902 6.09479 20.8878 6.15424 20.8616C6.21369 20.8354 6.26736 20.7977 6.31218 20.7506L7.18697 19.8439C7.70122 20.2428 8.24026 20.6086 8.80083 20.9392L8.07273 22.0604C8.03749 22.1147 8.01328 22.1754 8.00149 22.239C7.9897 22.3026 7.99056 22.368 8.00401 22.4313C8.01747 22.4946 8.04327 22.5546 8.07992 22.6079C8.11658 22.6613 8.16338 22.7069 8.21766 22.7421C8.27193 22.7773 8.33262 22.8016 8.39625 22.8133C8.45988 22.8251 8.52522 22.8243 8.58851 22.8108C8.65181 22.7974 8.71184 22.7716 8.76517 22.7349C8.81851 22.6983 8.8641 22.6515 8.89934 22.5972L9.66802 21.4135C10.2192 21.6928 10.7873 21.9371 11.3691 22.1451L11.0543 23.3819C11.0377 23.4448 11.0338 23.5104 11.0427 23.5748C11.0517 23.6392 11.0732 23.7013 11.1062 23.7573C11.1393 23.8133 11.183 23.8623 11.235 23.9013C11.287 23.9404 11.3463 23.9687 11.4093 23.9848C11.4723 24.0008 11.5379 24.0042 11.6023 23.9948C11.6666 23.9854 11.7284 23.9633 11.7842 23.9299C11.84 23.8965 11.8886 23.8523 11.9273 23.8C11.9659 23.7477 11.9938 23.6882 12.0094 23.6251L12.3226 22.3946C13.0246 22.5131 13.7427 22.4965 14.4385 22.3459L14.9092 23.6247C14.9551 23.7463 15.0472 23.8449 15.1654 23.8989C15.2837 23.9529 15.4185 23.958 15.5405 23.9131C15.6624 23.8682 15.7617 23.777 15.8167 23.6592C15.8717 23.5414 15.878 23.4067 15.8341 23.2843L15.3815 22.0548C16.1068 21.7597 16.7625 21.3163 17.3063 20.753C17.3074 20.7519 17.3098 20.7494 17.31 20.7492C17.3188 20.74 17.3273 20.7306 17.336 20.7215L18.3877 21.4098C18.4419 21.4458 18.5026 21.4707 18.5664 21.4832C18.6302 21.4956 18.6959 21.4953 18.7596 21.4822C18.8233 21.4692 18.8838 21.4436 18.9376 21.4071C18.9913 21.3705 19.0374 21.3237 19.073 21.2693C19.1086 21.2149 19.1331 21.154 19.145 21.0901C19.157 21.0262 19.1562 20.9605 19.1426 20.8969C19.1291 20.8333 19.1031 20.773 19.0662 20.7195C19.0292 20.666 18.9821 20.6203 18.9274 20.5851L17.9543 19.9483C18.3636 19.3348 18.6467 18.6461 18.7872 17.9221L20.0126 18.1412C20.0765 18.153 20.1421 18.1521 20.2056 18.1385C20.2692 18.1249 20.3294 18.0988 20.3828 18.0618C20.4362 18.0249 20.4818 17.9777 20.5169 17.923C20.552 17.8684 20.576 17.8073 20.5874 17.7434C20.5989 17.6794 20.5976 17.6138 20.5835 17.5504C20.5695 17.4869 20.5431 17.4269 20.5058 17.3737C20.4685 17.3205 20.4211 17.2752 20.3662 17.2404C20.3113 17.2057 20.2501 17.1821 20.1861 17.171ZM16.8628 20.3162L16.8593 20.3198L16.8586 20.3205C16.1932 21.0099 15.3439 21.4937 14.4116 21.7146C13.4792 21.9354 12.5031 21.884 11.5992 21.5663C9.3011 20.7523 5.09233 18.5456 2.72472 12.9133C2.40693 12.154 2.28135 11.3281 2.35912 10.5087C2.43688 9.68923 2.71559 8.90165 3.17053 8.2157C3.62548 7.52975 4.24261 6.96663 4.96724 6.57623C5.69186 6.18583 6.50161 5.98021 7.32471 5.97761C7.53293 5.97767 7.74096 5.99042 7.94763 6.0158C8.7171 6.10681 9.45453 6.37693 10.1007 6.80447C10.7469 7.23201 11.2839 7.80508 11.6686 8.47769C12.6713 10.2148 14.02 11.5561 15.6774 12.4644C16.3503 12.8347 16.9288 13.3551 17.368 13.9851C17.8073 14.6152 18.0954 15.338 18.21 16.0975C18.3247 16.8569 18.2628 17.6325 18.0291 18.3642C17.7955 19.0958 17.3964 19.7638 16.8628 20.3162Z"
        fill="#A90466" />
    <path
        d="M22.9705 4.8553C21.6902 1.80973 19.4058 0.613491 18.1579 0.171465C17.6108 -0.0208929 17.02 -0.052138 16.4556 0.0814425C15.8913 0.215023 15.3771 0.507813 14.9743 0.925022L14.9725 0.926848C14.6495 1.26122 14.4079 1.66555 14.2664 2.10844C14.125 2.55133 14.0875 3.02085 14.157 3.48056C14.2264 3.94026 14.4009 4.37778 14.6668 4.75913C14.9328 5.14048 15.283 5.45541 15.6904 5.67945C16.4609 6.10169 17.0893 6.7276 17.5582 7.53982C17.791 7.94691 18.116 8.29375 18.5071 8.55253C18.8981 8.8113 19.3444 8.97478 19.8102 9.02987C19.9352 9.04523 20.0611 9.05294 20.1871 9.05297C20.6852 9.05139 21.1753 8.92694 21.6138 8.69065C22.0524 8.45435 22.4258 8.11351 22.7011 7.69835C22.9764 7.28318 23.145 6.8065 23.192 6.31057C23.239 5.81464 23.1629 5.31478 22.9705 4.8553ZM21.909 7.69483C21.6506 7.96283 21.3334 8.16712 20.9824 8.2916C20.6315 8.41608 20.2565 8.45735 19.8869 8.41215C19.5173 8.36695 19.1633 8.23651 18.8527 8.03113C18.5422 7.82575 18.2835 7.55103 18.0973 7.22864C17.5706 6.31625 16.8615 5.61137 15.9896 5.13358C15.6662 4.95558 15.3882 4.70547 15.1771 4.40267C14.9661 4.09986 14.8276 3.75249 14.7725 3.38752C14.7174 3.02255 14.7471 2.64978 14.8593 2.29814C14.9715 1.94651 15.1633 1.62546 15.4196 1.35991L15.4214 1.35808L15.4223 1.3572C15.647 1.12461 15.9162 0.939632 16.2139 0.813285C16.5116 0.686938 16.8316 0.621807 17.155 0.621775C17.4259 0.621685 17.6948 0.667836 17.9501 0.758239C19.1011 1.16592 21.2091 2.27169 22.3967 5.09653C22.5787 5.52979 22.6296 6.00698 22.5429 6.46888C22.4562 6.93079 22.2358 7.35707 21.909 7.69483Z"
        fill="#A90466" />
    <path
        d="M17.9764 1.93231C17.7469 1.85217 17.5005 1.83275 17.2612 1.87593C17.022 1.91911 16.7979 2.02342 16.6109 2.17874C16.4238 2.33405 16.2801 2.5351 16.1937 2.76235C16.1072 2.9896 16.081 3.23534 16.1176 3.47571C16.1491 3.68883 16.2297 3.89171 16.353 4.06833C16.4764 4.24496 16.6391 4.39049 16.8284 4.49343C17.6307 4.9331 18.2816 5.57901 18.7632 6.41317C18.8714 6.60236 19.0224 6.76355 19.2042 6.8838C19.3859 7.00405 19.5934 7.08002 19.8098 7.10561C19.868 7.11275 19.9265 7.11634 19.9851 7.11636C20.2166 7.11563 20.4444 7.05782 20.6483 6.94804C20.8521 6.83826 21.0257 6.6799 21.1538 6.48699C21.2818 6.29408 21.3603 6.07258 21.3823 5.84209C21.4043 5.6116 21.3691 5.37925 21.2798 5.16562C20.3932 3.05639 18.8296 2.2345 17.9764 1.93231Z"
        fill="#A90466" />
    <path
        d="M14.8079 14.5154C13.1161 13.5846 11.65 12.2929 10.5136 10.7319L9.72419 9.53607C9.69576 9.48806 9.66747 9.43968 9.63933 9.39094C9.42044 9.01232 9.1166 8.68972 8.75176 8.44857C8.38692 8.20741 7.97105 8.0543 7.53694 8.00129C7.10282 7.94828 6.66233 7.99683 6.25018 8.14311C5.83803 8.28938 5.46549 8.52939 5.16193 8.84421C4.77857 9.24081 4.51987 9.74109 4.41783 10.2832C4.3158 10.8253 4.3749 11.3853 4.58783 11.8942C5.97026 15.1829 8.01632 17.1706 9.87727 18.3658C9.87727 18.3658 11.0095 19.0304 11.3941 19.2019C11.7938 19.3802 12.164 19.5361 12.5026 19.656C13.0125 19.8353 13.5631 19.8641 14.0888 19.739C14.6146 19.6139 15.0933 19.3403 15.4678 18.9507L15.4714 18.9469C16.7606 17.6106 16.4362 15.4077 14.8079 14.5154ZM8.76429 11.6997C8.72062 11.9179 8.61322 12.1183 8.45569 12.2755C8.29816 12.4326 8.09756 12.5395 7.87926 12.5827C7.66097 12.6258 7.43478 12.6033 7.22929 12.5179C7.02381 12.4325 6.84826 12.2881 6.72485 12.1029C6.60144 11.9178 6.53571 11.7002 6.53597 11.4776C6.53622 11.2551 6.60246 11.0377 6.7263 10.8528C6.85015 10.6679 7.02603 10.5239 7.23171 10.439C7.43739 10.3541 7.66364 10.3321 7.88183 10.3757C8.02671 10.4047 8.16446 10.462 8.28722 10.5442C8.40998 10.6264 8.51533 10.732 8.59728 10.855C8.67922 10.9779 8.73614 11.1158 8.7648 11.2608C8.79345 11.4057 8.79328 11.5549 8.76429 11.6997ZM13.529 17.3811C13.366 17.5217 13.1694 17.6178 12.9583 17.6602C12.7473 17.7026 12.5288 17.6897 12.3241 17.6228C12.1195 17.5559 11.9356 17.4373 11.7902 17.2785C11.6449 17.1197 11.543 16.926 11.4945 16.7162C11.3516 16.7577 11.2001 16.76 11.056 16.7227C10.9119 16.6855 10.7805 16.6102 10.6756 16.5046C10.5706 16.3991 10.496 16.2672 10.4596 16.1229C10.4232 15.9786 10.4264 15.8271 10.4687 15.6844C10.511 15.5418 10.591 15.4131 10.7002 15.312C10.8094 15.2109 10.9438 15.141 11.0894 15.1098C11.2349 15.0785 11.3861 15.087 11.5272 15.1344C11.6683 15.1818 11.794 15.2662 11.8912 15.379C11.9102 15.401 11.928 15.4241 11.9446 15.448C12.2019 15.2475 12.5274 15.1556 12.8516 15.1918C13.1757 15.228 13.4729 15.3894 13.6797 15.6417C13.8865 15.894 13.9864 16.2171 13.9583 16.542C13.9301 16.867 13.7761 17.1681 13.529 17.3811Z"
        fill="#A90466" />
</svg>