<svg width="24" height="25" viewBox="0 0 24 25" fill="none" xmlns="http://www.w3.org/2000/svg">
    <path
        d="M14.7888 16.9609C14.3145 16.9609 13.8508 17.1016 13.4565 17.3651C13.0621 17.6286 12.7547 18.0032 12.5732 18.4414C12.3917 18.8796 12.3442 19.3618 12.4367 19.827C12.5292 20.2922 12.7576 20.7195 13.0931 21.0549C13.4284 21.3903 13.8558 21.6187 14.321 21.7112C14.7861 21.8038 15.2683 21.7563 15.7066 21.5748C16.1448 21.3933 16.5193 21.0859 16.7828 20.6915C17.0464 20.2971 17.187 19.8335 17.187 19.3591C17.1864 18.7233 16.9335 18.1137 16.4839 17.664C16.0343 17.2144 15.4247 16.9616 14.7888 16.9609ZM14.7888 20.9579C14.4726 20.9579 14.1635 20.8642 13.9006 20.6885C13.6376 20.5128 13.4327 20.2631 13.3117 19.971C13.1907 19.6788 13.159 19.3574 13.2208 19.0472C13.2824 18.7371 13.4347 18.4522 13.6583 18.2286C13.8819 18.005 14.1668 17.8527 14.4769 17.7911C14.7871 17.7294 15.1085 17.761 15.4006 17.882C15.6928 18.003 15.9425 18.208 16.1182 18.4709C16.2938 18.7338 16.3876 19.0429 16.3876 19.3591C16.3876 19.7832 16.2192 20.1898 15.9193 20.4896C15.6195 20.7895 15.2129 20.9579 14.7888 20.9579Z"
        fill="#A90466" />
    <path
        d="M6.794 12.9639C6.24061 12.9639 5.69966 13.1279 5.23956 13.4354C4.77947 13.7428 4.42086 14.1798 4.20906 14.691C3.9973 15.2023 3.9419 15.7649 4.04986 16.3076C4.15782 16.8503 4.4243 17.3489 4.81556 17.7402C5.20687 18.1315 5.70541 18.3979 6.24817 18.5059C6.79088 18.6139 7.35345 18.5585 7.86471 18.3467C8.37597 18.1349 8.81292 17.7763 9.12037 17.3162C9.42781 16.8561 9.59189 16.3151 9.59189 15.7618C9.59105 15.02 9.29599 14.3088 8.77147 13.7843C8.24694 13.2598 7.5358 12.9647 6.794 12.9639ZM6.794 17.7603C6.39873 17.7603 6.01234 17.6431 5.68367 17.4234C5.35504 17.2038 5.09887 16.8917 4.94762 16.5265C4.79638 16.1614 4.75677 15.7596 4.83391 15.3719C4.91101 14.9842 5.10135 14.6281 5.38086 14.3486C5.66033 14.0691 6.01642 13.8788 6.40409 13.8017C6.79176 13.7245 7.19361 13.7641 7.55878 13.9154C7.92395 14.0666 8.23607 14.3228 8.45567 14.6514C8.6753 14.9801 8.79249 15.3665 8.79249 15.7618C8.79185 16.2916 8.58109 16.7995 8.20645 17.1742C7.83177 17.5489 7.32384 17.7596 6.794 17.7603Z"
        fill="#A90466" />
    <path
        d="M16.7886 7.44147V4.96973H15.9892V7.44147C15.7562 7.52385 15.5544 7.67617 15.4113 7.87766C15.2682 8.07915 15.1908 8.31989 15.1898 8.56702C15.1905 8.74509 15.2315 8.92067 15.3097 9.08063L14.1074 10.2829L14.6726 10.8481L15.8753 9.64621C16.0353 9.72443 16.2108 9.76544 16.3889 9.76612C16.6714 9.76664 16.945 9.66719 17.1612 9.48533C17.3774 9.30347 17.5223 9.05098 17.5702 8.77255C17.6181 8.49412 17.5658 8.20773 17.4228 7.96407C17.2797 7.72046 17.0551 7.53532 16.7886 7.44147ZM16.3889 8.96672C16.3098 8.96672 16.2326 8.9433 16.1668 8.89937C16.1011 8.85544 16.0499 8.79301 16.0196 8.71999C15.9894 8.64696 15.9815 8.56658 15.9969 8.48904C16.0123 8.4115 16.0504 8.34027 16.1063 8.28439C16.1622 8.22848 16.2334 8.19042 16.3109 8.175C16.3885 8.15957 16.4688 8.16748 16.5419 8.19774C16.6149 8.228 16.6773 8.27924 16.7213 8.34495C16.7651 8.4107 16.7886 8.48796 16.7886 8.56702C16.7886 8.67302 16.7465 8.7747 16.6715 8.84965C16.5966 8.92459 16.4949 8.96672 16.3889 8.96672Z"
        fill="#A90466" />
    <path
        d="M23.982 8.56741C23.9846 7.45508 23.7429 6.35571 23.2738 5.34711C22.8048 4.33847 22.1199 3.44522 21.2676 2.73046C20.4153 2.01569 19.4164 1.49688 18.3415 1.2107C17.2666 0.924531 16.1419 0.877986 15.0471 1.07435C13.9522 1.27071 12.9138 1.7052 12.0054 2.34708C11.0969 2.98896 10.3405 3.82257 9.78976 4.78897C9.23897 5.7554 8.90722 6.83099 8.81793 7.93976C8.72863 9.04848 8.884 10.1633 9.27303 11.2054C8.94439 11.022 8.5957 10.8771 8.23381 10.7737L7.98999 9.30285C7.97476 9.20896 7.92656 9.12359 7.85405 9.06203C7.78151 9.00048 7.68942 8.96682 7.59429 8.9671H5.99549C5.90036 8.96682 5.80827 9.00048 5.73573 9.06203C5.66322 9.12359 5.61502 9.20896 5.59979 9.30285L5.35597 10.7737C4.98281 10.8793 4.62332 11.0283 4.28478 11.2174L3.06969 10.3501C2.99295 10.2945 2.89898 10.2681 2.80455 10.2754C2.71011 10.2828 2.62135 10.3234 2.55408 10.39L1.42293 11.5212C1.35626 11.5885 1.31564 11.6772 1.30832 11.7717C1.301 11.8661 1.32745 11.9601 1.38296 12.0368L2.25031 13.2519C2.06116 13.5904 1.91226 13.9499 1.80664 14.3231L0.335749 14.5669C0.241852 14.5821 0.156464 14.6303 0.0949222 14.7028C0.0333845 14.7754 -0.000274111 14.8675 1.68148e-06 14.9626V16.5614C-0.000274111 16.6565 0.0333845 16.7486 0.0949222 16.8212C0.156464 16.8937 0.241852 16.9419 0.335749 16.9571L1.80664 17.2009C1.91226 17.5741 2.06116 17.9336 2.25031 18.2721L1.38296 19.4872C1.32745 19.5639 1.301 19.6579 1.30832 19.7524C1.31564 19.8468 1.35626 19.9355 1.42293 20.0028L2.55408 21.134C2.62135 21.2006 2.71011 21.2412 2.80455 21.2485C2.89898 21.2559 2.99295 21.2294 3.06969 21.1739L4.28478 20.3066C4.62332 20.4957 4.98281 20.6446 5.35597 20.7502L5.59979 22.2211C5.61502 22.315 5.66322 22.4004 5.73573 22.462C5.80827 22.5235 5.90036 22.5572 5.99549 22.5569H7.59429C7.68942 22.5572 7.78151 22.5235 7.85405 22.462C7.92656 22.4004 7.97476 22.315 7.98999 22.2211L8.23381 20.7502C8.60697 20.6446 8.96646 20.4957 9.305 20.3066L10.5201 21.1739C10.5633 21.2054 10.6128 21.2274 10.6651 21.2384C10.7175 21.2494 10.7716 21.2492 10.8239 21.2379C10.8398 21.2778 10.8598 21.3218 10.8798 21.3618L10.2283 22.2291C10.1701 22.3061 10.1417 22.4014 10.1483 22.4976C10.1549 22.5939 10.1961 22.6845 10.2643 22.7527L11.3954 23.8839C11.4637 23.952 11.5543 23.9932 11.6505 23.9998C11.7467 24.0065 11.8421 23.9781 11.919 23.9199L12.7864 23.2683C12.997 23.377 13.2162 23.4679 13.4419 23.5401L13.5938 24.6113C13.6072 24.7067 13.6547 24.794 13.7274 24.8571C13.8001 24.9203 13.8932 24.9551 13.9895 24.9551H15.5883C15.6846 24.9551 15.7777 24.9203 15.8503 24.8571C15.923 24.794 15.9705 24.7067 15.984 24.6113L16.1359 23.5401C16.3615 23.4679 16.5808 23.377 16.7914 23.2683L17.6587 23.9199C17.7357 23.9781 17.831 24.0065 17.9272 23.9998C18.0235 23.9932 18.1141 23.952 18.1823 23.8839L19.3135 22.7527C19.3816 22.6845 19.4228 22.5939 19.4294 22.4976C19.4361 22.4014 19.4076 22.3061 19.3494 22.2291L18.6979 21.3618C18.8065 21.1512 18.8975 20.9319 18.9697 20.7063L20.0409 20.5544C20.1363 20.5409 20.2235 20.4934 20.2867 20.4208C20.3499 20.3481 20.3847 20.255 20.3847 20.1587V18.5599C20.3847 18.4636 20.3499 18.3705 20.2867 18.2978C20.2235 18.2251 20.1363 18.1777 20.0409 18.1642L18.9697 18.0123C18.8975 17.7866 18.8065 17.5674 18.6979 17.3568L19.3494 16.4894C19.4076 16.4125 19.4361 16.3171 19.4294 16.2209C19.4228 16.1247 19.3816 16.0341 19.3135 15.9658L19.0257 15.6781C20.4782 15.1395 21.7314 14.1697 22.6172 12.8988C23.5031 11.6279 23.9792 10.1166 23.982 8.56741ZM10.7079 20.3266L9.55681 19.5072C9.49274 19.461 9.41636 19.4348 9.33742 19.4319C9.25844 19.4291 9.18038 19.4497 9.11315 19.4912C8.70641 19.7456 8.26087 19.9319 7.79414 20.0428C7.71644 20.06 7.64565 20.1 7.59081 20.1576C7.53597 20.2153 7.4996 20.2881 7.48637 20.3665L7.25454 21.7575H6.33524L6.10341 20.3665C6.09018 20.2881 6.05381 20.2153 5.99897 20.1576C5.94413 20.1 5.87334 20.06 5.79564 20.0428C5.32887 19.9319 4.88337 19.7456 4.47663 19.4912C4.40936 19.4497 4.33134 19.4291 4.25236 19.4319C4.17342 19.4348 4.09704 19.461 4.03297 19.5072L2.88183 20.3266L2.23032 19.6751L3.04971 18.5239C3.09593 18.4598 3.12212 18.3835 3.12496 18.3045C3.12781 18.2255 3.10718 18.1475 3.0657 18.0802C2.8113 17.6735 2.62499 17.228 2.51411 16.7612C2.49692 16.6835 2.45692 16.6128 2.39924 16.5579C2.34156 16.5031 2.26883 16.4667 2.19035 16.4535L0.7994 16.2216V15.3023L2.19035 15.0705C2.26883 15.0573 2.34156 15.0209 2.39924 14.9661C2.45692 14.9112 2.49692 14.8404 2.51411 14.7627C2.62499 14.296 2.8113 13.8505 3.0657 13.4437C3.10718 13.3765 3.12781 13.2984 3.12496 13.2195C3.12212 13.1405 3.09593 13.0642 3.04971 13.0001L2.23032 11.8489L2.88183 11.1974L4.03297 12.0168C4.09704 12.063 4.17342 12.0892 4.25236 12.0921C4.33134 12.0949 4.40936 12.0743 4.47663 12.0328C4.88337 11.7784 5.32887 11.5921 5.79564 11.4812C5.87334 11.464 5.94413 11.424 5.99897 11.3663C6.05381 11.3087 6.09018 11.2359 6.10341 11.1575L6.33524 9.7665H7.25454L7.48637 11.1575C7.4996 11.2359 7.53597 11.3087 7.59081 11.3663C7.64565 11.424 7.71644 11.464 7.79414 11.4812C8.26087 11.5921 8.70641 11.7784 9.11315 12.0328C9.18038 12.0743 9.25844 12.0949 9.33742 12.0921C9.41636 12.0892 9.49274 12.063 9.55681 12.0168L9.61277 11.9808C9.85215 12.4578 10.1416 12.908 10.4761 13.3238C10.4851 13.3663 10.5013 13.4068 10.5241 13.4437C10.7792 13.8515 10.9656 14.2985 11.0757 14.7667C11.0939 14.8436 11.1343 14.9133 11.1919 14.9673C11.2495 15.0213 11.3216 15.0572 11.3994 15.0705L12.7904 15.3023V16.2216L11.3994 16.4535C11.321 16.4667 11.2482 16.5031 11.1905 16.5579C11.1329 16.6128 11.0929 16.6835 11.0757 16.7612C10.9648 17.228 10.7785 17.6735 10.5241 18.0802C10.4826 18.1475 10.462 18.2255 10.4648 18.3045C10.4676 18.3835 10.4939 18.4598 10.5401 18.5239L11.3595 19.6751L10.7079 20.3266ZM19.5853 18.9076V19.8109L18.602 19.9508C18.5238 19.9622 18.4506 19.9962 18.3916 20.0488C18.3327 20.1014 18.2904 20.1702 18.2703 20.2466C18.1874 20.5788 18.0554 20.8967 17.8786 21.1899C17.8382 21.2579 17.819 21.3364 17.8232 21.4154C17.8275 21.4944 17.8551 21.5703 17.9025 21.6336L18.5021 22.433L17.8626 23.0725L17.0632 22.4729C16.9992 22.4254 16.9226 22.3978 16.8429 22.3935C16.7633 22.3892 16.6842 22.4085 16.6155 22.449C16.3241 22.6265 16.0074 22.7585 15.6762 22.8407C15.5998 22.8609 15.531 22.9031 15.4784 22.9621C15.4258 23.0211 15.3917 23.0942 15.3804 23.1724L15.2405 24.1557H14.3372L14.1973 23.1724C14.186 23.0942 14.1519 23.0211 14.0993 22.9621C14.0467 22.9031 13.9779 22.8609 13.9015 22.8407C13.5704 22.7585 13.2536 22.6265 12.9623 22.449C12.8938 22.4078 12.8145 22.388 12.7347 22.3923C12.655 22.3966 12.5783 22.4247 12.5146 22.4729L11.7152 23.0725L11.0757 22.433L11.6752 21.6336C11.724 21.57 11.752 21.493 11.7556 21.4129C11.7592 21.3328 11.7381 21.2536 11.6952 21.1859C11.606 21.0321 11.5285 20.8717 11.4634 20.7063L12.1668 20.0028C12.2335 19.9355 12.2741 19.8468 12.2814 19.7524C12.2888 19.6579 12.2623 19.5639 12.2068 19.4872L11.3395 18.2721C11.5286 17.9336 11.6775 17.5741 11.7831 17.2009L13.254 16.9571C13.3479 16.9419 13.4333 16.8937 13.4949 16.8212C13.5564 16.7486 13.5901 16.6565 13.5898 16.5614V15.9738C13.6918 15.936 13.7959 15.904 13.9015 15.8779C13.9589 15.8613 14.012 15.8327 14.0574 15.794C14.8104 16.0367 15.5965 16.1608 16.3877 16.1617H16.4197C16.487 16.1937 16.5524 16.2298 16.6155 16.2696C16.6789 16.3057 16.7504 16.325 16.8233 16.3256C16.9097 16.3248 16.9936 16.2968 17.0632 16.2456L17.247 16.1097C17.5539 16.074 17.8582 16.0192 18.1583 15.9459L18.5021 16.2856L17.9025 17.085C17.8551 17.1483 17.8275 17.2242 17.8232 17.3032C17.819 17.3822 17.8382 17.4606 17.8786 17.5287C18.0554 17.8218 18.1874 18.1398 18.2703 18.472C18.2904 18.5484 18.3327 18.6171 18.3916 18.6697C18.4506 18.7223 18.5238 18.7564 18.602 18.7677L19.5853 18.9076ZM16.3877 15.3623C15.0438 15.3623 13.73 14.9638 12.6126 14.2172C11.4952 13.4705 10.6243 12.4093 10.11 11.1677C9.59574 9.9261 9.46116 8.55985 9.72333 7.2418C9.98553 5.92371 10.6327 4.71299 11.583 3.7627C12.5333 2.81242 13.744 2.16527 15.0621 1.90309C16.3801 1.64091 17.7464 1.77547 18.988 2.28976C20.2296 2.80404 21.2908 3.67497 22.0374 4.79237C22.7841 5.90976 23.1826 7.2235 23.1826 8.56741C23.18 10.3687 22.4633 12.0956 21.1896 13.3693C19.9159 14.6431 18.189 15.3598 16.3877 15.3623Z"
        fill="#A90466" />
    <path
        d="M16.3881 2.57227C15.2023 2.57227 14.0431 2.92389 13.0571 3.58269C12.0712 4.24149 11.3027 5.17787 10.849 6.27336C10.3952 7.3689 10.2764 8.57439 10.5078 9.73743C10.7391 10.9004 11.3101 11.9687 12.1486 12.8072C12.9871 13.6457 14.0554 14.2167 15.2184 14.4481C16.3814 14.6794 17.5869 14.5606 18.6824 14.1069C19.778 13.6531 20.7143 12.8846 21.3731 11.8987C22.032 10.9127 22.3836 9.75354 22.3836 8.56776C22.3817 6.97823 21.7494 5.45438 20.6254 4.33042C19.5015 3.20645 17.9776 2.57417 16.3881 2.57227ZM20.3291 11.9452L19.7815 11.3936L19.214 11.9612L19.7655 12.5088C18.9296 13.2268 17.8865 13.6595 16.7878 13.7439V12.9644H15.9884V13.7439C14.8896 13.6595 13.8465 13.2268 13.0106 12.5088L13.5622 11.9612L12.9946 11.3936L12.447 11.9452C11.729 11.1093 11.2964 10.0661 11.212 8.96745H11.9914V8.16806H11.212C11.2964 7.06936 11.729 6.02619 12.447 5.1903L12.9946 5.74188L13.5622 5.17431L13.0106 4.62672C13.8465 3.90869 14.8896 3.47603 15.9884 3.39165V4.17106H16.7878V3.39165C17.8865 3.47603 18.9296 3.90869 19.7655 4.62672L19.214 5.17431L19.7815 5.74188L20.3291 5.1903C21.0471 6.02619 21.4798 7.06936 21.5642 8.16806H20.7848V8.96745H21.5642C21.4798 10.0661 21.0471 11.1093 20.3291 11.9452Z"
        fill="#A90466" />
</svg>