<svg width="24" height="24" viewBox="0 0 24 24" fill="none" xmlns="http://www.w3.org/2000/svg">
    <path
        d="M18.8234 7.0322C19.0734 7.72755 19.2008 8.46105 19.1998 9.2C19.2028 10.2892 18.9897 11.3683 18.5728 12.3746C18.156 13.3809 17.5437 14.2946 16.7714 15.0627L15.7856 16.0485C15.5993 16.2338 15.4516 16.4542 15.351 16.6969C15.2505 16.9397 15.1991 17.2 15.1998 17.4627V19.2H8.79975V17.6C8.79975 17.5474 8.78945 17.4954 8.76935 17.4469C8.74925 17.3984 8.71975 17.3543 8.6826 17.3171C8.64545 17.28 8.6014 17.2505 8.55285 17.2304C8.5043 17.2103 8.4523 17.2 8.39976 17.2H7.44776C7.14991 17.2008 6.8625 17.0905 6.64165 16.8907C6.42085 16.6909 6.2825 16.4158 6.25375 16.1194L5.9978 13.5602C5.9879 13.4615 5.94175 13.37 5.8682 13.3034C5.79465 13.2368 5.69895 13.2 5.59975 13.2H4.4422C4.37525 13.2 4.3094 13.1832 4.25065 13.1511C4.19188 13.1191 4.1421 13.0728 4.10586 13.0165C4.06963 12.9603 4.04809 12.8958 4.04323 12.8291C4.03836 12.7623 4.05033 12.6954 4.07802 12.6345L5.56395 9.36555C5.58755 9.31355 5.59975 9.2571 5.59975 9.2C5.6017 7.5032 6.2766 5.87645 7.47641 4.67665C8.67621 3.47682 10.303 2.80192 11.9998 2.8H12.7998C13.9977 2.79874 15.1718 3.13461 16.1877 3.76921L16.6119 3.09089C15.4687 2.37673 14.1477 1.99869 12.7998 2H11.9998C8.05901 2 4.84755 5.1824 4.8003 9.1122L3.34975 12.3034C3.26666 12.4862 3.23077 12.6869 3.24536 12.8872C3.25994 13.0874 3.32455 13.2808 3.43325 13.4496C3.54195 13.6185 3.69128 13.7573 3.86755 13.8535C4.04382 13.9496 4.2414 14 4.4422 14H5.2378L5.4577 16.199C5.50565 16.693 5.73625 17.1514 6.10425 17.4845C6.4723 17.8176 6.95135 18.0014 7.44776 18H7.99975V19.6C7.9998 19.6263 8.00241 19.6526 8.00756 19.6784L8.5503 22.3922C8.6419 22.8451 8.88716 23.2525 9.2445 23.5454C9.60185 23.8384 10.0494 23.999 10.5115 24H13.4881C13.9502 23.999 14.3977 23.8384 14.7551 23.5455C15.1124 23.2525 15.3577 22.8451 15.4493 22.3922L15.992 19.6784C15.9972 19.6526 15.9998 19.6263 15.9998 19.6V17.4627C15.9994 17.3051 16.0302 17.1489 16.0905 17.0033C16.1509 16.8576 16.2395 16.7254 16.3513 16.6142L17.3371 15.6284C18.1839 14.7862 18.8553 13.7843 19.3123 12.6809C19.7694 11.5775 20.0031 10.3943 19.9998 9.2C20.0008 8.3687 19.8575 7.5435 19.5762 6.76125L18.8234 7.0322ZM8.8877 20H15.1119L14.8719 21.2H9.12771L8.8877 20ZM13.4881 23.2H10.5115C10.2342 23.1994 9.9657 23.103 9.75126 22.9273C9.53686 22.7515 9.38975 22.5071 9.33475 22.2353L9.2877 22H14.7119L14.6648 22.2353C14.6098 22.5071 14.4627 22.7515 14.2483 22.9273C14.0339 23.103 13.7654 23.1994 13.4881 23.2Z"
        fill="#A90466" />
    <path d="M21.3172 2.11719L20.1172 3.31719L20.6828 3.88286L21.8828 2.68286L21.3172 2.11719Z" fill="#A90466" />
    <path d="M24.0008 11.5996H20.8008V12.3996H24.0008V11.5996Z" fill="#A90466" />
    <path d="M23.4425 6.43262L20.6426 7.63262L20.9577 8.36797L23.7577 7.16792L23.4425 6.43262Z" fill="#A90466" />
    <path d="M16.8796 0.160156L15.6797 1.76017L16.3196 2.24015L17.5196 0.640136L16.8796 0.160156Z" fill="#A90466" />
    <path d="M12.3996 0H11.5996V1.6H12.3996V0Z" fill="#A90466" />
    <path d="M2.68286 2.11719L2.11719 2.68286L4.11719 4.68285L4.68285 4.11719L2.68286 2.11719Z" fill="#A90466" />
    <path d="M2.4 11.5996H0V12.3996H2.4V11.5996Z" fill="#A90466" />
    <path d="M0.557327 6.43262L0.242188 7.16797L3.04218 8.36797L3.35732 7.63267L0.557327 6.43262Z" fill="#A90466" />
    <path d="M7.12042 0.160156L6.48047 0.640146L7.68047 2.24015L8.32042 1.76016L7.12042 0.160156Z" fill="#A90466" />
    <path
        d="M6.80439 7.94659C6.79464 8.01874 6.80474 8.09214 6.83364 8.15895C6.86249 8.22575 6.90909 8.28339 6.96829 8.32569L9.60079 10.206V13.6002C9.60079 13.6762 9.62244 13.7507 9.66324 13.8148C9.70404 13.879 9.76229 13.9302 9.83114 13.9624C9.89999 13.9947 9.97659 14.0066 10.052 13.9969C10.1274 13.9871 10.1984 13.9561 10.2568 13.9075L12.4336 12.0935L15.3655 13.9387C15.4161 13.9705 15.4731 13.9906 15.5325 13.9975C15.5918 14.0044 15.652 13.9979 15.7085 13.9785C15.765 13.9591 15.8164 13.9273 15.859 13.8854C15.9016 13.8435 15.9343 13.7926 15.9546 13.7364L19.5769 3.73643C19.6028 3.66481 19.6078 3.58728 19.5911 3.51294C19.5745 3.43861 19.537 3.37056 19.4831 3.31681C19.4291 3.26306 19.3609 3.22583 19.2865 3.2095C19.2121 3.19317 19.1346 3.19842 19.0631 3.22464L7.06309 7.62464C6.99474 7.64969 6.93454 7.69289 6.88899 7.74964C6.84339 7.8064 6.81414 7.87449 6.80439 7.94659ZM10.4008 10.2116L16.6154 5.97435L12.1175 11.3155L10.4008 12.7461V10.2116ZM15.3715 12.9972L13.0027 11.5064L18.1072 5.44484L15.3715 12.9972ZM16.7166 4.9371L10.0061 9.51244L8.04964 8.115L16.7166 4.9371Z"
        fill="#A90466" />
    <path d="M12.5168 13.7168L9.7168 16.5168L10.2824 17.0824L13.0824 14.2824L12.5168 13.7168Z" fill="#A90466" />
    <path d="M8.11797 12.917L6.91797 14.117L7.48362 14.6826L8.68362 13.4826L8.11797 12.917Z" fill="#A90466" />
    <path d="M7.71758 10.1172L6.51758 11.3172L7.08323 11.8828L8.28323 10.6828L7.71758 10.1172Z" fill="#A90466" />
    <path d="M14.5164 14.5176L13.3164 15.7176L13.8821 16.2832L15.0821 15.0832L14.5164 14.5176Z" fill="#A90466" />
</svg>