<svg width="23" height="24" viewBox="0 0 23 24" fill="none" xmlns="http://www.w3.org/2000/svg">
    <path d="M12.0261 14.3223H11.252V18.1932H12.0261V14.3223Z" fill="#A90466" />
    <path d="M20.5398 7.74219H19.7656V8.51638H20.5398V7.74219Z" fill="#A90466" />
    <path d="M19.4147 4.31025L18.7441 4.69727L19.1312 5.36779L19.8017 4.98078L19.4147 4.31025Z" fill="#A90466" />
    <path d="M16.721 1.90076L16.334 2.57129L17.0045 2.95831L17.3915 2.28778L16.721 1.90076Z" fill="#A90466" />
    <path d="M13.9597 1.16113H13.1855V1.93533H13.9597V1.16113Z" fill="#A90466" />
    <path d="M17.0065 13.2995L16.3359 13.6865L16.723 14.3571L17.3935 13.97L17.0065 13.2995Z" fill="#A90466" />
    <path d="M19.1312 10.89L18.7441 11.5605L19.4147 11.9476L19.8017 11.277L19.1312 10.89Z" fill="#A90466" />
    <path d="M13.573 14.3223H12.7988V17.0319H13.573V14.3223Z" fill="#A90466" />
    <path d="M15.1218 14.3223H14.3477V16.2577H15.1218V14.3223Z" fill="#A90466" />
    <path
        d="M13.5733 13.1612C16.3525 13.1612 18.6055 10.9082 18.6055 8.12894C18.6055 5.3497 16.3525 3.09668 13.5733 3.09668C10.794 3.09668 8.54102 5.3497 8.54102 8.12894C8.54102 10.9082 10.794 13.1612 13.5733 13.1612Z"
        fill="white" />
    <path
        d="M19.7782 19.0614L20.0449 20.129H18.9533C18.8453 19.5987 18.5166 19.1516 18.0715 18.8752L20.5408 18.0894V12.8888C21.579 11.4526 22.1465 9.68826 22.0845 7.84723C21.9382 3.52064 18.2043 0 13.7612 0H11.1653C9.82052 0 8.57755 0.270581 7.47162 0.804774C4.54981 2.21574 2.73433 5.09419 2.73433 8.31677C2.73433 9.3089 2.28994 10.2341 1.51497 10.8538L0.671875 11.5281L0.860004 11.8219C2.156 13.8434 3.11717 16.0467 3.71678 18.3716L3.83755 18.8404C4.04581 19.6467 4.56336 20.3009 5.2582 20.6361C5.62555 20.8134 6.02349 20.9017 6.42026 20.9017C6.85536 20.9017 7.28929 20.796 7.67987 20.5843L13.4852 17.4395C14.4889 16.8964 15.5383 16.3908 16.5537 15.9019C16.875 15.7475 17.1963 15.5926 17.5168 15.4366C18.3703 15.0209 19.1252 14.4643 19.7666 13.8077V17.5239L12.0246 19.9874V19.3548H11.2505V24H21.8108L20.5292 18.8741L19.7782 19.0614ZM17.1777 14.7399C16.8583 14.8955 16.5382 15.0499 16.2181 15.204C15.1946 15.6964 14.1366 16.2058 13.117 16.7586L7.31175 19.903C6.78336 20.1894 6.14155 20.2018 5.59497 19.939C5.10568 19.7032 4.73871 19.2321 4.58775 18.6468L4.46697 18.1781C4.43484 18.0534 4.39768 17.9303 4.36362 17.8065H5.444V17.0323H4.13562C3.54955 15.1595 2.73471 13.3703 1.69768 11.6992L1.99807 11.4588C2.95807 10.6908 3.50852 9.54581 3.50852 8.31677C3.50852 5.39342 5.156 2.78245 7.80839 1.50194C8.80865 1.01923 9.9382 0.774194 11.1657 0.774194H11.2505V3.24C9.42258 4.11213 8.15368 5.97252 8.15368 8.12903C8.15368 11.1174 10.5846 13.5484 13.573 13.5484C16.5614 13.5484 18.9924 11.1174 18.9924 8.12903C18.9924 5.14065 16.5614 2.70968 13.573 2.70968C13.035 2.70968 12.5159 2.79097 12.0246 2.93806V0.774194H13.7612C17.7916 0.774194 21.1783 3.95923 21.3103 7.87394C21.4086 10.7737 19.7863 13.469 17.1777 14.7399ZM10.0292 5.13252L10.8537 5.95703C10.3764 6.55316 10.0892 7.30761 10.0892 8.12903C10.0892 8.95045 10.3764 9.7049 10.8537 10.301L10.0292 11.1255C9.34362 10.3157 8.92787 9.27058 8.92787 8.12903C8.92787 6.98748 9.34362 5.94232 10.0292 5.13252ZM16.2827 8.12903C16.2827 9.62284 15.0672 10.8387 13.573 10.8387C12.0788 10.8387 10.8634 9.62284 10.8634 8.12903C10.8634 6.63523 12.0788 5.41935 13.573 5.41935C15.0672 5.41935 16.2827 6.63523 16.2827 8.12903ZM11.401 10.8484C11.9976 11.3257 12.7516 11.6129 13.573 11.6129C14.3945 11.6129 15.1485 11.3257 15.745 10.8484L16.5696 11.6729C15.7597 12.3585 14.7146 12.7742 13.573 12.7742C12.4315 12.7742 11.3863 12.3585 10.5765 11.6729L11.401 10.8484ZM17.1169 11.1255L16.2924 10.301C16.7697 9.7049 17.0569 8.95045 17.0569 8.12903C17.0569 7.30761 16.7697 6.55316 16.2924 5.95703L17.1169 5.13252C17.8025 5.94232 18.2182 6.98748 18.2182 8.12903C18.2182 9.27058 17.8025 10.3157 17.1169 11.1255ZM15.745 5.40968C15.1485 4.93239 14.3945 4.64516 13.573 4.64516C12.7516 4.64516 11.9976 4.93239 11.401 5.40968L10.5765 4.58516C11.3863 3.89961 12.4315 3.48387 13.573 3.48387C14.7146 3.48387 15.7597 3.89961 16.5696 4.58516L15.745 5.40968ZM20.6751 22.649L18.8383 21.2717C18.8883 21.1545 18.927 21.031 18.9533 20.9032H20.2385L20.6751 22.649ZM17.1974 22.4373L17.5919 23.2258H14.2396L16.8382 22.435L16.8366 22.4292C16.9094 22.4377 16.9814 22.4516 17.0569 22.4516C17.1049 22.4516 17.1502 22.4408 17.1974 22.4373ZM17.9546 22.2205C18.1156 22.1354 18.2658 22.0332 18.3959 21.9077L20.1537 23.2258H18.4574L17.9546 22.2205ZM17.0569 21.6774C16.4166 21.6774 15.8956 21.1564 15.8956 20.5161C15.8956 19.8759 16.4166 19.3548 17.0569 19.3548C17.6972 19.3548 18.2182 19.8759 18.2182 20.5161C18.2182 21.1564 17.6972 21.6774 17.0569 21.6774ZM15.2732 19.7655C15.1756 19.9966 15.1214 20.2502 15.1214 20.5161C15.1214 21.0871 15.375 21.5961 15.7694 21.9507L12.0246 23.0903V20.7991L15.2732 19.7655Z"
        fill="#A90466" />
    <path
        d="M13.5722 6.19336C12.505 6.19336 11.6367 7.06162 11.6367 8.12884C11.6367 9.19607 12.505 10.0643 13.5722 10.0643C14.6394 10.0643 15.5077 9.19607 15.5077 8.12884C15.5077 7.06162 14.6394 6.19336 13.5722 6.19336ZM13.5722 9.29013C12.9319 9.29013 12.4109 8.7691 12.4109 8.12884C12.4109 7.48859 12.9319 6.96755 13.5722 6.96755C14.2125 6.96755 14.7335 7.48859 14.7335 8.12884C14.7335 8.7691 14.2125 9.29013 13.5722 9.29013Z"
        fill="#A90466" />
    <path d="M6.99288 9.67773H4.2832V10.4519H6.99288V9.67773Z" fill="#A90466" />
    <path d="M17.4441 20.1289H16.6699V20.9031H17.4441V20.1289Z" fill="#A90466" />
</svg>