<svg width="92" height="91" viewBox="0 0 92 91" fill="none" xmlns="http://www.w3.org/2000/svg">
<path d="M54.4541 0.499792C51.5415 0.49517 24.9687 0.900984 10.4483 22.8243C2.71905 34.494 -2.46707 53.577 5.10933 63.9745C7.3467 67.0449 8.51944 66.3695 20.479 73.6372C36.8953 83.6133 36.8185 86.182 43.6144 88.4646C52.4613 91.4361 65.533 91.4299 75.3245 84.133C86.4349 75.8533 88.078 62.0945 89.7235 48.314C91.3385 34.79 92.9746 21.0877 84.3846 10.9956C75.4791 0.533078 61.1661 0.510411 54.4541 0.499792Z" fill="#F5D0E6"/>
<path d="M88.8157 60.4992L37.426 53.3524C36.1357 53.1878 35.1688 52.0898 35.1688 50.7891L34.4639 14.9443C34.4639 14.9443 35.6353 14.0998 36.2992 13.7762C36.6371 13.6115 37.0261 13.5393 37.4308 13.5909L88.6676 20.1251C89.9579 20.2896 90.9247 21.3877 90.9247 22.6884V57.8947C90.9247 58.5245 90.6369 59.08 90.1916 59.4461C89.7815 59.7833 88.8157 60.4992 88.8157 60.4992Z" fill="#F5D0E6"/>
<path d="M87.2469 60.9754L36.0101 54.4412C34.7198 54.2767 33.7529 53.1787 33.7529 51.8779V16.6717C33.7529 15.4618 34.8149 14.5267 36.015 14.6798L87.2517 21.214C88.542 21.3785 89.5089 22.4765 89.5089 23.7772V58.9835C89.5089 60.1934 88.447 61.1285 87.2469 60.9754Z" fill="white"/>
<path d="M86.1586 59.5241L37.2352 53.285C36.2969 53.1653 35.5938 52.3669 35.5938 51.4209V17.4612C35.5938 16.6531 36.303 16.0286 37.1045 16.1309L86.0279 22.37C86.9662 22.4897 87.6693 23.2881 87.6693 24.2341V58.1938C87.6693 59.0018 86.9601 59.6263 86.1586 59.5241Z" fill="#F5D0E6"/>
<path d="M87.5009 61.1537C87.4097 61.1537 87.3181 61.1479 87.2266 61.1363L35.9898 54.6022C34.6221 54.4277 33.5908 53.2564 33.5908 51.8777V16.6714C33.5908 16.0482 33.8591 15.4545 34.3268 15.0427C34.7945 14.6308 35.4174 14.44 36.0357 14.5186L87.2725 21.0527C88.64 21.2272 89.6714 22.3984 89.6714 23.7771V58.9834C89.6714 59.6067 89.4031 60.2003 88.9354 60.6122C88.5369 60.9631 88.0258 61.1537 87.5009 61.1537ZM87.2676 60.8141C87.7936 60.8812 88.3231 60.7188 88.7208 60.3686C89.1187 60.0183 89.3467 59.5134 89.3467 58.9834V23.7771C89.3467 22.5614 88.4373 21.5286 87.2315 21.3748L35.9947 14.8407C35.4692 14.7738 34.9392 14.936 34.5414 15.2864C34.1436 15.6366 33.9155 16.1414 33.9155 16.6714V51.8777C33.9155 53.0934 34.825 54.1263 36.0309 54.2801L87.2676 60.8141Z" fill="#A90466"/>
<path d="M57.3553 81.7095L4.66034 74.9138C4.24789 74.861 4.01529 74.5156 4.0206 74.1703C4.02424 73.9321 4.04356 72.2548 4.04356 72.2548L31.9061 56.3263C33.3021 55.529 35.1083 55.221 36.7029 55.4253L88.7324 62.137C89.0457 62.1775 89.3142 62.3806 89.4382 62.6711L89.5219 62.867C89.5219 62.867 89.4772 64.2658 89.4954 64.5926C89.5095 64.848 89.3946 65.1118 89.1269 65.2648L61.9637 80.7956C60.5677 81.5929 58.95 81.9137 57.3553 81.7095Z" fill="#F5D0E6"/>
<path d="M11.1415 73.8729L4.84881 73.06C4.15184 72.9708 3.9685 72.0463 4.57864 71.6978L31.596 56.2671C32.992 55.4698 34.6097 55.1489 36.2044 55.3532L88.711 62.136C89.4079 62.2253 89.5913 63.1497 88.9811 63.4982L61.9638 78.9289C60.5678 79.7262 58.95 80.0471 57.3553 79.8429L11.1415 73.8729Z" fill="white"/>
<path d="M67.6352 71.2776L22.1052 65.3531C21.4757 65.2724 21.3101 64.4376 21.8612 64.1228L32.5667 58.0703C33.8276 57.3502 35.2887 57.0604 36.729 57.2448L82.2589 63.1693C82.8884 63.25 83.054 64.0849 82.5029 64.3996L71.7975 70.4521C70.5367 71.1723 69.0755 71.4621 67.6352 71.2776Z" fill="#F5D0E6"/>
<path d="M58.2835 80.0642C57.9667 80.0642 57.65 80.0443 57.335 80.004L31.6221 76.7061C31.5332 76.6947 31.4704 76.6133 31.4818 76.5244C31.4931 76.4355 31.575 76.3737 31.6633 76.384L57.3763 79.6819C58.9258 79.8807 60.5266 79.5629 61.8835 78.788L88.9008 63.3573C89.1634 63.2073 89.2158 62.9461 89.1773 62.7516C89.1387 62.5571 88.9907 62.3355 88.6906 62.2971L36.1839 55.5142C34.6345 55.3157 33.0335 55.6331 31.6768 56.4081L27.8914 58.5702C27.8136 58.6145 27.7144 58.5877 27.6698 58.5098C27.6253 58.4319 27.6525 58.3327 27.7303 58.2882L31.5157 56.1262C32.9334 55.3166 34.6067 54.9852 36.2253 55.1922L88.732 61.9751C89.1198 62.0247 89.4197 62.3048 89.4957 62.6885C89.5718 63.0721 89.4014 63.4453 89.0619 63.6393L62.0445 79.07C60.9025 79.7221 59.5951 80.0641 58.2835 80.0642Z" fill="#F5D0E6"/>
<path d="M82.0864 57.8563L41.6225 52.7385C40.926 52.6504 40.3613 51.9828 40.3613 51.2475V1.87228C40.3613 1.13692 40.926 0.612225 41.6225 0.700329L82.0864 5.81811C82.7829 5.90621 83.3476 6.57373 83.3476 7.3091V56.6843C83.3476 57.4197 82.7829 57.9444 82.0864 57.8563Z" fill="white"/>
<path d="M82.2389 58.0283C82.1819 58.0283 82.1244 58.0246 82.0663 58.0173L41.6024 52.8994C40.8287 52.8017 40.1992 52.0606 40.1992 51.2474V1.87223C40.1992 1.45762 40.3573 1.08991 40.6446 0.836706C40.9157 0.597713 41.2703 0.492351 41.6432 0.539206L82.1071 5.65708C82.8807 5.75483 83.5102 6.49594 83.5102 7.30909V56.6843C83.5102 57.0989 83.3521 57.4667 83.0648 57.7199C82.836 57.9216 82.5475 58.0283 82.2389 58.0283ZM82.1071 57.6952C82.3862 57.7305 82.6499 57.6527 82.8502 57.4762C83.0664 57.2856 83.1855 57.0044 83.1855 56.6843V7.30904C83.1855 6.65376 82.6834 6.05714 82.0663 5.97917L41.6024 0.861289C41.3232 0.825447 41.0594 0.903668 40.8593 1.08027C40.643 1.27093 40.5239 1.55216 40.5239 1.87218V51.2474C40.5239 51.9027 41.0259 52.4993 41.6432 52.5773L82.1071 57.6952Z" fill="black"/>
<path d="M75.7787 30.5405L48.0323 27.0311C47.7421 26.9944 47.5068 26.7163 47.5068 26.4099V23.7469C47.5068 23.4405 47.7421 23.2219 48.0323 23.2587L75.7787 26.768C76.0689 26.8047 76.3042 27.0829 76.3042 27.3892V30.0522C76.3042 30.3586 76.0689 30.5772 75.7787 30.5405Z" fill="#F5D0E6"/>
<path d="M75.988 38.1116L48.032 34.5757C47.7997 34.5463 47.6113 34.3237 47.6113 34.0784V31.1942C47.6113 30.9489 47.7997 30.7739 48.032 30.8033L75.988 34.3391C76.2203 34.3685 76.4087 34.5912 76.4087 34.8365V37.7207C76.4086 37.9659 76.2203 38.1409 75.988 38.1116Z" fill="#F5D0E6"/>
<path d="M71.6273 45.4381L52.1832 42.9788C51.8641 42.9385 51.6055 42.6327 51.6055 42.2958V39.7432C51.6055 39.4063 51.8641 39.166 52.1832 39.2063L71.6273 41.6656C71.9464 41.7059 72.2051 42.0117 72.2051 42.3485V44.9012C72.205 45.2381 71.9463 45.4785 71.6273 45.4381Z" fill="#F5D0E6"/>
<path d="M66.2805 20.1616C68.7241 18.0849 68.8047 14.1654 66.4606 11.4072C64.1165 8.64898 60.2353 8.09656 57.7917 10.1733C55.3481 12.2501 55.2675 16.1695 57.6116 18.9277C59.9557 21.6859 63.8369 22.2384 66.2805 20.1616Z" fill="#A90466"/>
<path d="M63.4127 16.0475C64.2657 15.3226 64.2939 13.9544 63.4756 12.9917C62.6574 12.0289 61.3027 11.8361 60.4497 12.561C59.5967 13.2859 59.5686 14.654 60.3868 15.6168C61.205 16.5795 62.5598 16.7724 63.4127 16.0475Z" fill="white"/>
<path d="M57.5469 18.852C58.279 18.1247 59.1678 17.4123 60.1148 16.9866C60.3436 16.8837 60.6147 16.8875 60.8653 16.9976C61.8291 17.4209 62.5789 17.3727 63.4115 17.1615C63.6137 17.1103 63.838 17.1467 64.0312 17.2672C65.0725 17.9168 65.9729 18.75 66.6584 19.8061C63.9527 22.5257 59.6187 21.5609 57.5469 18.852Z" fill="white"/>
<path d="M62.035 21.6391C58.5107 21.2117 55.6436 17.9611 55.6436 14.3932C55.6436 10.8254 58.5107 8.27038 62.035 8.69782C65.5593 9.12526 68.4265 12.3758 68.4265 15.9437C68.4265 19.5116 65.5593 22.0665 62.035 21.6391ZM62.035 9.22507C58.7979 8.83243 56.1644 11.1793 56.1644 14.4564C56.1644 17.7335 58.7979 20.7192 62.035 21.1118C65.2721 21.5045 67.9057 19.1576 67.9057 15.8805C67.9057 12.6034 65.2722 9.6177 62.035 9.22507Z" fill="white"/>
<path d="M10.5909 45.5074C9.09145 46.0638 7.81835 47.2353 6.95211 48.7772C4.74183 52.7118 -1.02695 64.2441 1.70163 73.1491C5.04385 84.0568 33.2999 83.7651 40.6637 79.1229C42.5346 77.9435 50.1897 69.9871 40.3645 63.3735C31.3588 57.3115 27.6367 61.7614 23.4841 59.3731C19.3315 56.9848 16.3321 47.4 14.8 46.0379C13.8106 45.1583 12.2714 44.8838 10.5909 45.5074Z" fill="#A90466"/>
<path d="M19.2822 71.7549C19.2407 71.7549 19.1991 71.739 19.1674 71.7074C15.4337 67.9762 6.75091 67.5344 6.66359 67.5304C6.57406 67.5262 6.50483 67.4504 6.50896 67.3607C6.51309 67.2712 6.59097 67.2037 6.67859 67.2061C7.04005 67.2227 15.5749 67.6585 19.3969 71.4777C19.4604 71.5411 19.4604 71.6439 19.397 71.7073C19.3654 71.739 19.3237 71.7549 19.2822 71.7549Z" fill="#F5D0E6"/>
<path d="M28.0306 71.9598C28.0084 71.9598 27.9862 71.9554 27.9647 71.9457C25.0531 70.6505 22.998 71.8123 22.9776 71.8241C22.9003 71.8693 22.801 71.8431 22.7556 71.7657C22.7104 71.6885 22.7363 71.5892 22.8136 71.5439C22.9024 71.4918 25.0251 70.2824 28.0966 71.6492C28.1786 71.6855 28.2154 71.7815 28.179 71.8634C28.1521 71.9239 28.0927 71.9598 28.0306 71.9598Z" fill="#F5D0E6"/>
<path d="M41.2879 78.8623C41.3138 78.9477 44.4334 82.4731 44.4334 82.4731L42.3537 83.292L39.8418 80.2342L41.2879 78.8623Z" fill="white"/>
<path d="M42.354 83.4541C42.3064 83.4541 42.26 83.4331 42.2285 83.3948L39.7166 80.337C39.6625 80.2712 39.6685 80.1748 39.7303 80.1162L41.1765 78.7444C41.2174 78.7057 41.2753 78.6911 41.3297 78.7052C41.3735 78.7168 41.41 78.746 41.431 78.785C41.557 78.9639 43.3627 81.0177 44.5552 82.3654C44.5903 82.4051 44.604 82.4594 44.5916 82.511C44.5793 82.5624 44.5425 82.6047 44.4932 82.624L42.4135 83.4428C42.3941 83.4504 42.3739 83.4541 42.354 83.4541ZM40.0635 80.2477L42.4044 83.0974L44.1585 82.4068C42.2025 80.1954 41.5167 79.3995 41.2724 79.101L40.0635 80.2477Z" fill="black"/>
<path d="M42.3174 81.8564C42.3973 81.6799 42.5361 81.4782 42.7748 81.3499C43.1342 81.1567 43.579 81.2226 43.8927 81.4837C44.6768 82.1367 46.8045 83.9831 48.0082 85.7513C48.4336 86.3762 48.1859 87.1718 47.1743 87.117C45.5163 87.0273 42.8988 86.2459 40.7638 84.2544C40.5188 84.0257 40.4039 83.6887 40.4657 83.3592C40.5161 83.09 40.5985 82.7537 40.73 82.4375C40.8557 82.1352 41.1856 81.9722 41.5039 82.0478L41.7907 82.1159C42.0059 82.1671 42.226 82.058 42.3174 81.8564Z" fill="white"/>
<path d="M47.2748 87.2821C47.2396 87.2821 47.2035 87.2811 47.166 87.2791C45.4227 87.1847 42.7964 86.3718 40.6536 84.3731C40.3643 84.1033 40.2346 83.7131 40.3066 83.3292C40.3735 82.9725 40.4657 82.6514 40.5807 82.3752C40.737 81.9989 41.1412 81.7943 41.5419 81.8899L41.8287 81.958C41.9671 81.9906 42.1108 81.92 42.17 81.7893C42.287 81.5312 42.4697 81.3298 42.6985 81.2068C43.1044 80.9887 43.6262 81.0499 43.997 81.359C44.8423 82.0628 46.9386 83.8908 48.143 85.6599C48.3978 86.0343 48.4411 86.4707 48.2561 86.7988C48.1518 86.9837 47.8882 87.2821 47.2748 87.2821ZM41.3458 82.1914C41.1445 82.1914 40.9596 82.3091 40.8804 82.4999C40.774 82.7554 40.6884 83.0545 40.6258 83.3891C40.5743 83.663 40.6675 83.9421 40.8751 84.1357C42.9542 86.0751 45.4971 86.8637 47.1835 86.9549C47.5672 86.9768 47.8466 86.8637 47.9732 86.6394C48.0973 86.4196 48.0595 86.1142 47.8745 85.8426C46.6932 84.1076 44.6241 82.3036 43.7892 81.6085C43.5189 81.3833 43.1424 81.337 42.8522 81.4928C42.6843 81.5831 42.5542 81.7279 42.4657 81.9233C42.3426 82.1952 42.0425 82.3431 41.7537 82.2738L41.4668 82.2056C41.4263 82.1961 41.3857 82.1914 41.3458 82.1914Z" fill="black"/>
<path d="M46.8301 86.4627C45.8685 86.4627 44.0539 86.0526 41.1873 83.88C41.1159 83.8259 41.1018 83.724 41.1561 83.6525C41.2103 83.5812 41.3121 83.5672 41.3835 83.6213C45.727 86.9132 47.5108 86.0355 47.5283 86.0261C47.6076 85.9843 47.7058 86.0145 47.7477 86.0938C47.7896 86.1731 47.7593 86.2713 47.68 86.3132C47.6513 86.3283 47.3803 86.4627 46.8301 86.4627Z" fill="black"/>
<path d="M45.0295 84.5983C44.99 84.5983 44.9505 84.584 44.9192 84.5551C44.8534 84.4941 44.8495 84.3914 44.9104 84.3256L45.7522 83.4173C45.8133 83.3514 45.9159 83.3476 45.9816 83.4085C46.0474 83.4695 46.0513 83.5722 45.9904 83.638L45.1486 84.5463C45.1166 84.5809 45.073 84.5983 45.0295 84.5983Z" fill="black"/>
<path d="M44.2844 83.9859C44.2431 83.9859 44.2018 83.9702 44.1701 83.9387C44.1064 83.8757 44.106 83.7728 44.1692 83.7092L45.0962 82.7748C45.1593 82.7113 45.262 82.7106 45.3258 82.774C45.3894 82.837 45.3899 82.9399 45.3266 83.0035L44.3997 83.9379C44.3679 83.9698 44.3262 83.9859 44.2844 83.9859Z" fill="black"/>
<path d="M34.7828 80.7475L33.8249 84.9536L32.25 83.7547L32.978 79.7117L34.7828 80.7475Z" fill="white"/>
<path d="M33.8251 85.116C33.7901 85.116 33.7554 85.1047 33.7268 85.0828L32.152 83.8838C32.1034 83.847 32.0797 83.786 32.0904 83.7259L32.8184 79.6829C32.8278 79.6309 32.8619 79.5867 32.9097 79.5645C32.9577 79.5422 33.0134 79.5445 33.0591 79.5708L34.8638 80.6067C34.9257 80.6422 34.9571 80.714 34.9413 80.7835L33.9835 84.9896C33.9712 85.0434 33.9324 85.0874 33.8805 85.1062C33.8625 85.1128 33.8437 85.116 33.8251 85.116ZM32.4276 83.6857L33.7228 84.6718L34.598 80.8286L33.0971 79.9671L32.4276 83.6857Z" fill="black"/>
<path d="M34.3694 84.1913C34.2732 85.5002 34.042 88.132 33.0522 89.9982C32.7866 90.4988 31.75 90.4615 31.3735 89.7789C30.5886 88.3557 29.5857 85.9372 30.1758 83.0172C30.222 82.789 30.3743 82.5961 30.5854 82.4983C30.833 82.3835 31.2248 82.2395 31.7824 82.1379C32.0601 82.0873 32.3235 82.2821 32.3574 82.5625L32.4818 83.5916L32.613 83.4209C32.8104 83.164 33.1573 83.075 33.4538 83.2052C33.6135 83.2754 33.7899 83.3529 33.9496 83.423C34.2479 83.5541 34.3933 83.8662 34.3694 84.1913Z" fill="white"/>
<path d="M32.3646 90.4998C31.8912 90.4998 31.4473 90.2484 31.2316 89.8573C29.9672 87.5649 29.5586 85.2528 30.0168 82.9851C30.0731 82.7072 30.2601 82.4701 30.5173 82.351C30.7566 82.2401 31.1654 82.0853 31.7534 81.9781C31.93 81.9462 32.1131 81.9887 32.2572 82.0949C32.4019 82.2016 32.4972 82.3648 32.5188 82.5429L32.5982 83.2C32.8475 82.9795 33.2053 82.9184 33.5194 83.0566L34.0151 83.2744C34.3591 83.4255 34.5619 83.79 34.5315 84.2032C34.4087 85.8739 34.1367 88.3002 33.1958 90.0742C33.0561 90.3375 32.7495 90.4966 32.3756 90.4997C32.3719 90.4997 32.3682 90.4998 32.3646 90.4998ZM31.8711 82.2922C31.8514 82.2922 31.8316 82.294 31.8117 82.2976C31.2572 82.3987 30.8759 82.5427 30.6537 82.6456C30.49 82.7215 30.3708 82.8724 30.335 83.0495C29.8925 85.2396 30.2898 87.4774 31.5159 89.7005C31.7109 90.0544 32.0964 90.1783 32.3729 90.1751C32.6219 90.1731 32.8272 90.0762 32.9089 89.9221C33.9267 88.0033 34.1308 85.2253 34.2076 84.1794C34.2281 83.9011 34.1043 83.6683 33.8844 83.5716L33.3886 83.3538C33.16 83.2534 32.894 83.3217 32.7418 83.5199L32.6106 83.6906C32.5705 83.7428 32.5028 83.7656 32.439 83.7482C32.3754 83.7307 32.3287 83.6767 32.3207 83.6111L32.1963 82.582C32.1853 82.491 32.1385 82.4109 32.0645 82.3564C32.0073 82.3141 31.9402 82.2922 31.8711 82.2922Z" fill="black"/>
<path d="M32.1877 89.6805C32.1341 89.6805 32.0816 89.654 32.0507 89.6054C30.2142 86.7212 30.6302 83.3999 30.6488 83.26C30.6607 83.171 30.7405 83.1079 30.8311 83.1205C30.9199 83.1322 30.9824 83.2138 30.9707 83.3027C30.9663 83.3358 30.5534 86.6493 32.3246 89.431C32.3727 89.5066 32.3505 89.6069 32.2748 89.6552C32.2478 89.6723 32.2176 89.6805 32.1877 89.6805Z" fill="black"/>
<path d="M34.0465 86.1473C34.0316 86.1473 34.0165 86.1453 34.0015 86.1409L32.7767 85.7878C32.6904 85.763 32.6407 85.6731 32.6656 85.5869C32.6904 85.5007 32.7805 85.4511 32.8665 85.4758L34.0913 85.8289C34.1775 85.8538 34.2272 85.9437 34.2024 86.0298C34.1819 86.101 34.117 86.1473 34.0465 86.1473Z" fill="black"/>
<path d="M33.8112 87.2123C33.7922 87.2123 33.7729 87.209 33.7541 87.202L32.5974 86.7668C32.5135 86.7351 32.4711 86.6415 32.5026 86.5576C32.5342 86.4736 32.6281 86.4313 32.7118 86.4628L33.8684 86.898C33.9523 86.9297 33.9947 87.0233 33.9632 87.1072C33.9387 87.1722 33.8769 87.2123 33.8112 87.2123Z" fill="black"/>
<path d="M24.1051 61.531C24.1051 61.531 29.9681 60.8338 35.2506 63.8223C36.5821 64.5756 37.3986 65.9922 37.3902 67.522C37.3735 70.5589 37.0522 76.1101 35.1915 80.929C35.0857 81.2032 34.7715 81.3328 34.5027 81.2139L32.1252 80.1614C31.9655 80.0907 31.8525 79.9442 31.8254 79.7717C31.6505 78.6584 31.0598 74.4248 31.6517 71.3536C32.3388 67.7891 20.8535 64.0112 20.8535 64.0112L24.1051 61.531Z" fill="black"/>
<path d="M41.9302 79.6033L39.8111 80.9959C39.6695 81.089 39.4813 81.0654 39.3672 80.9402C38.0634 79.5107 30.7026 71.4834 28.8571 70.4322C26.83 69.2776 23.0425 67.5398 19.6028 67.5604C16.1631 67.5811 15.4375 65.1918 15.4375 65.1918L20.3425 62.0225C20.3425 62.0225 28.8302 62.9834 32.4171 65.9008C35.6558 68.5349 41.0255 77.4362 42.0375 79.1397C42.1317 79.2982 42.0842 79.5021 41.9302 79.6033Z" fill="black"/>
<path d="M37.3513 71.7664C37.3009 71.7664 37.2511 71.743 37.2194 71.6988C35.7893 69.7085 33.5636 67.0428 32.3147 66.0271C30.9635 64.9281 28.7559 63.9808 25.753 63.2114C25.6661 63.1891 25.6138 63.1008 25.636 63.0139C25.6583 62.927 25.7463 62.8742 25.8335 62.8969C28.8822 63.678 31.1318 64.6463 32.5196 65.7751C33.7895 66.8081 36.0405 69.5018 37.4831 71.5094C37.5354 71.5822 37.5188 71.6836 37.4459 71.7359C37.4173 71.7565 37.3842 71.7664 37.3513 71.7664Z" fill="#A90466"/>
<path d="M20.2617 54.2991L20.89 55.5919C21.6378 57.1306 22.7877 58.4381 24.2178 59.3756L24.7977 59.7557C25.1694 59.9994 25.6113 60.1129 26.0543 60.0783L26.122 60.0731C26.7988 60.0203 27.4714 60.2179 28.0123 60.6285L26.4918 61.1172C25.5647 61.4151 24.555 61.3452 23.6863 60.9048C22.8542 60.4829 21.8365 59.7905 20.9882 58.6853C19.2108 56.3697 18.7998 54.9438 18.7998 54.9438L20.2617 54.2991Z" fill="white"/>
<path d="M25.338 61.462C24.7423 61.462 24.1538 61.3234 23.6131 61.0493C22.5111 60.4905 21.5847 59.7283 20.8597 58.7838C19.0841 56.4704 18.6612 55.048 18.6441 54.9885C18.6216 54.9105 18.6603 54.8278 18.7345 54.7951L20.1965 54.1504C20.2768 54.1151 20.37 54.1493 20.4081 54.2279L21.0363 55.5208C21.7709 57.0325 22.9021 58.3184 24.3072 59.2396L24.887 59.6197C25.2268 59.8423 25.6369 59.9471 26.0421 59.9163L26.1097 59.911C26.8269 59.8542 27.5375 60.0637 28.1109 60.4991C28.1591 60.5357 28.183 60.596 28.1727 60.6557C28.1626 60.7153 28.1199 60.7644 28.0624 60.7829L26.5418 61.2715C26.1456 61.3988 25.7401 61.462 25.338 61.462ZM19.0017 55.032C19.1492 55.4349 19.6883 56.7245 21.1171 58.5862C21.8123 59.4918 22.7016 60.2231 23.76 60.7598C24.5888 61.1799 25.5414 61.2521 26.4424 60.9625L27.6424 60.5768C27.1879 60.314 26.663 60.1937 26.1349 60.2347L26.0672 60.24C25.5904 60.2772 25.1083 60.1531 24.7089 59.8913L24.1291 59.5113C22.675 58.5579 21.5044 57.2271 20.7441 55.6627L20.1843 54.5106L19.0017 55.032Z" fill="black"/>
<path d="M18.3267 66.6973C18.3267 66.6973 16.3988 68.169 15.3389 67.7457C14.279 67.3223 16.1032 65.5092 16.6407 65.439C17.1782 65.3687 18.3267 66.6973 18.3267 66.6973Z" fill="black"/>
<path d="M18.6631 44.9861C19.5305 44.8657 20.5192 45.625 20.4209 46.9196C20.3407 47.9772 19.2373 48.2969 18.7268 48.8616C17.0753 50.6881 18.6603 52.6706 17.3692 54.4924C16.1394 56.2278 14.2728 55.0334 11.7745 57.0263C9.8076 58.5952 16.9569 56.2113 14.4541 57.8666C12.4574 59.1872 8.71136 59.0767 6.59434 56.6496C4.58136 54.3418 4.11842 50.8773 6.18086 49.2055C8.03484 47.7027 9.34377 49.4559 11.3208 48.0459C13.2698 46.6558 12.7339 45.3082 13.9513 44.7275C15.616 43.9333 16.2047 45.3271 18.6631 44.9861Z" fill="black"/>
<path d="M8.40234 57.9145C8.51292 57.2643 8.67388 56.4995 8.8379 55.9955C9.34273 54.4441 9.68713 53.4349 11.4177 52.5124C11.6767 52.3744 11.9488 52.2621 12.2273 52.1692L13.273 51.8201C13.273 51.8201 17.5894 50.5858 19.3181 52.2542C19.4582 52.3894 19.6355 52.5419 19.7489 52.7205L20.8754 54.4189L20.865 54.4231C19.8642 54.8324 19.4452 56.029 19.9806 56.9685C20.5962 58.0488 21.4447 59.3105 22.289 59.8351C22.5557 60.0009 24.7043 60.8839 24.7043 60.8839C24.7043 60.8839 25.2319 62.4917 21.9252 63.8701C18.6184 65.2485 16.2089 65.7482 15.5151 67.4505C15.1044 68.4584 13.4322 63.627 12.3556 59.0999C12.1484 58.2288 11.3334 57.6423 10.4419 57.7251L8.40234 57.9145Z" fill="white"/>
<path d="M15.3741 67.7476C15.3666 67.7476 15.3594 67.7473 15.3528 67.7467C15.1964 67.7347 14.8301 67.7065 13.8573 64.9151C13.2861 63.2762 12.6813 61.1702 12.1978 59.1373C12.0105 58.3496 11.2606 57.812 10.457 57.8867L8.41757 58.0761C8.36791 58.0814 8.31781 58.0618 8.28354 58.0248C8.24918 57.9878 8.23408 57.937 8.24254 57.8873C8.37317 57.1185 8.53817 56.3925 8.6837 55.9452C9.17737 54.4283 9.53407 53.3325 11.3416 52.3691C11.5958 52.2336 11.8688 52.1177 12.176 52.0151L13.2218 51.666C13.4084 51.6126 17.6555 50.4236 19.4311 52.1373C19.4546 52.1599 19.4791 52.1831 19.5042 52.2068C19.634 52.3293 19.7811 52.4681 19.8861 52.6334L21.0109 54.329C21.0377 54.3696 21.045 54.42 21.0307 54.4666C21.0164 54.5131 20.982 54.5507 20.9369 54.5691L20.9265 54.5733C20.4906 54.7516 20.1523 55.1093 19.9986 55.5548C19.846 55.9969 19.891 56.4829 20.1217 56.888C20.935 58.3152 21.7141 59.2865 22.3748 59.6971C22.5621 59.8135 23.9075 60.3807 24.7662 60.7336C24.8101 60.7517 24.8439 60.7881 24.8587 60.8332C24.8821 60.9046 25.394 62.6001 21.9878 64.0199C21.2427 64.3305 20.5293 64.6018 19.8998 64.8412C17.7384 65.6632 16.1769 66.2571 15.6655 67.5118C15.5841 67.7118 15.4556 67.7476 15.3741 67.7476ZM10.6063 57.5552C11.5013 57.5552 12.3032 58.1768 12.5137 59.0623C13.5522 63.4286 14.8937 67.1257 15.3555 67.4104C15.3583 67.4047 15.3616 67.3977 15.3651 67.3892C15.9296 66.0039 17.5465 65.389 19.7845 64.5378C20.4116 64.2992 21.1225 64.0288 21.8629 63.7202C24.5887 62.584 24.6029 61.3063 24.5628 61.0009C24.1319 60.8234 22.4531 60.1281 22.2035 59.973C21.4869 59.5276 20.6916 58.5438 19.8397 57.0488C19.5626 56.5626 19.5087 55.9794 19.6917 55.449C19.8557 54.9739 20.1947 54.582 20.6358 54.351L19.6138 52.8101C19.5288 52.6764 19.3974 52.5523 19.2814 52.443C19.2554 52.4183 19.2299 52.3943 19.2056 52.3709C17.5632 50.7859 13.3602 51.9639 13.3178 51.9761L12.2789 52.3231C11.9891 52.4199 11.7324 52.5286 11.4943 52.6556C9.80236 53.5574 9.48013 54.5473 8.99261 56.0456C8.86463 56.4386 8.72057 57.0585 8.59914 57.7332L10.4271 57.5635C10.4871 57.5579 10.547 57.5552 10.6063 57.5552Z" fill="black"/>
<path d="M21.2905 61.9796L19.6891 61.5233C19.4511 61.4555 19.195 61.5167 19.0132 61.6848L18.3176 62.3282C18.1848 62.4511 18.0103 62.5177 17.8294 62.5159C17.0402 62.5075 13.4022 61.664 13.0042 61.0605C12.8075 60.7621 12.5088 59.7179 12.2833 58.8528C12.0943 58.1282 11.4085 57.6474 10.6629 57.7172L9.05664 57.8676C9.05664 57.8676 9.74486 61.7181 11.1305 62.885C12.2062 63.791 14.6381 64.1386 18.1138 63.734C18.1138 63.734 18.8383 63.611 19.4088 62.8473C19.7731 62.3596 20.7378 62.5468 21.2942 62.3771C21.4918 62.3168 21.4892 62.0362 21.2905 61.9796Z" fill="white"/>
<path d="M15.4492 64.0634C13.3823 64.0634 11.8523 63.7048 11.0262 63.009C9.6119 61.818 8.92565 58.0555 8.89708 57.8959C8.88907 57.8512 8.90013 57.8053 8.92761 57.7691C8.9552 57.7329 8.99654 57.71 9.04178 57.7057L10.6481 57.5553C11.4768 57.478 12.2306 58.0062 12.4406 58.8117C12.8529 60.3928 13.0557 60.8432 13.14 60.971C13.4765 61.4812 16.9653 62.3443 17.8314 62.3533C17.9682 62.3547 18.1053 62.3035 18.2075 62.2089L18.9033 61.5654C19.1251 61.3602 19.4435 61.2843 19.7338 61.367L21.3353 61.8233C21.4943 61.8686 21.602 62.01 21.6034 62.1753C21.605 62.3405 21.4998 62.4839 21.3417 62.5321C21.1293 62.5969 20.8796 62.613 20.6151 62.6301C20.1806 62.6581 19.7314 62.687 19.539 62.9443C18.9366 63.7507 18.1734 63.8884 18.1412 63.8938C17.1672 64.0074 16.266 64.0634 15.4492 64.0634ZM9.25043 58.0123C9.40339 58.769 10.0745 61.7832 11.2353 62.7607C12.3031 63.6598 14.8036 63.9558 18.0952 63.5726C18.0936 63.5726 18.7581 63.4472 19.2791 62.7501C19.5609 62.3727 20.11 62.3373 20.5943 62.3061C20.8393 62.2904 21.0706 62.2755 21.247 62.2216C21.2683 62.2151 21.279 62.2005 21.2789 62.1783C21.2787 62.1561 21.2676 62.1416 21.2463 62.1355L19.6449 61.6792C19.4624 61.6274 19.2629 61.675 19.1238 61.8038L18.4281 62.4473C18.2672 62.5963 18.0577 62.678 17.8375 62.678C17.8343 62.678 17.8311 62.678 17.828 62.678C17.0511 62.6698 13.3139 61.8241 12.869 61.1497C12.6997 60.8929 12.45 60.1339 12.1266 58.8937C11.9567 58.2427 11.3481 57.8173 10.6783 57.8786L9.25043 58.0123Z" fill="black"/>
<path d="M13.4529 51.848C13.4529 51.848 14.3545 48.941 14.3854 48.5881C14.3854 48.5881 14.0983 48.4368 14.1144 47.9942C14.1451 47.1524 14.9802 47.5693 14.9802 47.5693L15.0622 47.5891C15.5412 47.7045 16.0433 47.6796 16.5085 47.5173L17.4852 47.1765C17.4852 47.1765 17.6899 47.5354 17.4517 48.228C17.3382 48.5581 17.3603 48.9419 17.4203 49.343C17.4361 49.4488 17.3633 49.5477 17.2575 49.5639L16.9964 49.604C16.8605 49.9201 16.7384 50.1081 16.5125 50.3112C16.4508 50.3667 16.3697 50.397 16.2867 50.3927C16.1744 50.3869 16.0006 50.3627 15.8059 50.2811L15.6589 51.5146L16.3071 51.4988C16.3071 51.4988 16.5408 52.2717 15.3138 52.8313C14.6364 53.1402 13.6771 53.0774 12.9535 52.9592C12.5823 52.8985 12.4901 52.4076 12.8153 52.2186L13.4529 51.848Z" fill="white"/>
<path d="M14.05 53.2181C13.6521 53.2181 13.2592 53.1738 12.9277 53.1197C12.6896 53.0808 12.5075 52.9025 12.4637 52.6656C12.4203 52.4297 12.5264 52.1992 12.7341 52.0784L13.3168 51.7396C13.6486 50.6679 14.1209 49.0898 14.2099 48.6586C14.0995 48.5592 13.9393 48.3514 13.9525 47.9885C13.9631 47.6962 14.0613 47.493 14.2445 47.3842C14.543 47.2071 14.9381 47.3705 15.0353 47.4157L15.1006 47.4315C15.5503 47.5398 16.0187 47.5165 16.4553 47.3643L17.4321 47.0234C17.5056 46.9978 17.5879 47.0282 17.6265 47.0962C17.6364 47.1135 17.8646 47.5276 17.6055 48.281C17.4952 48.6019 17.5313 48.9858 17.5812 49.3192C17.6101 49.5129 17.4762 49.6947 17.2825 49.7245L17.1091 49.7512C16.9716 50.0527 16.8381 50.2372 16.6214 50.4321C16.5272 50.5168 16.4028 50.5608 16.2786 50.555C16.1941 50.5507 16.0775 50.5369 15.9436 50.5001L15.8426 51.3479L16.3035 51.3366C16.3777 51.34 16.4418 51.3822 16.4628 51.4519C16.474 51.4892 16.7221 52.3677 15.3814 52.9792C14.9915 53.1571 14.5172 53.2181 14.05 53.2181ZM14.5611 47.6287C14.5052 47.6287 14.4522 47.6384 14.4097 47.6637C14.3279 47.7126 14.2832 47.8259 14.2769 48.0004C14.265 48.3277 14.4557 48.4413 14.4639 48.446C14.5186 48.4775 14.5529 48.5394 14.5474 48.6024C14.5158 48.9622 13.701 51.5971 13.6082 51.8962C13.5962 51.9351 13.5699 51.968 13.5347 51.9885L12.8972 52.3592C12.7632 52.4371 12.7759 52.5684 12.783 52.6068C12.7978 52.6867 12.8572 52.7792 12.9801 52.7993C13.656 52.9096 14.5985 52.9795 15.2468 52.6838C16.049 52.318 16.1609 51.875 16.1636 51.665L15.6632 51.6772C15.6161 51.6748 15.5708 51.6589 15.5392 51.6241C15.5075 51.5893 15.4925 51.5424 15.4981 51.4956L15.645 50.2621C15.651 50.2116 15.6804 50.1668 15.7245 50.1411C15.7683 50.1155 15.8219 50.1122 15.869 50.1316C16.0425 50.2044 16.1967 50.2257 16.2954 50.2308C16.3357 50.2336 16.3738 50.2181 16.4043 50.1907C16.6036 50.0116 16.7155 49.8474 16.8476 49.54C16.8696 49.4887 16.9167 49.4522 16.972 49.4438L17.2331 49.4037C17.2505 49.4009 17.2627 49.3847 17.26 49.3672C17.2043 48.9952 17.1653 48.5626 17.2984 48.1755C17.4292 47.795 17.4134 47.5293 17.3835 47.3842L16.5622 47.6708C16.0667 47.8438 15.5351 47.87 15.0244 47.7471L14.9424 47.7274C14.9304 47.7245 14.9189 47.7203 14.9079 47.7148C14.8494 47.6859 14.6968 47.6287 14.5611 47.6287Z" fill="black"/>
<path d="M15.8054 50.4436C15.7823 50.4436 15.7589 50.4387 15.7366 50.4282L15.5573 50.3442C15.4762 50.3061 15.4412 50.2094 15.4792 50.1283C15.5172 50.0471 15.6138 50.0119 15.6952 50.0501L15.8744 50.1342C15.9556 50.1722 15.9905 50.2689 15.9525 50.3501C15.925 50.409 15.8664 50.4436 15.8054 50.4436Z" fill="black"/>
<path d="M29.0154 60.462L21.6201 62.7108L24.0895 54.3186C24.1807 54.0029 24.4306 53.7522 24.7514 53.6546L30.7531 51.8296C31.1344 51.7136 31.49 52.0515 31.3816 52.4267L29.0154 60.462Z" fill="black"/>
<path d="M27.2518 57.1531C27.1645 57.4554 26.8739 57.7673 26.6028 57.8497C26.3317 57.9322 26.1828 57.7539 26.2701 57.4516C26.3575 57.1493 26.648 56.8374 26.9191 56.755C27.1902 56.6726 27.3392 56.8508 27.2518 57.1531Z" fill="white"/>
<path d="M28.757 61.0279L17.1561 64.5556C16.9164 64.6285 16.663 64.4931 16.5902 64.2532L16.5557 64.1913L29.0245 60.3997L29.0591 60.4616C29.1319 60.7015 28.9967 60.9551 28.757 61.0279Z" fill="black"/>
<path d="M36.4854 19.3011L45.3399 21.8745L51.6226 14.8843L36.4854 19.3011Z" fill="white"/>
<path d="M40.8974 23.4555L39.6611 20.2243L47.8924 16.8611L41.2175 20.6767L43.0684 21.2146L40.8974 23.4555Z" fill="#F5D0E6"/>
<path d="M41.108 22.5269C41.1019 22.5269 41.0958 22.5266 41.0896 22.5257C41.007 22.5158 40.9481 22.4405 40.9581 22.3578L41.1338 20.9107C41.1437 20.8279 41.2206 20.768 41.3017 20.7792C41.3843 20.7891 41.4432 20.8643 41.4331 20.947L41.2575 22.3942C41.2482 22.4708 41.1831 22.5269 41.108 22.5269Z" fill="white"/>
<path d="M3.86745 44.5912C3.8259 44.5912 3.78436 44.5754 3.75265 44.5437C3.68922 44.4804 3.68922 44.3775 3.75265 44.3141L4.13019 43.9365C4.19361 43.8731 4.29632 43.8731 4.35974 43.9365C4.42317 43.9998 4.42317 44.1026 4.35974 44.166L3.98225 44.5437C3.95054 44.5754 3.90899 44.5912 3.86745 44.5912Z" fill="black"/>
<path d="M5.29323 43.1646C5.25168 43.1646 5.21014 43.1487 5.17843 43.1171C5.115 43.0536 5.115 42.9508 5.17843 42.8875L5.55607 42.51C5.61949 42.4465 5.7222 42.4465 5.78562 42.51C5.84904 42.5734 5.84904 42.6762 5.78562 42.7395L5.40798 43.1171C5.37627 43.1488 5.33477 43.1646 5.29323 43.1646Z" fill="black"/>
<path d="M5.67082 44.5912C5.62927 44.5912 5.58778 44.5754 5.55607 44.5437L5.17843 44.166C5.115 44.1026 5.115 43.9999 5.17843 43.9365C5.24185 43.8731 5.34456 43.8731 5.40798 43.9365L5.78562 44.3141C5.84904 44.3775 5.84904 44.4803 5.78562 44.5437C5.75391 44.5754 5.71236 44.5912 5.67082 44.5912Z" fill="black"/>
<path d="M4.24499 43.1646C4.20344 43.1646 4.1619 43.1487 4.13019 43.1171L3.75265 42.7395C3.68922 42.6761 3.68922 42.5734 3.75265 42.51C3.81607 42.4465 3.91878 42.4465 3.9822 42.51L4.35969 42.8875C4.42312 42.9509 4.42312 43.0536 4.35969 43.1171C4.32803 43.1488 4.28648 43.1646 4.24499 43.1646Z" fill="black"/>
<path d="M22.1731 4.83527C22.1282 4.83527 22.0835 4.81678 22.0515 4.7805C21.9921 4.71339 21.9984 4.61078 22.0655 4.55139L22.4653 4.19754C22.5325 4.13795 22.6352 4.14449 22.6944 4.21151C22.7538 4.27862 22.7475 4.38122 22.6804 4.44067L22.2806 4.79451C22.2497 4.82185 22.2113 4.83527 22.1731 4.83527Z" fill="black"/>
<path d="M23.6839 3.49859C23.6389 3.49859 23.5943 3.48011 23.5622 3.44387C23.5029 3.37666 23.5091 3.27415 23.5762 3.21471L23.9761 2.86087C24.0433 2.80138 24.1461 2.80772 24.2052 2.87483C24.2646 2.94204 24.2584 3.0446 24.1913 3.10399L23.7914 3.45783C23.7605 3.48517 23.722 3.49859 23.6839 3.49859Z" fill="black"/>
<path d="M23.9742 4.94514C23.9293 4.94514 23.8846 4.92665 23.8526 4.89037L23.4988 4.49046C23.4394 4.42325 23.4456 4.32074 23.5127 4.2613C23.5799 4.20171 23.6826 4.20815 23.7418 4.27526L24.0957 4.67517C24.1551 4.74238 24.1488 4.84489 24.0817 4.90433C24.0509 4.93172 24.0124 4.94514 23.9742 4.94514Z" fill="black"/>
<path d="M22.6374 3.43454C22.5925 3.43454 22.5478 3.41606 22.5158 3.37982L22.1619 2.97991C22.1025 2.9128 22.1087 2.81019 22.1758 2.7508C22.243 2.69121 22.3458 2.69765 22.4049 2.76476L22.7589 3.16467C22.8183 3.23179 22.812 3.33439 22.7449 3.39379C22.7141 3.42112 22.6756 3.43454 22.6374 3.43454Z" fill="black"/>
<path d="M18.3303 9.74962C18.3133 9.74962 18.2963 9.74908 18.2792 9.74804C18.057 9.73452 17.8535 9.63526 17.7062 9.46859C17.5588 9.30201 17.4851 9.088 17.4987 8.86597C17.5122 8.64389 17.6115 8.44044 17.778 8.29304C17.9445 8.14569 18.1572 8.07204 18.3807 8.08556C18.839 8.11349 19.189 8.50908 19.1611 8.96744C19.1342 9.40866 18.7664 9.74962 18.3303 9.74962ZM18.3291 8.40863C18.205 8.40863 18.0868 8.45332 17.9931 8.53621C17.8915 8.62614 17.8309 8.75033 17.8226 8.88573C17.8226 8.88583 17.8226 8.88583 17.8226 8.88583C17.8055 9.16548 18.0191 9.40688 18.2989 9.42399C18.5776 9.4413 18.8199 9.22728 18.8371 8.94763C18.8541 8.66798 18.6405 8.42657 18.3609 8.40956C18.3503 8.40892 18.3397 8.40863 18.3291 8.40863Z" fill="black"/>
<path d="M56.6692 86.0325C56.6243 86.0325 56.5796 86.014 56.5476 85.9778C56.4882 85.9105 56.4944 85.808 56.5616 85.7486L56.9615 85.3948C57.0287 85.3353 57.1314 85.3417 57.1906 85.4088C57.25 85.476 57.2437 85.5785 57.1766 85.6379L56.7767 85.9917C56.7458 86.0191 56.7074 86.0325 56.6692 86.0325Z" fill="black"/>
<path d="M58.18 84.6956C58.135 84.6956 58.0903 84.6771 58.0583 84.6408C57.9989 84.5736 58.0052 84.4711 58.0723 84.4117L58.4722 84.0579C58.5394 83.9984 58.642 84.0047 58.7013 84.0719C58.7607 84.1391 58.7545 84.2416 58.6874 84.301L58.2874 84.6548C58.2566 84.6822 58.2181 84.6956 58.18 84.6956Z" fill="black"/>
<path d="M58.4703 86.1424C58.4254 86.1424 58.3807 86.1239 58.3487 86.0876L57.9949 85.6877C57.9355 85.6205 57.9417 85.518 58.0088 85.4586C58.0759 85.399 58.1788 85.4054 58.2379 85.4725L58.5918 85.8724C58.6512 85.9397 58.6449 86.0422 58.5778 86.1016C58.547 86.129 58.5085 86.1424 58.4703 86.1424Z" fill="black"/>
<path d="M57.1334 84.6317C57.0885 84.6317 57.0438 84.6132 57.0118 84.5769L56.6579 84.177C56.5986 84.1098 56.6048 84.0073 56.6719 83.9478C56.739 83.8882 56.8418 83.8947 56.901 83.9618L57.2549 84.3617C57.3143 84.4289 57.3081 84.5314 57.2409 84.5908C57.2101 84.6182 57.1716 84.6317 57.1334 84.6317Z" fill="black"/>
<path d="M17.2133 35.4646C16.8345 35.4646 16.4527 35.4526 16.0782 35.4287C15.9888 35.423 15.9209 35.3458 15.9266 35.2563C15.9323 35.1669 16.0038 35.0975 16.0989 35.1046C16.5229 35.1317 16.9559 35.1432 17.385 35.1391C17.3855 35.1391 17.386 35.1391 17.3864 35.1391C17.4754 35.1391 17.5479 35.2108 17.5488 35.3C17.5496 35.3896 17.4775 35.463 17.3879 35.4638C17.3296 35.4643 17.2715 35.4646 17.2133 35.4646ZM18.6827 35.4057C18.5988 35.4057 18.5279 35.3412 18.5211 35.2562C18.514 35.1668 18.5807 35.0886 18.67 35.0815C19.0918 35.048 19.5222 34.9992 19.949 34.9365C20.0386 34.924 20.1204 34.9849 20.1333 35.0736C20.1463 35.1623 20.0849 35.2448 19.9962 35.2578C19.5622 35.3215 19.1247 35.371 18.6958 35.4052C18.6913 35.4054 18.687 35.4057 18.6827 35.4057ZM14.7969 35.2979C14.7894 35.2979 14.7818 35.2973 14.7742 35.2963C14.3422 35.2357 13.9081 35.1578 13.4839 35.0646C13.3964 35.0454 13.341 34.9588 13.3602 34.8712C13.3793 34.7837 13.4659 34.7277 13.5536 34.7476C13.9696 34.839 14.3955 34.9154 14.8193 34.9748C14.908 34.9873 14.97 35.0693 14.9575 35.1581C14.9461 35.2392 14.8766 35.2979 14.7969 35.2979ZM21.2506 35.031C21.1756 35.031 21.108 34.9786 21.0919 34.9022C21.0734 34.8144 21.1295 34.7283 21.2173 34.7098C21.6312 34.6226 22.0528 34.5208 22.4707 34.4074C22.5577 34.3836 22.6464 34.4349 22.6699 34.5214C22.6934 34.608 22.6424 34.6972 22.5559 34.7207C22.132 34.8359 21.7041 34.9391 21.2844 35.0276C21.273 35.0298 21.2617 35.031 21.2506 35.031ZM12.2622 34.741C12.2467 34.741 12.2308 34.7388 12.2152 34.734C11.8004 34.6089 11.3834 34.4653 10.9756 34.3074C10.8918 34.2751 10.8503 34.1811 10.8827 34.0975C10.9151 34.014 11.0094 33.9723 11.0926 34.0048C11.4929 34.1596 11.9021 34.3004 12.309 34.4233C12.3948 34.4492 12.4434 34.5398 12.4174 34.6256C12.3963 34.6957 12.3318 34.741 12.2622 34.741ZM23.7569 34.3518C23.6887 34.3518 23.6253 34.3086 23.6027 34.2404C23.5746 34.1552 23.6209 34.0635 23.706 34.0352C24.1071 33.9028 24.5161 33.7562 24.9215 33.5997C25.0053 33.5674 25.0992 33.609 25.1314 33.6927C25.1636 33.7763 25.1221 33.8703 25.0383 33.9026C24.628 34.061 24.214 34.2094 23.8078 34.3435C23.7909 34.3492 23.7737 34.3518 23.7569 34.3518ZM9.84509 33.7976C9.81918 33.7976 9.79288 33.7915 9.76844 33.7784C9.3852 33.5729 9.01817 33.3152 8.67741 33.0123C8.6104 32.9527 8.6044 32.85 8.66399 32.783C8.72372 32.7161 8.82613 32.7101 8.89325 32.7696C9.21484 33.0556 9.56096 33.2987 9.92193 33.4922C10.0009 33.5345 10.0307 33.6329 9.98831 33.712C9.95905 33.7665 9.90301 33.7976 9.84509 33.7976ZM26.181 33.417C26.1186 33.417 26.059 33.3809 26.0323 33.3201C25.9962 33.2381 26.0335 33.1422 26.1155 33.1061C26.5035 32.9353 26.8976 32.7514 27.287 32.5597C27.3677 32.5202 27.4649 32.5532 27.5044 32.6336C27.544 32.714 27.5109 32.8114 27.4305 32.851C27.037 33.0447 26.6386 33.2306 26.2463 33.4033C26.225 33.4126 26.2029 33.417 26.181 33.417ZM28.5129 32.27C28.4553 32.27 28.3996 32.2393 28.3701 32.1851C28.3273 32.1063 28.3566 32.0078 28.4353 31.9649C28.8087 31.7621 29.1873 31.5473 29.5605 31.3262C29.6376 31.2808 29.7372 31.306 29.783 31.3832C29.8286 31.4603 29.8031 31.5599 29.726 31.6056C29.3493 31.8287 28.9673 32.0456 28.5903 32.2503C28.5656 32.2636 28.5391 32.27 28.5129 32.27ZM7.90949 32.0975C7.86023 32.0975 7.8116 32.0752 7.7797 32.0328C7.52182 31.6907 7.28485 31.3135 7.0754 30.9118C7.034 30.8323 7.06483 30.7342 7.14433 30.6928C7.22378 30.6516 7.32187 30.682 7.36331 30.7617C7.56455 31.1476 7.79189 31.5095 8.03909 31.8374C8.09298 31.909 8.07872 32.0108 8.00709 32.0648C7.97788 32.0868 7.94357 32.0975 7.90949 32.0975ZM30.7501 30.946C30.6967 30.946 30.6443 30.9196 30.6134 30.8713C30.565 30.7957 30.587 30.6953 30.6624 30.647C31.0214 30.4169 31.3843 30.1758 31.741 29.9302C31.8148 29.8795 31.9158 29.8979 31.9668 29.9719C32.0176 30.0458 31.999 30.1468 31.9251 30.1976C31.5655 30.4453 31.1996 30.6884 30.8376 30.9203C30.8105 30.9378 30.7801 30.946 30.7501 30.946ZM6.70425 29.808C6.63734 29.808 6.57465 29.7664 6.5511 29.6997C6.40749 29.2923 6.28708 28.8653 6.19332 28.4306C6.17454 28.3429 6.2302 28.2565 6.31786 28.2377C6.40483 28.2196 6.49181 28.2744 6.51084 28.3621C6.60164 28.7836 6.71821 29.1973 6.8574 29.5917C6.8872 29.6763 6.8428 29.769 6.75828 29.7989C6.74039 29.8051 6.7222 29.808 6.70425 29.808ZM32.8923 29.4721C32.8424 29.4721 32.7933 29.4493 32.7615 29.4061C32.7084 29.3337 32.7238 29.2322 32.796 29.179C33.1408 28.9253 33.4879 28.6615 33.8276 28.3949C33.8981 28.3398 34.0002 28.352 34.0556 28.4225C34.1108 28.493 34.0985 28.5951 34.028 28.6505C33.6857 28.9189 33.3359 29.1848 32.9885 29.4405C32.9594 29.4618 32.9257 29.4721 32.8923 29.4721ZM34.939 27.8669C34.8925 27.8669 34.8463 27.847 34.8143 27.8085C34.7568 27.7398 34.7661 27.6373 34.8349 27.5799C35.1665 27.3032 35.4971 27.0188 35.8174 26.7346C35.8844 26.6751 35.987 26.6812 36.0466 26.7483C36.1061 26.8153 36.1 26.918 36.0328 26.9774C35.7101 27.2637 35.377 27.5504 35.0428 27.8291C35.0125 27.8545 34.9757 27.8669 34.939 27.8669ZM6.15468 27.2757C6.07193 27.2757 6.00123 27.2125 5.99327 27.1286C5.96018 26.7764 5.94337 26.4188 5.94337 26.0654C5.94327 25.9812 5.9442 25.8966 5.94612 25.812C5.94814 25.7237 6.02041 25.6534 6.10832 25.6534C6.1096 25.6534 6.11087 25.6534 6.11215 25.6534C6.20178 25.6555 6.27278 25.7298 6.27081 25.8194C6.26889 25.9014 6.26796 25.9833 6.26806 26.0651C6.26806 26.4086 6.28433 26.7561 6.31648 27.0981C6.32494 27.1875 6.2593 27.2666 6.17012 27.2749C6.16491 27.2754 6.15974 27.2757 6.15468 27.2757ZM36.8844 26.139C36.8414 26.139 36.7986 26.122 36.7667 26.0883C36.705 26.0233 36.7077 25.9205 36.7727 25.8589C37.2 25.4536 37.5101 25.1399 37.6951 24.9482C37.7575 24.8835 37.8603 24.8819 37.9246 24.944C37.9892 25.0062 37.991 25.1091 37.9288 25.1735C37.7416 25.3677 37.4278 25.685 36.9962 26.0944C36.9647 26.1242 36.9246 26.139 36.8844 26.139ZM6.21373 24.6841C6.20611 24.6841 6.19849 24.6835 6.19082 24.6825C6.10202 24.6699 6.04022 24.5878 6.05281 24.499C6.11476 24.0606 6.2035 23.6261 6.31658 23.2077C6.33994 23.1211 6.42947 23.07 6.5157 23.0934C6.60223 23.1168 6.65341 23.2059 6.63006 23.2925C6.52037 23.698 6.43433 24.1193 6.3743 24.5445C6.36285 24.6255 6.29333 24.6841 6.21373 24.6841ZM6.893 22.1846C6.87215 22.1846 6.85091 22.1806 6.83041 22.1721C6.74776 22.1375 6.70877 22.0424 6.74334 21.9596C6.91478 21.5498 7.11483 21.153 7.33775 20.7802C7.38392 20.7034 7.48362 20.6784 7.56032 20.7243C7.63736 20.7703 7.66244 20.8701 7.61632 20.9469C7.40137 21.3064 7.20834 21.6893 7.04285 22.085C7.01685 22.1472 6.95652 22.1846 6.893 22.1846ZM8.22489 19.9661C8.18841 19.9661 8.15178 19.954 8.12154 19.9289C8.05242 19.8717 8.04278 19.7694 8.09986 19.7003C8.38128 19.36 8.69108 19.0407 9.02073 18.7508C9.08794 18.6914 9.1907 18.6981 9.24974 18.7655C9.30904 18.8328 9.30235 18.9354 9.23504 18.9945C8.91842 19.2731 8.62057 19.5802 8.35011 19.9072C8.31801 19.946 8.2716 19.9661 8.22489 19.9661ZM10.1665 18.2585C10.1127 18.2585 10.06 18.2317 10.0292 18.1829C9.98123 18.1071 10.0038 18.0069 10.0796 17.959C10.4467 17.727 10.8394 17.5188 11.2469 17.3401C11.3292 17.3041 11.4248 17.3416 11.4609 17.4236C11.4968 17.5057 11.4595 17.6014 11.3774 17.6375C10.9847 17.8097 10.6065 18.0102 10.2532 18.2334C10.2262 18.2504 10.1962 18.2585 10.1665 18.2585Z" fill="#A90466"/>
<path d="M28.2162 50.642C28.1994 50.642 28.1823 50.6393 28.1654 50.6338C28.0802 50.6057 28.034 50.5139 28.062 50.4288C28.0635 50.4244 28.2123 49.9717 28.4362 49.1875C28.4609 49.1013 28.5507 49.0517 28.6369 49.0759C28.723 49.1006 28.773 49.1904 28.7484 49.2766C28.5225 50.0678 28.3719 50.5259 28.3705 50.5304C28.3479 50.5987 28.2844 50.642 28.2162 50.642ZM28.9351 48.1398C28.9215 48.1398 28.9077 48.1381 28.8939 48.1345C28.8071 48.1118 28.7553 48.0231 28.778 47.9363C28.8865 47.522 28.9927 47.0988 29.094 46.6785C29.1149 46.5914 29.2028 46.5379 29.2899 46.5587C29.3769 46.5797 29.4306 46.6674 29.4096 46.7545C29.3079 47.1768 29.2011 47.6021 29.0921 48.0185C29.0729 48.0915 29.0072 48.1398 28.9351 48.1398ZM29.5438 45.6123C29.5323 45.6123 29.5206 45.6112 29.5087 45.6086C29.4212 45.5892 29.3659 45.5026 29.3852 45.415C29.4778 44.9956 29.5676 44.5687 29.6523 44.1462C29.6699 44.0583 29.7554 44.0018 29.8433 44.019C29.9312 44.0366 29.9882 44.1221 29.9705 44.2101C29.8854 44.6345 29.7952 45.0635 29.7022 45.485C29.6856 45.5608 29.6184 45.6123 29.5438 45.6123ZM30.0546 43.0635C30.0451 43.0635 30.0353 43.0627 30.0256 43.061C29.9374 43.0452 29.8787 42.9607 29.8945 42.8724C29.9715 42.445 30.0443 42.0149 30.111 41.5942C30.1251 41.5056 30.208 41.4455 30.2968 41.4594C30.3853 41.4734 30.4457 41.5566 30.4317 41.6452C30.3647 42.0679 30.2914 42.5002 30.2142 42.9299C30.2 43.0085 30.1316 43.0635 30.0546 43.0635ZM30.4612 40.4965C30.4539 40.4965 30.4465 40.496 30.4391 40.495C30.3503 40.4829 30.2881 40.401 30.3002 40.3123C30.3587 39.8824 30.4127 39.4497 30.4606 39.0263C30.4705 38.9372 30.5505 38.8724 30.6401 38.8834C30.7291 38.8934 30.7933 38.9738 30.7831 39.0629C30.735 39.4887 30.6807 39.9237 30.6218 40.356C30.6108 40.4375 30.5412 40.4965 30.4612 40.4965ZM30.752 37.9138C30.7472 37.9138 30.7424 37.9136 30.7376 37.9131C30.6483 37.9053 30.5823 37.8266 30.5901 37.7373C30.6283 37.3015 30.6607 36.867 30.6862 36.4456C30.6916 36.3563 30.7662 36.2876 30.858 36.2934C30.9474 36.2988 31.0156 36.3758 31.0102 36.4653C30.9845 36.8895 30.952 37.3269 30.9134 37.7655C30.9061 37.8501 30.8352 37.9138 30.752 37.9138ZM30.9084 35.3208C30.9067 35.3208 30.9049 35.3208 30.9033 35.3207C30.8136 35.3179 30.7432 35.2429 30.7461 35.1534C30.7597 34.7235 30.7665 34.2943 30.7665 33.8778V33.8595C30.7665 33.7699 30.8393 33.6972 30.9289 33.6972C31.0185 33.6972 31.0912 33.7699 31.0912 33.8595V33.8778C31.0912 34.2977 31.0842 34.7304 31.0706 35.1635C31.0678 35.2515 30.9957 35.3208 30.9084 35.3208ZM30.9056 32.7229C30.8186 32.7229 30.7466 32.6539 30.7434 32.5663C30.7278 32.1308 30.7039 31.6964 30.6724 31.2754C30.6657 31.186 30.7328 31.1081 30.8221 31.1013C30.9104 31.0951 30.9895 31.1617 30.9962 31.2511C31.028 31.6764 31.0521 32.1149 31.0679 32.5547C31.071 32.6443 31.0011 32.7196 30.9114 32.7227C30.9095 32.7229 30.9076 32.7229 30.9056 32.7229ZM30.709 30.1324C30.6279 30.1324 30.5578 30.0719 30.548 29.9893C30.4963 29.5562 30.4345 29.1264 30.3643 28.7115C30.3493 28.6231 30.4088 28.5393 30.4973 28.5244C30.5844 28.5088 30.6694 28.5689 30.6843 28.6573C30.7555 29.0774 30.818 29.5126 30.8703 29.9509C30.881 30.0399 30.8174 30.1207 30.7284 30.1313C30.7218 30.1321 30.7154 30.1324 30.709 30.1324ZM30.2725 27.5727C30.1983 27.5727 30.1314 27.5217 30.1143 27.4463C30.0175 27.0205 29.9085 26.6009 29.7903 26.1994C29.765 26.1134 29.8143 26.0231 29.9002 25.9977C29.9863 25.973 30.0765 26.0216 30.1019 26.1077C30.222 26.5158 30.3327 26.942 30.4309 27.3745C30.4508 27.4619 30.3961 27.5489 30.3086 27.5687C30.2965 27.5715 30.2843 27.5727 30.2725 27.5727ZM29.5365 25.0837C29.4706 25.0837 29.4088 25.0434 29.3844 24.9781C29.2321 24.5703 29.065 24.1715 28.8878 23.7928C28.8497 23.7116 28.8847 23.615 28.966 23.577C29.047 23.5386 29.1439 23.5739 29.1818 23.6552C29.3628 24.0416 29.5334 24.4485 29.6886 24.8646C29.72 24.9486 29.6773 25.0421 29.5933 25.0735C29.5745 25.0804 29.5554 25.0837 29.5365 25.0837ZM28.4332 22.7365C28.3774 22.7365 28.3231 22.7077 28.2928 22.656C28.075 22.2825 27.8399 21.9213 27.5939 21.5822C27.5412 21.5096 27.5573 21.4081 27.6299 21.3555C27.7024 21.3029 27.8041 21.319 27.8566 21.3915C28.1089 21.7393 28.35 22.1097 28.5733 22.4924C28.6184 22.5699 28.5923 22.6692 28.5149 22.7145C28.4892 22.7295 28.461 22.7365 28.4332 22.7365ZM26.909 20.6412C26.8647 20.6412 26.8207 20.6231 26.7887 20.5877C26.5022 20.2708 26.1963 19.9683 25.8794 19.6887C25.8122 19.6293 25.8057 19.5268 25.865 19.4595C25.9243 19.3922 26.0268 19.3859 26.0942 19.4452C26.4203 19.733 26.7349 20.0441 27.0294 20.3699C27.0896 20.4364 27.0844 20.5391 27.0179 20.5992C26.9868 20.6273 26.948 20.6412 26.909 20.6412ZM24.9673 18.9279C24.9352 18.9279 24.9029 18.9184 24.8745 18.8988C24.5283 18.6571 24.1623 18.4311 23.7868 18.227C23.7081 18.1841 23.6789 18.0856 23.7217 18.0068C23.7646 17.9279 23.8635 17.8989 23.942 17.9418C24.328 18.1516 24.7042 18.384 25.0604 18.6324C25.1339 18.6838 25.1519 18.785 25.1007 18.8585C25.069 18.9037 25.0186 18.9279 24.9673 18.9279ZM22.6941 17.6881C22.6734 17.6881 22.6522 17.6842 22.6319 17.6757C22.2452 17.5151 21.8396 17.3693 21.4263 17.2425C21.3406 17.2163 21.2924 17.1255 21.3187 17.0398C21.3449 16.954 21.4359 16.9059 21.5214 16.9323C21.9447 17.0621 22.3602 17.2113 22.7564 17.3758C22.8392 17.4103 22.8785 17.5053 22.844 17.588C22.8182 17.6505 22.7578 17.6881 22.6941 17.6881Z" fill="#A90466"/>
<path d="M74.7521 84.3075C74.7521 84.3075 69.5405 74.1167 72.0731 64.208C72.1578 63.8766 73.4461 64.2454 73.5486 63.915C73.6796 63.4929 72.6306 62.3721 72.7925 61.9531C73.3941 60.3957 74.2161 58.8655 75.3102 57.4045C75.3102 57.4045 77.3748 60.4111 78.4459 65.1044C78.5267 65.4584 77.2097 66.4437 77.2779 66.8164C77.3423 67.1683 78.7926 66.9066 78.8435 67.2741C79.5013 72.0284 78.935 78.0504 74.7521 84.3075Z" fill="#F5D0E6"/>
<path d="M70.2151 72.277C69.9981 71.9804 68.7632 73.0507 68.5428 72.7692C68.3254 72.4916 68.9118 70.4836 68.6923 70.2206C64.3864 65.0604 59.8025 62.6948 59.8025 62.6948C59.3966 65.3756 59.4422 67.9425 59.8176 70.3728C59.8776 70.761 61.6329 71.4085 61.7091 71.7896C61.7929 72.2077 60.3599 72.7296 60.4621 73.139C61.9704 79.1855 65.2637 83.9149 68.527 87.6117C71.0736 86.715 73.3836 85.5887 75.4671 84.2679C74.4654 79.2234 72.5628 75.4866 70.2151 72.277Z" fill="#0097A7"/>
<path d="M71.5033 84.217C71.4511 84.217 71.3998 84.1919 71.3685 84.1454C70.2149 82.4314 69.0903 80.6631 68.0261 78.8897C67.9799 78.8128 68.0049 78.7131 68.0818 78.667C68.1584 78.6208 68.2583 78.6458 68.3045 78.7227C69.3658 80.4913 70.4873 82.2547 71.6378 83.964C71.6879 84.0384 71.6681 84.1394 71.5939 84.1894C71.5661 84.208 71.5345 84.217 71.5033 84.217Z" fill="#F5D0E6"/>
<path d="M66.6784 76.4208C66.6218 76.4208 66.567 76.3912 66.5371 76.3386C64.8174 73.3056 63.2114 70.1592 61.7636 66.9867L61.1016 65.5363C61.0643 65.4547 61.1004 65.3584 61.1819 65.3212C61.2637 65.2838 61.3598 65.3199 61.397 65.4014L62.0589 66.8518C63.5029 70.0158 65.1046 73.1537 66.8196 76.1784C66.8639 76.2564 66.8365 76.3555 66.7585 76.3997C66.7331 76.414 66.7056 76.4208 66.6784 76.4208Z" fill="#F5D0E6"/>
<path d="M74.4564 84.8768C74.4564 84.8768 72.3939 73.9855 83.0561 70.2053C83.0561 70.2053 83.9493 79.7123 74.4564 84.8768Z" fill="#0097A7"/>
<path d="M76.3704 82.0412C76.3527 82.0412 76.3345 82.0383 76.3167 82.0321C76.2322 82.0024 76.1876 81.9098 76.2172 81.8251C77.4404 78.3317 81.2449 72.9222 81.2831 72.868C81.3348 72.7947 81.4364 72.7774 81.5094 72.829C81.5826 72.8807 81.6001 72.9821 81.5484 73.0553C81.5103 73.1092 77.7318 78.4819 76.5236 81.9325C76.5002 81.9993 76.4374 82.0412 76.3704 82.0412Z" fill="#F5D0E6"/>
</svg>
