<svg width="150" height="90" viewBox="0 0 150 90" fill="none" xmlns="http://www.w3.org/2000/svg">
    <path
        d="M18.1408 75.3628C18.2744 76.8267 18.3419 78.2848 18.2129 79.7522C18.1336 80.6535 17.9416 81.5444 17.9075 82.4488C17.489 80.5225 17.7792 77.3308 18.1408 75.3628Z"
        fill="#A1A3C3" />
    <path
        d="M121.221 0.690918C121.698 0.727123 122.063 1.13755 122.359 1.48775C123.009 2.25649 123.509 3.36909 123.622 4.37227C123.748 5.48325 123.447 6.68061 123.471 7.81172C123.545 13.7068 123.545 19.6018 123.471 25.4968C123.458 27.6506 123.722 29.4279 123.811 31.4901C123.873 32.9229 123.79 34.3735 123.655 35.8001C123.578 36.62 123.482 37.4182 123.481 38.2448C123.48 39.8847 123.659 41.6441 123.404 43.2675C123.239 39.913 123.374 36.4893 123.377 33.1264L123.397 13.8847C123.399 11.427 123.692 5.55664 123.118 3.38663C122.786 2.13196 121.711 1.70449 121.278 0.815606C121.258 0.774531 121.24 0.73248 121.221 0.690918Z"
        fill="#E1E7F2" />
    <path
        d="M132.324 56.4453C131.794 56.1686 131.376 55.9197 131 55.439C130.609 54.9397 129.919 53.9505 130.047 53.282C130.094 53.0319 130.232 52.9147 130.436 52.7871C131.246 52.8449 132.415 53.4662 133.014 53.9963C133.088 54.0971 133.153 54.1976 133.216 54.3061C133.45 54.7092 133.644 55.0841 133.519 55.5517C133.586 55.8634 133.613 55.9161 133.495 56.2248C133.179 56.4678 132.71 56.4225 132.324 56.4453Z"
        fill="#F5D0E6" />
    <path
        d="M18.0531 49.3867C18.1274 50.027 18.1339 50.7901 18.3383 51.3973C18.6906 53.9168 18.4539 57.1652 18.4525 59.7793C18.4508 62.5164 18.7347 67.0666 18.2528 69.5852C17.6806 68.1224 18.028 51.9926 18.0531 49.3867Z"
        fill="#C7C9DD" />
    <path
        d="M138.166 48.4025C139.333 48.6194 140.048 46.9355 142.677 47.4445C143.123 47.5307 143.486 47.5966 143.79 47.9624C143.822 48.2231 143.811 48.3436 143.644 48.5582C143.068 49.2935 141.802 49.6005 140.918 49.6522C139.827 49.7158 138.976 49.2307 137.945 49.1609C138.13 49.1229 138.27 49.131 138.402 48.9922L138.195 48.7418L138.166 48.4025Z"
        fill="#0097A7" />
    <path
        d="M132.225 48.4019L132.346 48.411C133.447 48.5033 134.271 48.7436 135.019 49.615C135.644 50.341 135.452 50.9626 135.819 51.7315L135.901 51.5773C136.196 51.6096 136.333 51.5772 136.551 51.785L136.542 51.8728C136.527 51.9152 136.513 51.9574 136.5 51.9999C136.451 52.1519 136.449 52.2803 136.454 52.4397C136.618 52.588 136.603 52.6063 136.819 52.5967L136.603 52.6318L136.655 52.6258C136.381 52.7378 136.089 52.7937 135.819 52.9055C135.726 52.7894 135.658 52.6299 135.587 52.4987L135.247 52.4323C133.972 51.6405 132.572 51.6098 132.448 49.74C132.421 49.3128 132.458 48.8504 132.257 48.4614C132.247 48.4411 132.236 48.4217 132.225 48.4019Z"
        fill="#F5D0E6" />
    <path
        d="M136.543 51.8724C136.987 51.9622 137.29 51.7504 137.718 51.6291C139.028 51.2592 140.56 51.4227 141.539 52.4522C141.424 52.8485 140.975 53.2321 140.62 53.4291C139.495 54.0533 137.836 53.8174 136.671 53.438C136.235 53.2964 136.105 53.2258 135.664 53.4109C135.787 53.2201 135.821 53.1334 135.82 52.9052C136.09 52.7933 136.382 52.7375 136.656 52.6254L136.604 52.6314L136.82 52.5964C136.604 52.606 136.619 52.5876 136.455 52.4394C136.45 52.2799 136.452 52.1515 136.5 51.9996C136.513 51.957 136.528 51.9148 136.543 51.8724Z"
        fill="#0097A7" />
    <path
        d="M137.187 48.7618C136.474 47.9934 135.502 47.5273 134.859 46.6621C134.363 45.995 134.147 45.2172 134.274 44.3931C134.314 44.1344 134.298 44.0411 134.519 43.8779C134.877 43.8844 135.181 43.9586 135.507 44.1151C136.522 44.6025 137.229 46.0512 137.376 47.1325C137.424 47.4711 137.365 47.9124 137.493 48.2256C137.508 48.2605 137.524 48.2949 137.539 48.3296L137.294 48.6253C137.522 48.8224 137.697 48.9182 137.988 48.9998L138.148 48.9399L138.195 48.7422L138.403 48.9925C138.27 49.1314 138.13 49.1232 137.945 49.1612C137.738 49.7899 137.072 51.3986 136.551 51.7852C136.332 51.5774 136.196 51.6098 135.901 51.5775C135.99 51.4973 136.065 51.4093 136.135 51.3134C136.517 50.7891 137.278 49.3655 137.187 48.7618Z"
        fill="#0097A7" />
    <path
        d="M137.54 48.3293C137.582 48.3027 137.624 48.2777 137.664 48.2496C138.29 47.816 138.749 46.434 138.848 45.6974C139.059 44.1242 138.776 42.581 140.198 41.4777C140.471 41.267 141.069 40.8768 141.421 40.9418C141.566 40.9687 141.837 41.0244 141.908 41.1658C142.176 41.6866 141.965 43.0183 141.725 43.5436C141.216 44.6595 140.101 45.2612 139.384 46.2033C138.875 46.8701 138.78 47.815 138.167 48.4025L138.196 48.7419L138.149 48.9396L137.989 48.9995C137.699 48.9178 137.523 48.8221 137.295 48.625L137.54 48.3293Z"
        fill="#0097A7" />
    <path
        d="M125.296 60.354C125.319 60.6558 125.079 60.8006 125.188 61.0729C125.382 61.1292 125.579 61.1393 125.696 61.3224C125.947 61.717 125.871 62.4259 125.756 62.8533C125.551 63.615 125.024 64.4231 124.667 65.1342C125.732 67.3527 126.54 69.7114 127.381 72.0234C127.71 72.9281 127.932 73.9842 128.418 74.8125L128.642 74.8425C128.782 74.6708 128.793 74.5412 128.853 74.3358C128.856 74.3285 128.861 74.3229 128.866 74.3164C128.911 74.6273 128.944 74.6953 128.808 74.9888C128.329 75.1775 127.799 75.0999 127.29 75.1242L127.186 75.0687C127.282 72.9976 125.104 68.5814 124.508 66.345L124.612 66.3292L124.671 66.1187C124.526 65.6282 124.397 64.6715 124.046 64.3245C123.596 64.2485 123.257 64.4737 122.844 64.6512C123.086 64.2204 123.197 64.0279 123.13 63.5377C122.871 63.1041 122.367 62.8283 121.961 62.5401C122.234 62.599 122.508 62.6484 122.784 62.6943C122.788 62.6709 122.791 62.6472 122.796 62.6242C122.971 61.8845 124.644 60.7375 125.296 60.354Z"
        fill="#0097A7" />
    <path
        d="M123.362 55.7656C123.332 56.688 124.294 57.4737 124.528 58.3634C124.829 59.0159 125.067 59.6746 125.297 60.3539C124.645 60.7374 122.972 61.8844 122.797 62.6241C122.792 62.6471 122.789 62.6708 122.784 62.6942C122.509 62.6482 122.235 62.5989 121.962 62.54L121.519 62.3198L121.418 62.1622C120.727 62.1023 119.866 61.999 119.211 62.261C118.808 62.2554 118.289 62.2828 117.92 62.1107C117.659 61.9891 117.612 61.8478 117.514 61.592C117.54 61.2395 117.714 61.0025 117.896 60.7138L118.051 60.8557C118.29 60.6197 118.561 60.4079 118.817 60.1894C119.032 59.9584 119.232 59.7663 119.346 59.4666C119.531 59.3824 119.593 59.358 119.709 59.1817C120.1 58.5883 120.35 58.5079 121.01 58.3056C121.071 58.7013 121.418 58.8838 121.715 59.1099L123.263 57.2942C123.27 56.7794 123.308 56.2775 123.362 55.7656Z"
        fill="#A1A3C3" />
    <path
        d="M121.52 62.3197C121.855 62.1047 122.228 61.9865 122.562 61.7531C123.543 61.0661 124.14 60.1539 124.34 58.9533C124.368 58.7869 124.39 58.6558 124.462 58.5008C124.483 58.4547 124.506 58.4092 124.528 58.3633C124.829 59.0158 125.067 59.6744 125.297 60.3537C124.645 60.7372 122.972 61.8842 122.797 62.6239C122.792 62.647 122.789 62.6707 122.785 62.694C122.509 62.6481 122.235 62.5987 121.962 62.5398L121.52 62.3197Z"
        fill="#3E3E60" />
    <path
        d="M118.816 60.1891C118.854 60.1771 118.892 60.1654 118.929 60.1529C119.341 60.0151 119.942 59.5196 120.316 59.5299C120.647 59.7181 120.743 60.0863 120.886 60.4213C121.31 60.7513 121.497 61.1395 121.562 61.6699C121.583 61.8363 121.479 62.0066 121.418 62.1618C120.727 62.1019 119.866 61.9987 119.211 62.2607C118.808 62.255 118.289 62.2825 117.92 62.1104C117.659 61.9888 117.612 61.8475 117.514 61.5917C117.54 61.2392 117.714 61.0022 117.896 60.7135L118.051 60.8554C118.29 60.6193 118.561 60.4076 118.816 60.1891Z"
        fill="#0097A7" />
    <path
        d="M118.815 60.1891C118.853 60.1771 118.89 60.1654 118.928 60.1529C119.34 60.0151 119.941 59.5196 120.315 59.5299C120.645 59.7181 120.741 60.0863 120.885 60.4213L120.124 60.5547C119.353 60.6877 118.767 61.3564 118 61.4925L117.877 61.383C117.929 61.204 117.979 61.028 118.05 60.8554C118.289 60.6193 118.56 60.4076 118.815 60.1891Z"
        fill="#E1E7F2" />
    <path
        d="M135.247 52.4321L135.587 52.4985C135.659 52.6297 135.727 52.7893 135.819 52.9054C135.821 53.1337 135.787 53.2203 135.664 53.4111C135.745 53.9615 134.997 55.5754 134.645 56.0041C134.59 56.0713 134.511 56.1375 134.449 56.1938C135.899 55.65 137.46 54.9538 139 55.7214C139.251 55.8464 139.365 55.9818 139.507 56.2184C139.528 56.5494 139.52 56.741 139.28 57.0074C138.664 57.6943 137.401 57.9635 136.516 57.9599C135.568 57.9562 134.999 57.4787 134.164 57.1404C134.125 57.6526 133.597 59.0845 133.211 59.4292C133.054 59.8778 132.901 60.5305 132.541 60.8511C132.611 61.0703 132.679 61.2804 132.715 61.5088C132.575 61.7591 132.549 61.8403 132.256 61.9259C132.05 61.9861 131.873 61.9885 131.666 61.9353L131.727 61.7379C131.47 61.3911 130.364 61.3008 129.949 61.0466C129.262 60.6251 128.711 59.8525 128.51 59.0733C128.391 58.6101 128.343 58.1874 128.587 57.7628C128.756 57.6708 128.831 57.6005 129.028 57.6008C129.996 57.6021 131.395 58.7822 131.809 59.62C131.958 59.9265 131.943 60.515 132.16 60.7342L132.217 60.5004C132.767 59.7551 133.373 57.7765 133.383 56.8533C133.118 56.6195 132.66 56.544 132.324 56.4452C132.71 56.4224 133.179 56.4677 133.495 56.2247C133.613 55.9161 133.585 55.8633 133.519 55.5516C133.728 55.6607 133.872 55.7591 134.117 55.7099C134.339 55.1491 135.357 53.2155 135.361 52.808C135.362 52.714 135.276 52.5294 135.247 52.4321Z"
        fill="#0097A7" />
    <path
        d="M128.883 73.5405C129.408 71.6805 129.563 69.7119 130.14 67.874C130.363 68.1919 129.682 70.8366 129.703 71.5286L129.709 71.6713C129.499 72.7839 129.249 73.9171 129.241 75.0539C132.131 75.0515 135.031 75.0013 137.92 75.0723C138.146 75.6277 138.15 76.125 137.956 76.6896C137.154 77.0371 131.947 76.794 130.7 76.7844C130.207 76.4342 124.79 76.5899 123.813 76.6185C123.385 76.5878 123.167 76.5966 122.821 76.3467C122.601 75.9225 122.66 75.3986 122.657 74.9297C124.168 74.9473 125.677 74.9936 127.185 75.0685L127.289 75.1241C127.798 75.0997 128.328 75.1773 128.806 74.9886C128.943 74.6951 128.91 74.6271 128.865 74.3162L128.883 73.5405Z"
        fill="#DC4CA0" />
    <path
        d="M137.957 76.6895L137.896 76.856C137.502 76.9234 137.119 76.9304 136.722 76.9356C136.871 77.7561 136.296 83.0371 135.96 83.6196C135.895 83.733 135.879 83.7351 135.793 83.8075C135.845 83.6646 135.869 83.5276 135.9 83.3784C135.534 82.8093 133.885 82.4963 133.25 81.9607C131.594 80.5676 130.904 78.8991 130.701 76.7843C131.948 76.7938 137.155 77.0369 137.957 76.6895Z"
        fill="#F5D0E6" />
    <path
        d="M132.541 60.8511C132.901 60.5304 133.053 59.8778 133.211 59.4292C133.311 59.9135 133.149 60.2954 132.888 60.6965C132.802 60.8276 132.715 60.9582 132.619 61.0824C134.031 60.5064 135.185 59.5446 136.784 60.209C137.124 60.3509 137.531 60.5402 137.807 60.7892C137.698 61.2341 137.16 61.7564 136.774 61.9908C135.446 62.7992 133.694 62.5454 132.279 62.1611C132.335 62.8648 131.572 65.227 131.113 65.7856C131.053 65.859 131.048 65.8608 130.99 65.9202L131.084 65.8686C132.582 65.0338 133.642 63.9413 135.519 64.4686C135.74 64.5307 135.881 64.6339 136.054 64.7784C136.161 65.04 136.224 65.1788 136.122 65.4686C135.873 66.1751 134.984 66.7822 134.313 67.0473C133.415 67.4028 132.086 67.6524 131.166 67.2858C131.04 67.2353 131.087 67.254 130.917 67.2796C130.705 67.8756 129.776 71.1636 129.711 71.6711L129.704 71.5284C129.683 70.8365 130.364 68.1917 130.142 67.8738C129.565 69.7117 129.409 71.6804 128.884 73.5403C128.968 71.2899 129.456 69.2306 130.025 67.063C129.237 66.8299 128.463 66.627 127.79 66.1305C126.757 65.3674 126.576 64.2465 126.41 63.0563C127.384 63.2419 128.477 63.4281 129.275 64.067C129.767 64.4625 130.254 65.133 130.34 65.7738C130.356 65.7574 130.374 65.7418 130.39 65.7248C130.766 65.3234 131.663 62.5251 131.666 61.9353C131.873 61.9885 132.05 61.9861 132.256 61.9259C132.549 61.8403 132.575 61.7591 132.715 61.5088C132.679 61.2804 132.611 61.0703 132.541 60.8511Z"
        fill="#0097A7" />
    <path
        d="M123.814 76.6182C124.791 76.5896 130.208 76.4339 130.701 76.7841C130.903 78.8989 131.594 80.5674 133.249 81.9606C133.885 82.4962 135.533 82.8092 135.9 83.3782C135.869 83.5274 135.845 83.6645 135.793 83.8073C135.93 84.3687 135.798 85.1166 135.652 85.6733C135.747 85.9118 135.796 85.9368 135.705 86.1871C135.439 86.3225 135.206 86.3123 134.911 86.315C134.958 86.6594 134.99 87.0083 134.76 87.2981C134.698 87.3752 134.645 87.4211 134.572 87.4932C133.945 87.6697 127.05 87.5515 125.985 87.4817L125.878 87.3494C125.676 87.0947 125.503 86.9308 125.221 86.7669C125.099 86.7273 125.049 86.6859 124.956 86.5948C124.543 86.1908 124.238 85.7293 124.074 85.1729C123.526 83.3211 123.808 78.7578 123.814 76.6182Z"
        fill="#F5D0E6" />
    <path
        d="M125.221 86.28C124.974 85.9821 124.699 85.7274 124.598 85.3447C124.643 85.3243 124.686 85.2967 124.734 85.2832C125.037 85.1981 135.424 85.3108 135.615 85.3944L135.652 85.6735C135.748 85.912 135.797 85.937 135.706 86.1873C135.44 86.3227 135.207 86.3125 134.912 86.3153C133.389 86.2341 131.814 86.3271 130.282 86.3219C128.594 86.3162 126.908 86.2227 125.221 86.28Z"
        fill="#F5D0E6" />
    <path
        d="M125.221 86.2797C126.908 86.2224 128.594 86.3159 130.282 86.3216C131.814 86.3268 133.389 86.2338 134.912 86.315C134.959 86.6593 134.991 87.0082 134.761 87.298C134.699 87.3751 134.646 87.4211 134.573 87.4932C133.946 87.6696 127.051 87.5515 125.986 87.4816L125.879 87.3493C125.724 86.8881 125.542 86.633 125.221 86.2797Z"
        fill="#DC4CA0" />
    <path
        d="M18.3378 51.397C19.97 51.3491 21.606 51.4107 23.2391 51.4003C25.8898 51.3834 28.5664 51.3134 31.214 51.4368C31.4827 54.1012 31.4339 56.7743 31.6757 59.433L31.7388 66.1147C31.7621 67.3148 31.7033 68.5405 31.9365 69.7241C32.0181 72.355 31.7576 80.5738 31.0653 82.8771L30.8334 83.0313C30.4686 83.5906 30.6758 84.519 30.791 85.165C30.851 85.2364 30.9003 85.3168 30.9839 85.36C30.116 85.5621 29.231 85.4051 28.3482 85.6498L28.1402 85.6046C27.8776 86.3544 27.7821 87.1601 27.7261 87.9503C26.9606 87.8047 25.9334 87.9122 25.1413 87.9096C25.014 87.324 24.7989 86.6741 24.3495 86.2534C23.813 85.7511 23.2044 85.7506 22.5182 85.755C21.8064 85.7732 21.1133 85.6485 20.3837 85.6969C19.6723 85.8884 18.6228 85.7782 17.9062 85.6387L17.9393 85.5071C18.3864 84.6724 18.3263 83.6064 18.0875 82.7138L17.908 82.4485C17.9421 81.544 18.1342 80.6532 18.2135 79.7518C18.3425 78.2845 18.2749 76.8264 18.1413 75.3624C18.1881 73.4369 18.2251 71.511 18.2522 69.5849C18.7342 67.0664 18.4503 62.5161 18.4519 59.779C18.4534 57.1649 18.6901 53.9166 18.3378 51.397Z"
        fill="#3E3E60" />
    <path
        d="M25.2287 63.2422C25.5768 65.0273 26.1623 66.7172 26.5348 68.4841C27.0879 71.1079 27.324 73.8097 27.5616 76.4777C27.6651 77.6392 27.772 82.1615 28.1282 82.8119C29.0288 83.0069 29.9469 82.8703 30.8334 83.0319C30.4686 83.5912 30.6758 84.5195 30.791 85.1655C30.851 85.237 30.9003 85.3173 30.9839 85.3605C30.116 85.5626 29.231 85.4056 28.3482 85.6503L28.1402 85.6052C27.8776 86.3549 27.7821 87.1607 27.7261 87.9509C26.9606 87.8052 25.9334 87.9127 25.1413 87.9101C25.014 87.3245 24.7989 86.6746 24.3495 86.2539C23.813 85.7516 23.2044 85.7511 22.5182 85.7555C21.8064 85.7737 21.1133 85.649 20.3837 85.6974C19.6723 85.889 18.6228 85.7787 17.9062 85.6393L17.9393 85.5076C18.3864 84.6729 18.3263 83.6069 18.0875 82.7143C19.0211 82.6865 19.9546 82.6517 20.8878 82.6099C21.4275 81.0905 21.6661 79.4324 22.0495 77.866C23.2402 73.02 24.2999 68.1453 25.2287 63.2422Z"
        fill="#FEFEFE" />
    <path
        d="M28.1289 82.8115C29.0295 83.0065 29.9476 82.87 30.8341 83.0315C30.4693 83.5908 30.6765 84.5192 30.7917 85.1652C30.8517 85.2366 30.901 85.317 30.9846 85.3601C30.1167 85.5623 29.2317 85.4053 28.3489 85.6499C28.3854 85.5551 28.3891 85.5516 28.4191 85.4363C28.6528 84.5346 28.6068 83.615 28.1289 82.8115Z"
        fill="#F9D3BB" />
    <path
        d="M18.0875 82.7138C19.0211 82.6859 19.9546 82.6512 20.8878 82.6094C20.5741 83.2585 19.9599 84.8421 20.2776 85.5472C20.318 85.6365 20.3256 85.6363 20.3837 85.6968C19.6723 85.8884 18.6228 85.7782 17.9062 85.6387L17.9393 85.5071C18.3864 84.6724 18.3263 83.6064 18.0875 82.7138Z"
        fill="#FBC3AE" />
    <path
        d="M27.3908 17.6643C27.4256 14.8152 26.7715 3.99693 27.6813 2.04869C28.0243 1.31437 28.7275 0.58232 29.5003 0.312814C31.059 -0.230581 38.4747 0.0991579 40.6198 0.0986709L65.3095 0.127569L102.852 0.0989954C108.089 0.106951 113.374 -0.0648195 118.605 0.0890911C119.519 0.115879 120.39 0.308917 121.22 0.690934C121.239 0.732496 121.257 0.774546 121.277 0.815622C121.711 1.7045 122.785 2.13198 123.118 3.38664C123.692 5.55665 123.399 11.427 123.396 13.8847L123.377 33.1265C123.374 36.4893 123.239 39.913 123.404 43.2675C123.373 46.0607 123.366 48.854 123.384 51.6474C123.386 53.0017 123.469 54.4171 123.361 55.7654C123.307 56.2773 123.27 56.7792 123.263 57.294L121.714 59.1098C121.418 58.8836 121.07 58.7011 121.009 58.3055C121.284 58.1027 121.542 57.8773 121.755 57.6094C122.128 57.142 122.498 56.5246 122.433 55.9124C122.214 55.5755 121.613 55.5836 121.219 55.4714L121.142 55.449C121.812 54.0766 121.141 52.7121 120.904 51.322C120.798 50.7004 120.785 50.0761 120.774 49.4473C120.815 46.4483 120.743 43.4474 120.821 40.4491C120.615 39.943 120.543 39.4189 120.508 38.8773C120.279 35.2819 120.456 31.5836 120.46 27.9747L120.501 7.10079C111.093 7.16386 101.686 7.17263 92.2788 7.12709L62.2048 7.10582L47.8062 7.09706C46.2057 7.09673 42.8433 7.36786 41.4218 6.98779C37.5283 6.96539 33.6088 6.87463 29.7177 6.99201C29.76 8.24846 29.7331 18.0591 29.8913 18.2262C30.0556 18.4001 30.4694 18.4369 30.6978 18.4834C30.872 18.2874 31.104 18.1246 31.308 17.9585C31.6993 18.7972 31.8225 19.5223 31.4928 20.4275C31.2898 20.9847 30.9789 21.4807 30.6127 21.9418L30.5105 22.0725C30.4899 22.0985 30.4687 22.124 30.4477 22.1498C30.2508 22.3985 30.1567 22.567 29.8195 22.6247C29.1989 22.7307 28.8156 22.6893 28.3477 23.2148C28.0322 23.5692 27.814 24.103 27.5992 24.5248C27.4485 24.4096 27.2474 24.3151 27.1959 24.1306C27.0771 23.7056 27.0066 23.3221 26.7146 22.9784C26.4905 22.8947 26.4408 22.8519 26.2071 22.9505C25.9467 23.0601 25.7371 23.3536 25.6402 23.6118C25.5395 23.8803 25.5411 24.3148 25.6734 24.575C25.7219 24.6705 25.7787 24.77 25.8767 24.8184C26.0467 25.2119 26.2499 25.5681 26.0647 25.9969C25.8814 26.4213 25.4743 26.7319 25.2228 27.1116C24.583 27.6242 24.0657 27.749 23.2438 27.6823C23.0648 26.6593 22.0576 26.233 21.3543 25.5542C20.7391 24.9603 20.6065 24.2427 20.5942 23.4268C20.5819 22.619 20.809 21.161 21.6283 20.7688C21.7998 20.6868 22.061 20.7121 22.2254 20.6293C22.476 20.503 23.4027 18.5692 23.8209 18.1715C24.6548 17.3787 26.3293 17.6047 27.3908 17.6643Z"
        fill="url(#paint0_linear_4153_16919)" />
    <path
        d="M30.6984 18.4834C30.8726 18.2874 31.1046 18.1246 31.3086 17.9585C31.6999 18.7972 31.8231 19.5223 31.4934 20.4276C31.2904 20.9848 30.9795 21.4807 30.6133 21.9418L30.5111 22.0725C30.4905 22.0985 30.4693 22.124 30.4483 22.1498C30.0172 22.3636 29.6 22.5625 29.1143 22.4414C28.8494 21.8136 30.8233 20.1074 30.6984 18.4834Z"
        fill="#3E3E60" />
    <path
        d="M120.445 5.85352C120.656 6.10955 120.809 6.31249 120.849 6.6484C121.057 8.38476 120.932 10.2684 120.933 12.0192L120.919 22.4621L120.939 33.8437C120.942 35.9091 121.042 38.0367 120.87 40.0929C120.86 40.2145 120.841 40.3293 120.821 40.4493C120.615 39.9433 120.542 39.4192 120.508 38.8776C120.278 35.2821 120.456 31.5839 120.459 27.9749L120.501 7.10103L120.445 5.85352Z"
        fill="#C7C9DD" />
    <path
        d="M31.1036 2.96551C33.2026 2.73611 35.3639 2.91486 37.473 2.90349C40.0542 2.88937 42.6896 2.72344 45.2632 2.87329C45.5985 2.89294 45.9052 2.95561 46.2235 3.06276C46.0667 3.10546 45.9247 3.14215 45.8016 3.25498C45.1403 3.8617 44.6448 4.95531 44.1007 5.69158C43.7925 6.10899 43.4035 6.45041 43.0796 6.8511L41.4208 6.9878C37.5274 6.9654 33.6079 6.87464 29.7167 6.99203C29.6876 6.2978 29.6086 5.53085 29.748 4.84507C29.9252 3.97421 30.3965 3.44543 31.1036 2.96551Z"
        fill="#F5D0E6" />
    <path
        d="M40.4633 3.93585C40.5633 3.93325 40.5789 3.92822 40.6918 3.9529C40.9394 4.0068 41.3063 4.16282 41.4414 4.39352C41.5661 4.60604 41.5807 4.7908 41.5308 5.0306C41.445 5.44216 41.1501 5.60663 40.8183 5.82288C40.6554 5.83213 40.479 5.84674 40.3172 5.8219C40.1025 5.78895 39.9112 5.62789 39.805 5.44378C39.6479 5.17168 39.6601 4.89 39.7464 4.59565C39.8673 4.18344 40.1084 4.11346 40.4633 3.93585Z"
        fill="#FEFEFE" />
    <path
        d="M46.2245 3.06245C48.2703 3.21067 50.3697 3.12284 52.4217 3.12463L63.5753 3.13697L100.02 3.14849L111.837 3.10563C113.713 3.10579 115.818 2.94506 117.665 3.20499C118.344 3.30029 118.971 3.66624 119.418 4.18496C119.835 4.67039 120.243 5.21898 120.439 5.83446C120.441 5.84063 120.443 5.8468 120.445 5.85297L120.501 7.10049C111.094 7.16356 101.686 7.17233 92.2788 7.12679L62.2049 7.10552L47.8063 7.09676C46.2058 7.09643 42.8434 7.36756 41.4219 6.98749L43.0806 6.85079C43.4045 6.4501 43.7936 6.10867 44.1017 5.69126C44.6458 4.95499 45.1414 3.86138 45.8026 3.25467C45.9257 3.14184 46.0677 3.10515 46.2245 3.06245Z"
        fill="#E1E7F2" />
    <path
        d="M31.6756 59.4331C31.7242 59.7362 31.7223 60.0424 31.9145 60.2856C35.1947 60.4996 38.5948 60.2835 41.8863 60.2658L59.4662 60.2488L116.522 60.3145C116.916 60.3424 117.576 60.3247 117.853 60.6465C117.871 60.6665 117.882 60.691 117.896 60.7134C117.713 61.0021 117.54 61.2391 117.513 61.5916C117.611 61.8475 117.658 61.9887 117.919 62.1103C118.289 62.2824 118.808 62.255 119.21 62.2606C119.865 61.9986 120.727 62.1019 121.417 62.1618L121.519 62.3194L121.961 62.5396C122.368 62.8277 122.871 63.1036 123.13 63.5372C123.198 64.0274 123.086 64.2199 122.844 64.6506C123.257 64.4732 123.596 64.248 124.046 64.324C124.397 64.6709 124.526 65.6277 124.672 66.1182L124.612 66.3287L124.509 66.3445C125.104 68.5809 127.282 72.997 127.187 75.0682C125.678 74.9933 124.169 74.947 122.659 74.9294C122.662 75.3982 122.603 75.9222 122.823 76.3464C123.168 76.5963 123.387 76.5875 123.814 76.6182C123.809 78.7578 123.527 83.3211 124.074 85.1729C124.239 85.7292 124.543 86.1908 124.956 86.5948C125.05 86.6858 125.099 86.7272 125.222 86.7668C125.503 86.9308 125.676 87.0946 125.878 87.3494L125.985 87.4817C127.051 87.5515 133.945 87.6697 134.573 87.4932C134.576 87.6611 134.59 87.7069 134.657 87.8538C135.639 88.1644 136.944 88.0176 137.975 88.0064L143.876 88.0009C145.264 87.9946 146.99 87.7866 148.337 88.1139C148.79 88.2236 149.09 88.3852 149.329 88.7868C149.336 89.0091 149.376 89.1109 149.226 89.2895C148.887 89.6887 148.107 89.8095 147.606 89.8528C146.084 89.984 144.487 89.8819 142.952 89.8795L134.542 89.8822L107.069 89.9149L3.84847 89.9475C3.05559 89.9496 1.69028 90.1943 1.06191 89.6067C0.840151 89.3994 0.644667 89.0335 0.661126 88.7222C0.674585 88.4696 0.83472 88.1863 1.01991 88.0199C1.28366 87.7827 1.69555 87.7895 2.0326 87.7668C3.40553 87.6742 4.83433 87.7997 6.21391 87.7928C9.80488 87.7747 13.3805 87.7551 16.9713 87.8377C17.0114 87.0935 16.9746 86.2731 17.3672 85.6172C17.6394 85.431 17.6333 85.4567 17.939 85.5072L17.9059 85.6388C18.6224 85.7783 19.6719 85.8885 20.3833 85.6969C21.113 85.6486 21.8061 85.7732 22.5179 85.7551C23.2041 85.7507 23.8126 85.7512 24.3492 86.2535C24.7986 86.6741 25.0137 87.324 25.141 87.9096C25.933 87.9122 26.9603 87.8048 27.7258 87.9504C27.7818 87.1602 27.8772 86.3545 28.1399 85.6047L28.3479 85.6499C29.2307 85.4052 30.1157 85.5622 30.9836 85.3601C30.8999 85.3169 30.8506 85.2365 30.7907 85.1651C30.6754 84.5191 30.4683 83.5907 30.8331 83.0314L31.065 82.8772C31.7572 80.5739 32.0177 72.3551 31.9362 69.7242C31.703 68.5406 31.7618 67.3149 31.7385 66.1147L31.6756 59.4331Z"
        fill="#C7C9DD" />
    <path
        d="M17.9079 85.6392C18.6244 85.7786 19.6739 85.8889 20.3853 85.6973C21.1149 85.6489 21.808 85.7736 22.5198 85.7554C22.7663 85.8359 23.0147 85.9092 23.2566 86.0036C23.8232 86.2251 24.236 86.6243 24.4608 87.1909C24.5888 87.5139 24.6348 87.7382 24.4961 88.0512C23.3316 88.3492 18.7877 88.1271 17.2637 88.1199C17.3247 87.2984 17.3184 86.2706 17.9079 85.6392Z"
        fill="#3E3E60" />
    <path
        d="M30.9845 85.3601C32.4617 85.2878 33.3211 86.0806 34.6647 86.4031L34.8743 86.9343C35.1641 87.1921 35.3059 87.4126 35.4621 87.7668L35.4522 88.049L35.3277 88.1112L35.1204 88.036L35.1688 88.1209C33.9266 88.1253 28.6257 88.3008 27.8192 88.0503L27.7266 87.9504C27.7825 87.1603 27.8779 86.3545 28.1406 85.6048L28.3486 85.6499C29.2315 85.4052 30.1165 85.5622 30.9845 85.3601Z"
        fill="#3E3E60" />
    <path
        d="M30.9825 85.3601C32.4598 85.2878 33.3191 86.0806 34.6627 86.4031L34.8723 86.9343C33.8559 86.2482 32.7237 85.9843 31.5633 85.628C30.3787 86.2027 29.3512 85.9361 28.1387 85.6048L28.3466 85.6499C29.2295 85.4052 30.1145 85.5622 30.9825 85.3601Z"
        fill="#D2A09F" />
    <path
        d="M64.4937 84.5386C65.7058 84.2568 67.1646 84.3928 68.4086 84.3909L75.8246 84.4164C79.1252 84.4206 82.51 84.1665 85.7962 84.4545C88.4482 84.4229 92.4824 83.8524 94.5235 85.8586C94.7827 86.1135 94.9431 86.3571 95.0615 86.6997C95.0387 86.9648 95.0414 87.123 94.8223 87.3152C94.5617 87.5435 94.0949 87.6047 93.7588 87.63C92.6654 87.7121 91.5176 87.6149 90.4181 87.6131L83.198 87.618L66.2526 87.6594C62.3953 87.6586 58.5233 87.5889 54.668 87.6944C54.8325 86.6479 55.0837 85.9988 55.8566 85.2426C57.8533 83.8629 63.4688 85.1679 64.4937 84.5386Z"
        fill="#3E3E60" />
    <path
        d="M64.517 69.4476C65.9105 69.4075 67.3058 69.4971 68.6998 69.5117L77.4778 69.5408C79.1895 69.5318 80.901 69.5088 82.6123 69.4718C83.5854 69.4524 84.7383 69.3182 85.6901 69.4847C85.6832 71.3122 85.4659 83.4023 85.7634 84.3516L85.7951 84.4548C82.509 84.1668 79.1241 84.4209 75.8235 84.4167L68.4076 84.3912C67.1635 84.3931 65.7047 84.2571 64.4926 84.5389C64.4893 83.0058 64.5068 81.4728 64.5451 79.9401C64.7948 78.3845 64.7122 74.9474 64.5219 73.3445C64.4676 72.0507 64.5109 70.7428 64.517 69.4476Z"
        fill="url(#paint1_linear_4153_16919)" />
    <path
        d="M31.9362 69.7246L31.9897 69.4877C32.603 69.1226 61.0696 69.622 64.5166 69.4476C64.5104 70.7429 64.4671 72.0508 64.5215 73.3446C64.7118 74.9475 64.7943 78.3845 64.5447 79.9402C64.5063 81.4729 64.4888 83.0058 64.4921 84.539C63.4673 85.1683 57.8517 83.8633 55.8551 85.243C55.3862 85.3452 55.1187 85.4691 54.8465 85.8781C54.4939 86.4077 54.3803 87.1144 54.259 87.7273C48.1593 87.6788 42.0597 87.6955 35.9603 87.7776C35.603 87.3042 35.2053 86.6799 34.6639 86.4035C33.3203 86.081 32.4609 85.2883 30.9837 85.3605C30.9 85.3173 30.8507 85.2369 30.7908 85.1655C30.6755 84.5195 30.4683 83.5912 30.8331 83.0319L31.0651 82.8776C31.7572 80.5743 32.0178 72.3555 31.9362 69.7246Z"
        fill="#FEFEFE" />
    <path
        d="M64.5203 73.3442C64.7106 74.9471 64.7931 78.3842 64.5435 79.9398C64.4841 79.758 64.3686 79.5851 64.2982 79.4042C63.935 78.4705 64.0844 74.302 64.5203 73.3442Z"
        fill="#C7C9DD" />
    <path
        d="M123.93 64.9414L124.509 66.3445C125.104 68.5809 127.283 72.997 127.187 75.0682C125.679 74.9933 124.17 74.947 122.659 74.9294C122.662 75.3982 122.603 75.9222 122.823 76.3464C123.169 76.5962 123.387 76.5875 123.815 76.6182C123.809 78.7578 123.527 83.3211 124.075 85.1729C124.239 85.7292 124.544 86.1908 124.957 86.5947C125.051 86.6858 125.1 86.7272 125.222 86.7668C125.291 86.8982 125.362 87.0154 125.38 87.1648C125.408 87.3963 125.379 87.4109 125.245 87.587C124.95 87.7207 124.65 87.7752 124.329 87.7954C122.681 87.8988 120.912 87.7369 119.246 87.7468L103.963 87.7354C103.048 87.7345 95.5854 87.897 95.355 87.6944C95.3635 87.483 95.3644 87.2695 95.378 87.0584C95.3876 86.9091 95.4061 86.7586 95.3998 86.6084C95.3795 86.1327 94.9866 85.5891 94.6531 85.2711C93.1695 83.856 90.8534 84.2755 89.0022 84.3264C87.9242 84.3561 86.8426 84.3361 85.7637 84.3512C85.4662 83.4019 85.6836 71.3118 85.6904 69.4844C87.4466 69.6008 89.2475 69.5303 91.0096 69.5344L100.456 69.5563L113.173 69.5587C115.306 69.5475 117.465 69.5891 119.595 69.48C120.115 69.4535 120.591 69.4071 121.085 69.2358C122.272 68.8246 123.154 68.0013 123.696 66.8706C123.814 66.237 123.86 65.5824 123.93 64.9414Z"
        fill="#FEFEFE" />
    <path
        d="M31.6758 59.4331C31.7244 59.7362 31.7225 60.0424 31.9147 60.2856C35.1949 60.4996 38.595 60.2835 41.8865 60.2658L59.4665 60.2488L116.522 60.3145C116.916 60.3424 117.576 60.3247 117.854 60.6465C117.871 60.6665 117.882 60.691 117.896 60.7134C117.713 61.0021 117.54 61.2391 117.513 61.5916C117.611 61.8475 117.658 61.9887 117.919 62.1103C118.289 62.2824 118.808 62.255 119.211 62.2606C119.865 61.9986 120.727 62.1019 121.417 62.1618L121.519 62.3194L121.961 62.5396C122.368 62.8277 122.871 63.1036 123.131 63.5372C123.198 64.0274 123.086 64.2199 122.844 64.6506C123.257 64.4732 123.596 64.248 124.047 64.324C124.397 64.6709 124.526 65.6277 124.672 66.1182L124.612 66.3287L124.509 66.3445L123.929 64.9414C123.86 65.5824 123.814 66.237 123.695 66.8707C123.154 68.0013 122.272 68.8246 121.085 69.2358C120.591 69.4071 120.114 69.4535 119.595 69.48C117.464 69.5891 115.305 69.5475 113.172 69.5587L100.455 69.5563L91.0091 69.5344C89.247 69.5303 87.4461 69.6008 85.6899 69.4844C84.7382 69.3178 83.5853 69.4521 82.6121 69.4714C80.9008 69.5084 79.1894 69.5314 77.4777 69.5404L68.6997 69.5113C67.3057 69.4967 65.9104 69.4071 64.5169 69.4472C61.0699 69.6216 32.6033 69.1222 31.99 69.4873L31.9365 69.7242C31.7032 68.5406 31.7621 67.3149 31.7387 66.1147L31.6758 59.4331Z"
        fill="#701B64" />
    <path
        d="M122.845 64.6509C123.258 64.4735 123.597 64.2483 124.047 64.3242C124.398 64.6712 124.527 65.6279 124.672 66.1184L124.613 66.329L124.51 66.3447L123.93 64.9417C123.861 65.5826 123.815 66.2373 123.696 66.8709C123.24 67.0959 122.927 67.5096 122.541 67.8319C122.325 68.0119 122.18 68.11 121.9 68.0918C121.626 67.1627 121.74 65.9244 121.742 64.949C122.113 64.8698 122.479 64.7535 122.845 64.6509Z"
        fill="#3E3E60" />
    <path
        d="M74.0848 63.4197C74.7184 63.3856 75.4654 63.2836 76.0885 63.3822C76.4337 63.4369 76.784 63.557 76.98 63.867C77.1364 64.1141 77.1531 64.4386 77.0954 64.719C77.0106 65.1315 76.7905 65.3439 76.451 65.5678C75.8638 65.5748 75.2452 65.6902 74.6613 65.6433C74.3333 65.617 73.9391 65.5486 73.7286 65.266C73.5223 64.9888 73.5067 64.5756 73.5638 64.2488C73.6286 63.877 73.7873 63.6418 74.0848 63.4197Z"
        fill="#FEFEFE" />
    <path
        d="M119.211 62.261C119.865 61.999 120.727 62.1022 121.417 62.1621L121.519 62.3198L121.962 62.5399C122.368 62.8281 122.871 63.1039 123.131 63.5376C123.198 64.0277 123.087 64.2203 122.844 64.651C122.479 64.7536 122.113 64.8698 121.742 64.9491C121.715 64.9513 121.688 64.9541 121.661 64.956C120.737 65.0212 119.154 64.7669 118.455 64.1097C118.224 63.8926 118.178 63.7184 118.182 63.4165C118.542 62.8523 119.504 62.6493 120.117 62.4441C119.932 62.26 119.477 62.2881 119.211 62.261Z"
        fill="#0097A7" />
    <path
        d="M121.104 62.5366L121.152 62.5777L121.117 62.7644C120.645 63.1857 119.634 64.2426 118.996 64.2657C118.934 64.1824 118.901 64.141 118.846 64.046C118.694 63.782 118.707 63.6974 118.787 63.4093C119.321 62.7795 120.335 62.704 121.104 62.5366Z"
        fill="#E1E7F2" />
    <path
        d="M29.7169 6.99193C33.6081 6.87455 37.5276 6.96531 41.421 6.98771C42.8426 7.36778 46.2049 7.09665 47.8055 7.09698L62.204 7.10574L92.278 7.12701C101.685 7.17255 111.093 7.16378 120.5 7.10071L120.459 27.9746C120.455 31.5835 120.278 35.2818 120.507 38.8772C120.542 39.4188 120.614 39.9429 120.82 40.449C120.743 43.4473 120.814 46.4482 120.774 49.4472C120.785 50.076 120.798 50.7003 120.904 51.3219C121.14 52.712 121.811 54.0766 121.141 55.4489L121.218 55.4713C121.612 55.5835 122.213 55.5754 122.432 55.9123C122.497 56.5245 122.127 57.1419 121.755 57.6094C121.541 57.8772 121.283 58.1026 121.008 58.3054C120.349 58.5077 120.099 58.588 119.708 59.1814C119.592 59.3577 119.53 59.3821 119.345 59.4664C119.231 59.7661 119.031 59.9581 118.815 60.1892C118.56 60.4077 118.289 60.6194 118.05 60.8554L117.895 60.7136C117.881 60.6911 117.87 60.6666 117.853 60.6467C117.575 60.3249 116.915 60.3426 116.522 60.3147L59.4657 60.2489L41.8858 60.2659C38.5942 60.2836 35.1941 60.4997 31.914 60.2857C31.7217 60.0425 31.7237 59.7364 31.675 59.4332C31.4332 56.7745 31.482 54.1014 31.2133 51.437C28.5657 51.3136 25.8891 51.3836 23.2384 51.4005C21.6053 51.4109 19.9693 51.3494 18.3371 51.3973C18.1327 50.7901 18.1263 50.027 18.052 49.3867C18.0588 48.8858 17.999 48.3949 17.944 47.8979C17.8636 47.8193 17.7855 47.7419 17.7106 47.6579C14.9854 44.606 15.8492 43.2186 16.0152 39.3818C15.8207 39.1196 15.7104 38.9714 15.6934 38.6402C16.343 36.7998 16.3258 34.9668 17.3172 33.1879C18.7275 30.6578 20.897 29.8007 23.5333 29.0585C23.3871 28.6147 23.1899 28.1563 23.2431 27.6822C24.065 27.7489 24.5823 27.6241 25.2222 27.1115C25.4736 26.7318 25.8807 26.4212 26.064 25.9968C26.2491 25.568 26.046 25.2118 25.876 24.8183C25.7779 24.7699 25.7212 24.6704 25.6727 24.5749C25.5404 24.3147 25.5389 23.8802 25.6395 23.6117C25.7365 23.3535 25.946 23.06 26.2064 22.9504C26.4401 22.8519 26.4898 22.8946 26.714 22.9783C27.0059 23.322 27.0765 23.7055 27.1952 24.1306C27.2468 24.315 27.4478 24.4095 27.5985 24.5248C27.8133 24.103 28.0315 23.5691 28.347 23.2147C28.8148 22.6892 29.1983 22.7306 29.8188 22.6246C30.1561 22.5669 30.25 22.3984 30.4471 22.1497C30.468 22.1239 30.4892 22.0984 30.5098 22.0724L30.612 21.9417C30.9782 21.4806 31.2891 20.9846 31.4921 20.4275C31.8218 19.5222 31.6986 18.7971 31.3073 17.9584C31.1034 18.1245 30.8714 18.2873 30.6971 18.4833C30.4687 18.4368 30.0549 18.4 29.8906 18.2261C29.7323 18.059 29.7592 8.24838 29.7169 6.99193Z"
        fill="#FEFEFE" />
    <path
        d="M116.791 54.0722L117.243 53.8706C117.51 54.4759 118.016 54.9288 118.276 55.5333L118.042 55.9564C117.868 55.9489 117.87 55.9538 117.743 55.8354L117.792 55.699C117.444 55.1662 117.083 54.6382 116.791 54.0722Z"
        fill="#0097A7" />
    <path
        d="M30.0452 26.6782L30.1325 26.6969C29.9791 27.9051 29.9914 29.1642 30.0238 30.381C30.0075 30.3581 29.9917 30.3347 29.9747 30.3122C29.9483 30.2773 29.9202 30.2435 29.8936 30.2084C29.4349 29.6037 28.5427 29.4686 27.8438 29.2817C27.8497 29.1361 27.8462 28.9581 27.8866 28.8184C27.9852 28.4763 28.6589 28.2094 28.9516 28.0329C29.378 27.6325 29.7035 27.15 30.0452 26.6782Z"
        fill="#3E3E60" />
    <path
        d="M116.523 60.3148C117.023 60.2431 117.594 60.1507 117.993 59.8153C117.494 59.7425 116.756 59.7159 116.378 59.3748C116.364 59.2512 116.321 59.161 116.399 59.0519C116.743 58.5733 117.874 58.3297 118.434 58.2568C118.798 58.4104 119.089 58.4637 119.32 58.7941L119.346 59.4665C119.232 59.7662 119.032 59.9583 118.817 60.1893C118.561 60.4079 118.29 60.6196 118.051 60.8556L117.896 60.7137C117.882 60.6913 117.871 60.6668 117.854 60.6468C117.576 60.3251 116.916 60.3428 116.523 60.3148Z"
        fill="#0097A7" />
    <path
        d="M31.3082 17.9585C31.6297 18.0699 31.7749 18.1028 31.9504 18.4193C32.2784 19.0107 32.0433 19.9262 31.8192 20.5253C31.4964 21.388 31.0861 22.0391 30.3731 22.6274C30.3285 23.9358 30.4127 25.423 30.1335 26.6968L30.0463 26.6781C30.031 26.181 29.7305 25.9321 29.6506 25.4762C29.5146 24.7015 29.6136 23.8956 29.4545 23.1137C28.8686 23.0362 28.2525 24.2386 27.6914 24.4865C27.6611 24.4999 27.6303 24.512 27.5996 24.5249C27.8144 24.1031 28.0326 23.5693 28.3481 23.2148C28.8159 22.6893 29.1993 22.7307 29.8199 22.6247C30.1571 22.567 30.2511 22.3985 30.4481 22.1498C30.469 22.124 30.4903 22.0985 30.5109 22.0725L30.613 21.9418C30.9793 21.4807 31.2901 20.9848 31.4932 20.4276C31.8228 19.5223 31.6996 18.7972 31.3082 17.9585Z"
        fill="#FBC3AE" />
    <path
        d="M116.242 53.3535C115.877 52.6281 115.031 52.0876 114.604 51.3464C114.368 50.9383 114.222 50.5399 114.348 50.0746C114.477 49.9471 114.504 49.8745 114.691 49.8422C114.997 49.7893 115.306 49.9611 115.535 50.1489C116.451 50.8985 116.55 52.0988 116.636 53.1908L116.769 53.4781C116.991 53.4624 116.994 53.4171 117.138 53.2552C117.777 52.5407 118.461 51.2344 119.471 51.0251C119.709 51.1357 119.782 51.2078 119.86 51.4693C119.942 51.7419 119.83 52.0524 119.689 52.2837C119.219 53.052 118.32 53.6603 117.446 53.8353C117.379 53.8488 117.311 53.861 117.243 53.8707L116.791 54.0724C116.129 53.8181 115.094 54.2149 114.367 54.2432C113.842 54.2636 113.017 54.254 112.631 53.852C112.441 53.6538 112.439 53.4335 112.452 53.1744C113.277 52.0637 115.596 53.6473 116.242 53.3535Z"
        fill="#0097A7" />
    <path
        d="M25.8766 24.8183C25.7785 24.7699 25.7218 24.6704 25.6733 24.5749C25.541 24.3147 25.5394 23.8802 25.6401 23.6117C25.737 23.3536 25.9466 23.06 26.207 22.9504C26.4407 22.8519 26.4903 22.8946 26.7145 22.9784C27.0065 23.3221 27.077 23.7055 27.1958 24.1306C27.2474 24.315 27.4484 24.4095 27.5991 24.5248C27.6298 24.512 27.6606 24.4998 27.6909 24.4865C28.252 24.2386 28.8682 23.0362 29.454 23.1136C29.6132 23.8955 29.5142 24.7014 29.6501 25.4762C29.7301 25.9321 30.0306 26.1809 30.0458 26.6781C29.704 27.1499 29.3786 27.6324 28.9522 28.0327C28.6594 28.2092 27.9857 28.4761 27.8871 28.8182C27.8467 28.958 27.8503 29.1359 27.8443 29.2816C27.3486 29.0783 26.8021 29.0291 26.2759 28.9491C26.1466 28.5123 26.1687 28.0493 26.0845 27.5996C25.821 27.2845 25.5931 27.2466 25.2227 27.1115C25.4741 26.7318 25.8812 26.4212 26.0645 25.9968C26.2498 25.5681 26.0467 25.2119 25.8766 24.8183Z"
        fill="#F9D3BB" />
    <path
        d="M25.8765 24.8184C26.8749 25.442 27.0309 26.9023 27.7323 27.8409C28.1398 27.8991 28.5465 27.9631 28.9522 28.0328C28.6594 28.2093 27.9857 28.4762 27.8871 28.8183C27.8467 28.958 27.8503 29.136 27.8443 29.2816C27.3486 29.0783 26.8021 29.0291 26.2759 28.9491C26.1467 28.5124 26.1687 28.0493 26.0845 27.5996C25.821 27.2845 25.5931 27.2467 25.2227 27.1116C25.4741 26.7319 25.8812 26.4213 26.0645 25.9969C26.2497 25.5681 26.0466 25.2119 25.8765 24.8184Z"
        fill="#F2B99A" />
    <path
        d="M120.552 52.5937C120.699 51.5551 120.65 50.4922 120.773 49.4473C120.784 50.0761 120.797 50.7003 120.903 51.322C121.14 52.712 121.811 54.0766 121.141 55.449L121.218 55.4714C121.612 55.5836 122.213 55.5754 122.432 55.9123C122.497 56.5246 122.127 57.142 121.754 57.6094C121.54 57.8773 121.282 58.1026 121.008 58.3054C120.349 58.5077 120.099 58.5881 119.708 59.1815C119.591 59.3578 119.53 59.3821 119.344 59.4664L119.318 58.7939C119.087 58.4635 118.796 58.4103 118.433 58.2567C118.757 58.1991 119.092 58.1718 119.419 58.1319C119.254 57.5516 118.657 56.8244 118.293 56.3291C117.844 56.4979 117.391 56.6783 116.932 56.8179C115.889 57.135 115.11 56.8351 114.199 56.3575C114.516 56.1739 114.836 55.9804 115.17 55.8318C116.066 55.4337 116.846 55.498 117.742 55.8352C117.869 55.9536 117.867 55.9487 118.041 55.9562L118.276 55.5331L118.585 55.8661C118.766 55.4795 118.801 55.0996 118.912 54.6961C119.175 53.7394 119.694 53.0721 120.552 52.5937Z"
        fill="#0097A7" />
    <path
        d="M120.31 55.5466L120.621 55.418L120.687 55.5427C120.343 56.1765 120.003 56.7603 119.87 57.4782C119.863 57.5151 119.855 57.5518 119.849 57.5888C119.845 57.611 119.843 57.6334 119.839 57.6558C119.49 57.2618 119.195 56.8899 118.934 56.4314C119.397 56.149 119.881 55.8787 120.31 55.5466Z"
        fill="#FEFEFE" />
    <path
        d="M41.7721 29.411C39.6236 26.8614 38.0343 24.6874 37.9443 21.1656C37.9401 20.9822 37.9405 20.7987 37.9453 20.6152C37.95 20.4318 37.9592 20.2486 37.9728 20.0655C37.9864 19.8826 38.0045 19.7001 38.027 19.5179C38.0494 19.3357 38.0763 19.1543 38.1076 18.9735C38.1388 18.7927 38.1744 18.6127 38.2144 18.4335C38.2543 18.2544 38.2985 18.0764 38.347 17.8996C38.3955 17.7226 38.4484 17.5469 38.5054 17.3724C38.5624 17.198 38.6237 17.0251 38.689 16.8537C38.7544 16.6823 38.8239 16.5127 38.8975 16.3445C38.9711 16.1766 39.0487 16.0104 39.1304 15.8461C39.212 15.6818 39.2975 15.5196 39.387 15.3594C39.4765 15.1993 39.5699 15.0414 39.667 14.8858C39.7641 14.7303 39.865 14.5771 39.9695 14.4263C40.074 14.2757 40.1821 14.1276 40.2937 13.9822C40.4055 13.8367 40.5207 13.6941 40.6392 13.5542C40.7578 13.4143 40.8797 13.2775 41.005 13.1434C43.0215 11.0262 45.643 9.99087 48.5456 9.95418C51.5067 9.91667 54.1302 10.8822 56.2366 12.9824C57.9142 14.6549 59.2195 16.8245 59.2241 19.2362C58.9613 18.2829 58.7025 17.3768 58.2057 16.5136C57.6997 15.2727 57.0686 14.3893 56.1017 13.4649C55.1353 12.331 53.6807 11.4025 52.2633 10.9757C50.9997 10.5175 49.841 10.425 48.5127 10.4177C45.7866 10.4177 43.3236 11.486 41.3903 13.4037C40.8256 13.9638 40.4223 14.4798 40.0467 15.1793C40.2363 15.3091 40.3074 15.2891 40.3505 15.5278C40.4074 15.8409 40.3703 16.1728 40.3516 16.4889C39.5943 17.995 39.2833 19.4002 39.342 21.0744C39.0574 23.4139 40.0603 25.3564 41.3947 27.1996C41.3455 27.5198 41.322 27.727 41.1058 27.9755C41.5035 28.4022 42.0943 28.8965 42.2169 29.4797L42.13 29.8541C41.5916 30.3105 41.0508 30.8636 40.8714 31.5721L40.7086 31.1552C40.9349 30.5144 41.3667 29.9471 41.7721 29.411Z"
        fill="#C7C9DD" />
    <path
        d="M40.0464 15.1797C40.2361 15.3094 40.3071 15.2894 40.3502 15.5281C40.4071 15.8413 40.37 16.1731 40.3514 16.4892C39.594 17.9954 39.283 19.4005 39.3417 21.0747C39.0571 23.4142 40.06 25.3568 41.3944 27.2C41.3452 27.5201 41.3217 27.7273 41.1055 27.9759C40.0252 26.8046 39.2372 25.493 38.8458 23.9385C38.0891 20.9317 38.4626 17.8525 40.0464 15.1797Z"
        fill="#545890" />
    <path
        d="M39.1768 50.8631C42.4768 50.7087 46.468 50.7704 49.7542 50.9613C49.8338 51.9133 50.0155 53.6132 49.7102 54.4983L49.4958 54.5935C48.1329 54.65 39.5134 54.782 38.9567 54.4452C38.6667 53.6453 38.7132 51.7783 38.953 50.9542L39.1768 50.8631Z"
        fill="#F5D0E6" />
    <path
        d="M39.6948 45.3312C41.96 45.1874 44.3036 45.2737 46.5769 45.269L62.6366 45.3567L69.4377 45.3187C70.3933 45.3119 71.5414 45.149 72.4641 45.3541C72.674 45.6497 72.6237 46.0275 72.6278 46.3772C72.4816 46.6211 72.4692 46.6026 72.1948 46.6899C66.6623 46.8671 61.089 46.6883 55.5503 46.6914L45.2087 46.6823C43.4001 46.6804 41.5627 46.745 39.7567 46.6675C39.4852 46.6558 39.3612 46.6002 39.1485 46.4328C39.0405 46.1808 38.9648 46.0157 39.0766 45.7368C39.1937 45.4452 39.4304 45.4164 39.6948 45.3312Z"
        fill="#E1E7F2" />
    <path
        d="M42.1313 29.8545C42.1641 29.8558 42.1973 29.8639 42.2296 29.8581C42.505 29.8084 42.4194 29.4226 42.5856 29.1859C42.9502 29.0606 43.3037 29.2268 43.6581 29.3342C43.9872 29.4931 44.3662 29.6108 44.5454 29.9467C44.5905 30.4042 44.3163 30.7507 44.0686 31.1134C44.3913 31.1035 44.5295 31.0673 44.8169 31.2254C44.8948 31.6305 44.7632 31.861 44.5357 32.1959C44.2318 32.6431 43.941 33.0926 43.6563 33.5524C44.4059 33.0998 44.8331 32.1404 45.512 31.5258C46.0016 31.0824 46.8923 30.5093 47.5385 30.5395C47.3538 30.8406 47.2132 30.9871 47.2177 31.3559C47.5413 31.6582 47.9757 31.5944 48.3877 31.5811C48.762 31.5688 49.1319 31.5448 49.5064 31.5629C48.7522 31.6235 48.0152 31.6196 47.26 31.6019C46.8511 32.607 46.3634 33.5683 45.7424 34.4603C44.9772 35.5593 43.9486 36.3561 43.0899 37.3646C41.754 38.9338 40.5846 41.4247 38.6358 42.2734C38.588 42.2944 38.5397 42.3141 38.4909 42.3326C38.4421 42.3512 38.3929 42.3686 38.3434 42.3846C38.2938 42.4007 38.2437 42.4156 38.1933 42.4292C38.143 42.4429 38.0923 42.4552 38.0414 42.4662C37.9904 42.4774 37.9391 42.4873 37.8876 42.4958C37.8361 42.5043 37.7845 42.5116 37.7328 42.5175C37.6809 42.5235 37.6289 42.5282 37.5769 42.5315C37.5248 42.5348 37.4727 42.5369 37.4206 42.5377C37.3684 42.5384 37.3163 42.5379 37.2641 42.5362C37.2119 42.5343 37.1599 42.5313 37.1079 42.5268C37.0559 42.5223 37.004 42.5166 36.9523 42.5097C36.9006 42.5027 36.8492 42.4944 36.7978 42.4849C36.7466 42.4752 36.6956 42.4644 36.6448 42.4523C36.594 42.4402 36.5437 42.4268 36.4935 42.4122C36.4434 42.3976 36.3937 42.3817 36.3444 42.3646C36.2951 42.3475 36.2463 42.3292 36.1979 42.3097C35.1413 41.8823 34.4423 40.9226 33.7578 40.0581C34.6928 39.4601 35.7989 38.7092 36.2895 37.6666C36.4335 37.3604 36.4327 37.1571 36.3153 36.8537C36.5455 36.7933 36.6542 36.5934 36.7909 36.4132C36.9235 34.9667 39.986 32.5458 40.7103 31.1556L40.873 31.5725C41.0521 30.864 41.5929 30.3109 42.1313 29.8545Z"
        fill="#F2B99A" />
    <path
        d="M39.8924 32.6685C40.4103 32.9334 41.6738 33.4853 41.8267 34.0782C41.8742 34.2626 41.7332 34.4228 41.6476 34.5855L41.585 34.6777C40.9354 35.6545 39.6442 38.9005 38.4753 39.1528C38.3135 39.1877 38.1812 39.1895 38.0384 39.0947C37.6945 38.8666 36.8365 37.5007 36.7748 37.0798C36.7381 36.8309 36.8138 36.7335 36.962 36.5479C37.5119 36.1128 38.0344 34.9533 38.4715 34.3378C38.8926 33.7364 39.3662 33.18 39.8924 32.6685Z"
        fill="#3E3E60" />
    <path
        d="M42.1297 29.8545C42.1625 29.8558 42.1957 29.8639 42.228 29.8581C42.5034 29.8084 42.4178 29.4226 42.584 29.1859C42.9487 29.0606 43.3022 29.2268 43.6566 29.3342C43.9857 29.4931 44.3646 29.6108 44.5438 29.9467C44.5889 30.4042 44.3148 30.7507 44.0671 31.1134C44.3897 31.1035 44.5279 31.0673 44.8154 31.2254C44.8932 31.6305 44.7617 31.861 44.5341 32.1959C44.2303 32.6431 43.9395 33.0926 43.6548 33.5524C43.1472 34.1236 42.3465 35.254 41.6611 35.5377L41.5376 35.4704L41.6537 35.2529L41.6466 34.5859C41.7322 34.4233 41.8732 34.263 41.8257 34.0786C41.6729 33.4857 40.4093 32.9338 39.8914 32.6689C39.3651 33.1804 38.8915 33.7368 38.4704 34.3382C38.0332 34.9537 37.5108 36.1132 36.9609 36.5483L36.7891 36.4132C36.9216 34.9667 39.9841 32.5458 40.7084 31.1556L40.8711 31.5725C41.0506 30.864 41.5914 30.3109 42.1297 29.8545Z"
        fill="#FBC3AE" />
    <path
        d="M44.0666 31.1132C44.3892 31.1033 44.5274 31.0671 44.8149 31.2252C44.8927 31.6303 44.7612 31.8608 44.5336 32.1957C44.2298 32.6429 43.939 33.0924 43.6543 33.5522C43.1467 34.1234 42.346 35.2538 41.6606 35.5374L41.5371 35.4702L41.6532 35.2527C41.9043 34.8322 42.0049 34.3401 42.2545 33.9112C42.6548 33.2239 43.4633 32.5422 43.6106 31.7627C43.7104 31.5406 43.9197 31.3116 44.0666 31.1132Z"
        fill="#FEFEFE" />
    <path
        d="M42.1295 29.8545C42.1623 29.8558 42.1955 29.8639 42.2278 29.8581C42.5032 29.8084 42.4176 29.4226 42.5838 29.1859C42.9485 29.0606 43.302 29.2268 43.6564 29.3342C43.9855 29.4931 44.3644 29.6108 44.5436 29.9467C44.5887 30.4042 44.3146 30.7507 44.0669 31.1134C43.92 31.3118 43.7107 31.5409 43.6109 31.763C43.2922 32.1554 42.9517 32.5195 42.6026 32.8845C41.9961 32.5049 41.442 32.0066 40.8711 31.5725C41.0504 30.864 41.5912 30.3109 42.1295 29.8545Z"
        fill="#3E3E60" />
    <path
        d="M61.1805 37.6568C64.9358 37.5149 68.7362 37.5634 72.4941 37.625L72.4787 41.074C66.8576 41.1341 61.2363 41.1404 55.6149 41.093C51.9509 41.0758 48.2869 41.0843 44.6231 41.1186C44.5843 40.2348 44.2988 38.6473 44.7923 37.9023C46.0665 37.4822 49.951 37.6917 51.4747 37.6922C54.7101 37.7161 57.9454 37.7043 61.1805 37.6568Z"
        fill="#F5D0E6" />
    <path
        d="M55.2547 51.9131C59.0207 51.7707 62.8351 51.8911 66.6048 51.8897L88.8704 51.8739L100.539 51.8588C102.597 51.8551 104.977 51.6233 106.987 52.0076C107.024 52.7036 107.152 53.4898 106.834 54.1342C106.603 54.3651 106.448 54.4336 106.128 54.4914L70.1738 54.4685C66.8319 54.5058 63.4897 54.5237 60.1474 54.5224C58.6663 54.5289 56.7592 54.777 55.3422 54.4216C55.0086 54.338 54.798 54.2625 54.6311 53.9478C54.4121 53.5351 54.3614 53.0327 54.521 52.5911C54.6591 52.2089 54.9008 52.0749 55.2547 51.9131Z"
        fill="#E1E7F2" />
    <path
        d="M40.0482 15.1796C40.4238 14.48 40.8271 13.9641 41.3918 13.404C43.3251 11.4863 45.7881 10.418 48.5142 10.418C49.8425 10.4253 51.0012 10.5178 52.2648 10.976C53.6822 11.4028 55.1367 12.3313 56.1031 13.4652C57.0701 14.3896 57.7012 15.273 58.2072 16.5138C58.704 17.3771 58.9628 18.2832 59.2255 19.2365C59.3815 21.061 59.5971 23.5819 58.5218 25.1635C57.8024 26.7473 56.7484 28.4249 55.308 29.4308C54.1167 30.3882 51.7263 31.4768 50.1867 31.5378C49.9599 31.5469 49.7336 31.5573 49.5066 31.5628C49.1321 31.5446 48.7622 31.5687 48.3879 31.581C47.976 31.5943 47.5415 31.6581 47.2179 31.3558C47.2133 30.987 47.3539 30.8405 47.5387 30.5393C46.8923 30.5091 46.0017 31.0823 45.5122 31.5256C44.8333 32.1403 44.4061 33.0997 43.6565 33.5523C43.9412 33.0925 44.232 32.643 44.5358 32.1958C44.7634 31.8609 44.8949 31.6304 44.8171 31.2253C44.5296 31.0672 44.3914 31.1034 44.0688 31.1133C44.3165 30.7506 44.5906 30.4041 44.5455 29.9466C44.3664 29.6107 43.9874 29.493 43.6583 29.334C43.3039 29.2267 42.9504 29.0605 42.5857 29.1858C42.4196 29.4225 42.5052 29.8083 42.2297 29.858C42.1975 29.8638 42.1642 29.8557 42.1314 29.8544L42.2184 29.48C42.0959 28.8968 41.5051 28.4025 41.1072 27.9758C41.3235 27.7272 41.347 27.5201 41.3961 27.1999C40.0618 25.3567 39.0588 23.4142 39.3435 21.0747C39.2848 19.4005 39.5957 17.9953 40.3531 16.4892C40.3718 16.1731 40.4089 15.8412 40.352 15.528C40.3088 15.2894 40.2378 15.3093 40.0482 15.1796Z"
        fill="#FEFEFE" />
    <path
        d="M58.0271 18.9111C58.1835 17.9296 57.6233 17.1899 57.6263 16.252L57.7767 16.1934L58.2075 16.5135C58.7044 17.3768 58.9631 18.2828 59.2259 19.2362C59.3818 21.0607 59.5975 23.5816 58.5222 25.1632C58.4119 24.2761 58.9581 23.4804 58.7835 22.5035C58.6101 22.5996 57.9802 24.413 57.3588 25.0242C57.341 25.0418 57.3227 25.059 57.3047 25.0763C57.4473 24.6002 57.7312 24.1558 57.8933 23.679C58.4286 22.104 58.2414 20.5209 58.0271 18.9111Z"
        fill="#5D6289" />
    <path
        d="M40.0488 15.1796C40.4245 14.48 40.8278 13.9641 41.3924 13.404C43.3258 11.4863 45.7887 10.418 48.5148 10.418C48.3906 10.7709 48.4125 10.8213 48.5114 11.1867C47.8894 11.2411 47.2214 11.2702 46.6157 11.4216C45.0259 11.8191 42.8401 12.9968 41.7875 14.2623C41.2211 14.9434 40.7657 15.7071 40.3538 16.4892C40.3724 16.1731 40.4096 15.8412 40.3526 15.528C40.3095 15.2894 40.2385 15.3093 40.0488 15.1796Z"
        fill="#5C5E9A" />
    <path
        d="M48.5132 10.418C49.8416 10.4253 51.0002 10.5178 52.2638 10.976C53.6812 11.4028 55.1358 12.3313 56.1022 13.4652C57.0691 14.3896 57.7003 15.273 58.2062 16.5138L57.7754 16.1937L57.625 16.2523C57.6219 17.1902 58.1822 17.9299 58.0258 18.9115C57.9807 18.6992 57.9292 18.4886 57.8712 18.2796C57.813 18.0706 57.7484 17.8636 57.6773 17.6588C57.6063 17.4538 57.5289 17.2512 57.4453 17.0511C57.3617 16.851 57.2719 16.6536 57.1761 16.4591C57.0801 16.2646 56.9782 16.0733 56.8703 15.885C56.7625 15.697 56.6489 15.5124 56.5295 15.3313C56.4103 15.1503 56.2853 14.9732 56.155 14.7999C56.0246 14.6266 55.889 14.4576 55.748 14.2928C54.0226 12.5888 52.3597 12.0243 50.1091 11.2781C49.5767 11.2307 49.0437 11.2096 48.5099 11.1867C48.4109 10.8213 48.3891 10.7709 48.5132 10.418Z"
        fill="#5C5E9A" />
    <path
        d="M48.5132 10.418C49.8416 10.4253 51.0002 10.5178 52.2638 10.976C52.2807 10.9964 52.2972 11.0172 52.3144 11.0375C52.5088 11.2659 52.6897 11.3807 52.9436 11.5341C53.0787 11.6158 53.0299 11.5772 53.1234 11.7213C52.9242 11.7059 52.829 11.6655 52.6507 11.577C52.0482 11.2781 50.7619 11.1987 50.109 11.2781C49.5767 11.2307 49.0437 11.2096 48.5098 11.1867C48.4109 10.8213 48.3891 10.7709 48.5132 10.418Z"
        fill="#545890" />
    <path
        d="M39.3435 21.0747C39.598 22.03 39.7162 23.0453 40.0248 23.981C40.6263 25.8036 42.4437 28.0335 44.0919 29.0042C44.989 29.5325 45.5612 29.3057 46.5052 29.0932C47.0136 29.5244 47.6644 29.9856 47.9915 30.5725L47.5388 30.5394C46.8924 30.5092 46.0018 31.0823 45.5123 31.5257C44.8334 32.1404 44.4062 33.0997 43.6566 33.5523C43.9412 33.0926 44.2321 32.643 44.5359 32.1959C44.7635 31.8609 44.895 31.6304 44.8171 31.2253C44.5297 31.0672 44.3915 31.1034 44.0689 31.1133C44.3166 30.7506 44.5907 30.4042 44.5456 29.9466C44.3665 29.6107 43.9875 29.493 43.6583 29.3341C43.3039 29.2268 42.9504 29.0605 42.5858 29.1859C42.4197 29.4226 42.5052 29.8083 42.2298 29.858C42.1975 29.8638 42.1643 29.8557 42.1315 29.8544L42.2184 29.48C42.0959 28.8969 41.5052 28.4025 41.1073 27.9758C41.3236 27.7273 41.3471 27.5201 41.3962 27.2C40.0619 25.3568 39.0588 23.4142 39.3435 21.0747Z"
        fill="#F9D3BB" />
    <path
        d="M41.3963 27.1997C42.061 28.0482 42.932 28.5719 43.6584 29.3338C43.304 29.2265 42.9505 29.0603 42.5859 29.1856C42.4198 29.4223 42.5053 29.8081 42.2299 29.8578C42.1976 29.8636 42.1644 29.8555 42.1316 29.8542L42.2185 29.4798C42.096 28.8966 41.5053 28.4023 41.1074 27.9756C41.3237 27.727 41.3472 27.5199 41.3963 27.1997Z"
        fill="#5C5E9A" />
    <path
        d="M57.3034 25.0767C57.3214 25.0593 57.3397 25.0421 57.3575 25.0246C57.9789 24.4133 58.6087 22.6 58.7822 22.5039C58.9568 23.4808 58.4106 24.2765 58.5209 25.1636C57.8014 26.7473 56.7474 28.4249 55.307 29.4309C54.1157 30.3882 51.7253 31.4768 50.1857 31.5379C49.959 31.547 49.7327 31.5574 49.5056 31.5629C49.1311 31.5447 48.7612 31.5687 48.3869 31.5811C47.975 31.5944 47.5405 31.6582 47.2169 31.3559C47.2124 30.987 47.353 30.8406 47.5377 30.5394L47.9905 30.5725C50.842 30.6462 51.9646 30.3191 54.3623 28.8314L54.8742 28.4597C56.0796 27.6002 56.6452 26.3606 57.3034 25.0767Z"
        fill="#545890" />
    <path
        d="M47.7703 13.9259C49.6923 13.7269 51.3447 13.9855 52.917 15.1809C54.387 16.2987 55.5281 18.0636 55.7664 19.9104C56.0405 22.0348 55.5279 24.303 54.2077 26.0123C53.189 27.3311 51.5945 28.042 49.9698 28.2506C48.0648 28.3266 46.2993 28.2531 44.7098 27.0864C43.0765 25.8876 42.2063 24.1894 41.9167 22.2001C41.6147 20.1242 42.0092 18.2317 43.2838 16.5499C44.4166 15.0549 45.9183 14.1828 47.7703 13.9259Z"
        fill="#E1E7F2" />
    <path
        d="M25.2222 27.1113C25.5927 27.2464 25.8206 27.2842 26.084 27.5994C26.1684 28.0491 26.1463 28.5121 26.2755 28.9488C26.8017 29.0289 27.3482 29.0781 27.8439 29.2813C28.5429 29.4682 29.435 29.6033 29.8938 30.208C29.9204 30.2431 29.9484 30.2769 29.9748 30.3118C29.9919 30.3344 30.0076 30.3577 30.024 30.3806C30.7964 31.2327 31.7364 31.9327 32.5954 32.6961C33.9034 33.8587 35.3552 35.3926 36.3139 36.8532C36.4313 37.1566 36.4321 37.3599 36.2881 37.6661C35.7975 38.7087 34.6914 39.4596 33.7563 40.0575C33.5307 40.1595 33.2048 40.3498 32.9511 40.2697C32.2221 40.0397 31.4302 38.8012 30.8186 38.2838C31.2096 42.6527 30.7957 47.0751 31.2133 51.4368C28.5657 51.3134 25.8891 51.3834 23.2384 51.4003C21.6053 51.4107 19.9693 51.3492 18.3371 51.3971C18.1327 50.7899 18.1263 50.0268 18.052 49.3865C18.0588 48.8856 17.999 48.3947 17.944 47.8977C17.8636 47.8191 17.7855 47.7417 17.7106 47.6577C14.9854 44.6058 15.8492 43.2184 16.0152 39.3816C15.8207 39.1194 15.7104 38.9712 15.6934 38.64C16.343 36.7996 16.3258 34.9666 17.3172 33.1877C18.7275 30.6576 20.897 29.8005 23.5333 29.0583C23.3871 28.6146 23.1899 28.1561 23.2431 27.682C24.0651 27.7487 24.5824 27.6239 25.2222 27.1113Z"
        fill="#F5D0E6" />
    <path
        d="M25.2243 27.1113C25.5947 27.2464 25.8227 27.2842 26.0861 27.5994C26.1704 28.0491 26.1484 28.5121 26.2775 28.9488C25.3551 28.8907 24.4366 28.7925 23.5354 29.0583C23.3892 28.6146 23.192 28.1561 23.2452 27.682C24.0671 27.7487 24.5844 27.6239 25.2243 27.1113Z"
        fill="#FBC3AE" />
    <path
        d="M18.8246 33.5459C18.8604 33.6154 18.8823 33.6479 18.9032 33.7193C19.0848 34.3414 18.4265 38.8855 18.0432 39.4309C17.8463 39.7111 17.6997 39.7025 17.3893 39.7491C17.3045 39.6197 17.224 39.4979 17.1959 39.3426C16.9508 37.9848 18.0171 34.6575 18.8246 33.5459Z"
        fill="#F5D0E6" />
    <path
        d="M15.6934 38.6401C16.3912 39.3434 16.994 39.7813 17.8373 40.3015C18.1262 42.8012 17.6974 45.3716 17.944 47.8978C17.8636 47.8192 17.7855 47.7418 17.7106 47.6579C14.9854 44.606 15.8492 43.2185 16.0152 39.3818C15.8207 39.1196 15.7104 38.9713 15.6934 38.6401Z"
        fill="#F2B99A" />
    <path
        d="M86.1776 37.5995C85.9969 37.6315 85.8161 37.6492 85.6324 37.6573C83.2585 37.7627 79.9295 36.1258 78.2509 34.564C76.4638 32.9014 75.2777 29.7278 75.1903 27.3189C75.0895 24.5412 76.6009 21.2253 78.501 19.2387C80.1808 17.4825 82.9095 16.4631 85.3035 16.4303C88.1126 16.3918 90.8644 17.3423 92.8905 19.3218C92.9873 19.4166 93.0821 19.5133 93.1751 19.6118C93.2681 19.7103 93.3592 19.8105 93.4482 19.9125C93.5374 20.0145 93.6245 20.1182 93.7095 20.2237C93.7947 20.3291 93.8778 20.4361 93.9587 20.5447C94.0396 20.6534 94.1185 20.7635 94.1952 20.8752C94.2718 20.9869 94.3463 21.1 94.4186 21.2145C94.491 21.3292 94.5611 21.4451 94.6288 21.5623C94.6967 21.6796 94.7623 21.7982 94.8256 21.918C94.8888 22.0378 94.9497 22.1589 95.0083 22.2812C95.0668 22.4034 95.1231 22.5267 95.1768 22.651C95.2307 22.7754 95.2821 22.9007 95.331 23.027C95.38 23.1534 95.4265 23.2807 95.4706 23.4089C95.5146 23.5371 95.5561 23.6661 95.5952 23.796C95.6342 23.9258 95.6708 24.0562 95.7048 24.1874C95.7389 24.3186 95.7704 24.4504 95.7994 24.5829C95.8282 24.7153 95.8545 24.8482 95.8784 24.9816C95.9021 25.1151 95.9234 25.2489 95.9419 25.3833C95.9605 25.5175 95.9765 25.6521 95.9899 25.787C96.0033 25.9219 96.0142 26.057 96.0224 26.1923C96.0305 26.3276 96.0361 26.463 96.0391 26.5985C96.042 26.7341 96.0423 26.8697 96.04 27.0052C96.0378 27.1407 96.0328 27.2761 96.0253 27.4116C96.0177 27.5469 96.0075 27.682 95.9948 27.8169C95.9821 27.9519 95.9667 28.0865 95.9487 28.2209C95.9308 28.3553 95.9103 28.4893 95.8871 28.6229C95.8638 28.7564 95.8381 28.8895 95.8099 29.0221C95.7816 29.1546 95.7507 29.2865 95.7173 29.4179C95.6839 29.5493 95.648 29.68 95.6095 29.81C95.5711 29.94 95.5302 30.0692 95.4867 30.1975C95.4433 30.3259 95.3974 30.4534 95.349 30.58C95.3007 30.7066 95.2499 30.8322 95.1966 30.9569C95.1434 31.0815 95.0877 31.205 95.0298 31.3275C94.7618 31.9004 93.6727 33.3173 93.682 33.8068C94.0276 34.6723 95.3133 34.4713 95.9586 35.0993C96.6922 35.8128 97.3612 36.6002 98.0794 37.3307C99.5755 38.8519 101.129 40.3284 102.68 41.7934C103.361 42.436 104.03 43.1418 104.759 43.7277L104.824 43.7798C104.883 44.4227 102.758 46.2403 102.336 46.892L102.269 46.9963C100.618 46.0058 99.4313 44.4075 98.0437 43.1213C97.5407 42.655 96.9558 42.2824 96.4386 41.8301C95.8062 41.2767 95.2664 40.6193 94.6715 40.0262C93.9533 39.3106 92.9467 38.5387 92.3648 37.72C92.2039 37.4933 92.3217 37.2808 92.3752 37.0243C92.4423 36.8332 92.4861 36.7735 92.3908 36.577C92.2352 36.2561 91.7003 35.8763 91.421 35.6355C90.2572 36.3491 89.1487 36.8386 87.8234 37.1871C87.2842 37.329 86.7007 37.4169 86.1776 37.5995Z"
        fill="#3E3E60" />
    <path
        d="M84.606 18.5858C86.4408 18.4046 88.1749 18.5481 89.8114 19.4609C91.7885 20.5634 93.2716 22.5746 93.8606 24.7524C94.4607 26.9708 94.0253 29.3909 92.862 31.3532C91.5312 33.5984 89.3416 34.7217 86.8995 35.3471C86.8632 35.3529 86.8269 35.3594 86.7904 35.365C84.626 35.6971 82.4623 35.1849 80.7104 33.8627C80.5974 33.7757 80.4865 33.686 80.3777 33.5935C80.269 33.5011 80.1626 33.4061 80.0585 33.3084C79.9544 33.2108 79.8527 33.1108 79.7534 33.0082C79.6542 32.9056 79.5575 32.8007 79.4634 32.6934C79.3693 32.586 79.2778 32.4765 79.1889 32.3648C79.1002 32.2531 79.0142 32.1392 78.9309 32.0232C78.8475 31.9073 78.7672 31.7895 78.6896 31.6696C78.6121 31.5497 78.5374 31.428 78.4658 31.3045C78.3941 31.181 78.3256 31.0559 78.2601 30.929C78.1945 30.8021 78.132 30.6738 78.0727 30.5439C78.0134 30.414 77.9572 30.2827 77.9043 30.1502C77.8514 30.0175 77.8017 29.8837 77.7554 29.7487C77.7089 29.6136 77.6657 29.4775 77.6258 29.3404C77.5861 29.2033 77.5496 29.0652 77.5163 28.9262C77.4833 28.7872 77.4536 28.6475 77.4272 28.5072C77.4008 28.3668 77.3779 28.2259 77.3584 28.0844C77.039 25.7918 77.6995 23.5533 79.1101 21.7294C80.4986 19.934 82.3761 18.8722 84.606 18.5858Z"
        fill="#DC4CA0" />
    <path
        d="M84.4295 18.9964C86.2099 18.7714 88.1473 18.9882 89.7057 19.9223C91.4612 20.9747 92.927 22.8496 93.4137 24.8496C93.9165 26.916 93.668 29.2752 92.5405 31.0997C91.2123 33.2487 89.2866 34.3289 86.8929 34.8788C85.0881 35.2614 82.9584 34.7562 81.4104 33.7917C79.6098 32.6698 78.3482 30.7328 77.8976 28.6706C77.426 26.5135 77.848 24.3562 79.0606 22.5156C80.355 20.5513 82.1726 19.4697 84.4295 18.9964Z"
        fill="#A90466" />
    <path
        d="M85.0464 22.7056C85.6187 22.7267 86.4536 22.8954 86.9277 23.2097C87.8966 23.8518 88.1432 24.9785 88.35 26.0447L87.8766 27.2717C88.4036 28.0835 89.307 28.669 89.7198 29.5302C89.8626 29.8283 89.8389 30.0087 89.7304 30.3107C89.508 30.5113 89.3888 30.5863 89.0911 30.6336C88.6761 30.5326 88.41 30.1702 88.1235 29.871C87.7568 29.4411 87.241 29.1484 86.7958 28.8026C85.591 29.0014 84.4478 29.1935 83.3814 28.4402C83.339 28.4102 83.2973 28.3792 83.2563 28.3472C83.2153 28.315 83.1752 28.2819 83.1359 28.2478C83.0967 28.2136 83.0583 28.1785 83.0208 28.1424C82.9833 28.1063 82.9468 28.0693 82.9112 28.0314C82.8757 27.9934 82.841 27.9545 82.8074 27.9148C82.7738 27.8751 82.7412 27.8345 82.7096 27.7932C82.6781 27.7519 82.6476 27.7097 82.6182 27.6667C82.5888 27.6238 82.5604 27.5801 82.5332 27.5357C82.5059 27.4915 82.4799 27.4464 82.455 27.4006C82.43 27.3549 82.4063 27.3087 82.3837 27.2618C82.3612 27.2148 82.3399 27.1674 82.3196 27.1195C82.2995 27.0714 82.2806 27.0229 82.2629 26.974C82.2453 26.925 82.2288 26.8757 82.2136 26.8258C82.1985 26.776 82.1845 26.7258 82.1719 26.6754C82.1592 26.6248 82.1479 26.574 82.1378 26.523C82.1278 26.4719 82.119 26.4206 82.1116 26.3691C82.0967 26.2691 82.0868 26.1687 82.0819 26.0677C82.0769 25.9668 82.0769 25.8659 82.0817 25.7649C82.0867 25.664 82.0966 25.5637 82.1116 25.4638C82.1263 25.3638 82.1461 25.2648 82.1707 25.1668C82.1954 25.0688 82.2248 24.9723 82.2588 24.8772C82.2929 24.7821 82.3316 24.6889 82.3749 24.5976C82.4182 24.5064 82.466 24.4175 82.5181 24.3309C82.5701 24.2443 82.6263 24.1605 82.6865 24.0796C83.275 23.2904 84.0874 22.8509 85.0464 22.7056Z"
        fill="#FEFEFE" />
    <path
        d="M84.9279 24.1782C85.0216 24.1797 85.1083 24.1839 85.201 24.1966C85.7493 24.2709 86.2648 24.5261 86.5873 24.991C86.8634 25.3889 86.9128 25.8618 86.7925 26.3242C86.6097 27.0264 86.0659 27.3426 85.4747 27.6633C85.2836 27.6531 85.1 27.6349 84.9147 27.5836C84.4425 27.4529 83.9664 27.1012 83.729 26.6677C83.5014 26.2518 83.4844 25.7761 83.6455 25.3332C83.8628 24.7353 84.3927 24.4417 84.9279 24.1782Z"
        fill="#A90466" />
    <defs>
        <linearGradient id="paint0_linear_4153_16919" x1="74.8174" y1="61.3263" x2="70.9807" y2="-2.17222"
            gradientUnits="userSpaceOnUse">
            <stop stop-color="#3C3B67" />
            <stop offset="1" stop-color="#55547E" />
        </linearGradient>
        <linearGradient id="paint1_linear_4153_16919" x1="75.8435" y1="68.8457" x2="74.4644" y2="85.0679"
            gradientUnits="userSpaceOnUse">
            <stop stop-color="#43446B" />
            <stop offset="1" stop-color="#5A5A92" />
        </linearGradient>
    </defs>
</svg>