<svg width="152" height="90" viewBox="0 0 152 90" fill="none" xmlns="http://www.w3.org/2000/svg">
<path d="M29.4188 89.9829C23.8331 83.1736 18.472 75.8092 17.003 67.4131C15.534 59.017 18.9852 49.3493 27.2936 45.4842C36.6119 41.1495 48.0806 45.2922 58.2726 43.1417C67.4875 41.1975 74.3799 34.4623 82.2095 29.6256C91.2792 24.0229 102.117 20.8278 113.069 20.5278C120.891 20.3134 129.031 21.6615 135.379 25.8344C143.608 31.2446 147.702 40.7668 148.033 50.0106C148.365 59.2544 145.392 68.3283 141.834 76.9895C140.105 81.1965 138.248 85.9876 140.465 89.9998L29.4188 89.9829Z" fill="#E3E8FF"/>
<path d="M26.9199 49.3788C25.1523 46.4481 23.3443 43.5578 21.4956 40.7114C19.9952 38.401 13.9337 27.7885 10.9838 30.3609C9.5013 31.6538 10.4915 36.1895 10.9015 37.9669C11.3887 40.0786 12.1739 42.0802 13.2207 43.8203C14.4475 43.6562 15.6728 43.4813 16.9068 43.3773C18.7738 43.2198 20.7229 43.1808 22.5338 43.7322C22.9051 43.8453 22.7457 44.4284 22.3734 44.315C20.5803 43.7693 18.6523 43.8293 16.8054 43.9905C15.7226 44.0849 14.6466 44.2326 13.5699 44.3781C13.8712 44.8373 14.1913 45.2766 14.5305 45.6909C15.9974 47.482 17.7312 48.8051 19.5333 50.0016C21.9984 49.7887 24.4383 49.1107 26.9199 49.3788Z" fill="black"/>
<path d="M27.2204 49.8823C27.1749 49.9547 27.0943 50.0015 26.9772 49.9883C24.7453 49.7339 22.5469 50.2554 20.334 50.5225C21.4307 51.226 22.5415 51.9023 23.6233 52.6244C26.7624 54.72 29.897 57.5381 31.174 61.7939C29.3699 61.1648 27.4938 60.5304 25.6539 60.9536C23.8141 61.3767 22.0222 63.1813 21.8826 65.5884C21.7834 67.2985 22.4695 68.7381 23.4518 69.9455C26.5467 69.4777 29.6033 68.7352 32.7447 68.6373C33.1338 68.6253 33.1321 69.2297 32.7447 69.2417C29.762 69.3347 26.8533 70.009 23.9167 70.4773C24.59 71.1994 25.3522 71.8308 26.0798 72.3802C26.4338 72.6476 26.7879 72.915 27.1418 73.1823C27.3716 73.1549 27.6015 73.1269 27.8313 73.1004C29.508 72.9064 31.197 72.7411 32.887 72.7877C34.4354 72.8304 36.0335 73.0435 37.4202 73.7752C37.7643 73.9567 37.4589 74.4782 37.1155 74.2972C36.3805 73.9094 35.5728 73.6886 34.7557 73.5552C32.4672 73.1814 30.1353 73.4215 27.8286 73.7011C31.9604 76.8213 36.092 79.9414 40.2238 83.0612C38.1141 83.1569 36.0041 83.2526 33.8943 83.3482C32.9989 83.3889 31.826 83.7606 31.7885 84.9169C31.752 86.0442 32.847 86.5598 33.7101 86.735C37.1319 87.4296 40.554 88.1243 43.9758 88.819H47.1576C41.2839 75.2158 34.6115 62.1891 27.2204 49.8823Z" fill="black"/>
<path d="M9.80708 25.9978C8.24448 29.3458 9.22441 33.687 10.7895 37.033C11.1794 37.8665 11.6232 38.6465 12.1067 39.3858C14.7261 39.3255 17.3475 39.2418 19.9326 39.768C20.3135 39.8455 20.1514 40.4281 19.7722 40.3508C17.3759 39.8632 14.9406 39.9174 12.5088 39.9782C13.8912 41.9474 15.5427 43.6323 17.1697 45.2814C17.5738 45.6911 17.9779 46.1004 18.382 46.5101C18.5976 46.5091 18.8129 46.5086 19.0284 46.5103C20.9613 46.526 22.9457 46.6349 24.7956 47.2428C25.1634 47.3637 25.005 47.9472 24.6351 47.8256C22.8176 47.2283 20.8788 47.1277 18.9789 47.1147C21.725 49.8978 24.471 52.6809 27.2171 55.464C25.5764 54.3746 23.6941 54.5005 21.8494 54.4789C20.0046 54.4573 18.0085 55.8996 17.6737 58.2426C17.4188 60.0262 18.1266 61.6093 19.1496 62.9429C22.6652 62.8163 26.1772 62.3662 29.6913 62.7479C30.0739 62.7894 30.0768 63.3943 29.6913 63.3523C26.3373 62.9881 22.9853 63.3808 19.6304 63.5274C20.1411 64.1093 20.6983 64.6364 21.2386 65.103C23.3439 66.9216 25.4816 68.6776 27.6482 70.3721C31.2681 70.3026 34.8868 69.7517 38.5119 69.996C38.8979 70.022 38.8996 70.6267 38.5119 70.6004C35.1371 70.3728 31.7678 70.8344 28.3979 70.9554C32.6002 74.2038 36.9116 77.2174 41.3165 79.9824C38.4228 79.5825 35.7024 79.7707 32.8089 79.3708C32.0519 79.2663 31.1126 79.2757 30.745 80.1371C30.4417 80.8473 30.7503 81.7808 31.2527 82.2675C31.7548 82.7542 32.3962 82.9131 33.0088 83.0912C36.3747 84.0694 39.5563 86.0573 42.2629 88.8183H50.0433C41.5225 63.5797 27.4143 41.5253 9.80708 25.9978Z" fill="#0097A7"/>
<path d="M10.9926 62.1889C9.54948 60.8484 3.53445 54.4894 1.73231 57.1028C0.826592 58.4163 2.21677 61.5222 2.77764 62.7339C3.12592 63.4862 3.52979 64.1964 3.98216 64.8506C6.42404 64.1135 8.92518 63.5493 11.4851 63.5405C11.874 63.5392 11.8733 64.1436 11.4851 64.1448C9.05547 64.1532 6.68194 64.6762 4.36155 65.3664C5.01867 66.2215 5.76201 66.9647 6.57809 67.5517C7.46936 68.1927 8.41745 68.6526 9.39396 69.02C11.4964 68.4068 13.5667 67.6312 15.7823 67.6174C16.1714 67.615 16.1705 68.2194 15.7823 68.2218C13.9106 68.2334 12.1403 68.8091 10.3653 69.3553C11.6634 69.7684 12.9941 70.0718 14.2944 70.4611C16.915 71.2456 19.6373 72.564 21.1982 75.3939C19.7757 75.3674 18.2993 75.3547 17.0037 76.1131C15.7078 76.8716 14.6485 78.6377 14.8954 80.4472C15.0139 81.315 15.3789 82.0048 15.88 82.5623C18.1171 81.6798 20.2156 80.3226 22.6805 80.3017C23.0697 80.2985 23.0687 80.9029 22.6805 80.9061C20.4 80.9253 18.4203 82.1424 16.3488 83.0137C17.1234 83.6706 18.0901 84.1094 18.9795 84.4396C19.5394 84.6473 20.0992 84.8551 20.6591 85.0628C23.2188 84.0616 25.704 82.5246 28.528 82.9175C28.9115 82.9707 28.7474 83.5531 28.3676 83.5003C26.8091 83.2835 25.2517 83.7984 23.8245 84.3738C23.042 84.6893 22.2727 85.0442 21.4936 85.3726C24.5887 86.5211 27.6837 87.6696 30.7788 88.818H34.9564C27.5843 79.0696 19.558 70.1462 10.9926 62.1889Z" fill="black"/>
<path d="M23.6167 88.8184H37.8555C28.0175 73.2002 14.8774 61.0707 0.229862 54.1694C-0.375339 56.759 0.689335 59.4417 2.12066 61.4779C4.1589 60.9527 6.20399 60.4582 8.31889 60.3692C8.70783 60.3527 8.70587 60.9574 8.31889 60.9736C6.33723 61.057 4.4168 61.5083 2.50519 62.0004C2.52356 62.0239 2.54119 62.0487 2.55956 62.072C3.87699 63.7488 5.52728 64.8818 7.21724 65.886C9.31352 65.6437 11.4054 65.3611 13.5208 65.5787C13.9041 65.6182 13.9068 66.2228 13.5208 66.1831C11.6964 65.9954 9.88933 66.1799 8.08206 66.3899C8.21015 66.4632 8.33824 66.5366 8.46585 66.6094C11.4301 68.3009 14.3944 69.9925 17.3587 71.6842C15.9898 71.2785 14.6195 71.8282 13.2555 72.2597C11.8916 72.6912 10.6285 74.2397 10.7223 76.0495C10.8188 77.9159 12.1654 79.0813 13.557 79.8473C15.6384 78.8757 17.7442 77.9566 19.9992 77.4812C20.3788 77.4013 20.5395 77.9841 20.1596 78.064C18.091 78.4999 16.1517 79.3126 14.2404 80.1939C14.2766 80.2108 14.3134 80.229 14.3494 80.2454C15.897 80.9528 17.4562 81.6178 19.0237 82.2482C21.4195 81.6899 23.8347 81.2155 26.2991 81.2077C26.688 81.2065 26.6873 81.8109 26.2991 81.8121C24.1732 81.8187 22.085 82.18 20.0142 82.64C23.7392 84.0958 27.5142 85.3379 31.3259 86.3517C29.1328 86.7587 27.1534 87.5576 24.9604 87.9645C24.448 88.0604 23.8442 88.2608 23.6167 88.8184Z" fill="#0097A7"/>
<path d="M128.968 55.0891C130.479 52.5827 132.026 50.1109 133.607 47.6767C134.89 45.7008 140.074 36.6245 142.596 38.8246C143.864 39.9303 143.017 43.8094 142.667 45.3292C142.25 47.1351 141.579 48.8469 140.683 50.3351C139.634 50.1948 138.586 50.0452 137.531 49.9561C135.934 49.8215 134.267 49.7881 132.718 50.2596C132.401 50.3562 132.537 50.8549 132.856 50.758C134.389 50.2912 136.038 50.3427 137.618 50.4803C138.544 50.561 139.464 50.6874 140.385 50.8117C140.127 51.2044 139.853 51.58 139.563 51.9344C138.309 53.4663 136.826 54.5978 135.285 55.6209C133.177 55.4399 131.09 54.86 128.968 55.0891Z" fill="black"/>
<path d="M128.711 55.52C128.75 55.5818 128.819 55.6218 128.919 55.6105C130.828 55.393 132.708 55.8389 134.601 56.0675C133.663 56.6692 132.713 57.2476 131.788 57.865C129.103 59.6571 126.423 62.0673 125.33 65.7067C126.873 65.1686 128.478 64.6262 130.051 64.988C131.625 65.3498 133.157 66.8932 133.276 68.9517C133.361 70.4144 132.775 71.6455 131.935 72.6779C129.288 72.2779 126.674 71.6428 123.987 71.5592C123.654 71.5489 123.656 72.0657 123.987 72.076C126.538 72.1555 129.026 72.7321 131.537 73.1327C130.961 73.7504 130.309 74.2902 129.687 74.7602C129.385 74.9888 129.082 75.2174 128.779 75.4461C128.583 75.4225 128.386 75.3987 128.189 75.3759C126.755 75.2098 125.311 75.0685 123.866 75.1085C122.542 75.1451 121.175 75.3273 119.989 75.9531C119.694 76.1083 119.956 76.5543 120.249 76.3995C120.878 76.0679 121.569 75.879 122.267 75.7649C124.225 75.4453 126.219 75.6506 128.192 75.8898C124.658 78.5581 121.125 81.2264 117.591 83.8949C119.396 83.9768 121.2 84.0585 123.004 84.1404C123.77 84.1753 124.773 84.4932 124.805 85.4819C124.836 86.4462 123.9 86.8869 123.162 87.0368C120.235 87.6309 117.309 88.225 114.382 88.8191H111.661C116.684 77.1857 122.39 66.045 128.711 55.52Z" fill="black"/>
<path d="M143.603 35.0935C144.939 37.9568 144.102 41.6695 142.763 44.5311C142.43 45.2439 142.05 45.9111 141.637 46.5432C139.397 46.4915 137.155 46.4201 134.944 46.87C134.618 46.9362 134.757 47.4344 135.081 47.3684C137.13 46.9514 139.213 46.9978 141.293 47.0498C140.11 48.7339 138.698 50.1748 137.306 51.5852C136.961 51.9355 136.615 52.2858 136.27 52.636C136.086 52.6351 135.901 52.6348 135.717 52.6363C134.064 52.6498 132.367 52.743 130.785 53.2625C130.47 53.366 130.606 53.865 130.922 53.7609C132.477 53.2503 134.135 53.1642 135.759 53.1531C133.411 55.5332 131.062 57.9135 128.714 60.2936C130.117 59.3619 131.727 59.4696 133.304 59.451C134.882 59.4323 136.589 60.6659 136.876 62.6699C137.094 64.1952 136.488 65.5492 135.614 66.6895C132.607 66.5814 129.603 66.1963 126.598 66.5227C126.271 66.5583 126.268 67.0754 126.598 67.0396C129.466 66.7281 132.333 67.0639 135.202 67.1894C134.766 67.6871 134.289 68.1377 133.827 68.5368C132.026 70.0922 130.198 71.5939 128.346 73.0431C125.25 72.9837 122.155 72.5125 119.055 72.7215C118.725 72.7438 118.723 73.2609 119.055 73.2383C121.941 73.0438 124.822 73.4385 127.704 73.542C124.11 76.3202 120.423 78.8975 116.656 81.2621C119.131 80.9201 121.457 81.0811 123.932 80.7391C124.579 80.6496 125.382 80.6579 125.697 81.3943C125.956 82.0016 125.692 82.8001 125.263 83.2163C124.833 83.6326 124.285 83.7685 123.761 83.9205C120.882 84.7572 118.161 86.4571 115.846 88.8185H109.192C116.48 67.2341 128.545 48.3729 143.603 35.0935Z" fill="#0097A7"/>
<path d="M142.589 66.0444C143.823 64.8982 148.967 59.4598 150.509 61.6949C151.283 62.8181 150.094 65.4746 149.615 66.5107C149.317 67.1541 148.971 67.7614 148.584 68.3207C146.496 67.6906 144.357 67.2078 142.168 67.2002C141.835 67.199 141.836 67.7161 142.168 67.717C144.246 67.7242 146.276 68.1713 148.26 68.7617C147.698 69.493 147.062 70.1285 146.364 70.6306C145.602 71.1788 144.791 71.572 143.956 71.8865C142.158 71.3621 140.387 70.6988 138.493 70.687C138.16 70.6851 138.161 71.2019 138.493 71.2039C140.093 71.2137 141.607 71.7062 143.125 72.1733C142.015 72.5265 140.877 72.786 139.765 73.1189C137.524 73.7897 135.196 74.9173 133.861 77.3374C135.077 77.3148 136.34 77.3038 137.448 77.9526C138.556 78.6014 139.462 80.1116 139.251 81.6592C139.15 82.4014 138.838 82.9914 138.409 83.4682C136.496 82.7134 134.701 81.5527 132.593 81.5348C132.26 81.5321 132.261 82.049 132.593 82.0517C134.544 82.0681 136.237 83.1091 138.008 83.8541C137.346 84.416 136.519 84.7911 135.758 85.0734C135.28 85.251 134.801 85.4288 134.322 85.6064C132.133 84.7501 130.007 83.4356 127.592 83.7716C127.264 83.8173 127.405 84.3152 127.729 84.2701C129.062 84.0846 130.394 84.5249 131.615 85.0172C132.284 85.287 132.942 85.5907 133.608 85.8713C130.961 86.8535 128.314 87.8359 125.667 88.818H122.095C128.4 80.4813 135.264 72.8495 142.589 66.0444Z" fill="black"/>
<path d="M131.793 88.8185H119.616C128.03 75.4614 139.268 65.0882 151.794 59.1863C152.312 61.4008 151.401 63.6952 150.177 65.4366C148.434 64.9874 146.685 64.5645 144.876 64.4883C144.544 64.4743 144.546 64.9914 144.876 65.0051C146.571 65.0765 148.214 65.4626 149.848 65.8832C149.833 65.9033 149.818 65.9247 149.802 65.9446C148.675 67.3785 147.264 68.3477 145.819 69.2062C144.026 68.9989 142.237 68.7573 140.428 68.9435C140.1 68.9773 140.098 69.4944 140.428 69.4603C141.988 69.2997 143.533 69.4576 145.079 69.6372C144.97 69.7 144.86 69.7625 144.751 69.8248C142.216 71.2716 139.68 72.718 137.146 74.1648C138.316 73.8179 139.488 74.2879 140.655 74.6568C141.821 75.026 142.901 76.3501 142.821 77.8979C142.739 79.494 141.587 80.4906 140.397 81.146C138.617 80.315 136.816 79.5291 134.887 79.1226C134.563 79.0542 134.425 79.5526 134.75 79.621C136.519 79.9939 138.178 80.6888 139.812 81.4426C139.781 81.4571 139.75 81.4725 139.719 81.4867C138.396 82.0919 137.062 82.6605 135.722 83.1996C133.673 82.7223 131.607 82.3163 129.5 82.3097C129.167 82.3087 129.168 82.8255 129.5 82.8265C131.318 82.8322 133.104 83.1412 134.875 83.5347C131.689 84.7795 128.461 85.8421 125.201 86.709C127.076 87.0571 128.769 87.7402 130.645 88.0883C131.082 88.1702 131.599 88.3417 131.793 88.8185Z" fill="#0097A7"/>
<path d="M64.3965 50.4867C63.5564 46.9089 62.6154 43.1412 60.0499 40.5134C59.1948 43.9208 58.5108 47.371 58.0008 50.8471C57.475 54.4335 56.485 60.8059 59.7557 63.4796C60.9742 64.4755 62.5755 64.4797 64.0406 64.1397C64.8053 63.9621 66.5026 63.6118 66.9623 62.9174C67.5114 62.0876 66.6992 60.2957 66.4906 59.4065C65.7925 56.4334 65.0945 53.4602 64.3965 50.4867Z" fill="#A90466"/>
<path d="M83.585 71.8525C82.0119 71.6463 72.4587 71.8525 65.4532 70.0965C65.3322 68.0179 65.6496 62.1449 65.6496 62.1449C61.8286 59.3105 58.8019 60.3707 54.5432 62.4893C54.25 67.034 53.9571 71.579 53.6639 76.1238C53.5544 77.8232 53.503 79.7107 54.6005 81.0113C56.0972 82.7852 58.8575 82.5345 61.1237 82.0427C71.6627 79.7549 74.3243 77.3444 83.9695 76.7903C83.7878 75.4424 84.6722 72.7496 83.585 71.8525Z" fill="#FF9B6D"/>
<path d="M62.2217 73.6088C62.7904 72.6565 64.1492 70.9201 65.4532 70.0964" stroke="black" stroke-miterlimit="10" stroke-linecap="round" stroke-linejoin="round"/>
<path d="M88.5628 75.7905C89.3527 76.9145 90.0008 78.1382 90.4865 79.4235C90.2256 80.4194 89.7862 81.2414 89.3451 82.1715C89.145 82.1789 88.9314 82.0087 88.845 81.8281C88.7583 81.6474 88.7495 81.4398 88.7561 81.2394C88.7749 80.689 88.9028 80.1427 89.1301 79.6414C88.7024 78.657 87.9824 77.7013 87.2305 76.9363L88.5628 75.7905Z" fill="#DE875F"/>
<path d="M90.2476 74.6411C91.3473 76.2058 92.2494 77.9094 92.9256 79.6988C92.5624 81.0854 91.9508 82.2297 91.3365 83.5244C91.0581 83.5347 90.7607 83.2977 90.6402 83.0463C90.5197 82.7946 90.507 82.5057 90.5165 82.2268C90.5427 81.4607 90.7208 80.7001 91.0372 80.002C90.4418 78.6318 89.4394 77.3013 88.3926 76.2362L90.2476 74.6411Z" fill="#DE875F"/>
<path d="M92.8707 75.0002C93.9704 76.565 94.8724 78.2685 95.5486 80.0579C95.1854 81.4446 94.5738 82.5888 93.9596 83.8835C93.6811 83.8938 93.3838 83.6568 93.2633 83.4054C93.1428 83.1537 93.1303 82.8648 93.1396 82.5859C93.1658 81.8199 93.3439 81.0592 93.6603 80.3611C93.0649 78.9907 92.0624 77.6604 91.0156 76.5951L92.8707 75.0002Z" fill="#DE875F"/>
<path d="M83.5843 71.8525C82.814 72.599 82.5326 75.7554 83.3305 76.4721C86.9901 79.7578 88.7284 76.3554 92.3098 77.6866C92.3098 77.6866 92.3441 75.3067 92.6834 74.8301L83.5843 71.8525Z" fill="#FF9B6D"/>
<path d="M92.6836 74.8301C94.4419 76.0261 96.0491 77.4449 97.4549 79.0417C97.6207 80.628 97.4329 82.0598 97.3011 83.6493C97.0153 83.7695 96.6129 83.64 96.3888 83.4254C96.1647 83.211 96.0381 82.9149 95.9386 82.621C95.6653 81.813 95.5524 80.9513 95.608 80.1002C94.4507 78.9078 92.8854 77.9173 91.3779 77.2204L92.6836 74.8301Z" fill="#FF9B6D"/>
<path d="M85.4871 78.3555C86.338 79.526 87.6077 80.3075 88.8435 81.0586C89.9849 81.7523 91.1262 82.446 92.2678 83.1397C92.3072 83.1637 92.3479 83.188 92.3932 83.1961C92.6197 83.2363 92.6986 82.9005 92.654 82.6743C92.3824 81.2992 91.4172 80.4466 90.3628 79.6401C89.6425 79.0889 89.2574 78.4342 89.2109 77.5247C89.1852 77.0223 89.1384 76.5155 88.9366 76.0488C88.6424 75.3681 88.0617 74.8566 87.4641 74.4188C87.1247 74.1701 86.7656 73.9334 86.36 73.8213C85.1834 73.496 84.539 74.5225 84.4308 75.5677C84.3343 76.4962 84.9642 77.636 85.4871 78.3555Z" fill="#FF9B6D"/>
<path d="M66.2949 62.837C64.2817 60.8192 61.3125 59.8032 58.4873 60.1652" stroke="black" stroke-miterlimit="10" stroke-linecap="round" stroke-linejoin="round"/>
<path d="M34.1407 31.3822C28.5408 31.9287 22.2132 33.7564 19.9031 38.8943C15.3777 48.9584 22.1047 60.0929 22.1047 60.0929C21.9244 67.17 22.129 74.257 22.7305 81.32C22.9063 83.3858 23.1209 85.4752 23.84 87.4194H62.9283C62.2506 74.9939 61.4791 62.0761 63.0894 49.6702C64.0162 42.5305 59.7085 35.7626 52.8294 33.6718C47.3204 31.9977 40.6269 30.7494 34.1407 31.3822Z" fill="#F5D0E6"/>
<path d="M48.4102 38.8943C51.3833 50.5098 51.1846 62.6714 50.9669 74.6605C50.891 78.8445 50.815 83.0287 50.7391 87.2126" stroke="black" stroke-miterlimit="10" stroke-linecap="round" stroke-linejoin="round"/>
<path d="M55.2058 11.7939C51.965 14.8519 48.7242 17.91 45.4834 20.968C45.03 21.3956 44.5686 21.8293 44.0126 22.1104C43.4566 22.3915 43.0577 22.5894 42.4833 22.3483C41.8891 20.3372 40.8039 18.4734 39.349 16.9649C39.0662 16.6715 38.7588 16.3742 38.6378 15.9849C38.447 15.3702 38.7754 14.7151 39.1744 14.2105C39.0662 14.3471 37.9836 13.2048 37.9136 13.0324C37.7213 12.5594 37.8134 11.5636 38.3845 11.3808C38.1688 11.096 37.9581 10.8539 37.7882 10.5395C37.4632 9.93728 37.1492 8.46013 38.2545 8.38581C38.002 7.87584 38.0275 7.034 38.2944 6.53164C38.5614 6.02904 39.0796 5.66871 39.643 5.5934C39.4896 5.19162 39.6513 4.55925 39.8634 4.18518C40.0566 3.84472 40.2969 3.51186 40.6425 3.32863C40.9881 3.14539 41.46 3.15349 41.7287 3.43827C42.0153 2.44631 43.031 1.6366 44.0493 1.47422C44.3366 1.42835 44.6413 1.43105 44.9056 1.55247C45.1699 1.67389 45.3839 1.93365 45.3881 2.22506C45.6761 1.75459 46.2546 1.28608 46.7665 1.08175C47.0979 0.949539 47.4545 0.887482 47.8109 0.874972C48.1728 0.862217 48.5574 0.90735 48.8449 1.12787C49.1324 1.34838 49.2745 1.78844 49.0705 2.08794C49.4261 1.26916 50.3553 0.676775 51.2412 0.777835C51.8045 0.842102 52.3799 1.20538 52.4911 1.76219C52.9689 1.28117 53.9777 1.35084 54.555 1.70602C55.1323 2.0612 55.4145 2.83387 55.2021 3.47825C55.8245 3.33476 56.6197 3.6242 56.99 4.1452C57.3604 4.6662 57.3822 5.41189 57.0429 5.95374C57.5617 6.08178 57.8304 6.69574 57.9158 7.22386C58.0013 7.75222 57.7456 8.31982 57.2937 8.60534C57.7201 8.79176 57.7434 9.39984 57.629 9.85167C57.5144 10.3033 57.173 10.6638 56.799 10.941C56.425 11.2182 56.0074 11.4343 55.6444 11.7257" fill="#773040"/>
<path d="M50.8073 22.9799C48.6412 20.1784 46.1807 18.2178 42.9823 16.7031C42.236 22.3701 40.8064 27.9461 38.7373 33.2731C42.0215 35.4503 45.7933 36.6137 49.6417 37.1237C49.579 32.3834 49.9427 27.636 50.8073 22.9799Z" fill="#FF9B6D"/>
<path d="M50.8072 22.98C48.9429 20.5685 46.8588 18.7813 44.2754 17.364C44.3263 22.1796 46.3403 26.7911 49.9005 29.7598C50.0928 27.486 50.3908 25.2224 50.8072 22.98Z" fill="black"/>
<path d="M56.0669 8.32714C53.3015 6.45066 46.6479 7.75365 44.752 8.68453C44.9043 9.85825 45.2803 11.8363 45.2803 11.8363L44.0785 15.7548C44.0785 15.7548 41.5455 14.2872 40.4186 15.1524C38.3057 16.7747 41.5969 21.2825 44.1512 20.041C44.2673 19.9846 45.2507 25.566 52.0644 26.2646C54.7725 26.5423 56.5207 25.5339 56.833 22.4223C57.3087 17.684 57.3981 13.6438 56.0669 8.32714Z" fill="#FF9B6D"/>
<path d="M49.7139 22.0669C50.1709 22.6769 50.6933 23.1749 51.3931 23.4866C52.0127 23.7628 52.7284 23.9105 53.4269 23.6637C53.4891 23.6419 53.5506 23.6125 53.6115 23.5799C52.9564 22.2661 51.1743 21.6717 49.7139 22.0669Z" fill="#961717"/>
<path d="M54.8066 21.6809C53.9562 21.0616 51.3948 21.2504 49.3223 21.5004C49.4484 21.6983 49.5782 21.887 49.7132 22.067C51.1736 21.6718 52.9557 22.2664 53.6108 23.5802C54.2356 23.2466 54.7806 22.3905 54.8066 21.6809Z" fill="#520C0C"/>
<path d="M53.209 19.9997C53.5208 19.9232 53.8375 19.8447 54.1189 19.6693C54.4003 19.4939 54.6467 19.2052 54.7219 18.8412C54.8162 18.3837 54.6293 17.9181 54.448 17.4987C54.0905 16.6721 53.7331 15.8457 53.3755 15.019" stroke="black" stroke-miterlimit="10" stroke-linecap="round" stroke-linejoin="round"/>
<path d="M40.7611 16.6353C40.7224 16.1675 41.184 15.7581 41.6526 15.7547C42.1211 15.7515 42.5473 16.0735 42.7812 16.4802C43.0153 16.8867 43.0868 17.3662 43.115 17.8345C42.7819 17.6253 42.2715 17.8288 42.1733 18.2103C42.0751 18.5917 42.4238 19.017 42.8164 18.995" stroke="black" stroke-miterlimit="10" stroke-linecap="round" stroke-linejoin="round"/>
<path d="M50.2375 15.2218C50.0232 15.6516 49.5015 15.826 49.0724 15.6113C48.6433 15.3967 48.4692 14.8742 48.6835 14.4445C48.8978 14.0147 49.4195 13.8403 49.8486 14.055C50.2777 14.2696 50.4518 14.7918 50.2375 15.2218Z" fill="black"/>
<path d="M56.3918 15.2218C56.1775 15.6516 55.6558 15.826 55.2267 15.6113C54.7976 15.3967 54.6235 14.8742 54.8378 14.4445C55.0521 14.0147 55.5738 13.8403 56.0029 14.055C56.432 14.2696 56.6061 14.7918 56.3918 15.2218Z" fill="black"/>
<path d="M47.0801 12.7421C47.7497 12.2601 49.2863 11.3653 50.7828 11.9559" stroke="black" stroke-width="2" stroke-miterlimit="10" stroke-linecap="round" stroke-linejoin="round"/>
<path d="M53.9766 12.1453C54.7334 11.6593 55.8265 11.7911 56.4466 12.4426" stroke="black" stroke-width="2" stroke-miterlimit="10" stroke-linecap="round" stroke-linejoin="round"/>
<path d="M52.6372 15.7679C52.9908 14.2452 52.0449 12.7238 50.5245 12.3697C49.0041 12.0156 47.485 12.9629 47.1314 14.4856C46.7778 16.0083 47.7237 17.5297 49.2441 17.8838C50.7645 18.2379 52.2836 17.2906 52.6372 15.7679Z" stroke="black" stroke-miterlimit="10" stroke-linecap="round" stroke-linejoin="round"/>
<path d="M56.3422 17.9582C57.5538 17.9582 58.536 16.6909 58.536 15.1275C58.536 13.5642 57.5538 12.2969 56.3422 12.2969C55.1306 12.2969 54.1484 13.5642 54.1484 15.1275C54.1484 16.6909 55.1306 17.9582 56.3422 17.9582Z" stroke="black" stroke-miterlimit="10" stroke-linecap="round" stroke-linejoin="round"/>
<path d="M52.3652 13.7912C52.6807 13.6472 53.0025 13.5015 53.3466 13.4591C53.6908 13.4167 54.0672 13.4929 54.3106 13.7402" stroke="black" stroke-miterlimit="10" stroke-linecap="round" stroke-linejoin="round"/>
<path d="M47.1132 14.4956C45.7302 14.6482 44.3544 14.8665 42.9922 15.1496" stroke="black" stroke-miterlimit="10" stroke-linecap="round" stroke-linejoin="round"/>
<path d="M44.1148 16.9587C44.5211 18.7145 43.7878 20.3845 42.477 20.6886C41.1661 20.9928 39.7743 19.8161 39.3679 18.0606C38.9616 16.3048 39.6949 14.6348 41.0057 14.3307C42.3165 14.0263 43.7084 15.2029 44.1148 16.9587Z" fill="black"/>
<path d="M42.7332 2.93815C40.6049 4.78029 39.7714 7.60924 39.6546 10.3406C39.5764 12.1709 39.8003 13.9959 40.0227 15.8089C40.08 16.2761 40.8143 16.2369 40.7562 15.7649C40.4126 12.9637 40.0587 10.0658 40.8655 7.30901C41.5799 4.86811 43.3019 2.83366 45.7668 2.06344C45.77 2.06246 45.7734 2.06172 45.7766 2.06074L46.6179 1.13452C45.2062 1.35847 43.8572 1.96532 42.7332 2.93815Z" fill="black"/>
<path d="M47.2776 22.2291C45.7593 21.6156 44.4037 20.6497 43.3263 19.4149C43.2224 19.2959 43.0588 19.4787 43.1615 19.5964C44.2506 20.8447 45.6298 21.8266 47.1647 22.4469C47.3099 22.5056 47.4236 22.2882 47.2776 22.2291Z" fill="black"/>
<path d="M47.2663 21.7446C46.4786 21.7446 46.5521 22.9691 47.3393 22.9691C48.1269 22.9691 48.0535 21.7446 47.2663 21.7446Z" fill="black"/>
<path d="M36.1738 34.2477C36.5055 32.7978 37.0472 31.3965 37.7766 30.1006C40.6716 31.1264 43.2802 32.3043 45.8994 33.9097C45.8994 33.9097 46.2764 35.8007 46.4799 38.2521C43.8462 38.7964 39.3235 36.9879 36.1738 34.2477Z" fill="#A90466"/>
<path d="M37.0205 32.9426C38.9084 34.9145 41.1678 36.5285 43.6442 37.6743C44.2545 36.3669 44.979 35.0948 45.8012 33.9098C46.0591 35.3433 46.3334 36.8033 46.4794 38.2525" stroke="black" stroke-miterlimit="10" stroke-linecap="round" stroke-linejoin="round"/>
<path d="M49.5908 38.1226C50.0136 36.9141 50.4564 35.7129 50.919 34.519C51.1789 35.4651 51.4388 36.411 51.6986 37.3571L49.9893 37.0019" stroke="black" stroke-miterlimit="10" stroke-linecap="round" stroke-linejoin="round"/>
<path d="M49.791 34.092C50.1633 34.2449 50.5471 34.3665 50.9194 34.5193" stroke="black" stroke-miterlimit="10" stroke-linecap="round" stroke-linejoin="round"/>
<path d="M28.5608 70.0411C28.9668 70.0783 29.3514 69.8691 29.6972 69.6528C33.4518 67.3029 35.9363 63.4059 38.0882 59.5308C38.6243 58.5656 39.159 57.5562 39.2452 56.4551C36.9278 56.6052 34.8009 57.8199 33.009 59.2997C31.5383 60.5144 30.2211 61.9393 29.2762 63.5977C28.6396 64.715 28.1774 65.9393 27.9641 67.2096C27.8431 67.9301 27.3621 69.9312 28.5608 70.0411Z" fill="black"/>
<path d="M57.2238 48.345C53.7645 52.7438 50.3927 57.2113 47.1107 61.7443C45.4697 64.0105 43.8515 66.293 42.2559 68.5916C41.0222 70.3687 39.5906 72.5028 39.7667 74.7781C39.924 76.8091 41.321 78.7935 42.9669 79.9177C44.8256 81.1873 48.0272 80.4939 49.8737 77.6228C52.042 74.2515 58.1782 59.3142 60.9211 51.9473L57.2238 48.345Z" fill="#FF9B6D"/>
<path d="M72.8483 47.6755C73.5748 47.2946 75.2258 43.3604 75.0957 43.2117C75.0423 43.1507 74.9686 43.106 74.8895 43.0884C73.7908 42.8411 72.0132 45.2388 71.6759 46.0412C70.2186 46.3883 68.0778 46.7263 66.6205 47.0734C66.437 47.117 66.2244 47.1867 66.1681 47.367C66.1348 47.4729 66.1681 47.587 66.2012 47.693C66.3435 48.1482 66.4858 48.6035 66.6281 49.0585C66.6614 49.1647 66.6988 49.2776 66.7853 49.3475C66.9193 49.4559 67.114 49.4223 67.2818 49.3833C69.2818 48.9157 72.3656 47.9289 72.8483 47.6755Z" fill="#DE875F"/>
<path d="M70.7874 47.1276C71.4886 46.702 72.8918 42.6723 72.7526 42.532C72.6956 42.4746 72.6192 42.4344 72.5393 42.4217C71.4271 42.2433 69.8026 44.7475 69.5158 45.5692C68.083 46.0068 65.9673 46.4778 64.5345 46.9152C64.3543 46.9701 64.1463 47.053 64.1013 47.2362C64.0748 47.3439 64.115 47.4558 64.1547 47.5595C64.3249 48.005 64.4954 48.4504 64.6658 48.8959C64.7055 48.9999 64.7501 49.11 64.8407 49.1745C64.981 49.2744 65.1735 49.2288 65.3384 49.1792C67.3049 48.588 70.3213 47.4104 70.7874 47.1276Z" fill="#DE875F"/>
<path d="M67.7269 47.241C68.3441 46.8665 69.5793 43.3196 69.4568 43.1959C69.4066 43.1454 69.3393 43.1101 69.269 43.0988C68.29 42.9418 66.8599 45.146 66.6074 45.8694C65.3463 46.2545 63.4839 46.669 62.2228 47.0541C62.0641 47.1027 61.8811 47.1755 61.8415 47.3367C61.8182 47.4316 61.8535 47.53 61.8885 47.6212C62.0384 48.0135 62.1885 48.4054 62.3384 48.7974C62.3734 48.8889 62.4124 48.9858 62.4922 49.0427C62.6157 49.1305 62.7851 49.0903 62.9304 49.0469C64.6617 48.5266 67.3169 47.49 67.7269 47.241Z" fill="#DE875F"/>
<path d="M59.8115 53.8813C61.9568 52.5062 67.4369 49.6694 67.4369 49.6694C70.1511 48.7888 72.7338 48.4655 75.4941 48.1393C75.7098 48.1138 75.9259 47.9985 76.0449 47.8165C76.2193 47.5493 76.0716 47.1674 75.8112 46.9834C75.5509 46.7995 75.2171 46.7637 74.8992 46.7433C73.3422 46.643 69.7984 47.021 68.2762 47.3636C66.599 47.7412 65.7359 47.7961 64.0251 47.6271C63.7021 47.5952 62.63 46.8081 62.7378 46.5015C63.0704 45.5556 64.0234 45.3196 64.6012 44.5006C65.3876 43.3855 66.4359 42.2724 66.3844 40.9081C66.3798 40.7815 66.3627 40.649 66.2889 40.5463C66.1412 40.3407 65.8197 40.3409 65.6034 40.4719C65.3871 40.6029 65.2468 40.8259 65.0996 41.0319C64.2828 42.1755 63.0702 42.9675 61.8436 43.6514C60.617 44.3355 59.3354 44.9475 58.2538 45.8441C57.1722 46.7406 56.29 47.9864 56.1906 49.389C56.0911 50.7911 58.4377 53.5909 59.8115 53.8813Z" fill="#FF9B6D"/>
<path d="M46.029 67.2914C43.5736 63.7649 41.2804 60.125 39.1589 56.3872C33.7983 57.373 29.2484 61.6006 28.2256 66.962C31.3165 72.4597 36.7501 76.0223 42.1381 79.2916C43.1913 79.9306 44.3618 80.5928 45.5785 80.4025C46.6082 80.2416 47.4701 79.4674 47.9474 78.5398C48.4248 77.6121 48.5639 76.546 48.5818 75.5023C48.6293 72.6989 47.6305 69.592 46.029 67.2914Z" fill="#FF9B6D"/>
<path d="M23.6387 62.5999C24.7832 64.9533 26.2277 67.5509 27.8173 69.6288C27.7805 66.5077 29.1759 63.0711 31.3197 60.8056C33.4635 58.5401 36.2 56.8476 39.2865 56.4848C37.2899 51.8419 35.6239 46.8583 34.295 41.9814" stroke="black" stroke-miterlimit="10" stroke-linecap="round" stroke-linejoin="round"/>
<path d="M44.4603 65.2085C42.2127 67.4169 41.2477 70.8507 42.0148 73.909" stroke="black" stroke-miterlimit="10" stroke-linecap="round" stroke-linejoin="round"/>
<path d="M64.6475 86.582V87.4192H79.0729V85.1316L64.6475 86.582Z" fill="#323E78"/>
<path d="M103.629 85.1318H79.0732V87.4194H103.629V85.1318Z" fill="black"/>
<path d="M118.588 80.1484H78.5879C77.9822 80.1484 77.6354 79.6566 77.8132 79.05L85.176 53.9361C85.3538 53.3295 85.9892 52.8376 86.5949 52.8376H126.595C127.2 52.8376 127.547 53.3295 127.369 53.9361L120.006 79.05C119.829 79.6566 119.193 80.1484 118.588 80.1484Z" fill="#323E78"/>
<path d="M119.998 80.1484H79.998C79.3923 80.1484 79.0455 79.6566 79.2233 79.05L86.5862 53.9361C86.764 53.3295 87.3993 52.8376 88.005 52.8376H128.005C128.61 52.8376 128.957 53.3295 128.779 53.9361L121.417 79.05C121.239 79.6566 120.604 80.1484 119.998 80.1484Z" fill="black"/>
<path d="M98.283 73.0938H97.5553L105.375 86.7276H96.8965V87.419H105.771H106.315V86.6957L98.283 73.0938Z" fill="#323E78"/>
<path d="M106.8 73.0938H98.2822L106.314 86.6957V87.419H106.741H109.587H114.549V86.6044L106.8 73.0938Z" fill="black"/>
<path d="M149.429 89.7536H14.0523C13.4086 89.7536 12.8867 89.2309 12.8867 88.5863C12.8867 87.9417 13.4086 87.4189 14.0523 87.4189H149.429C150.073 87.4189 150.595 87.9414 150.595 88.5863C150.595 89.2309 150.073 89.7536 149.429 89.7536Z" fill="black"/>
<path d="M147.366 3.62271V39.5138C147.366 41.5154 145.747 43.1392 143.748 43.1392H116.15C115.626 43.1392 115.131 43.0288 114.683 42.8277C113.414 42.266 112.53 40.9929 112.53 39.5138V3.62271C112.53 1.62113 114.149 -0.000244113 116.15 -0.000244113H143.748C145.747 -0.000489405 147.366 1.62089 147.366 3.62271Z" fill="#F5D0E6"/>
<path d="M147.365 37.4651V39.5133C147.365 41.5149 145.746 43.1387 143.748 43.1387H116.15C115.626 43.1387 115.131 43.0283 114.683 42.8272C117.012 39.8665 117.93 35.856 121.202 33.8103C123.257 32.574 125.535 31.5315 127.886 30.8373C129.807 30.2682 131.776 29.9347 133.715 29.9224C135.562 29.9052 137.38 30.1799 139.104 30.8202C142.501 32.1079 145.068 34.5854 147.365 37.4651Z" fill="#773040"/>
<path d="M125.82 35.0003C125.616 35.6547 125.419 36.3906 125.732 36.9999C125.966 37.4539 126.451 37.7384 126.952 37.8348C127.453 37.9312 127.971 37.8621 128.47 37.7568C131 37.2231 133.317 35.7302 134.851 33.6453" stroke="black" stroke-miterlimit="10" stroke-linecap="round" stroke-linejoin="round"/>
<path d="M123.126 7.37558C121.93 8.04866 121.084 9.21993 120.501 10.4638C119.56 12.4708 119.279 15.0103 120.593 16.795C121.393 17.8829 122.668 18.5366 123.505 19.5958C124.43 20.7651 124.73 22.4026 124.28 23.8246C123.949 24.8713 123.256 25.7644 122.841 26.7806C122.426 27.7969 122.085 29.6 123.15 29.8632C127.197 30.8642 133.519 30.1821 138.042 27.9009C138.788 27.5251 139.541 27.0978 140.036 26.4247C140.513 25.7757 139.798 24.8516 139.366 24.1719C138.465 22.7549 137.704 21.093 138.022 19.4437C138.12 18.931 138.32 18.4439 138.45 17.9383C138.652 17.1544 138.684 16.3356 138.649 15.5269C138.574 13.7865 138.194 12.0597 137.53 10.4491C137.304 9.89865 137.041 9.35656 136.667 8.89345C136.097 8.18627 135.296 7.69985 134.467 7.32848C132.669 6.5227 130.682 6.20063 128.712 6.17218C127.888 6.16016 127.057 6.19891 126.251 6.37184C125.179 6.60193 124.082 6.8379 123.126 7.37558Z" fill="#8C5A2C"/>
<path d="M133.857 30.8107C133.107 26.3138 132.936 21.6778 132.812 17.0928C130.447 18.2299 128.618 19.6978 127.005 21.7832C127.659 25.3005 127.933 28.8864 127.886 32.4669C123.062 40.344 134.977 34.901 133.857 30.8107Z" fill="#FF9B6D"/>
<path d="M127.006 21.7833C128.414 19.9618 129.988 18.6117 131.94 17.5413C131.901 21.1787 130.38 24.6621 127.691 26.9045C127.546 25.187 127.32 23.4771 127.006 21.7833Z" fill="black"/>
<path d="M123.034 10.7151C125.123 9.2976 130.148 10.282 131.58 10.985C131.465 11.8717 131.181 13.3658 131.181 13.3658L132.089 16.3257C132.089 16.3257 134.002 15.217 134.854 15.8707C136.45 17.0962 133.964 20.5013 132.035 19.5636C131.947 19.5209 129.196 23.8078 124.528 23.8162C123.737 23.8176 122.547 22.681 122.311 20.3306C121.952 16.7513 122.403 14.9722 123.034 10.7151Z" fill="#FF9B6D"/>
<path d="M127.11 20.8987C126.807 21.1553 126.461 21.3645 125.998 21.4957C125.588 21.6117 125.114 21.6738 124.652 21.5703C124.61 21.561 124.57 21.5487 124.529 21.535C124.963 20.9823 126.143 20.7324 127.11 20.8987Z" fill="#961717"/>
<path d="M123.737 20.7363C124.3 20.4758 125.996 20.5553 127.369 20.6605C127.285 20.7437 127.199 20.8232 127.11 20.8987C126.143 20.7326 124.963 20.9826 124.529 21.535C124.115 21.3947 123.755 21.0346 123.737 20.7363Z" fill="#520C0C"/>
<path d="M134.594 16.9904C134.623 16.6372 134.275 16.3279 133.921 16.3255C133.567 16.323 133.245 16.5663 133.068 16.8734C132.892 17.1805 132.837 17.5426 132.816 17.8966C133.068 17.7386 133.454 17.8924 133.528 18.1806C133.602 18.4688 133.338 18.7899 133.042 18.7735" stroke="black" stroke-miterlimit="10" stroke-linecap="round" stroke-linejoin="round"/>
<path d="M127.178 15.9226C127.34 16.2474 127.734 16.3791 128.058 16.2167C128.382 16.0544 128.513 15.6599 128.351 15.3352C128.189 15.0106 127.795 14.8789 127.471 15.0411C127.147 15.2034 127.016 15.5981 127.178 15.9226Z" fill="black"/>
<path d="M122.788 15.9226C122.95 16.2474 123.344 16.3791 123.668 16.2167C123.993 16.0544 124.124 15.6599 123.962 15.3352C123.8 15.0106 123.406 14.8789 123.082 15.0411C122.757 15.2032 122.626 15.5981 122.788 15.9226Z" fill="black"/>
<path d="M129.822 14.05C129.395 13.6008 127.951 13.0963 126.82 13.5425" stroke="black" stroke-width="2" stroke-miterlimit="10" stroke-linecap="round" stroke-linejoin="round"/>
<path d="M124.612 13.5992C124.04 13.2322 123.215 13.3316 122.746 13.8239" stroke="black" stroke-width="2" stroke-miterlimit="10" stroke-linecap="round" stroke-linejoin="round"/>
<path d="M124.787 16.4976C124.436 17.1118 124.022 17.687 123.555 18.2099C123.73 18.7358 124.054 19.2066 124.475 19.5478" stroke="black" stroke-miterlimit="10" stroke-linecap="round" stroke-linejoin="round"/>
<path d="M128.788 14.9906C130.872 16.2821 133.426 16.625 135.871 16.4592C136 16.4503 136.138 16.4368 136.237 16.3534C136.339 16.2676 136.376 16.1273 136.394 15.9948C136.47 15.428 136.306 14.8586 136.128 14.3153C135.69 12.9814 135.142 11.6588 134.259 10.5675C133.23 9.29492 131.761 8.3871 130.164 8.03657C128.988 7.77877 127.748 7.82341 126.592 8.15578C125.54 8.45823 125.256 8.84972 125.387 9.93636C125.638 12.0297 127.024 13.8976 128.788 14.9906Z" fill="#8C5A2C"/>
<path d="M117.774 41.8904V51.3326L121.629 41.8904H117.774Z" fill="#773040"/>
<path d="M113.955 16.4519H98.4103C96.9944 16.4519 95.8467 15.3024 95.8467 13.8844V12.6263C95.8467 11.2083 96.9944 10.0588 98.4103 10.0588H113.955C115.371 10.0588 116.519 11.2083 116.519 12.6263V13.8844C116.519 15.3022 115.371 16.4519 113.955 16.4519Z" fill="#FBCC34"/>
<path d="M113.452 15.6335L119.7 21.1643L115.075 14.8152L113.452 15.6335Z" fill="#FBCC34"/>
<path d="M97.8887 12.2053H114.436" stroke="black" stroke-miterlimit="10" stroke-linecap="round" stroke-linejoin="round"/>
<path d="M97.8887 13.1082H114.436" stroke="black" stroke-miterlimit="10" stroke-linecap="round" stroke-linejoin="round"/>
<path d="M97.8887 14.0112H108.062" stroke="black" stroke-miterlimit="10" stroke-linecap="round" stroke-linejoin="round"/>
<path d="M84.7601 26.0179H73.4295C71.0457 26.0179 69.1133 24.0825 69.1133 21.6951V11.7031C69.1133 9.31572 71.0457 7.38037 73.4295 7.38037H84.7601C87.1439 7.38037 89.0764 9.31572 89.0764 11.7031V21.6951C89.0764 24.0825 87.1439 26.0179 84.7601 26.0179Z" fill="#A90466"/>
<path d="M70.2726 19.1567L61.127 22.3948H70.9353L70.2726 19.1567Z" fill="#A90466"/>
<path d="M77.7259 19.0514C77.7259 18.2066 77.8212 17.5399 78.012 17.051C78.2026 16.5621 78.5116 16.1383 78.9393 15.7796C79.3669 15.421 79.6917 15.0926 79.9141 14.7946C80.1365 14.4965 80.2477 14.1683 80.2477 13.8095C80.2477 12.9357 79.8722 12.4991 79.1213 12.4991C78.7747 12.4991 78.4945 12.6264 78.2807 12.881C78.0669 13.1356 77.9542 13.4798 77.9427 13.9137H75.0137C75.0252 12.7567 75.3891 11.8555 76.1055 11.2104C76.8219 10.5652 77.8271 10.2427 79.1213 10.2427C80.4096 10.2427 81.4076 10.5407 82.1152 11.1365C82.8228 11.7326 83.1767 12.5801 83.1767 13.6795C83.1767 14.1597 83.0814 14.5966 82.8906 14.9898C82.7001 15.3833 82.3937 15.7853 81.9721 16.1962L80.9756 17.1248C80.6924 17.3969 80.496 17.676 80.3863 17.9623C80.2766 18.2485 80.2158 18.6118 80.2043 19.0514H77.7259ZM77.3706 21.6897C77.3706 21.2617 77.5251 20.9102 77.8342 20.6352C78.1433 20.3605 78.5288 20.2229 78.991 20.2229C79.4531 20.2229 79.8386 20.3602 80.1477 20.6352C80.4568 20.9099 80.6114 21.2614 80.6114 21.6897C80.6114 22.1177 80.4568 22.4692 80.1477 22.7442C79.8386 23.0189 79.4531 23.1566 78.991 23.1566C78.5288 23.1566 78.1433 23.0192 77.8342 22.7442C77.5251 22.4692 77.3706 22.118 77.3706 21.6897Z" fill="#FBCC34"/>
<path d="M140.274 87.4192H132.944C132.626 87.4192 132.367 87.1604 132.367 86.8411V76.7056C132.367 76.3865 132.626 76.1274 132.944 76.1274H140.274C140.593 76.1274 140.852 76.3862 140.852 76.7056V86.8411C140.852 87.1604 140.593 87.4192 140.274 87.4192Z" fill="#773040"/>
<path d="M133.426 84.9327H131.507C130.32 84.9327 129.354 83.9652 129.354 82.7763V80.7706C129.354 79.5814 130.32 78.6142 131.507 78.6142H133.426V77.5847H131.507C129.753 77.5847 128.326 79.014 128.326 80.7706V82.7763C128.326 84.5331 129.753 85.9622 131.507 85.9622H133.426V84.9327Z" fill="#773040"/>
<path d="M136.538 75.8145C136.179 75.0963 135.713 74.5108 135.365 73.7479C135.195 73.3675 135.065 72.9502 135.031 72.4937C135.014 72.2661 135.028 72.0291 135.074 71.7922C135.122 71.556 135.215 71.3207 135.323 71.1184C135.547 70.7149 135.814 70.4159 136.011 70.1318C136.113 69.9915 136.186 69.8539 136.263 69.705C136.33 69.5534 136.394 69.3972 136.438 69.2316C136.618 68.5696 136.602 67.8207 136.32 67.0671C136.947 67.5881 137.27 68.482 137.198 69.3577C137.166 69.796 137.021 70.2444 136.796 70.629C136.577 71.0046 136.334 71.3033 136.184 71.5866C136.03 71.8589 135.966 72.1344 135.958 72.4645C135.951 72.7895 136.006 73.1398 136.09 73.4957C136.256 74.2046 136.575 74.9962 136.538 75.8145Z" fill="white"/>
</svg>
