<svg width="92" height="90" viewBox="0 0 92 90" fill="none" xmlns="http://www.w3.org/2000/svg">
<path d="M80.3914 77.4023C78.0338 79.8325 75.9242 81.261 74.309 82.3395C58.5567 92.8575 40.55 89.826 34.9828 88.7898C26.0008 87.118 18.4188 85.9387 11.9045 80.0532C-2.89809 66.6797 -2.17811 38.7816 9.13283 21.4999C10.474 19.4508 21.7678 2.70983 39.8134 0.350874C40.2548 0.293175 40.5841 0.260325 40.8725 0.229775C43.6641 -0.0658071 60.9632 -1.62573 75.0689 10.192C77.0881 11.8836 80.3375 14.9349 83.3507 19.5887C94.3686 36.6049 94.4035 62.9591 80.3914 77.4023Z" fill="#F5D0E6"/>
<path d="M19.2763 39.6544C19.3016 39.6738 19.3269 39.6931 19.3524 39.7124C20.8581 40.8523 22.705 41.8321 24.9853 42.4882C25.4389 42.5848 25.8924 42.6813 26.3459 42.7779C26.9879 41.8036 27.4241 40.7621 26.158 40.0071C24.1918 38.8347 25.0835 35.0815 26.0002 33.9054C27.1347 32.4496 29.707 29.0058 26.6958 27.1455C24.1891 25.5968 22.255 25.1097 22.9488 21.5543C23.6425 17.9989 22.28 15.3279 19.0466 14.7343C15.6439 14.1097 14.0228 8.96175 10.9046 9.76046C5.47141 11.1523 7.85118 19.9732 13.0977 23.6779C18.3442 27.3826 14.4827 28.6359 13.602 31.4667C12.3998 35.3312 17.9084 35.83 18.9195 37.7223C19.2619 38.3632 19.3393 39.0284 19.2763 39.6544Z" fill="#A90466"/>
<mask id="mask0_4307_14127" style="mask-type:luminance" maskUnits="userSpaceOnUse" x="7" y="9" width="22" height="35">
<path d="M18.5764 41.7747L25.8843 43.5567C26.5623 42.6261 27.5713 40.8502 26.157 40.0069C24.1909 38.8345 25.0826 35.0812 25.9992 33.9051C27.1338 32.4494 29.706 29.0055 26.6949 27.1452C24.1882 25.5965 22.254 25.1094 22.9478 21.554C23.6416 17.9986 22.279 15.3276 19.0456 14.734C15.643 14.1094 14.0218 8.96148 10.9037 9.76023C5.47043 11.152 7.85021 19.9729 13.0967 23.6776C18.3433 27.3824 14.4817 28.6357 13.6011 31.4664C12.3988 35.331 17.9074 35.8297 18.9185 37.722C19.7111 39.2055 19.0876 40.8194 18.5764 41.7747Z" fill="white"/>
</mask>
<g mask="url(#mask0_4307_14127)">
<g opacity="0.5">
<path d="M22.2986 41.4644L22.4615 41.4717C22.9953 29.5669 17.7487 17.4613 8.76919 9.87915L8.66406 10.0037C17.6057 17.5539 22.8302 29.609 22.2986 41.4644Z" fill="#FCFDFE"/>
<path d="M22.0342 34.9489L22.1924 34.9883C23.3219 30.4433 28.0933 27.8675 28.1414 27.842L28.065 27.698C28.0163 27.7237 23.1815 30.3323 22.0342 34.9489Z" fill="#FCFDFE"/>
<path d="M22.3372 39.2717L22.495 39.2311C21.315 34.6321 13.0853 31.9774 13.0023 31.9512L12.9531 32.1066C13.0352 32.1326 21.1795 34.76 22.3372 39.2717Z" fill="#FCFDFE"/>
<path d="M18.8624 23.7074L19.0232 23.6805C18.4019 19.9655 21.8731 15.3493 21.9082 15.3031L21.7785 15.2043C21.7429 15.2511 18.2296 19.9237 18.8624 23.7074Z" fill="#FCFDFE"/>
<path d="M15.1429 17.1161L15.2593 17.0019C12.2528 13.9391 6.45733 13.7781 6.39907 13.7769L6.39551 13.9398C6.45305 13.9409 12.1833 14.1009 15.1429 17.1161Z" fill="#FCFDFE"/>
</g>
</g>
<mask id="mask1_4307_14127" style="mask-type:luminance" maskUnits="userSpaceOnUse" x="13" y="1" width="24" height="50">
<path d="M30.4388 50.7024L22.378 50.1049C22.378 50.1049 21.1671 45.8575 23.3588 43.0857C27.8305 37.4305 22.5654 33.9087 20.5808 32.1038C17.5879 29.3817 16.1376 25.6778 20.9246 24.4668C25.7116 23.2559 21.5537 15.668 16.0866 11.9686C10.7367 8.3484 14.0848 -3.25066 26.3835 3.52149C33.7283 7.56581 31.94 15.5383 31.9941 19.779C32.0482 24.0198 38.289 24.8329 35.7628 29.8213C33.6049 34.0822 29.8865 37.0302 32.3188 40.2499C34.7512 43.4696 34.7747 46.8792 30.4388 50.7024Z" fill="white"/>
</mask>
<g mask="url(#mask1_4307_14127)">
<path d="M30.4388 50.7024L22.378 50.1049C22.378 50.1049 21.1671 45.8575 23.3588 43.0857C27.8305 37.4305 22.5654 33.9087 20.5808 32.1038C17.5879 29.3817 16.426 26.0652 20.4012 24.2644C24.899 22.2268 21.5537 15.668 16.0866 11.9686C10.7367 8.3484 14.0848 -3.25066 26.3835 3.52149C33.7283 7.56581 31.94 15.5383 31.9941 19.779C32.0482 24.0198 38.289 24.8329 35.7628 29.8213C33.6049 34.0822 29.8865 37.0302 32.3188 40.2499C34.7512 43.4696 34.7747 46.8792 30.4388 50.7024Z" fill="url(#paint0_linear_4307_14127)"/>
</g>
<mask id="mask2_4307_14127" style="mask-type:luminance" maskUnits="userSpaceOnUse" x="13" y="1" width="24" height="50">
<path d="M30.4388 50.7024L22.378 50.1049C22.378 50.1049 21.1671 45.8575 23.3588 43.0857C27.8305 37.4305 22.5654 33.9087 20.5808 32.1038C17.5879 29.3817 16.1376 25.6778 20.9246 24.4668C25.7116 23.2559 21.5537 15.668 16.0866 11.9686C10.7367 8.3484 14.0848 -3.25066 26.3835 3.52149C33.7283 7.56581 31.94 15.5383 31.9941 19.779C32.0482 24.0198 38.289 24.8329 35.7628 29.8213C33.6049 34.0822 29.8865 37.0302 32.3188 40.2499C34.7512 43.4696 34.7747 46.8792 30.4388 50.7024Z" fill="white"/>
</mask>
<g mask="url(#mask2_4307_14127)">
<g opacity="0.5">
<path d="M26.8949 51.1921L26.7298 51.149C26.7565 51.0467 29.3915 40.7987 28.9404 29.8517C28.5248 19.7667 25.3286 7.00751 12.4619 3.4947L12.5068 3.33008C18.2345 4.89378 22.5549 8.38785 25.3482 13.7152C27.5796 17.9708 28.8456 23.3987 29.111 29.8482C29.5625 40.8201 26.9216 51.0896 26.8949 51.1921Z" fill="#BEB8F2"/>
<path d="M26.419 15.9918L26.2516 15.9582C27.368 10.3896 25.8185 2.24713 25.8027 2.16553L25.9703 2.13306C25.986 2.21504 27.5418 10.3905 26.419 15.9918Z" fill="#BEB8F2"/>
<path d="M24.4602 12.4933C18.9963 8.49964 13.5172 9.81545 13.4626 9.82921L13.4209 9.66376C13.4764 9.64972 19.0299 8.31291 24.5609 12.3555L24.4602 12.4933Z" fill="#BEB8F2"/>
<path d="M28.8453 37.0246C27.5373 28.8606 16.7712 26.0841 16.6641 26.0658L16.6817 25.8962C16.7885 25.9042 27.6942 28.7611 29.0138 36.9976L28.8453 37.0246Z" fill="#BEB8F2"/>
<path d="M29.1494 33.6288L28.9854 33.5818C30.4386 28.5098 36.2892 25.3794 36.3482 25.3484L36.4276 25.4993C36.3693 25.5301 30.5823 28.6276 29.1494 33.6288Z" fill="#BEB8F2"/>
<path d="M27.1086 49.5273C27.0946 46.3864 22.8195 43.5833 22.7764 43.5553L22.8691 43.4121C23.0485 43.5281 27.2649 46.293 27.2792 49.5266L27.1086 49.5273Z" fill="#BEB8F2"/>
<path d="M27.7652 47.1087L27.5996 47.0676C28.1974 44.6572 32.0892 42.211 33.3681 41.4072C33.5489 41.2936 33.7049 41.1955 33.7292 41.1726L33.848 41.2951C33.8141 41.328 33.7106 41.3935 33.459 41.5517C32.1945 42.3465 28.3465 44.765 27.7652 47.1087Z" fill="#BEB8F2"/>
</g>
</g>
<path d="M39.9905 19.8377L6.32643 18.474C5.54623 18.4423 4.91211 18.9892 4.91211 19.6955V76.3997C4.91211 77.106 5.54623 77.6369 6.32643 77.5857L39.9905 75.3749C40.6773 75.3298 41.2328 74.758 41.2328 74.0977V21.0837C41.2328 20.4233 40.6774 19.8655 39.9905 19.8377Z" fill="url(#paint1_linear_4307_14127)"/>
<path d="M39.5584 20.7484L6.32643 18.474C5.54623 18.4423 4.91211 18.9892 4.91211 19.6955V76.3997C4.91211 77.106 5.54623 77.6369 6.32643 77.5857L39.9905 75.3749C40.6773 75.3298 41.2328 74.758 41.2328 74.0977V21.0837C41.2328 20.4233 40.2453 20.7762 39.5584 20.7484Z" fill="url(#paint2_linear_4307_14127)"/>
<path d="M40.6741 19.8377L7.01002 18.474C6.22983 18.4423 5.5957 18.9892 5.5957 19.6955V76.3997C5.5957 77.106 6.22983 77.6369 7.01002 77.5857L40.6741 75.3749C41.3609 75.3298 41.9164 74.758 41.9164 74.0977V21.0837C41.9164 20.4233 41.361 19.8655 40.6741 19.8377Z" fill="#D8DEE8"/>
<g opacity="0.3">
<path d="M26.97 61.2326C26.3988 54.8061 30.6782 52.136 29.048 46.3218C27.03 39.1247 19.2385 38.8038 16.574 31.7099C15.5516 28.988 15.1475 24.8768 18.0728 18.9221L7.01002 18.474C6.22983 18.4423 5.5957 18.9892 5.5957 19.6955V76.3997C5.5957 77.106 6.22983 77.6369 7.01002 77.5857L37.0701 75.6116C29.4897 70.2787 27.321 65.1813 26.97 61.2326Z" fill="#D8DEE8"/>
</g>
<path d="M40.6739 20.5439L7.00986 19.2256C6.69012 19.2131 6.42969 19.4382 6.42969 19.7275V76.3469C6.42969 76.6362 6.69009 76.8547 7.00986 76.8342L40.6739 74.6688C40.9559 74.6507 41.185 74.4153 41.185 74.1441V21.0557C41.185 20.7845 40.9559 20.5549 40.6739 20.5439Z" fill="url(#paint3_linear_4307_14127)"/>
<path d="M24.3672 45.3743C18.0566 45.4252 12.8125 40.6297 12.8125 34.6833C12.8125 28.7369 18.0566 24.0622 24.3672 24.2584C30.5336 24.4501 35.4472 29.2418 35.4472 34.9439C35.4472 40.646 30.5336 45.3246 24.3672 45.3743Z" fill="#D8DEE8"/>
<path d="M34.6974 34.9353C34.6974 40.2602 30.1217 44.6076 24.367 44.6462C18.4868 44.6857 13.625 40.2297 13.625 34.6927C13.625 29.1557 18.4868 24.8117 24.367 24.9865C30.1217 25.1576 34.6974 29.6104 34.6974 34.9353Z" fill="white"/>
<path opacity="0.74" d="M36.9394 49.1205L11.1794 49.5163C10.4549 49.5275 9.86621 50.0721 9.86621 50.7329C9.86621 51.3936 10.4549 51.9176 11.1794 51.9034L36.9394 51.3962C37.5962 51.3833 38.1275 50.8645 38.1275 50.2376C38.1275 49.6105 37.5962 49.1104 36.9394 49.1205Z" fill="url(#paint4_linear_4307_14127)"/>
<path d="M36.9395 53.6009L15.8603 54.1041C15.1481 54.1212 14.5693 54.666 14.5693 55.3211C14.5693 55.9762 15.1481 56.491 15.8603 56.4709L36.9395 55.8767C37.5963 55.8582 38.1275 55.3349 38.1275 54.7079C38.1275 54.0809 37.5963 53.5853 36.9395 53.6009Z" fill="#D8DEE8"/>
<path d="M11.1914 56.6025L11.1674 56.6032C10.4495 56.6234 9.86621 56.1277 9.86621 55.4959V55.391C9.86621 54.7593 10.4495 54.2332 11.1674 54.2161L11.1914 54.2155C11.9073 54.1984 12.4863 54.6943 12.4863 55.3231V55.4275C12.4863 56.0563 11.9073 56.5823 11.1914 56.6025Z" fill="#B19AF3"/>
<path d="M11.1792 56.8265C10.3201 56.8511 9.61914 56.2335 9.61914 55.4498C9.61914 54.6661 10.3201 54.0121 11.1792 53.9919C12.0357 53.9718 12.7305 54.5896 12.7305 55.3688C12.7305 56.1482 12.0357 56.802 11.1792 56.8265ZM11.1792 54.4395C10.5916 54.4538 10.1128 54.9013 10.1128 55.437C10.1128 55.9727 10.5917 56.3953 11.1792 56.3789C11.7655 56.3627 12.2416 55.9152 12.2416 55.3816C12.2416 54.8479 11.7655 54.4253 11.1792 54.4395Z" fill="#D8DEE8"/>
<path d="M36.9395 57.6544L15.8603 58.3198C15.1481 58.3423 14.5693 58.8917 14.5693 59.5468C14.5693 60.2019 15.1481 60.7122 15.8603 60.6866L36.9395 59.9301C37.5963 59.9065 38.1275 59.3792 38.1275 58.7522C38.1275 58.1252 37.5963 57.6337 36.9395 57.6544Z" fill="#D8DEE8"/>
<path d="M11.1914 60.8543L11.1674 60.8551C10.4495 60.8809 9.86621 60.3897 9.86621 59.7579V59.653C9.86621 59.0213 10.4495 58.4907 11.1674 58.4681L11.1914 58.4673C11.9073 58.4447 12.4863 58.9361 12.4863 59.5649V59.6693C12.4863 60.2981 11.9073 60.8286 11.1914 60.8543Z" fill="#B19AF3"/>
<path d="M11.1792 61.0786C10.3201 61.1098 9.61914 60.4976 9.61914 59.7139C9.61914 58.9302 10.3201 58.2708 11.1792 58.244C12.0357 58.2173 12.7305 58.8297 12.7305 59.609C12.7305 60.3883 12.0357 61.0475 11.1792 61.0786ZM11.1792 58.6916C10.5916 58.7104 10.1128 59.1616 10.1128 59.6973C10.1128 60.233 10.5917 60.6519 11.1792 60.6311C11.7655 60.6102 12.2416 60.1592 12.2416 59.6255C12.2416 59.0919 11.7655 58.6728 11.1792 58.6916Z" fill="#D8DEE8"/>
<path d="M36.9395 61.7083L15.8603 62.5359C15.1481 62.5638 14.5693 63.1176 14.5693 63.7728C14.5693 64.4279 15.1481 64.9337 15.8603 64.9027L36.9395 63.984C37.5963 63.9554 38.1275 63.4239 38.1275 62.7969C38.1275 62.1699 37.5963 61.6825 36.9395 61.7083Z" fill="#D8DEE8"/>
<path d="M11.1792 65.3303C10.3201 65.368 9.61914 64.7613 9.61914 63.9776C9.61914 63.1939 10.3201 62.5291 11.1792 62.4957C12.0357 62.4624 12.7305 63.0694 12.7305 63.8487C12.7305 64.628 12.0357 65.2926 11.1792 65.3303ZM11.1792 62.9432C10.5916 62.9665 10.1128 63.4214 10.1128 63.9571C10.1128 64.4928 10.5917 64.908 11.1792 64.8827C11.7655 64.8573 12.2416 64.4026 12.2416 63.8689C12.2416 63.3353 11.7655 62.92 11.1792 62.9432Z" fill="#D8DEE8"/>
<path d="M36.9395 65.7619L15.8603 66.7517C15.1481 66.7852 14.5693 67.3434 14.5693 67.9985C14.5693 68.6536 15.1481 69.155 15.8603 69.1185L36.9395 68.0376C37.5963 68.004 38.1275 67.4684 38.1275 66.8414C38.1275 66.2144 37.5963 65.7311 36.9395 65.7619Z" fill="#D8DEE8"/>
<path d="M11.1914 69.3576L11.1674 69.3588C10.4495 69.3956 9.86621 68.9134 9.86621 68.2817V68.1768C9.86621 67.545 10.4495 67.0055 11.1674 66.9718L11.1914 66.9706C11.9073 66.937 12.4863 67.4195 12.4863 68.0483V68.1527C12.4863 68.7815 11.9073 69.3209 11.1914 69.3576Z" fill="#B19AF3"/>
<path d="M11.1792 69.582C10.3201 69.6264 9.61914 69.0251 9.61914 68.2414C9.61914 67.4577 10.3201 66.7875 11.1792 66.7475C12.0357 66.7076 12.7305 67.3093 12.7305 68.0886C12.7305 68.8679 12.0357 69.5378 11.1792 69.582ZM11.1792 67.195C10.5916 67.2229 10.1128 67.6814 10.1128 68.2171C10.1128 68.7529 10.5917 69.1643 11.1792 69.1345C11.7655 69.1046 12.2416 68.6462 12.2416 68.1125C12.2416 67.5788 11.7655 67.1672 11.1792 67.195Z" fill="#D8DEE8"/>
<mask id="mask3_4307_14127" style="mask-type:luminance" maskUnits="userSpaceOnUse" x="14" y="25" width="20" height="19">
<path d="M33.945 34.9267C33.945 39.8642 29.6988 43.8896 24.3662 43.9182C18.926 43.9473 14.4346 39.8214 14.4346 34.7021C14.4346 29.5828 18.926 25.5603 24.3662 25.7148C29.6988 25.8661 33.945 29.9893 33.945 34.9267Z" fill="white"/>
</mask>
<g mask="url(#mask3_4307_14127)">
<path d="M23.0991 27.9855C21.2325 27.9318 19.4606 28.8946 18.6737 30.2334C17.7253 31.8469 18.9916 32.6528 18.3733 35.2745C17.8037 37.6893 16.4733 38.1021 16.6932 39.6875C16.9341 41.4239 18.7514 42.5252 19.4693 42.9603C22.697 44.9164 27.7354 44.8346 30.2918 42.3097C30.5052 42.0989 32.2685 40.3572 31.7925 38.755C31.3666 37.3213 29.5402 37.3112 29.1618 35.8212C28.8358 34.5375 30.084 34.1229 29.9652 32.2624C29.942 31.8984 29.832 30.1753 28.4428 29.3789C27.5174 28.8483 26.5003 29.0003 26.1276 29.0745C25.68 28.7421 24.5898 28.0284 23.0991 27.9855Z" fill="#26264F"/>
<path d="M13.624 41.4584C13.624 41.4584 23.0633 36.3418 34.6965 41.4419C34.6965 41.4419 33.2169 45.8118 24.366 46.11C15.2147 46.4184 13.624 41.4584 13.624 41.4584Z" fill="url(#paint5_linear_4307_14127)"/>
<path d="M22.6958 34.7971L22.3425 37.2399C22.2219 38.0735 21.6037 38.7704 20.7435 39.0402L17.8672 39.9427C17.8672 39.9427 23.3701 42.4045 30.3079 39.9439L27.1468 38.9182C26.249 38.6037 25.6369 37.8128 25.5978 36.9143L25.5071 34.8295L22.6958 34.7971Z" fill="url(#paint6_linear_4307_14127)"/>
<path d="M26.9797 32.6916C26.9797 34.7526 25.6446 36.9567 23.9886 36.9441C22.3223 36.9315 20.9639 34.6822 20.9639 32.5982C20.9639 30.5141 22.3223 29.4033 23.9886 29.4391C25.6446 29.4746 26.9797 30.6306 26.9797 32.6916Z" fill="url(#paint7_linear_4307_14127)"/>
<path d="M25.3125 30.8007C24.4133 30.827 23.0505 31.0035 22.1061 31.9097C20.52 33.4317 21.2733 35.8883 20.5677 36.0267C19.9389 36.1501 18.9649 34.3962 18.9807 32.4822C18.9938 30.8792 19.5843 29.0012 21.1209 28.5601C22.0231 28.3012 22.2887 28.7604 25.1959 29.09C26.8887 29.2819 26.2248 29.9745 26.6055 30.2452C28.2952 31.4465 28.0814 35.2876 27.1719 35.327C26.7406 35.3457 26.1444 34.3342 25.3125 30.8007Z" fill="#26264F"/>
</g>
<path opacity="0.35" d="M26.9699 61.2327C26.3986 54.8062 30.678 52.136 29.0478 46.3219C27.0298 39.1248 19.2383 38.8039 16.5738 31.71C15.5937 29.1004 15.1817 25.2134 17.7294 19.6454L7.00986 19.2256C6.69012 19.2131 6.42969 19.4382 6.42969 19.7275V76.3469C6.42969 76.6362 6.69009 76.8547 7.00986 76.8342L36.1672 74.9587C29.3138 69.86 27.3063 65.0179 26.9699 61.2327Z" fill="white"/>
<path d="M85.5784 21.2347L56.3308 20.0499C55.6559 20.0225 55.1074 20.5328 55.1074 21.1896V73.9224C55.1074 74.5792 55.6559 75.0757 56.3308 75.0313L85.5784 73.1106C86.1777 73.0712 86.6625 72.5393 86.6625 71.9224V22.3956C86.6625 21.7787 86.1777 21.259 85.5784 21.2347Z" fill="url(#paint8_linear_4307_14127)"/>
<path d="M85.2659 23.062L56.3308 20.0499C55.6559 20.0225 55.1074 20.5328 55.1074 21.1896V73.9224C55.1074 74.5792 55.6559 75.0757 56.3308 75.0313L85.5784 73.1106C86.1777 73.0712 86.6625 72.5393 86.6625 71.9224V22.3956C86.6625 21.7787 85.8652 23.0863 85.2659 23.062Z" fill="url(#paint9_linear_4307_14127)"/>
<path d="M86.263 21.2347L57.0154 20.0499C56.3404 20.0225 55.792 20.5328 55.792 21.1896V73.9224C55.792 74.5792 56.3404 75.0757 57.0154 75.0313L86.263 73.1106C86.8623 73.0712 87.3471 72.5393 87.3471 71.9224V22.3956C87.3471 21.7787 86.8623 21.259 86.263 21.2347Z" fill="white"/>
<g opacity="0.3">
<path d="M74.3269 59.8681C73.8302 53.8747 77.5526 51.3906 76.1341 45.9656C74.379 39.2532 67.6109 38.9561 65.2995 32.3506C64.4129 29.8172 64.0625 25.99 66.5995 20.4381L57.0154 20.0499C56.3404 20.0225 55.792 20.5328 55.792 21.1896V73.9224C55.792 74.5792 56.3404 75.0757 57.0154 75.0313L83.1199 73.317C76.5184 68.3119 74.6321 63.551 74.3269 59.8681Z" fill="white"/>
</g>
<path d="M86.2632 21.8943L57.0155 20.7489C56.7389 20.7381 56.5137 20.9481 56.5137 21.2172V73.8767C56.5137 74.1457 56.7389 74.3501 57.0155 74.3323L86.2632 72.451C86.5092 72.4352 86.7091 72.2162 86.7091 71.9628V22.3712C86.7091 22.1178 86.5092 21.9039 86.2632 21.8943Z" fill="url(#paint10_linear_4307_14127)"/>
<path opacity="0.35" d="M74.3271 59.8681C73.8304 53.8747 77.5528 51.3906 76.1343 45.9656C74.3792 39.2532 67.6111 38.9561 65.2997 32.3506C64.4497 29.9218 64.0925 26.3033 66.302 21.1126L57.0155 20.7489C56.7389 20.7381 56.5137 20.9481 56.5137 21.2172V73.8767C56.5137 74.1457 56.7389 74.3501 57.0155 74.3323L82.3334 72.7038C76.3657 67.9207 74.6196 63.3986 74.3271 59.8681Z" fill="white"/>
<path d="M72.0646 45.0796C66.5855 45.1237 62.0391 40.6574 62.0391 35.1224C62.0391 29.5875 66.5855 25.2258 72.0646 25.3962C77.4269 25.5629 81.7057 30.0262 81.7057 35.3489C81.7057 40.6715 77.4269 45.0363 72.0646 45.0796Z" fill="white"/>
<path d="M81.0525 35.3412C81.0525 40.3112 77.0685 44.3671 72.0645 44.4006C66.9588 44.4349 62.7432 40.2848 62.7432 35.1304C62.7432 29.976 66.9588 25.9229 72.0645 26.0747C77.0685 26.2235 81.0525 30.3711 81.0525 35.3412Z" fill="white"/>
<path opacity="0.74" d="M83.0061 48.5836L60.6244 48.9275C59.997 48.9372 59.4873 49.4434 59.4873 50.0582C59.4873 50.6729 59.997 51.1613 60.6244 51.1489L83.0061 50.7083C83.5787 50.697 84.0419 50.2133 84.0419 49.6278C84.0419 49.0423 83.5787 48.5748 83.0061 48.5836Z" fill="url(#paint11_linear_4307_14127)"/>
<path d="M83.0062 52.7667L64.6807 53.2041C64.0632 53.2189 63.5615 53.7253 63.5615 54.3352C63.5615 54.9451 64.0632 55.4254 64.6807 55.408L83.0062 54.8914C83.5788 54.8752 84.042 54.3875 84.042 53.802C84.042 53.2166 83.5788 52.753 83.0062 52.7667Z" fill="white"/>
<path d="M60.6357 55.522L60.615 55.5226C59.9933 55.5401 59.4883 55.0778 59.4883 54.49V54.3924C59.4883 53.8046 59.9933 53.316 60.615 53.3011L60.6357 53.3006C61.2558 53.2858 61.7574 53.7483 61.7574 54.3335V54.4307C61.7574 55.0159 61.2558 55.5045 60.6357 55.522Z" fill="#B19AF3"/>
<path d="M60.6252 55.7305C59.8813 55.7518 59.2744 55.1759 59.2744 54.4468C59.2744 53.7176 59.8813 53.1101 60.6252 53.0927C61.367 53.0753 61.969 53.6513 61.969 54.3766C61.969 55.102 61.367 55.7094 60.6252 55.7305ZM60.6252 53.5092C60.1164 53.5215 59.7017 53.9372 59.7017 54.4357C59.7017 54.9341 60.1164 55.3282 60.6252 55.3141C61.1331 55.2999 61.5454 54.8844 61.5454 54.3877C61.5454 53.8909 61.133 53.4968 60.6252 53.5092Z" fill="white"/>
<path d="M83.0062 56.5513L64.6807 57.1298C64.0632 57.1493 63.5615 57.6595 63.5615 58.2694C63.5615 58.8794 64.0632 59.3558 64.6807 59.3336L83.0062 58.676C83.5788 58.6555 84.042 58.1642 84.042 57.5787C84.042 56.9932 83.5788 56.5332 83.0062 56.5513Z" fill="white"/>
<path d="M60.6357 59.4788L60.615 59.4795C59.9933 59.5018 59.4883 59.0435 59.4883 58.4556V58.358C59.4883 57.7702 59.9933 57.2777 60.615 57.2581L60.6357 57.2574C61.2558 57.2379 61.7574 57.6964 61.7574 58.2817V58.3789C61.7574 58.9641 61.2558 59.4566 60.6357 59.4788Z" fill="#B19AF3"/>
<path d="M60.6252 59.6874C59.8813 59.7144 59.2744 59.1431 59.2744 58.414C59.2744 57.6849 59.8813 57.0727 60.6252 57.0495C61.367 57.0264 61.969 57.5978 61.969 58.3231C61.969 59.0485 61.367 59.6605 60.6252 59.6874ZM60.6252 57.466C60.1164 57.4822 59.7017 57.9011 59.7017 58.3995C59.7017 58.898 60.1164 59.2889 60.6252 59.2708C61.1331 59.2528 61.5454 58.834 61.5454 58.3373C61.5454 57.8406 61.133 57.4497 60.6252 57.466Z" fill="white"/>
<path d="M83.0062 60.3358L64.6807 61.0553C64.0632 61.0795 63.5615 61.5936 63.5615 62.2035C63.5615 62.8134 64.0632 63.286 64.6807 63.2591L83.0062 62.4604C83.5788 62.4355 84.042 61.9407 84.042 61.3552C84.042 60.7697 83.5788 60.3133 83.0062 60.3358Z" fill="white"/>
<path d="M60.6357 63.4354L60.615 63.4363C59.9933 63.4634 59.4883 63.0089 59.4883 62.4211V62.3235C59.4883 61.7356 59.9933 61.2393 60.615 61.2149L60.6357 61.2141C61.2558 61.1897 61.7574 61.6445 61.7574 62.2297V62.3269C61.7574 62.9121 61.2558 63.4084 60.6357 63.4354Z" fill="#B19AF3"/>
<path d="M60.6252 63.6441C59.8813 63.6768 59.2744 63.1102 59.2744 62.3811C59.2744 61.6519 59.8813 61.0351 60.6252 61.0062C61.367 60.9774 61.969 61.5441 61.969 62.2695C61.969 62.9948 61.367 63.6114 60.6252 63.6441ZM60.6252 61.4227C60.1164 61.4429 59.7017 61.8649 59.7017 62.3634C59.7017 62.8618 60.1164 63.2495 60.6252 63.2275C61.1331 63.2056 61.5454 62.7837 61.5454 62.287C61.5454 61.7903 61.133 61.4025 60.6252 61.4227Z" fill="white"/>
<path d="M83.0062 64.1205L64.6807 64.981C64.0632 65.01 63.5615 65.528 63.5615 66.1379C63.5615 66.7478 64.0632 67.2166 64.6807 67.1849L83.0062 66.2452C83.5788 66.2159 84.042 65.7175 84.042 65.132C84.042 64.5465 83.5788 64.0936 83.0062 64.1205Z" fill="white"/>
<path d="M60.6357 67.3924L60.615 67.3934C59.9933 67.4253 59.4883 66.9747 59.4883 66.3869V66.2892C59.4883 65.7014 59.9933 65.2012 60.615 65.172L60.6357 65.171C61.2558 65.1419 61.7574 65.5928 61.7574 66.178V66.2752C61.7574 66.8604 61.2558 67.3606 60.6357 67.3924Z" fill="#B19AF3"/>
<path d="M60.6252 67.6011C59.8813 67.6395 59.2744 67.0776 59.2744 66.3485C59.2744 65.6193 59.8813 64.9978 60.6252 64.9632C61.367 64.9286 61.969 65.4908 61.969 66.2161C61.969 66.9415 61.367 67.5627 60.6252 67.6011ZM60.6252 65.3797C60.1164 65.4038 59.7017 65.829 59.7017 66.3275C59.7017 66.8259 60.1164 67.2104 60.6252 67.1845C61.1331 67.1587 61.5454 66.7336 61.5454 66.2369C61.5454 65.7402 61.133 65.3556 60.6252 65.3797Z" fill="white"/>
<mask id="mask4_4307_14127" style="mask-type:luminance" maskUnits="userSpaceOnUse" x="63" y="26" width="18" height="18">
<path d="M80.3976 35.3336C80.3976 39.9417 76.7011 43.6971 72.0643 43.7219C67.3404 43.7473 63.4453 39.9045 63.4453 35.1385C63.4453 30.3724 67.3404 26.6194 72.0643 26.7535C76.7011 26.8851 80.3976 30.7256 80.3976 35.3336Z" fill="white"/>
</mask>
<g mask="url(#mask4_4307_14127)">
<path d="M62.7432 41.4518C62.7432 41.4518 70.9327 36.6831 81.0525 41.4366C81.0525 41.4366 79.7638 45.5146 72.0645 45.788C64.1219 46.0701 62.7432 41.4518 62.7432 41.4518Z" fill="url(#paint12_linear_4307_14127)"/>
<path d="M70.6134 35.2212L70.3065 37.4979C70.2174 38.9478 68.7793 39.4884 68.7793 39.4884C70.4677 41.4909 73.6944 41.4171 74.8225 39.5245C74.043 39.2324 73.1689 38.0306 73.1349 37.193L73.0561 35.2493L70.6134 35.2212Z" fill="url(#paint13_linear_4307_14127)"/>
<path d="M74.3352 33.2548C74.3352 35.1766 73.1745 37.2325 71.7354 37.2216C70.2879 37.2106 69.1084 35.1155 69.1084 33.1736C69.1084 31.2318 70.2879 30.1949 71.7354 30.226C73.1745 30.2569 74.3352 31.333 74.3352 33.2548Z" fill="url(#paint14_linear_4307_14127)"/>
<path d="M69.0309 33.6623C69.1757 33.6417 69.3204 33.621 69.4651 33.6004C69.3986 33.4405 69.1244 32.7324 69.4651 32.1222C69.7919 31.5368 70.5615 31.2631 71.1489 31.3132C71.816 31.3703 72.2164 31.6845 72.5511 31.4533C72.7392 31.3234 72.8001 31.0821 72.8216 30.8937C72.8365 31.0148 72.8701 31.1941 72.9567 31.3933C73.2056 31.9653 73.6266 32.091 73.8558 32.4701C74.0101 32.7253 74.1104 33.1498 73.8558 33.8904C73.9829 33.8847 74.1099 33.879 74.2369 33.8733C74.3709 33.4573 74.5317 32.8671 74.6316 32.1433C74.7801 31.0686 74.8822 30.3289 74.4608 29.9586C74.3768 29.8848 74.0054 29.5913 73.1161 29.8399C72.9077 29.619 72.4686 29.2131 71.7927 28.9977C71.5589 28.9232 70.399 28.5536 69.3701 29.2698C68.6702 29.757 68.1216 30.6836 68.2979 31.4634C68.3912 31.8758 68.6463 32.0651 68.8707 32.8631C68.9655 33.2 69.0091 33.4829 69.0309 33.6623Z" fill="url(#paint15_linear_4307_14127)"/>
<path d="M73.9746 33.9586C73.9746 33.9586 74.1415 33.1192 74.6482 33.2106C75.1539 33.3018 74.4292 34.6704 73.9746 34.8306V33.9586Z" fill="url(#paint16_linear_4307_14127)"/>
<path d="M69.4348 33.8945C69.4348 33.8945 69.2648 33.0422 68.7471 33.1183C68.2284 33.1947 68.9711 34.601 69.4348 34.7744V33.8945Z" fill="url(#paint17_linear_4307_14127)"/>
</g>
<path opacity="0.5" d="M73.5636 20.8283L57.0154 20.0499C56.3405 20.0225 55.792 20.5328 55.792 21.1896V73.9224C55.792 74.5792 56.3404 75.0757 57.0154 75.0313L73.5481 73.8705L73.5636 20.8283Z" fill="white"/>
<path d="M70.444 66.8691C71.0578 68.1947 70.4728 69.5207 69.9114 70.4131C69.7775 70.4139 69.6998 70.4511 69.5645 70.484C68.3435 70.781 67.7708 70.6298 66.5296 70.7197C66.2624 70.739 65.4688 70.5399 65.1499 70.4361L64.5586 70.2322C64.5586 70.2322 63.5092 67.0078 65.1581 66.1171C66.807 65.2265 66.1757 62.0175 66.0374 60.2674C65.6624 55.5189 70.7938 55.9505 70.7996 49.81C70.8011 48.1768 70.2579 45.0617 71.6349 43.7609C73.2036 42.2789 74.3489 43.7327 75.3575 42.4934C76.934 40.5564 79.4923 39.8615 81.0172 41.8549C82.5223 43.8224 80.6935 47.7387 76.1473 50.8865C73.1416 53.5141 73.0946 54.3008 73.3312 56.2164C73.4969 57.5583 74.7769 61.0538 72.9556 62.4496C71.1343 63.8454 69.7423 65.3537 70.444 66.8691Z" fill="url(#paint18_linear_4307_14127)"/>
<mask id="mask5_4307_14127" style="mask-type:luminance" maskUnits="userSpaceOnUse" x="64" y="40" width="18" height="32">
<path d="M69.1188 71.4983L64.658 70.3494C64.658 70.3494 63.5091 67.0078 65.158 66.1171C66.8069 65.2265 66.1755 62.0175 66.0373 60.2674C65.6622 55.5189 70.7937 55.9505 70.7995 49.81C70.801 48.1768 70.2578 45.0617 71.6347 43.7609C73.2035 42.2789 74.3487 43.7327 75.3574 42.4934C76.9339 40.5564 79.4922 39.8615 81.0171 41.8549C82.5222 43.8224 80.6934 47.7387 76.1472 50.8865C73.1415 53.5141 73.0945 54.3008 73.3311 56.2164C73.4968 57.5583 74.7767 61.0538 72.9554 62.4496C71.1341 63.8454 69.7421 65.3536 70.4438 66.869C71.5115 69.1749 69.1188 71.4983 69.1188 71.4983Z" fill="white"/>
</mask>
<g mask="url(#mask5_4307_14127)">
<g opacity="0.5">
<path d="M67.1756 70.7697L67.085 70.7584C67.1523 70.2185 67.2268 69.6748 67.3065 69.1425C67.897 65.2008 68.8341 61.457 70.0917 58.0149C71.1574 55.0983 72.4676 52.357 73.986 49.8671C75.2071 47.8648 76.5687 46.0135 78.0333 44.3647C79.0629 43.2055 80.1322 42.1577 81.2117 41.2502C81.3998 41.0921 81.601 40.9408 81.7956 40.7946C82.0549 40.5997 82.3229 40.3982 82.562 40.1787L82.6238 40.246C82.3814 40.4685 82.1115 40.6714 81.8505 40.8676C81.6568 41.0131 81.4567 41.1636 81.2705 41.3202C80.1944 42.2248 79.1282 43.2695 78.1016 44.4254C76.6407 46.0701 75.2822 47.9171 74.064 49.9147C72.5487 52.3995 71.2412 55.1353 70.1775 58.0463C68.922 61.4826 67.9864 65.2205 67.3969 69.156C67.3172 69.6876 67.2428 70.2305 67.1756 70.7697Z" fill="#FCFDFE"/>
<path d="M72.3425 53.02L72.2598 52.9812C73.9247 49.4327 72.4627 42.8768 72.4478 42.8111L72.5368 42.7908C72.5518 42.8569 74.0207 49.443 72.3425 53.02Z" fill="#FCFDFE"/>
<path d="M68.5554 63.3546L68.4688 63.3258C69.318 60.7818 74.0805 58.8181 74.1286 58.7986L74.163 58.8832C74.1154 58.9025 69.3914 60.8504 68.5554 63.3546Z" fill="#FCFDFE"/>
<path d="M68.1977 64.8397L68.1073 64.8265C68.3593 63.094 67.7773 60.5967 66.4685 57.7947C66.4027 57.6538 66.4027 57.6538 66.4049 57.6366L66.4955 57.6487L66.4502 57.6427L66.4943 57.6313C66.4976 57.6412 66.5224 57.6944 66.5513 57.7561C67.8675 60.5741 68.4522 63.0897 68.1977 64.8397Z" fill="#FCFDFE"/>
<path d="M67.3123 69.7862L67.2295 69.7478C68.0415 67.9988 70.817 67.3085 70.8449 67.3018L70.8665 67.3905C70.8389 67.3972 68.1057 68.0773 67.3123 69.7862Z" fill="#FCFDFE"/>
<path d="M67.0376 70.777C66.6935 69.2607 65.9027 67.7935 64.6201 66.2918L64.6896 66.2324C65.982 67.7457 66.7792 69.2257 67.1267 70.7569L67.0376 70.777Z" fill="#FCFDFE"/>
<path d="M77.2551 45.4105L77.1748 45.3672C78.2104 43.4458 78.8531 41.1873 79.0642 40.4451C79.1154 40.2655 79.1336 40.2023 79.1437 40.1814L79.2258 40.2213C79.2182 40.2374 79.189 40.3401 79.152 40.4701C78.9402 41.2147 78.2955 43.4804 77.2551 45.4105Z" fill="#FCFDFE"/>
<path d="M75.109 48.2855L75.0449 48.2204C76.5036 46.7846 80.5967 46.8306 80.7703 46.8332L80.7688 46.9245C80.7267 46.9239 76.5404 46.8765 75.109 48.2855Z" fill="#FCFDFE"/>
</g>
</g>
<mask id="mask6_4307_14127" style="mask-type:luminance" maskUnits="userSpaceOnUse" x="62" y="49" width="24" height="32">
<path d="M63.2016 78.3532L68.5232 80.0212C68.5232 80.0212 70.3806 77.6053 69.6803 75.27C68.2516 70.5052 72.5244 69.5864 74.2565 68.9339C76.8686 67.9497 78.7413 65.9433 75.9794 63.9486C73.2175 61.9539 77.8149 58.1455 82.2625 57.1642C86.6148 56.2039 87.4191 47.9131 77.8083 49.1266C72.0688 49.8514 71.1869 55.4194 70.0731 58.1254C68.9593 60.8313 64.7499 59.7647 65.1007 63.6067C65.4003 66.8885 67.0349 69.7254 64.6557 71.1713C62.2764 72.6172 61.3937 74.7979 63.2016 78.3532Z" fill="white"/>
</mask>
<g mask="url(#mask6_4307_14127)">
<path d="M63.2016 78.3532L68.5232 80.0212C68.5232 80.0212 70.3806 77.6053 69.6803 75.27C68.2516 70.5052 72.5244 69.5864 74.2565 68.9339C76.8686 67.9497 78.4577 66.1184 76.3666 63.952C74.0005 61.5007 77.8149 58.1455 82.2625 57.1642C86.6148 56.2039 87.4191 47.9131 77.8083 49.1266C72.0688 49.8514 71.1869 55.4194 70.0731 58.1254C68.9593 60.8313 64.7499 59.7647 65.1007 63.6067C65.4003 66.8885 67.0349 69.7254 64.6557 71.1713C62.2764 72.6172 61.3937 74.7979 63.2016 78.3532Z" fill="#A90466"/>
</g>
<mask id="mask7_4307_14127" style="mask-type:luminance" maskUnits="userSpaceOnUse" x="62" y="49" width="24" height="32">
<path d="M63.2016 78.3532L68.5232 80.0212C68.5232 80.0212 70.3806 77.6053 69.6803 75.27C68.2516 70.5052 72.5244 69.5864 74.2565 68.9339C76.8686 67.9497 78.7413 65.9433 75.9794 63.9486C73.2175 61.9539 77.8149 58.1455 82.2625 57.1642C86.6148 56.2039 87.4191 47.9131 77.8083 49.1266C72.0688 49.8514 71.1869 55.4194 70.0731 58.1254C68.9593 60.8313 64.7499 59.7647 65.1007 63.6067C65.4003 66.8885 67.0349 69.7254 64.6557 71.1713C62.2764 72.6172 61.3937 74.7979 63.2016 78.3532Z" fill="white"/>
</mask>
<g mask="url(#mask7_4307_14127)">
<g opacity="0.5">
<path d="M65.3496 79.5689L65.4665 79.5833C65.4753 79.511 66.3932 72.2681 69.4682 65.3623C72.301 59.0002 77.5976 51.6307 86.7433 52.652L86.7564 52.535C82.6851 52.0803 79.0252 53.2218 75.8781 55.9275C73.3641 58.089 71.171 61.2479 69.3596 65.3166C66.2781 72.2383 65.3586 79.4964 65.3496 79.5689Z" fill="#BEB8F2"/>
<path d="M74.6123 57.1151L74.7282 57.1361C75.4293 53.2808 78.495 48.4531 78.5258 48.4048L78.4267 48.3413C78.3957 48.3898 75.3175 53.2371 74.6123 57.1151Z" fill="#BEB8F2"/>
<path d="M76.759 55.3697C81.2794 54.1988 84.4585 56.4369 84.49 56.4597L84.5588 56.3642C84.5268 56.341 81.3053 54.0705 76.7295 55.2557L76.759 55.3697Z" fill="#BEB8F2"/>
<path d="M67.7047 69.9867C70.621 65.0837 78.2321 66.0427 78.3055 66.0582L78.3374 65.945C78.2668 65.9229 70.5457 64.98 67.6035 69.9266L67.7047 69.9867Z" fill="#BEB8F2"/>
<path d="M68.3725 67.7314L68.4897 67.743C68.8484 64.1204 65.8928 60.624 65.8628 60.5891L65.7734 60.6657C65.803 60.7003 68.7262 64.1594 68.3725 67.7314Z" fill="#BEB8F2"/>
<path d="M65.6366 78.4471C66.4448 76.4363 69.8998 75.7264 69.9346 75.7194L69.9116 75.604C69.767 75.6328 66.3594 76.333 65.5273 78.4032L65.6366 78.4471Z" fill="#BEB8F2"/>
<path d="M65.8308 76.7287L65.9475 76.7445C66.1775 75.0465 64.304 72.4873 63.6884 71.6464C63.6014 71.5275 63.5263 71.425 63.5165 71.4041L63.4092 71.4524C63.4226 71.4821 63.4723 71.5504 63.5934 71.7159C64.2021 72.5474 66.0545 75.0777 65.8308 76.7287Z" fill="#BEB8F2"/>
</g>
</g>
<path d="M68.2384 79.701C68.2185 79.7104 68.1985 79.7196 68.1785 79.7288C66.9949 80.2738 65.6052 80.6603 63.9713 80.7645C63.6514 80.7623 63.3315 80.7602 63.0115 80.758C62.7233 80.0063 62.5838 79.2398 63.5488 78.9188C65.0475 78.4201 65.0029 75.7588 64.5596 74.8304C64.0108 73.6813 62.7879 70.9794 65.0927 70.1721C67.0114 69.5 68.3869 69.4585 68.4464 66.9598C68.5059 64.4611 69.8199 62.8632 72.0867 62.9424C74.4722 63.0258 76.3276 59.7971 78.3105 60.7975C81.7654 62.5406 78.8544 68.132 74.7699 69.8508C70.6854 71.5697 73.1018 72.9866 73.2756 75.0247C73.513 77.807 69.727 77.3267 68.7653 78.4519C68.4395 78.8331 68.2888 79.2698 68.2384 79.701Z" fill="url(#paint19_linear_4307_14127)"/>
<mask id="mask8_4307_14127" style="mask-type:luminance" maskUnits="userSpaceOnUse" x="62" y="60" width="18" height="22">
<path d="M68.3952 81.2335L63.2065 81.3513C62.8876 80.6237 62.4709 79.2774 63.5489 78.9188C65.0476 78.4201 65.003 75.7588 64.5596 74.8304C64.0108 73.6813 62.788 70.9794 65.0927 70.1721C67.0115 69.5 68.387 69.4585 68.4464 66.9598C68.5059 64.4611 69.8199 62.8632 72.0868 62.9424C74.4722 63.0258 76.3277 59.7971 78.3105 60.7975C81.7655 62.5406 78.8545 68.132 74.7699 69.8508C70.6854 71.5697 73.1018 72.9866 73.2757 75.0247C73.5131 77.807 69.7271 77.3267 68.7653 78.4519C68.0113 79.3341 68.1922 80.5141 68.3952 81.2335Z" fill="white"/>
</mask>
<g mask="url(#mask8_4307_14127)">
<g opacity="0.5">
<path d="M65.9341 80.4729L65.8232 80.4537C67.228 72.3524 72.5577 64.9725 79.7324 61.1941L79.7848 61.2936C72.6403 65.0561 67.333 72.4052 65.9341 80.4729Z" fill="#FCFDFE"/>
<path d="M67.0787 76.1218L66.9662 76.1248C66.8787 72.8947 64.0452 70.4518 64.0166 70.4275L64.0894 70.3418C64.1184 70.3664 66.9898 72.8407 67.0787 76.1218Z" fill="#FCFDFE"/>
<path d="M66.2332 78.9896L66.1328 78.9389C67.6097 76.0147 73.5488 75.4456 73.6086 75.4402L73.6187 75.5522C73.5595 75.5575 67.6819 76.121 66.2332 78.9896Z" fill="#FCFDFE"/>
<path d="M70.882 69.0166L70.7776 68.9746C71.7469 66.5633 70.092 62.9381 70.0752 62.9018L70.1772 62.8545C70.1942 62.8912 71.8692 66.5607 70.882 69.0166Z" fill="#FCFDFE"/>
<path d="M74.3652 65.1262L74.3037 65.032C76.7836 63.4137 80.7128 64.1641 80.7523 64.1719L80.7305 64.2823C80.6916 64.2746 76.8065 63.533 74.3652 65.1262Z" fill="#FCFDFE"/>
</g>
</g>
<path d="M65.5359 14.3177L29.6194 11.241C28.7852 11.2072 28.1074 11.8838 28.1074 12.7523V82.4809C28.1074 83.3494 28.7852 84.009 29.6194 83.9542L65.9073 81.5711C66.6537 81.5221 67.2575 80.8185 67.2575 79.9995V14.2486C67.2575 13.4296 66.2823 14.348 65.5359 14.3177Z" fill="url(#paint20_linear_4307_14127)"/>
<path d="M57.2686 12.5604C57.2686 12.0758 57.6429 11.6856 58.0991 11.6945L58.4105 11.6782L59.9027 12.2735V12.8176L57.2686 12.5604Z" fill="url(#paint21_linear_4307_14127)"/>
<path d="M66.876 12.711L30.5882 11.241C29.754 11.2072 29.0762 11.8838 29.0762 12.7523V82.4809C29.0762 83.3494 29.754 84.009 30.5882 83.9542L66.876 81.5711C67.6224 81.5221 68.2262 80.8185 68.2262 79.9995V14.2486C68.2262 13.4296 67.6224 12.7412 66.876 12.711Z" fill="#D8DEE8"/>
<g opacity="0.3">
<path d="M52.0343 63.9553C51.4177 56.0105 56.0409 52.7248 54.2786 45.5304C52.0991 36.6323 43.7032 36.2408 40.8391 27.4967C39.7411 24.1445 39.3072 19.0791 42.4498 11.7215L30.5882 11.241C29.754 11.2072 29.0762 11.8838 29.0762 12.7523V82.4809C29.0762 83.3494 29.754 84.009 30.5882 83.9542L62.9635 81.828C54.7559 75.1567 52.4132 68.8378 52.0343 63.9553Z" fill="#D8DEE8"/>
</g>
<path d="M66.8759 13.5865L30.5881 12.1655C30.2462 12.1521 29.9678 12.4307 29.9678 12.7864V82.4244C29.9678 82.7802 30.2462 83.0517 30.5881 83.0297L66.8759 80.6956C67.1823 80.6759 67.4313 80.3863 67.4313 80.0499V14.2182C67.4313 13.8819 67.1823 13.5985 66.8759 13.5865Z" fill="url(#paint22_linear_4307_14127)"/>
<path d="M49.2261 44.3528C42.4321 44.4076 36.8018 38.494 36.8018 31.1693C36.8018 23.8447 42.4321 18.0607 49.2261 18.272C55.8843 18.479 61.2037 24.3891 61.2037 31.4503C61.2037 38.5116 55.8843 44.2992 49.2261 44.3528Z" fill="#D8DEE8"/>
<path d="M60.3909 31.4409C60.3909 38.0339 55.4386 43.4118 49.2255 43.4535C42.8943 43.496 37.6729 38.001 37.6729 31.1794C37.6729 24.3578 42.8943 18.983 49.2255 19.1713C55.4386 19.3561 60.3909 24.848 60.3909 31.4409Z" fill="white"/>
<path opacity="0.74" d="M62.8216 49.0097L35.0512 49.4364C34.275 49.4483 33.6445 50.1173 33.6445 50.9306C33.6445 51.7439 34.275 52.3908 35.0512 52.3755L62.8216 51.8288C63.5341 51.8148 64.1106 51.1736 64.1106 50.3966C64.1106 49.6197 63.5341 48.9987 62.8216 49.0097Z" fill="url(#paint23_linear_4307_14127)"/>
<path d="M62.8217 54.5599L40.0725 55.103C39.3077 55.1212 38.6865 55.7905 38.6865 56.5978C38.6865 57.405 39.3077 58.042 40.0725 58.0204L62.8217 57.3791C63.5342 57.359 64.1107 56.7129 64.1107 55.9359C64.1107 55.1589 63.5342 54.5429 62.8217 54.5599Z" fill="#D8DEE8"/>
<path d="M35.065 58.1614L35.0393 58.1621C34.2702 58.1838 33.6455 57.571 33.6455 56.7934V56.6643C33.6455 55.8866 34.2702 55.2413 35.0393 55.223L35.065 55.2223C35.8323 55.204 36.453 55.817 36.453 56.5914V56.72C36.453 57.4945 35.8323 58.1398 35.065 58.1614Z" fill="#B19AF3"/>
<path d="M35.0519 58.4374C34.1315 58.4637 33.3809 57.7004 33.3809 56.7358C33.3809 55.7712 34.1315 54.9688 35.0519 54.9472C35.9698 54.9257 36.7147 55.6892 36.7147 56.649C36.7147 57.6089 35.9698 58.4112 35.0519 58.4374ZM35.0519 55.4983C34.4224 55.5136 33.9094 56.0626 33.9094 56.722C33.9094 57.3815 34.4224 57.9038 35.0519 57.8863C35.6802 57.8689 36.1905 57.3199 36.1905 56.6627C36.1905 56.0054 35.6802 55.4831 35.0519 55.4983Z" fill="#D8DEE8"/>
<path d="M62.8217 59.5817L40.0725 60.2998C39.3077 60.3239 38.6865 60.9979 38.6865 61.8052C38.6865 62.6125 39.3077 63.2447 40.0725 63.2172L62.8217 62.4008C63.5342 62.3752 64.1107 61.7247 64.1107 60.9478C64.1107 60.1708 63.5342 59.5592 62.8217 59.5817Z" fill="#D8DEE8"/>
<path d="M35.065 63.3968L35.0393 63.3977C34.2702 63.4253 33.6455 62.8174 33.6455 62.0397V61.9106C33.6455 61.133 34.2702 60.4828 35.0393 60.4586L35.065 60.4577C35.8323 60.4335 36.453 61.0417 36.453 61.8162V61.9447C36.453 62.7192 35.8323 63.3693 35.065 63.3968Z" fill="#B19AF3"/>
<path d="M35.0519 63.6729C34.1315 63.7063 33.3809 62.9487 33.3809 61.9841C33.3809 61.0195 34.1315 60.2113 35.0519 60.1827C35.9698 60.1541 36.7147 60.9118 36.7147 61.8717C36.7147 62.8316 35.9698 63.6395 35.0519 63.6729ZM35.0519 60.7337C34.4224 60.7539 33.9094 61.3068 33.9094 61.9663C33.9094 62.6258 34.4224 63.1441 35.0519 63.1218C35.6802 63.0995 36.1905 62.5466 36.1905 61.8894C36.1905 61.2321 35.6802 60.7136 35.0519 60.7337Z" fill="#D8DEE8"/>
<path d="M62.8217 64.6032L40.0725 65.4964C39.3077 65.5264 38.6865 66.2052 38.6865 67.0125C38.6865 67.8198 39.3077 68.4471 40.0725 68.4138L62.8217 67.4224C63.5342 67.3913 64.1107 66.7363 64.1107 65.9594C64.1107 65.1824 63.5342 64.5753 62.8217 64.6032Z" fill="#D8DEE8"/>
<path d="M35.0519 68.9082C34.1315 68.9486 33.3809 68.1969 33.3809 67.2323C33.3809 66.2677 34.1315 65.4537 35.0519 65.418C35.9698 65.3823 36.7147 66.1343 36.7147 67.0942C36.7148 68.0541 35.9698 68.8678 35.0519 68.9082ZM35.0519 65.969C34.4224 65.994 33.9094 66.5509 33.9094 67.2104C33.9094 67.8699 34.4224 68.3843 35.0519 68.3571C35.6802 68.3299 36.1905 67.7732 36.1905 67.1159C36.1905 66.4586 35.6802 65.9441 35.0519 65.969Z" fill="#D8DEE8"/>
<path d="M62.8217 69.6249L40.0725 70.6931C39.3077 70.729 38.6865 71.4126 38.6865 72.2199C38.6865 73.0272 39.3077 73.6498 40.0725 73.6105L62.8217 72.444C63.5342 72.4075 64.1107 71.7481 64.1107 70.9711C64.1107 70.1942 63.5342 69.5914 62.8217 69.6249Z" fill="#D8DEE8"/>
<path d="M35.065 73.8672L35.0393 73.8685C34.2702 73.9079 33.6455 73.3095 33.6455 72.5319V72.4028C33.6455 71.6251 34.2702 70.9654 35.0393 70.9293L35.065 70.9281C35.8323 70.892 36.453 71.4907 36.453 72.2651V72.3937C36.453 73.1682 35.8323 73.8278 35.065 73.8672Z" fill="#B19AF3"/>
<path d="M35.0519 74.1436C34.1315 74.1911 33.3809 73.4451 33.3809 72.4806C33.3809 71.5159 34.1315 70.6962 35.0519 70.6534C35.9698 70.6106 36.7147 71.3569 36.7147 72.3168C36.7148 73.2767 35.9698 74.0961 35.0519 74.1436ZM35.0519 71.2044C34.4224 71.2343 33.9094 71.7951 33.9094 72.4546C33.9094 73.114 34.4224 73.6245 35.0519 73.5925C35.6802 73.5605 36.1905 72.9998 36.1905 72.3425C36.1905 71.6853 35.6802 71.1747 35.0519 71.2044Z" fill="#D8DEE8"/>
<mask id="mask9_4307_14127" style="mask-type:luminance" maskUnits="userSpaceOnUse" x="38" y="20" width="22" height="23">
<path d="M59.5773 31.4314C59.5773 37.5436 54.983 42.5231 49.2261 42.554C43.368 42.5854 38.543 37.4974 38.543 31.1892C38.543 24.881 43.3681 19.9041 49.2261 20.0705C54.983 20.2339 59.5773 25.3192 59.5773 31.4314Z" fill="white"/>
</mask>
<g mask="url(#mask9_4307_14127)">
<path d="M51.2412 22.5229C53.4339 23.8645 54.0485 26.2042 54.1885 26.7721C55.1564 30.6999 52.1739 32.694 53.4445 35.4706C54.486 37.7464 57.4314 38.4648 57.3101 38.7142C57.2017 38.9371 55.0994 37.8494 53.0694 37.3565C46.4499 35.7491 40.6969 40.4905 39.8816 39.3049C39.3042 38.4654 42.6766 36.7966 43.3725 32.8954C44.0313 29.2021 41.6257 27.2389 43.0863 24.483C44.0601 22.6457 45.9414 21.9861 46.2625 21.8791C48.754 21.0492 50.9043 22.3168 51.2412 22.5229Z" fill="#701B64"/>
<path d="M37.6738 39.5148C37.6738 39.5148 47.8223 33.1982 60.3919 39.497C60.3919 39.497 58.7894 44.9054 49.2265 45.2615C39.3809 45.6281 37.6738 39.5148 37.6738 39.5148Z" fill="url(#paint24_linear_4307_14127)"/>
<path d="M47.4266 31.2915L47.0459 34.3079C46.9161 35.3371 46.2503 36.1978 45.3243 36.5314L42.2305 37.646C42.2305 37.646 48.1533 40.6843 55.6422 37.6436L52.2269 36.3769C51.2578 35.9887 50.5974 35.0121 50.5552 33.9021L50.4573 31.3264L47.4266 31.2915Z" fill="url(#paint25_linear_4307_14127)"/>
<path d="M47.8259 33.3333C46.2698 32.8888 45.436 31.5331 44.9415 30.7293C44.1128 29.3819 42.9691 26.5932 44.0457 25.0083C44.1061 24.9194 44.176 24.8757 44.3006 24.7193C45.0323 23.8004 44.9477 23.0477 45.2321 22.5658C45.9185 21.4025 48.7108 21.8907 48.8804 21.922C51.864 22.4718 53.158 25.2048 53.1836 25.2658C53.2069 25.3212 53.2302 25.3783 53.2302 25.3783C53.411 25.8215 54.4472 28.3614 53.1471 30.7408C52.1046 32.6487 49.8579 33.9137 47.8259 33.3333Z" fill="url(#paint26_linear_4307_14127)"/>
<path d="M52.0456 28.6815C52.0456 31.2287 50.6048 33.9543 48.8188 33.9408C47.0232 33.9272 45.5605 31.1529 45.5605 28.5809C45.5605 26.0088 47.0232 24.6334 48.8188 24.6719C50.6048 24.7103 52.0456 26.1344 52.0456 28.6815Z" fill="url(#paint27_linear_4307_14127)"/>
<path d="M45.4529 30.2383C45.7625 30.2244 45.3157 27.5477 46.5146 26.8207C47.3107 26.3381 48.6925 26.8019 49.4696 27.6836C50.6947 29.0736 50.0092 31.0443 50.9373 31.476C51.5265 31.7501 52.3132 31.1912 52.6901 30.7801C53.8672 29.4961 53.7068 26.7483 52.3153 25.1806C51.2062 23.9311 49.7014 23.8641 49.3435 23.8599C47.2956 23.8358 45.4156 25.4305 44.9847 27.3359C44.6536 28.8003 45.224 30.2486 45.4529 30.2383Z" fill="url(#paint28_linear_4307_14127)"/>
</g>
<path opacity="0.35" d="M52.0343 63.9553C51.4177 56.0106 56.0408 52.7249 54.2786 45.5305C52.0991 36.6324 43.7032 36.2409 40.8391 27.4968C39.7864 24.2828 39.3441 19.4938 42.0808 12.6156L30.5881 12.1655C30.2462 12.1521 29.9678 12.4307 29.9678 12.7864V82.4244C29.9678 82.7802 30.2462 83.0517 30.5881 83.0297L61.9846 81.0102C54.566 74.6374 52.3975 68.6357 52.0343 63.9553Z" fill="white"/>
<path d="M65.2976 22.4531L61.9758 19.8199L58.6199 22.2925V13.9833C58.6199 13.3355 58.3281 12.7126 57.8286 12.295L57.8027 12.2734L64.1361 12.5221C64.7781 12.5473 65.2976 13.1055 65.2976 13.7689L65.2976 22.4531Z" fill="#D8DEE8"/>
<path d="M65.905 22.4532L62.5832 19.6659L59.2273 22.2832V13.4881C59.2273 12.8024 58.9355 12.1431 58.436 11.7011L58.4102 11.6782L64.7435 11.9414C65.3855 11.9681 65.905 12.5589 65.905 13.2611V22.4532Z" fill="#A90466"/>
<defs>
<linearGradient id="paint0_linear_4307_14127" x1="19.6504" y1="2.73004" x2="32.318" y2="49.5271" gradientUnits="userSpaceOnUse">
<stop stop-color="#FFC444"/>
<stop offset="0.9964" stop-color="#F36F56"/>
</linearGradient>
<linearGradient id="paint1_linear_4307_14127" x1="4.91213" y1="48.0309" x2="41.2328" y2="48.0309" gradientUnits="userSpaceOnUse">
<stop stop-color="#444B8C"/>
<stop offset="0.9964" stop-color="#26264F"/>
</linearGradient>
<linearGradient id="paint2_linear_4307_14127" x1="4.91209" y1="48.0309" x2="41.2328" y2="48.0309" gradientUnits="userSpaceOnUse">
<stop stop-color="#444B8C"/>
<stop offset="0.9964" stop-color="#26264F"/>
</linearGradient>
<linearGradient id="paint3_linear_4307_14127" x1="39.3027" y1="21.5829" x2="15.8985" y2="59.8806" gradientUnits="userSpaceOnUse">
<stop stop-color="white"/>
<stop offset="0.9964" stop-color="#EBEFF2"/>
</linearGradient>
<linearGradient id="paint4_linear_4307_14127" x1="9.86622" y1="50.512" x2="38.1275" y2="50.512" gradientUnits="userSpaceOnUse">
<stop stop-color="#AA80F9"/>
<stop offset="0.9964" stop-color="#6165D7"/>
</linearGradient>
<linearGradient id="paint5_linear_4307_14127" x1="13.624" y1="42.6516" x2="34.6965" y2="42.6516" gradientUnits="userSpaceOnUse">
<stop stop-color="#FF9085"/>
<stop offset="1" stop-color="#FB6FBB"/>
</linearGradient>
<linearGradient id="paint6_linear_4307_14127" x1="24.2383" y1="42.2498" x2="23.4943" y2="30.8615" gradientUnits="userSpaceOnUse">
<stop stop-color="#893976"/>
<stop offset="1" stop-color="#311944"/>
</linearGradient>
<linearGradient id="paint7_linear_4307_14127" x1="25.5526" y1="31.9226" x2="13.2487" y2="40.6784" gradientUnits="userSpaceOnUse">
<stop stop-color="#893976"/>
<stop offset="1" stop-color="#311944"/>
</linearGradient>
<linearGradient id="paint8_linear_4307_14127" x1="55.1074" y1="47.5415" x2="86.6625" y2="47.5415" gradientUnits="userSpaceOnUse">
<stop stop-color="#444B8C"/>
<stop offset="0.9964" stop-color="#26264F"/>
</linearGradient>
<linearGradient id="paint9_linear_4307_14127" x1="55.1074" y1="47.5415" x2="86.6625" y2="47.5415" gradientUnits="userSpaceOnUse">
<stop stop-color="#444B8C"/>
<stop offset="0.9964" stop-color="#26264F"/>
</linearGradient>
<linearGradient id="paint10_linear_4307_14127" x1="68.5877" y1="48.4163" x2="83.2901" y2="39.575" gradientUnits="userSpaceOnUse">
<stop stop-color="white"/>
<stop offset="0.9964" stop-color="#EBEFF2"/>
</linearGradient>
<linearGradient id="paint11_linear_4307_14127" x1="59.4873" y1="49.8663" x2="84.0419" y2="49.8663" gradientUnits="userSpaceOnUse">
<stop stop-color="#AA80F9"/>
<stop offset="0.9964" stop-color="#6165D7"/>
</linearGradient>
<linearGradient id="paint12_linear_4307_14127" x1="62.7432" y1="42.5642" x2="81.0525" y2="42.5642" gradientUnits="userSpaceOnUse">
<stop stop-color="#AB316D"/>
<stop offset="1" stop-color="#792D3D"/>
</linearGradient>
<linearGradient id="paint13_linear_4307_14127" x1="71.7828" y1="35.9873" x2="71.8171" y2="42.6437" gradientUnits="userSpaceOnUse">
<stop offset="0.0036" stop-color="#F36F56"/>
<stop offset="1" stop-color="#FFC444"/>
</linearGradient>
<linearGradient id="paint14_linear_4307_14127" x1="72.7561" y1="26.8502" x2="71.0834" y2="37.1803" gradientUnits="userSpaceOnUse">
<stop offset="0.0036" stop-color="#F36F56"/>
<stop offset="1" stop-color="#FFC444"/>
</linearGradient>
<linearGradient id="paint15_linear_4307_14127" x1="71.8732" y1="28.9705" x2="71.0603" y2="33.9909" gradientUnits="userSpaceOnUse">
<stop stop-color="#444B8C"/>
<stop offset="0.9964" stop-color="#26264F"/>
</linearGradient>
<linearGradient id="paint16_linear_4307_14127" x1="75.4267" y1="27.3814" x2="73.7696" y2="37.6156" gradientUnits="userSpaceOnUse">
<stop offset="0.0036" stop-color="#F36F56"/>
<stop offset="1" stop-color="#FFC444"/>
</linearGradient>
<linearGradient id="paint17_linear_4307_14127" x1="70.2548" y1="26.3194" x2="68.563" y2="36.7677" gradientUnits="userSpaceOnUse">
<stop offset="0.0036" stop-color="#F36F56"/>
<stop offset="1" stop-color="#FFC444"/>
</linearGradient>
<linearGradient id="paint18_linear_4307_14127" x1="78.5254" y1="40.0138" x2="62.3477" y2="75.3823" gradientUnits="userSpaceOnUse">
<stop stop-color="#AA80F9"/>
<stop offset="0.9964" stop-color="#6165D7"/>
</linearGradient>
<linearGradient id="paint19_linear_4307_14127" x1="75.2854" y1="61.9684" x2="63.9794" y2="81.5704" gradientUnits="userSpaceOnUse">
<stop stop-color="#FFC444"/>
<stop offset="0.9964" stop-color="#F36F56"/>
</linearGradient>
<linearGradient id="paint20_linear_4307_14127" x1="28.1074" y1="47.5985" x2="67.2575" y2="47.5985" gradientUnits="userSpaceOnUse">
<stop stop-color="#444B8C"/>
<stop offset="0.9964" stop-color="#26264F"/>
</linearGradient>
<linearGradient id="paint21_linear_4307_14127" x1="57.2685" y1="12.2479" x2="59.9027" y2="12.2479" gradientUnits="userSpaceOnUse">
<stop stop-color="#AB316D"/>
<stop offset="1" stop-color="#792D3D"/>
</linearGradient>
<linearGradient id="paint22_linear_4307_14127" x1="67.249" y1="16.0686" x2="39.3665" y2="61.6945" gradientUnits="userSpaceOnUse">
<stop stop-color="white"/>
<stop offset="0.9964" stop-color="#EBEFF2"/>
</linearGradient>
<linearGradient id="paint23_linear_4307_14127" x1="33.6445" y1="50.6926" x2="64.1106" y2="50.6926" gradientUnits="userSpaceOnUse">
<stop stop-color="#AA80F9"/>
<stop offset="0.9964" stop-color="#6165D7"/>
</linearGradient>
<linearGradient id="paint24_linear_4307_14127" x1="50.692" y1="31.8554" x2="48.2919" y2="42.9224" gradientUnits="userSpaceOnUse">
<stop stop-color="#AA80F9"/>
<stop offset="0.9964" stop-color="#6165D7"/>
</linearGradient>
<linearGradient id="paint25_linear_4307_14127" x1="48.9089" y1="32.3188" x2="48.9549" y2="41.2412" gradientUnits="userSpaceOnUse">
<stop offset="0.0036" stop-color="#F36F56"/>
<stop offset="1" stop-color="#FFC444"/>
</linearGradient>
<linearGradient id="paint26_linear_4307_14127" x1="58.1346" y1="16.0123" x2="37.2466" y2="41.0207" gradientUnits="userSpaceOnUse">
<stop stop-color="#AB316D"/>
<stop offset="1" stop-color="#792D3D"/>
</linearGradient>
<linearGradient id="paint27_linear_4307_14127" x1="50.1824" y1="19.3663" x2="48.1169" y2="33.2856" gradientUnits="userSpaceOnUse">
<stop offset="0.0036" stop-color="#F36F56"/>
<stop offset="1" stop-color="#FFC444"/>
</linearGradient>
<linearGradient id="paint28_linear_4307_14127" x1="58.9013" y1="16.6524" x2="38.0133" y2="41.6608" gradientUnits="userSpaceOnUse">
<stop stop-color="#AB316D"/>
<stop offset="1" stop-color="#792D3D"/>
</linearGradient>
</defs>
</svg>
