<svg width="965" height="209" viewBox="0 0 965 209" fill="none" xmlns="http://www.w3.org/2000/svg">
<path opacity="0.67" d="M447.128 183.294C445.466 182.486 443.467 183.179 442.661 184.845C441.854 186.51 442.547 188.516 444.207 189.325C447.809 191.08 451.588 192.747 455.44 194.28C455.844 194.441 456.261 194.517 456.672 194.517C458.001 194.517 459.259 193.716 459.779 192.401C460.46 190.68 459.622 188.731 457.905 188.048C454.208 186.576 450.581 184.977 447.128 183.294ZM469.017 192.035C467.261 191.469 465.377 192.439 464.813 194.202C464.248 195.965 465.216 197.852 466.974 198.418C470.779 199.643 474.736 200.782 478.732 201.803C479.009 201.874 479.286 201.908 479.559 201.908C481.052 201.908 482.411 200.899 482.796 199.382C483.252 197.588 482.171 195.763 480.382 195.306C476.517 194.319 472.694 193.218 469.017 192.035ZM423.064 176.713C426.325 179.082 429.793 181.362 433.374 183.489C433.908 183.807 434.495 183.958 435.075 183.958C436.217 183.958 437.329 183.371 437.953 182.315C438.895 180.722 438.37 178.666 436.782 177.722C433.377 175.698 430.081 173.532 426.986 171.284C425.49 170.197 423.401 170.532 422.318 172.032C421.235 173.531 421.569 175.628 423.064 176.713ZM26.9851 82.3388C30.4984 80.6202 34.138 78.7827 37.8028 76.8766C39.4418 76.0243 40.0812 74.0009 39.2313 72.3572C38.3815 70.7135 36.3632 70.0723 34.7249 70.9246C31.1084 72.8055 27.5179 74.6186 24.0541 76.3128C22.3949 77.1245 21.7056 79.1312 22.515 80.7953C23.0941 81.9862 24.2836 82.6791 25.5214 82.6791C26.0139 82.6791 26.5133 82.5698 26.9851 82.3388ZM59.045 65.2835C60.651 64.3704 61.2144 62.3243 60.3039 60.7137C59.3929 59.103 57.3531 58.5376 55.7471 59.4512C52.1678 61.4865 48.6474 63.451 45.2839 65.2893C43.663 66.1755 43.065 68.2113 43.9483 69.8372C44.555 70.9531 45.702 71.5856 46.8862 71.5856C47.4265 71.5856 47.9746 71.454 48.4827 71.1762C51.8797 69.3202 55.433 67.3374 59.045 65.2835ZM81.182 48.7154C80.2735 47.1031 78.235 46.5344 76.6273 47.4454C73.3554 49.299 69.9304 51.2623 66.1558 53.4475C64.5573 54.373 64.0091 56.4233 64.932 58.0268C65.5512 59.1022 66.6751 59.7037 67.83 59.7037C68.3971 59.7037 68.9716 59.5588 69.4983 59.2541C73.2543 57.0793 76.6616 55.1264 79.9153 53.2831C81.5233 52.3725 82.0901 50.3272 81.182 48.7154ZM327.256 63.1087C330.015 65.4714 333.229 68.2195 336.46 70.9345C337.086 71.4606 337.848 71.7177 338.605 71.7177C339.56 71.7177 340.508 71.3099 341.169 70.5185C342.355 69.0995 342.169 66.9852 340.754 65.7959C337.545 63.0992 334.345 60.3631 331.597 58.0098C330.193 56.8074 328.083 56.9746 326.885 58.3824C325.685 59.7906 325.852 61.9066 327.256 63.1087ZM131.95 26.4925C132.388 26.4925 132.833 26.4056 133.261 26.2222C136.993 24.6244 140.708 23.1119 144.303 21.7265C146.027 21.0625 146.887 19.1233 146.225 17.3951C145.563 15.6665 143.629 14.8039 141.906 15.4678C138.234 16.8826 134.442 18.4262 130.636 20.0563C128.938 20.7835 128.15 22.753 128.874 24.4555C129.416 25.7296 130.651 26.4925 131.95 26.4925ZM3.60071 92.616C4.02667 92.616 4.46047 92.5336 4.87859 92.3602C8.52771 90.8447 12.2738 89.2151 16.0138 87.5167C17.6953 86.7534 18.4415 84.767 17.6804 83.0806C16.9189 81.3938 14.9385 80.6462 13.2566 81.4091C9.58229 83.0773 5.90304 84.6776 2.32038 86.1656C0.614481 86.8739 -0.195349 88.8351 0.511279 90.5455C1.04455 91.8365 2.28899 92.616 3.60071 92.616ZM110.11 36.648C110.61 36.648 111.117 36.5349 111.595 36.2969C115.253 34.4735 118.875 32.7251 122.363 31.1C124.037 30.3197 124.763 28.3262 123.986 26.6473C123.208 24.9684 121.22 24.2399 119.546 25.0197C116.005 26.6697 112.329 28.4438 108.619 30.2937C106.966 31.1178 106.292 33.1299 107.114 34.7877C107.699 35.9658 108.881 36.648 110.11 36.648ZM619.875 186.764L618.834 187.252C615.807 188.668 612.514 190.021 609.044 191.273C607.308 191.9 606.407 193.82 607.031 195.562C607.522 196.929 608.807 197.78 610.177 197.78C610.553 197.78 610.935 197.716 611.309 197.581C614.968 196.26 618.451 194.83 621.661 193.327L622.699 192.841C624.373 192.059 625.097 190.065 624.317 188.387C623.537 186.709 621.548 185.982 619.875 186.764ZM629.139 186.093C629.715 187.293 630.909 187.993 632.154 187.993C632.64 187.993 633.133 187.886 633.6 187.661C637.428 185.814 640.975 184.071 644.442 182.333C646.093 181.505 646.763 179.492 645.937 177.836C645.112 176.18 643.103 175.508 641.453 176.336C638.016 178.059 634.5 179.787 630.703 181.618C629.039 182.421 628.339 184.424 629.139 186.093ZM775.127 99.2132C775.731 99.2132 776.341 99.0493 776.892 98.7058C780.283 96.5868 783.721 94.4973 787.113 92.4943C788.704 91.5551 789.234 89.4999 788.297 87.9046C787.361 86.3093 785.311 85.7778 783.721 86.717C780.281 88.7482 776.795 90.8671 773.357 93.015C771.79 93.994 771.311 96.0616 772.287 97.6329C772.921 98.6532 774.011 99.2132 775.127 99.2132ZM755.005 112.457C755.659 112.457 756.321 112.265 756.9 111.864C760.188 109.59 763.526 107.337 766.82 105.167C768.364 104.151 768.794 102.073 767.78 100.525C766.767 98.9777 764.695 98.5468 763.151 99.563C759.814 101.76 756.434 104.042 753.104 106.345C751.584 107.396 751.202 109.483 752.25 111.007C752.899 111.95 753.943 112.457 755.005 112.457ZM956.108 40.7331C956.13 40.7331 956.151 40.7331 956.173 40.7323C957.985 40.6979 959.831 40.6805 961.659 40.6805C963.505 40.6805 965.001 39.1796 965.001 37.3281C965 35.4765 963.504 33.976 961.658 33.9764C959.789 33.9764 957.901 33.9946 956.047 34.0298C954.201 34.0646 952.733 35.5937 952.768 37.4448C952.802 39.2735 954.291 40.7331 956.108 40.7331ZM695.227 152.975C695.839 152.975 696.458 152.807 697.013 152.453C700.261 150.389 703.675 148.183 707.16 145.899C708.706 144.887 709.14 142.809 708.13 141.259C707.12 139.709 705.048 139.274 703.504 140.287C700.043 142.555 696.655 144.743 693.434 146.791C691.874 147.783 691.412 149.854 692.4 151.417C693.037 152.424 694.12 152.975 695.227 152.975ZM539.165 202.296C537.318 202.301 535.827 203.807 535.833 205.658C535.838 207.506 537.334 209 539.175 209C539.178 209 539.182 209 539.185 209C543.243 208.987 547.343 208.879 551.371 208.678C553.215 208.585 554.635 207.012 554.543 205.163C554.451 203.314 552.89 201.895 551.038 201.981C547.114 202.178 543.119 202.283 539.165 202.296ZM515.428 201.255C513.597 201.086 511.963 202.445 511.795 204.289C511.627 206.133 512.982 207.764 514.82 207.932C518.831 208.3 522.927 208.576 526.994 208.754C527.044 208.756 527.093 208.757 527.143 208.757C528.922 208.757 530.402 207.351 530.48 205.551C530.56 203.701 529.13 202.137 527.286 202.056C523.323 201.883 519.334 201.613 515.428 201.255ZM102.35 37.2329C101.493 35.5937 99.4726 34.9616 97.8373 35.8222C94.4288 37.6157 90.8432 39.5447 87.1805 41.5551C85.5613 42.4439 84.9669 44.4812 85.8535 46.1051C86.4611 47.2186 87.6065 47.8486 88.7886 47.8486C89.3309 47.8486 89.8811 47.7157 90.3904 47.4363C94.0189 45.4445 97.5698 43.5342 100.944 41.7588C102.578 40.8986 103.208 38.8725 102.35 37.2329ZM491.938 197.908C490.126 197.55 488.37 198.738 488.016 200.555C487.662 202.372 488.843 204.133 490.655 204.488C494.588 205.259 498.639 205.943 502.696 206.519C502.855 206.542 503.013 206.553 503.169 206.553C504.807 206.553 506.238 205.343 506.474 203.67C506.733 201.837 505.462 200.14 503.634 199.881C499.692 199.32 495.757 198.657 491.938 197.908ZM597.816 194.818C594.14 195.829 590.272 196.758 586.321 197.577C584.513 197.952 583.35 199.725 583.724 201.539C584.051 203.123 585.442 204.213 586.994 204.213C587.218 204.213 587.446 204.19 587.674 204.143C591.764 203.294 595.771 202.332 599.584 201.284C601.365 200.794 602.412 198.95 601.924 197.164C601.436 195.379 599.595 194.327 597.816 194.818ZM574.655 199.652C570.815 200.228 566.853 200.717 562.88 201.108C561.043 201.288 559.699 202.928 559.879 204.77C560.048 206.502 561.502 207.796 563.202 207.796C563.311 207.796 563.421 207.791 563.531 207.78C567.617 207.379 571.692 206.875 575.643 206.283C577.469 206.009 578.728 204.302 578.455 202.471C578.182 200.64 576.484 199.375 574.655 199.652ZM395.592 136.9C394.627 135.321 392.569 134.826 390.996 135.794C389.422 136.761 388.928 138.825 389.893 140.403C392.045 143.924 394.372 147.37 396.81 150.643C397.466 151.525 398.472 151.989 399.491 151.989C400.187 151.989 400.888 151.773 401.489 151.323C402.968 150.215 403.271 148.115 402.166 146.631C399.85 143.522 397.638 140.247 395.592 136.9ZM747.874 114.09C746.82 112.571 744.736 112.198 743.221 113.255C739.818 115.632 736.531 117.916 733.35 120.117C731.831 121.167 731.448 123.255 732.496 124.779C733.145 125.722 734.189 126.229 735.251 126.229C735.905 126.229 736.566 126.037 737.145 125.636C740.334 123.43 743.63 121.14 747.041 118.757C748.556 117.699 748.929 115.61 747.874 114.09ZM381.278 104.707C380.733 102.9 380.219 101.067 379.738 99.219C379.977 98.998 380.188 98.7381 380.361 98.4417C381.291 96.8426 380.753 94.7899 379.158 93.8569C378.887 93.698 378.614 93.5378 378.343 93.3772C378.336 93.3466 378.33 93.3163 378.323 93.2861C377.93 91.4768 376.149 90.3294 374.346 90.7239C374.259 90.7425 374.174 90.7649 374.09 90.7901C372.41 89.7391 370.748 88.6654 369.116 87.5763C367.58 86.5498 365.504 86.9678 364.482 88.5089C363.458 90.05 363.875 92.1313 365.411 93.157C367.713 94.6935 370.073 96.2002 372.46 97.6577C373.18 100.691 373.991 103.704 374.88 106.649C375.317 108.097 376.643 109.031 378.077 109.031C378.398 109.031 378.724 108.984 379.047 108.886C380.814 108.35 381.813 106.479 381.278 104.707ZM240.625 6.73669C240.966 4.91704 239.772 3.16444 237.958 2.82253C233.96 2.06793 229.847 1.4938 225.732 1.11546C223.894 0.944095 222.266 2.30387 222.098 4.14794C221.93 5.9916 223.283 7.62334 225.122 7.79222C229.027 8.1511 232.93 8.69582 236.722 9.41151C236.931 9.45084 237.138 9.46988 237.343 9.46988C238.92 9.46988 240.323 8.3469 240.625 6.73669ZM413.43 168.952C414.067 169.522 414.861 169.802 415.653 169.802C416.573 169.802 417.488 169.423 418.149 168.681C419.378 167.299 419.257 165.18 417.879 163.948C415.459 161.784 413.134 159.509 410.965 157.184C410.508 156.693 410.054 156.199 409.605 155.701C408.366 154.329 406.253 154.224 404.884 155.466C403.515 156.708 403.41 158.828 404.649 160.201C405.122 160.725 405.601 161.247 406.083 161.764C408.389 164.236 410.861 166.654 413.43 168.952ZM662.622 165.189C659.149 167.116 655.708 168.974 652.103 170.871C650.468 171.73 649.838 173.757 650.696 175.397C651.293 176.539 652.456 177.192 653.659 177.192C654.182 177.192 654.713 177.069 655.209 176.808C658.858 174.888 662.341 173.007 665.857 171.056C667.473 170.16 668.058 168.12 667.165 166.501C666.271 164.881 664.238 164.294 662.622 165.189ZM303.64 34.8399C300.214 32.2056 297 29.8437 293.815 27.6188C292.3 26.5604 290.217 26.9342 289.162 28.4537C288.107 29.9729 288.479 32.0624 289.995 33.1204C293.095 35.2861 296.228 37.5889 299.572 40.1606C300.179 40.6271 300.894 40.8527 301.604 40.8527C302.607 40.8527 303.601 40.4007 304.258 39.5401C305.382 38.0707 305.105 35.9662 303.64 34.8399ZM683.275 153.132C679.807 155.255 676.352 157.32 673.01 159.274C671.414 160.206 670.875 162.258 671.804 163.858C672.425 164.927 673.544 165.523 674.695 165.523C675.267 165.523 675.846 165.376 676.375 165.067C679.757 163.091 683.249 161.001 686.757 158.855C688.333 157.891 688.831 155.828 687.869 154.247C686.908 152.667 684.851 152.168 683.275 153.132ZM386.922 131.45C387.422 131.45 387.929 131.337 388.408 131.099C390.061 130.274 390.735 128.262 389.913 126.604C388.188 123.126 386.583 119.505 385.14 115.843C384.462 114.12 382.521 113.276 380.804 113.956C379.087 114.636 378.244 116.583 378.922 118.305C380.434 122.144 382.118 125.941 383.927 129.589C384.51 130.767 385.693 131.45 386.922 131.45ZM360.116 85.4065C361.217 83.9205 360.908 81.8206 359.426 80.7166C356.416 78.4743 353.331 76.0838 349.999 73.4086C348.558 72.2516 346.454 72.4855 345.3 73.931C344.147 75.376 344.379 77.4859 345.821 78.6428C349.217 81.3694 352.364 83.8083 355.439 86.0994C356.038 86.5456 356.737 86.7605 357.43 86.7605C358.452 86.7605 359.46 86.2923 360.116 85.4065ZM320.266 56.0822C321.215 56.0822 322.157 55.6794 322.818 54.8966C324.011 53.4839 323.837 51.3687 322.428 50.172C318.869 47.1482 315.918 44.6803 313.144 42.4054C311.715 41.2331 309.608 41.445 308.44 42.8785C307.271 44.312 307.483 46.4238 308.912 47.5957C311.656 49.8458 314.578 52.2897 318.107 55.2878C318.735 55.8214 319.503 56.0822 320.266 56.0822ZM283.581 20.9061C279.989 18.7097 276.385 16.6848 272.869 14.8858C271.225 14.0447 269.211 14.6999 268.373 16.3491C267.534 17.9982 268.187 20.0173 269.832 20.8584C273.198 22.58 276.653 24.5222 280.101 26.6303C280.644 26.9623 281.244 27.1209 281.837 27.1209C282.965 27.1209 284.065 26.5492 284.695 25.5132C285.656 23.9323 285.157 21.8697 283.581 20.9061ZM727.209 132.465C728.735 131.423 729.131 129.338 728.091 127.807C727.053 126.276 724.973 125.881 723.448 126.922C720.001 129.275 716.655 131.539 713.503 133.653C711.969 134.683 711.556 136.765 712.583 138.304C713.227 139.27 714.286 139.792 715.365 139.792C716.003 139.792 716.649 139.609 717.22 139.226C720.387 137.102 723.748 134.827 727.209 132.465ZM804.929 74.9335C801.385 76.7784 797.791 78.7132 794.245 80.6847C792.63 81.5826 792.047 83.6228 792.942 85.2417C793.552 86.3461 794.693 86.9695 795.868 86.9695C796.417 86.9695 796.972 86.8341 797.486 86.5485C800.979 84.6063 804.519 82.7006 808.009 80.8838C809.647 80.0311 810.286 78.0074 809.436 76.3641C808.585 74.7199 806.567 74.0804 804.929 74.9335ZM263.509 14.1167C264.198 12.3989 263.367 10.4468 261.654 9.75677C259.615 8.93469 257.545 8.16228 255.501 7.46066C253.678 6.83479 251.818 6.24412 249.972 5.70393C248.199 5.18527 246.344 6.20603 245.827 7.98388C245.311 9.76131 246.329 11.6223 248.101 12.1406C249.848 12.6518 251.61 13.2114 253.336 13.8038C255.27 14.4677 257.23 15.1991 259.162 15.9773C259.57 16.1421 259.992 16.2199 260.407 16.2199C261.732 16.2203 262.985 15.4252 263.509 14.1167ZM861.74 57.5628C862.093 57.5628 862.452 57.5065 862.804 57.3877C866.572 56.1194 870.394 54.9058 874.164 53.7803C875.934 53.2525 876.942 51.3857 876.415 49.6111C875.889 47.8366 874.027 46.8262 872.258 47.3544C868.414 48.5014 864.517 49.7386 860.677 51.0318C858.926 51.6212 857.984 53.5216 858.571 55.2766C859.041 56.6778 860.343 57.5628 861.74 57.5628ZM885.64 50.5785C889.481 49.5813 893.377 48.6462 897.218 47.7997C899.022 47.4024 900.163 45.6142 899.766 43.8061C899.369 41.9981 897.589 40.8539 895.783 41.2517C891.862 42.116 887.885 43.0706 883.964 44.0884C882.177 44.5525 881.103 46.3812 881.565 48.174C881.956 49.6848 883.312 50.687 884.799 50.687C885.077 50.6861 885.359 50.6513 885.64 50.5785ZM169.153 10.0304C168.652 8.24796 166.805 7.20941 165.029 7.71193C161.222 8.7865 157.298 10.0022 153.367 11.326C151.617 11.9154 150.675 13.8154 151.262 15.5709C151.731 16.972 153.034 17.857 154.431 17.857C154.784 17.857 155.142 17.8007 155.495 17.6819C159.322 16.3934 163.139 15.2103 166.84 14.1656C168.618 13.6639 169.653 11.8123 169.153 10.0304ZM908.889 45.4594C912.789 44.7544 916.741 44.1195 920.636 43.5714C922.465 43.314 923.739 41.6193 923.482 39.786C923.226 37.9527 921.539 36.6757 919.707 36.9319C915.727 37.492 911.688 38.1414 907.703 38.8609C905.887 39.1891 904.679 40.9326 905.006 42.7543C905.298 44.3753 906.706 45.5128 908.292 45.5128C908.489 45.5132 908.688 45.4958 908.889 45.4594ZM947.434 37.6538C947.323 35.8056 945.746 34.3953 943.898 34.5071C939.878 34.7476 935.8 35.0738 931.779 35.4773C929.942 35.6615 928.602 37.3045 928.785 39.1469C928.957 40.8755 930.411 42.1657 932.107 42.1657C932.218 42.1657 932.331 42.1599 932.444 42.1487C936.377 41.7543 940.365 41.4351 944.296 41.2004C946.138 41.0895 947.543 39.502 947.434 37.6538ZM192.744 5.25727C192.464 3.42727 190.759 2.17305 188.933 2.45245C184.995 3.05887 180.943 3.82136 176.889 4.7196C175.086 5.11863 173.948 6.90806 174.346 8.71571C174.69 10.28 176.073 11.3454 177.607 11.3454C177.845 11.3454 178.088 11.3198 178.33 11.266C182.243 10.3996 186.152 9.66361 189.947 9.07914C191.773 8.79849 193.024 7.08727 192.744 5.25727ZM849.231 55.1024C845.482 56.5064 841.679 58.0016 837.927 59.5468C836.219 60.2501 835.404 62.2088 836.105 63.9212C836.636 65.2173 837.883 66.0008 839.198 66.0008C839.621 66.0008 840.051 65.9197 840.467 65.7488C844.152 64.2309 847.888 62.7622 851.57 61.383C853.299 60.7352 854.177 58.8042 853.532 57.0698C852.886 55.3354 850.959 54.4546 849.231 55.1024ZM826.773 64.3459C823.125 65.9826 819.424 67.71 815.773 69.4812C814.111 70.2871 813.415 72.2918 814.219 73.9587C814.796 75.1554 815.989 75.8521 817.23 75.8521C817.718 75.8521 818.214 75.7444 818.683 75.5172C822.275 73.7754 825.915 72.0757 829.503 70.4664C831.188 69.7105 831.944 67.7274 831.189 66.0373C830.436 64.3476 828.458 63.5909 826.773 64.3459ZM216.754 3.90082C216.757 2.04929 215.263 0.545885 213.418 0.54216L213.061 0.541748C209.156 0.541748 205.141 0.703602 201.128 1.02233C199.288 1.16845 197.914 2.7832 198.06 4.62852C198.199 6.38443 199.662 7.71647 201.388 7.71647C201.477 7.71647 201.566 7.71315 201.656 7.7057C205.494 7.40105 209.332 7.24625 213.061 7.24625L213.405 7.24666C213.407 7.24666 213.409 7.24666 213.411 7.24666C215.254 7.24666 216.75 5.74986 216.754 3.90082Z" fill="#A90466"/>
</svg>
