<svg width="24" height="24" viewBox="0 0 24 24" fill="none" xmlns="http://www.w3.org/2000/svg">
<path d="M22.9332 19.3877H19.488C18.5735 15.377 12.8904 15.377 11.9759 19.3877H0.802139C0.589399 19.3877 0.385371 19.4722 0.234941 19.6227C0.0845108 19.7731 0 19.9771 0 20.1899C0 20.4026 0.0845108 20.6066 0.234941 20.7571C0.385371 20.9075 0.589399 20.992 0.802139 20.992H11.988C12.9064 25.0027 18.5896 25.0027 19.5 20.992H22.9332C23.1459 20.992 23.3499 20.9075 23.5004 20.7571C23.6508 20.6066 23.7353 20.4026 23.7353 20.1899C23.7353 19.9771 23.6508 19.7731 23.5004 19.6227C23.3499 19.4722 23.1459 19.3877 22.9332 19.3877ZM15.746 22.4278C12.7861 22.3236 12.7861 18.0562 15.746 17.9519C18.7059 18.0562 18.7059 22.3236 15.746 22.4278Z" fill="#A90466"/>
<path d="M22.9332 11.1978H10.4719C9.55749 7.18715 3.87433 7.18715 2.95989 11.1978H0.802139C0.589399 11.1978 0.385371 11.2824 0.234941 11.4328C0.0845108 11.5832 0 11.7872 0 12C0 12.2127 0.0845108 12.4167 0.234941 12.5672C0.385371 12.7176 0.589399 12.8021 0.802139 12.8021H2.95989C3.87433 16.8128 9.55749 16.8128 10.4719 12.8021H22.9332C23.1459 12.8021 23.3499 12.7176 23.5004 12.5672C23.6508 12.4167 23.7353 12.2127 23.7353 12C23.7353 11.7872 23.6508 11.5832 23.5004 11.4328C23.3499 11.2824 23.1459 11.1978 22.9332 11.1978ZM6.71792 14.2379C3.75802 14.1417 3.76203 9.85426 6.71792 9.76201C9.6738 9.85827 9.6738 14.1457 6.71792 14.2379Z" fill="#A90466"/>
<path d="M0.802139 4.6123H8.10963C9.02808 8.623 14.7112 8.623 15.6257 4.6123H22.9332C23.1459 4.6123 23.3499 4.52779 23.5004 4.37736C23.6508 4.22693 23.7353 4.0229 23.7353 3.81016C23.7353 3.59742 23.6508 3.39339 23.5004 3.24296C23.3499 3.09253 23.1459 3.00802 22.9332 3.00802H15.6257C14.7072 -1.00267 9.02407 -1.00267 8.10963 3.00802H0.802139C0.589399 3.00802 0.385371 3.09253 0.234941 3.24296C0.0845108 3.39339 0 3.59742 0 3.81016C0 4.0229 0.0845108 4.22693 0.234941 4.37736C0.385371 4.52779 0.589399 4.6123 0.802139 4.6123ZM11.8676 1.57219C14.8275 1.67647 14.8275 5.94385 11.8676 6.04813C8.90775 5.94385 8.90775 1.67647 11.8676 1.57219Z" fill="#A90466"/>
</svg>
